<?xml version="1.0" encoding="UTF-8" standalone="no"?>
<svg
   xmlns:dc="http://purl.org/dc/elements/1.1/"
   xmlns:cc="http://creativecommons.org/ns#"
   xmlns:rdf="http://www.w3.org/1999/02/22-rdf-syntax-ns#"
   xmlns:svg="http://www.w3.org/2000/svg"
   xmlns="http://www.w3.org/2000/svg"
   viewBox="0 0 2031.3159 1006.0337"
   height="1006.0337"
   width="2031.9618"
   xml:space="preserve"
   id="svg29"
   version="1.1"><metadata
     id="metadata35"><rdf:RDF><cc:Work
         rdf:about=""><dc:format>image/svg+xml</dc:format><dc:type
           rdf:resource="http://purl.org/dc/dcmitype/StillImage" /><dc:title></dc:title></cc:Work></rdf:RDF></metadata><defs
     id="defs33" /><g
     transform="matrix(1.3333333,0,0,-1.3333333,-130.59429,4750.4906)"
     id="g37"><g
       id="g6713"><g
         transform="scale(0.208588)"
         id="g317"><path
           id="path319"
           style="fill:#00695c;fill-opacity:1;fill-rule:nonzero;stroke:none"
           d="m 3751.9,14996 c -99.49,239.3 -286.66,431 -481.51,596.5 -189.39,160.8 -403.3,291.4 -629.14,394.2 -452.38,205.9 -961.44,283.4 -1454.33,221.3 -18.57,-2.3 -20.04,26.7 -1.61,29 500.59,63 1009.04,-19.6 1469.16,-224.5 229.12,-102.1 442.81,-237.9 635.25,-398.4 199.48,-166.5 388.78,-366.2 489.66,-608.9 7.2,-17.3 -20.35,-26.4 -27.48,-9.2" /></g><g
         transform="scale(0.204058)"
         id="g321"><path
           id="path323"
           style="fill:#7cb342;fill-opacity:1;fill-rule:nonzero;stroke:none"
           d="m 3332.22,15968.4 c 34.72,62.2 32.02,147.4 83.23,201.8 25.58,27.2 61.09,46.9 89.81,71 23.87,20 45.69,41.4 72.3,57.7 1.88,1.1 5.11,-0.6 4.18,-3 -24.23,-63 -58.42,-122.3 -83.48,-185.6 -25.5,-64.3 -114.37,-93.8 -153.02,-149 -5.33,-7.6 -17.79,-1.5 -13.02,7.1" /></g><g
         transform="scale(0.199768)"
         id="g325"><path
           id="path327"
           style="fill:#00695c;fill-opacity:1;fill-rule:nonzero;stroke:none"
           d="m 3121.69,15954.4 c 31.27,34.5 53.27,68.7 69.06,112.7 10.8,30.1 25.4,65.7 47.15,89.7 47.01,51.9 99.78,106.2 162.27,139 8.09,4.2 18.13,-3.8 13.33,-12.6 -17.92,-32.9 -36.23,-65.5 -52.98,-99 -17.62,-35.3 -24.58,-72.7 -48.1,-105.2 -43.23,-59.8 -113.81,-106.1 -179.41,-138.3 -8.86,-4.4 -18.55,5.8 -11.32,13.7" /></g><g
         transform="scale(0.207023)"
         id="g329"><path
           id="path331"
           style="fill:#7cb342;fill-opacity:1;fill-rule:nonzero;stroke:none"
           d="m 3127.45,15864.3 c 2.76,82.3 21.61,145.7 61.09,217.4 46.56,84.6 113.04,142.9 176.98,214.3 3.54,4 11.01,0.3 9.32,-5 -25.32,-79.2 -34.54,-162.6 -71.34,-237.5 -39.82,-81 -75.5,-141.2 -144.5,-201.1 -10.89,-9.5 -32.13,-5.6 -31.55,11.9" /></g><g
         transform="scale(0.201429)"
         id="g333"><path
           id="path335"
           style="fill:#00695c;fill-opacity:1;fill-rule:nonzero;stroke:none"
           d="m 2896.37,15924.2 c 50.01,70.9 66.62,158.3 114.6,228.7 35.63,52.3 92.03,112.8 153.63,132.9 0.14,7 4.49,13.8 12.8,14 1.42,0.1 2.85,0.1 4.27,0.1 3.78,0.1 7.19,-2.3 8.33,-5.9 l 1.28,-4.1 c 3.05,-9.6 -5.16,-18 -14.16,-17.6 -10.82,-32.6 -26.33,-57.7 -42.77,-88.8 -18.87,-35.7 -28.42,-75.9 -52.58,-108.6 -46.65,-63.3 -107.97,-118 -171.52,-163.7 -7.73,-5.6 -19.61,4.9 -13.88,13" /></g><g
         transform="scale(0.209678)"
         id="g337"><path
           id="path339"
           style="fill:#7cb342;fill-opacity:1;fill-rule:nonzero;stroke:none"
           d="m 2906.05,15789.4 c 0.17,1 0.34,2 0.52,3 0.28,1.6 1.34,1.7 2.06,2.5 -2.48,3.3 -3.92,7.6 -3.44,12 9.88,90.7 22.08,156.1 68.6,236.3 51.89,89.5 134.12,171.4 203.27,247.8 8.17,9 19.75,-1.7 15.93,-11.5 -42.4,-109 -79.86,-219.5 -122.46,-328.3 -29.07,-74.3 -69.05,-134.7 -147.64,-160.9 -1.4,-0.5 -2.54,-0.2 -3.82,-0.2 0.19,-2.2 -0.81,-4.2 -4.51,-5.2 -0.93,-0.3 -1.86,-0.6 -2.8,-0.8 -3.45,-1 -6.3,2 -5.71,5.3" /></g><g
         transform="scale(0.203194)"
         id="g341"><path
           id="path343"
           style="fill:#00695c;fill-opacity:1;fill-rule:nonzero;stroke:none"
           d="m 2687.27,15807.5 c -0.32,89.5 34.22,184.2 70.36,264.8 44.44,99.2 114.8,154.7 194.74,221.4 7.56,6.3 20.67,-1 14.94,-10.8 -47.06,-81 -58.5,-186 -96.1,-272.4 -34.29,-78.7 -85.25,-171.5 -164.01,-213.6 -8.34,-4.5 -19.89,0.1 -19.93,10.6" /></g><g
         transform="scale(0.212167)"
         id="g345"><path
           id="path347"
           style="fill:#7cb342;fill-opacity:1;fill-rule:nonzero;stroke:none"
           d="m 2665.27,15709.6 c -2.78,-2.2 -5.66,1.2 -5.35,3.9 0.07,0.6 0.28,1.3 0.36,1.9 -1.98,-1.9 -6.15,-0.5 -5,2.5 1.26,3.3 2.52,6.6 3.78,9.9 0.79,2 2.4,2.3 3.9,2 0.54,2.4 0.99,4.7 1.63,7.2 -37.26,221.5 82.57,406 232.41,558.3 4.63,4.7 11.46,0.2 10.59,-5.8 -27.17,-188.3 -86.42,-379.5 -205.24,-530.2 -8.97,-19.3 -22.18,-38 -37.08,-49.7" /></g><g
         transform="scale(0.204662)"
         id="g349"><path
           id="path351"
           style="fill:#00695c;fill-opacity:1;fill-rule:nonzero;stroke:none"
           d="m 2468.57,15743.4 c -21,229.3 84.25,397.9 242.77,553.1 3.6,3.5 9.78,0.4 8.63,-4.7 -47.22,-208.6 -69.28,-397.4 -224.28,-558.7 -9.89,-10.3 -25.89,-3.1 -27.12,10.3" /></g><g
         transform="scale(0.197548)"
         id="g353"><path
           id="path355"
           style="fill:#689f38;fill-opacity:1;fill-rule:nonzero;stroke:none"
           d="m 2542.04,16295.9 c -0.22,3.9 5.9,4.1 6.11,0.2 0.22,-4 -5.9,-4.2 -6.11,-0.2" /></g><g
         transform="scale(0.212947)"
         id="g357"><path
           id="path359"
           style="fill:#7cb342;fill-opacity:1;fill-rule:nonzero;stroke:none"
           d="m 2428.08,15728.6 c -28.99,190.9 -1.49,380.4 149.39,512.7 11.71,17.7 23.63,35.3 34.98,53.3 3.42,5.4 12.21,2.5 10.67,-4.1 -1.16,-5 -2.28,-10.3 -3.4,-15.8 1.19,-1.5 1.84,-3.4 0.97,-5.9 -2.04,-6 -2.92,-8.5 -4.51,-11.4 -1.42,-7 -2.92,-14.1 -4.55,-21.3 0.39,-2.1 1.08,-4.1 0.52,-6.6 -38.37,-177.1 -42.05,-364.7 -177.94,-503.3 -2.35,-2.4 -5.68,-0.6 -6.13,2.4" /></g><g
         transform="scale(0.206102)"
         id="g361"><path
           id="path363"
           style="fill:#00695c;fill-opacity:1;fill-rule:nonzero;stroke:none"
           d="m 2242.36,15682.6 c 23.08,97.5 13.05,192.9 26.7,291.2 6.51,47 15.83,82.6 38.75,123.9 34.83,62.8 105.38,95.6 130.22,168.4 11.58,33.9 59.19,6.1 36.63,-19.9 -53.69,-61.9 -19.64,-116.8 -22.71,-182.8 -2.52,-54 -15.85,-96.4 -35.48,-146.5 -34.85,-88.8 -99.11,-170.1 -161.64,-241.1 -4.94,-5.6 -14.12,-0.2 -12.47,6.8" /></g><g
         transform="scale(0.213234)"
         id="g365"><path
           id="path367"
           style="fill:#7cb342;fill-opacity:1;fill-rule:nonzero;stroke:none"
           d="m 2168.41,15818.3 c -10.87,84.7 -31.36,173.1 -3.1,255.7 25.87,75.6 78.69,155.8 124.87,220.6 3.81,5.4 13.16,4.6 13.31,-3.1 1.69,-86.9 5.08,-179.3 -3.18,-265.6 -7.3,-76.2 -59.22,-148.5 -88.63,-217.9 -9.86,-23.3 -40.68,-9.9 -43.27,10.3" /></g><g
         transform="scale(0.206729)"
         id="g369"><path
           id="path371"
           style="fill:#00695c;fill-opacity:1;fill-rule:nonzero;stroke:none"
           d="m 2045.43,15890 c 12.32,75.9 19.38,149.2 42.29,223 21.42,68.9 81.88,120.8 122.02,179.8 4.91,7.2 19.89,6.6 18.89,-4.5 -6.71,-74.4 3.33,-150.6 -25.28,-219.9 -30.9,-74.9 -87.5,-130.4 -144.71,-185.6 -5.79,-5.5 -14.45,-0.5 -13.21,7.2" /></g><g
         transform="scale(0.213488)"
         id="g373"><path
           id="path375"
           style="fill:#7cb342;fill-opacity:1;fill-rule:nonzero;stroke:none"
           d="m 1945.53,15844.7 c -40.53,80.6 -62.17,136.7 -46.22,227.2 12.81,72.6 45.5,164.9 89.92,224.7 2.55,3.4 7.71,1.2 8.94,-2.1 26.67,-72.5 28.79,-160 36.18,-236.7 8.09,-83.9 -27.74,-142.1 -67.44,-212.4 -4.22,-7.5 -17.05,-9.3 -21.38,-0.7" /></g><g
         transform="scale(0.207294)"
         id="g377"><path
           id="path379"
           style="fill:#00695c;fill-opacity:1;fill-rule:nonzero;stroke:none"
           d="m 1892.79,15945.4 c -6.06,32.7 -2.35,63.9 -3.22,97.1 -0.96,36.3 -6.52,73 -0.26,109.2 11.12,64.3 63.6,112.7 117.34,146.2 3.4,2.1 9.37,0.7 10.17,-3.8 9.24,-51.8 25.79,-118.6 5.07,-168.5 -11.93,-28.8 -27.2,-55.1 -43.2,-81.8 -19.9,-33.1 -30.42,-70.2 -52.47,-101.7 -7.79,-11.2 -30.19,-14.1 -33.43,3.3" /></g><g
         transform="scale(0.213096)"
         id="g381"><path
           id="path383"
           style="fill:#7cb342;fill-opacity:1;fill-rule:nonzero;stroke:none"
           d="m 1653.17,15909.3 c -4.25,69.1 -40.81,132.7 -35.94,201.4 4.57,64.4 38.81,124.9 64.5,182.9 2.84,6.4 11.83,5.6 15.3,0.5 37.52,-54.9 51.83,-114.1 61.38,-179.1 10.09,-68.7 -46.19,-143.7 -57.17,-210.7 -4.6,-28 -46.44,-21.5 -48.07,5" /></g><g
         transform="scale(0.207929)"
         id="g385"><path
           id="path387"
           style="fill:#00695c;fill-opacity:1;fill-rule:nonzero;stroke:none"
           d="m 1664.82,15922.8 c -28.75,53.4 -66.74,130.5 -54.37,192.4 13.18,66 38.24,131.9 84.39,181.6 2.91,3.1 9.44,3.2 11.46,-1.1 24.16,-51.6 37.67,-110.5 42.24,-167.4 5.75,-71.6 -25.82,-140.2 -54.7,-204.6 -5.03,-11.2 -23.25,-11.6 -29.02,-0.9" /></g><g
         transform="scale(0.211706)"
         id="g389"><path
           id="path391"
           style="fill:#7cb342;fill-opacity:1;fill-rule:nonzero;stroke:none"
           d="m 1418.4,15995.6 c -28.14,49 -48.2,85.5 -44.77,143.4 3,50.8 25.96,105.8 39.01,154.9 1.27,4.8 7.89,6.1 10.55,1.7 26.16,-42.9 53.17,-89.6 71.61,-136.4 22.91,-58.1 -2.29,-111.1 -28.64,-162.1 -9.31,-18.1 -37.46,-19.4 -47.76,-1.5" /></g><g
         transform="scale(0.207742)"
         id="g393"><path
           id="path395"
           style="fill:#00695c;fill-opacity:1;fill-rule:nonzero;stroke:none"
           d="m 1416.26,15979.4 c -30.22,43.3 -50.48,95.7 -59,147.4 -10.87,66.1 29.07,116.9 61.36,167.7 3.5,5.5 12.08,5.3 14.17,-1.4 15.6,-49.9 34.67,-86.3 41.11,-139.4 6.59,-54.4 -7.09,-115.1 -19.58,-168.1 -4.32,-18.4 -27.95,-20.7 -38.06,-6.2" /></g><g
         transform="scale(0.209191)"
         id="g397"><path
           id="path399"
           style="fill:#7cb342;fill-opacity:1;fill-rule:nonzero;stroke:none"
           d="m 744.814,16116.1 c -8.455,4.2 -8.653,17 -0.672,21.8 93.685,56.4 197.814,92.8 300.098,130.3 86.62,31.8 206.95,-18.9 279.8,-64.4 17,-10.6 16.48,-37.7 -4.37,-43.9 -99.04,-29.4 -178.88,-80.8 -284.04,-81.9 -101.618,-1.1 -197.658,-8.7 -290.816,38.1" /></g><g
         transform="scale(0.217946)"
         id="g401"><path
           id="path403"
           style="fill:#689f38;fill-opacity:1;fill-rule:nonzero;stroke:none"
           d="m 5975.4,16155.2 c -19.25,-40 -38.5,-79.9 -57.75,-119.8 -10.68,-22.2 -21.53,-44.6 -37.42,-63.4 -15.51,-18.3 -35.26,-32.5 -54.78,-46.4 -40.68,-29.1 -81.36,-58.2 -122.04,-87.3 -16.4,-11.8 -35.48,-24.1 -55.19,-19.8 -15.87,3.4 -27.84,17.4 -33.13,32.7 -5.3,15.4 -5.01,32.1 -4.1,48.3 2.96,52.7 11.86,105 26.48,155.6 10.81,37.5 25.37,75.1 52.12,103.5 12.9,13.7 28.24,24.8 43.69,35.5 40.91,28.4 83.29,54.6 126.93,78.6 18.66,10.2 37.94,20.1 58.91,23.7 20.96,3.6 44.2,-0.1 59.91,-14.4 16.81,-15.4 22.14,-40.2 19.2,-62.8 -2.93,-22.6 -12.95,-43.5 -22.83,-64" /></g><g
         transform="scale(0.213377)"
         id="g405"><path
           id="path407"
           style="fill:#689f38;fill-opacity:1;fill-rule:nonzero;stroke:none"
           d="m 6264.42,16257.3 c -6.44,13.2 -23.15,17 -37.66,19.2 -36.96,5.6 -73.92,11.3 -110.88,16.9 -21.49,3.3 -43.27,6.6 -64.89,4.3 -35.21,-3.9 -66.96,-22.2 -97.32,-40.4 -57.69,-34.7 -114.73,-70.4 -171.09,-107.1 -5.99,-4 -12.29,-8.2 -15.19,-14.8 -4.82,-10.9 2.04,-24 12.07,-30.4 10.03,-6.4 22.34,-7.8 34.14,-9.3 45.59,-5.8 90.66,-15.7 134.49,-29.5 28.07,-8.9 56.61,-19.5 85.98,-17.5 37.97,2.5 71.25,25.5 100.71,49.6 41.62,34 80.1,71.9 114.81,112.9 11.06,13.1 22.34,30.7 14.83,46.1" /></g><g
         transform="scale(0.214934)"
         id="g409"><path
           id="path411"
           style="fill:#689f38;fill-opacity:1;fill-rule:nonzero;stroke:none"
           d="m 5683.73,16246.1 c 4.69,17.1 7.39,39.7 -7.87,48.7 -8.86,5.2 -20.09,3.1 -29.98,0.2 -84.64,-24.2 -152.29,-86.4 -216.55,-146.6 -32.02,-30 -65.31,-62 -78.2,-103.9 -15.37,-50 1.29,-103.6 17.85,-153.3 14.3,-42.9 28.84,-86.2 53.22,-124.3 50.33,45.4 98.62,93.1 144.69,142.9 11.45,12.4 22.87,25 31.05,39.7 8.56,15.4 13.31,32.6 17.98,49.6 22.6,82.4 45.21,164.7 67.81,247" /></g><g
         transform="scale(0.210783)"
         id="g413"><path
           id="path415"
           style="fill:#689f38;fill-opacity:1;fill-rule:nonzero;stroke:none"
           d="m 6089.92,16216.4 c -0.49,-7 -5.25,-12.8 -9.96,-18 -31.08,-34 -69.43,-60.5 -107.82,-86 -34.5,-22.9 -69.32,-45.3 -104.47,-67.2 -13.77,-8.6 -27.83,-17.2 -43.48,-21.5 -18.43,-5 -37.94,-3.7 -56.98,-2.1 -66.74,5.6 -133.18,14.9 -198.88,28 -7.48,1.4 -15.63,3.4 -20.2,9.5 -9.38,12.5 3.24,29.4 14.96,39.7 68.41,60.6 136.82,121.1 205.23,181.6 7.09,6.3 14.41,12.7 23.33,15.8 10.66,3.8 22.37,2.5 33.58,1 79.94,-10.5 158.92,-28.4 235.6,-53.4 13.71,-4.5 30.11,-13 29.09,-27.4" /></g><g
         transform="scale(0.211065)"
         id="g417"><path
           id="path419"
           style="fill:#689f38;fill-opacity:1;fill-rule:nonzero;stroke:none"
           d="m 5207.5,15760.3 c -5.38,3.7 -8.41,9.9 -11.13,15.9 -25.73,56.3 -44.52,115.8 -55.81,176.6 -4.96,26.7 -8.43,54.6 -1.16,80.8 5.14,18.5 15.4,35.2 26.07,51.2 39.79,59.7 87.15,114.3 140.59,162.2 29.96,26.8 66.64,53 106.55,48 -5.8,-56.5 -2.85,-114 8.73,-169.6 7.21,-34.7 17.81,-69.5 14.67,-104.7 -4.35,-48.9 -34.39,-91.5 -66.02,-129 -36.27,-43 -76.08,-83 -118.88,-119.5 -12.39,-10.6 -30.26,-21.3 -43.61,-11.9" /></g><g
         transform="scale(0.20735)"
         id="g421"><path
           id="path423"
           style="fill:#689f38;fill-opacity:1;fill-rule:nonzero;stroke:none"
           d="m 5391.48,16097.9 c 51.18,41.5 95.47,91.5 130.5,147.4 10.85,17.2 21.81,36 40.08,45.1 19.28,9.6 42.18,6.1 63.4,2.5 71.07,-12.4 142.15,-24.7 213.22,-37 16.03,-2.8 36.83,-12.4 32.72,-28.1 -1.23,-4.7 -4.67,-8.5 -7.99,-12 -63.36,-67.9 -127.04,-136.1 -200.15,-193.4 -39.1,-30.6 -83.56,-58.9 -133.17,-61 -27.69,-1.2 -55.04,5.9 -81.54,14 -42.34,13.1 -83.77,28.8 -125.17,44.6 9.88,33.6 40.85,55.8 68.1,77.9" /></g><g
         transform="scale(0.214252)"
         id="g425"><path
           id="path427"
           style="fill:#33691e;fill-opacity:1;fill-rule:nonzero;stroke:none"
           d="m 6025.68,16286.8 c -384.6,-215.4 -686.63,-562.3 -997.8,-868.3 -334.68,-329.2 -616.12,-708.8 -910.59,-1073.4 -17.04,-21.1 16.56,-46.3 33.55,-25.3 292.14,361.7 571.59,737.9 902.67,1065.4 306.74,303.3 608.24,649.9 988.37,862.8 23.41,13.1 7.4,52 -16.2,38.8" /></g><g
         transform="scale(0.218629)"
         id="g429"><path
           id="path431"
           style="fill:#689f38;fill-opacity:1;fill-rule:nonzero;stroke:none"
           d="m 6418.04,16290.1 c -78.04,9.5 -158.19,9.9 -234.21,-10.2 -76.02,-20 -147.92,-61.9 -194.53,-125.2 -44.55,-60.5 -63.37,-135.8 -76.65,-209.8 -0.9,-5 -1.65,-10.6 1.23,-14.7 2.69,-3.9 7.69,-5.3 12.29,-6.3 169.41,-38.3 357.9,26.7 467.77,161.2 33.96,41.6 60.43,88.5 87.99,134.6 15.59,26.1 0.27,59.3 -29.56,65.2 -11.36,2.2 -22.88,3.9 -34.33,5.2" /></g><g
         transform="scale(0.198897)"
         id="g433"><path
           id="path435"
           style="fill:#9ccc65;fill-opacity:1;fill-rule:nonzero;stroke:none"
           d="m 4671.79,16300 c 11.41,-26.5 22.82,-53 34.23,-79.5 -236.27,-196.2 -474.69,-394.5 -661.5,-638.2 -179.8,-234.6 -308.15,-508.4 -373.45,-796.7 -20.62,-91.1 -36.22,-186.5 -88.39,-263.9 -76.99,-114.3 -216.74,-166 -348.48,-206.4 -169.65,-51.9 -342.52,-96.7 -519.23,-112.8 -64.15,-5.9 -146.13,3.2 -166.29,64.4 -21.24,64.5 46.21,121.1 104.6,155.7 79.45,47.1 149.56,87.2 232.15,128.6 35.94,18 77.86,59 52.39,90.1 -7,8.6 -17.67,13.1 -28.19,16.5 -106.75,34.2 -222.35,-26.6 -300.63,-106.9 -78.28,-80.2 -134.35,-180.4 -215.79,-257.5 -147.23,-139.2 -362.99,-186.5 -565.05,-171 -57.4,4.4 -125.74,22.5 -142.03,77.8 -19.67,66.6 51.66,122.1 112.81,155.1 52.94,28.6 105.87,57.2 158.81,85.9 28.51,15.4 58.12,31.7 76.33,58.5 18.22,26.9 20.7,67.4 -3.41,89 -23.83,21.4 -60.7,15.9 -91.83,8.3 -96.28,-23.6 -190.67,-54.9 -281.97,-93.5 -120.06,-50.7 -227.25,-141.9 -337.39,-211.6 -46.87,-29.6 -95.12,-59.8 -149.53,-70.7 -61.51,-12.2 -124.92,1.6 -185.929,16.1 -117.187,27.9 -233.638,58.8 -349.197,92.9 -62.495,18.4 -135.621,49.7 -144.555,114.3 -4.512,32.5 9.715,64.6 25.478,93.4 185.207,339 621.793,485.1 1001.573,414.8 126.62,-23.5 273.87,-62.1 371.44,21.9 3.34,78.1 -77.24,137.3 -154.92,146.1 -77.68,8.8 -154.58,-16.7 -231.88,-28.4 -77.29,-11.7 -165.99,-5.6 -219.11,51.7 -11.44,12.4 -21.11,28 -20.17,44.9 1.39,24.8 24.36,42.1 45.3,55.5 217.22,139.2 475.28,252 727.44,197.6 170.18,-36.8 332.57,-148.2 503.47,-115 55.85,10.9 116.65,50.4 113.51,107.2 -3.91,70.5 -94.78,95.2 -165.36,97.8 -127.39,4.6 -255.12,-0.2 -381.78,-14.5 -69.34,-7.8 -155.76,-10.6 -190.52,49.9 -34.48,60.1 11.42,134.5 62.43,181.3 157.85,144.9 374.54,204.2 584.24,248 160.44,33.6 324.43,61 487.66,46.2 163.24,-14.8 327.51,-75.8 438.87,-196.1 54.56,-58.9 101.6,-134.8 179.38,-154.9 84.64,-21.8 168.5,31.8 239.5,82.9 247.59,177.8 517.38,347.3 764.97,525.2" /></g><g
         transform="scale(0.195071)"
         id="g437"><path
           id="path439"
           style="fill:#7cb342;fill-opacity:1;fill-rule:nonzero;stroke:none"
           d="m 2395.19,16205.9 c 96.01,-2.6 182.64,-49.5 236.08,-127.9 -131.15,3.3 -265.35,-9.6 -388.71,-46 -1.01,1.7 -1.1,3.6 -3.06,5 -28.86,20.2 -60.51,31.7 -95.66,34.3 -19.29,1.5 -22.57,-28.3 -3.27,-29.8 24.37,-1.8 45.68,-9.5 66.18,-21 -53.06,-18 -104,-40.3 -151.08,-68.5 -16.37,-9.8 -4.34,-37.4 12.23,-27.4 89.37,53.6 191.01,86.3 297.05,104.6 -21.79,-50.8 -55.7,-93.2 -101.9,-125 -15.92,-11 3.24,-34.1 19.08,-23.2 55.04,37.9 95.38,90.8 118.03,153.6 144.03,20.3 294.74,15.3 434.66,-4.7 -20.5,-25.1 -37.72,-52.2 -60.82,-75.6 -28.68,-28.9 -63.75,-51.7 -97.29,-74.5 -15.98,-10.9 3.19,-34 19.07,-23.2 30.04,20.5 59.13,41.7 86.41,65.6 5.57,-15.7 9.83,-31.5 11.9,-48.4 1.71,-14 4.62,-63.4 -8.47,-73.6 -15.28,-11.8 3.79,-35 19.07,-23.1 20.21,15.7 19.73,54.4 20.17,77.5 0.59,31.2 -7.05,61.6 -18.98,90.2 21.36,23.6 38.14,50.7 58.95,74.9 1.58,1.9 1.13,3.7 1.64,5.5 20.07,-3.2 39.96,-6.6 59.45,-10.3 146.86,-28 276.11,-94.3 406.42,-164.5 17.84,-9.6 37.48,-20.9 58.23,-32.5 -53.97,-49.8 -114.46,-89.8 -178.44,-120.3 -98.31,65.4 -211.15,99.5 -329.43,97.8 -19.12,-0.3 -22.57,-30.1 -3.27,-29.8 107.46,1.5 209.39,-27.4 300.14,-83.8 -127.99,-52.6 -269.8,-63 -409.56,-16.3 -18.31,6.1 -29.12,-21.9 -10.73,-28 61.87,-20.7 124.23,-30.3 185.85,-31.1 -13.92,-41 -30.95,-80.6 -67.2,-106.9 -15.65,-11.3 3.46,-34.5 19.07,-23.1 42.17,30.6 62.52,77.5 78.42,125.6 0.74,2.2 -0.3,3.9 -0.47,5.9 163.55,6.2 320.06,76.7 443.79,194.6 58.86,-31.7 124.41,-62 185.8,-65.5 -285.49,-147.2 -589.27,-261.9 -894.56,-363.7 -107.7,11.8 -197.63,71.9 -289.9,125 -0.02,0 0.05,0.1 0.02,0.2 -22.88,76 -80.85,134.2 -156.35,158.3 -18.37,5.8 -29.21,-22.2 -10.74,-28 56.58,-18.1 99.31,-56.7 124.7,-107.9 -88.45,45.9 -184.01,73.9 -282.48,88.5 -37.17,5.6 -74.59,8 -112.06,9.2 -41.21,55.6 -102.88,90.5 -171.76,97.5 -19.28,1.9 -22.52,-27.9 -3.27,-29.9 52.67,-5.3 98.65,-29.4 134.1,-67 -77.55,-0.6 -155.13,-9.9 -231.61,-25.2 -37.01,34.6 -82.63,54.7 -133.85,55.7 -19.22,0.4 -22.61,-29.5 -3.28,-29.8 36.87,-0.7 70.86,-12.2 99.79,-33.6 -84.93,-19.4 -168.16,-46.1 -247.85,-77.6 -18.01,-7.1 -5.71,-34.4 12.22,-27.4 44.76,17.7 90.33,33.2 136.31,47 -2.08,-36.5 -14.83,-69.2 -39.57,-97.3 -12.78,-14.5 11.69,-31.9 24.38,-17.4 30.44,34.5 46.43,77.3 45.93,123.4 -0.01,0.2 -0.2,0.3 -0.2,0.5 55.51,15.4 111.8,27.4 168.53,36 3.57,-36.5 -24.56,-71.6 -51.82,-92.7 -15.29,-11.9 3.78,-35.1 19.07,-23.2 34.95,27.1 68.57,73.5 62.51,120.1 100.71,12.8 202.77,13.9 304.83,-0.7 -47.78,-75.3 -119.36,-127 -207.58,-146.3 -18.83,-4.1 -14.38,-33.8 4.51,-29.6 37.71,8.2 72.98,21.7 105.06,40.1 12.01,-41.9 4.73,-85.3 -21.19,-121 -11.37,-15.7 12.99,-33.2 24.38,-17.5 33.32,45.9 40.88,102.2 23.13,155.5 41.5,29 76.68,66.8 103.41,112.7 108.72,-20.4 206.79,-64.5 302.25,-119.9 -57.88,-77.1 -149.6,-103.3 -240.59,-125.7 -18.66,-4.6 -14.26,-34.3 4.5,-29.7 99.76,24.6 200.29,54.4 262.48,140.5 58.35,-34.1 117.27,-65.9 181.63,-82.7 -27,-8.9 -54,-17.8 -81,-26.5 -307.52,-99.1 -617.16,-191.7 -928.15,-279.6 -31.79,51.4 -74.23,90.2 -122.87,118.7 -2.68,6.1 -9.24,10.4 -16.25,9.4 -59.51,30.9 -127.63,46.6 -198.65,47.7 -19.21,0.3 -22.61,-29.5 -3.28,-29.8 62.5,-1 123.32,-13.2 177.09,-38.5 -33.04,-28.1 -78.11,-34.3 -120.95,-39.8 -19.25,-2.4 -14.64,-32.1 4.5,-29.7 53.06,6.8 105.48,16.9 143.86,54.4 41.83,-24.5 78.59,-57.5 106.72,-101 -128.95,-36.3 -258.38,-70.8 -387.79,-105.4 -38.04,32.2 -79.14,59.9 -122.2,82.4 -3.87,69.5 -47.48,129.9 -114.937,151.8 -18.347,5.9 -29.17,-22.1 -10.727,-28 49.864,-16.2 86.504,-57.7 94.764,-108.5 -85.204,37.6 -178.051,51 -274.415,22.6 -18.513,-5.5 -6.049,-32.8 12.225,-27.4 56.715,16.7 112.029,16.5 165.115,5.2 -29.575,-42.1 -72.982,-55.9 -124.516,-66.2 -18.946,-3.8 -14.468,-33.5 4.499,-29.7 62.92,12.6 117.316,31.2 150.782,88.4 65.96,-19.7 127.9,-56.2 183.45,-100.4 -126.33,-33.6 -252.871,-66.3 -379.548,-98.5 -48.013,54.5 -111.536,89.3 -183.495,100 -19.198,2.9 -22.344,-27 -3.27,-29.8 59.133,-8.8 111.284,-36.6 152.733,-78.7 -74.935,-18.9 -149.848,-38 -224.943,-56.2 -18.681,-4.5 -14.279,-34.2 4.502,-29.7 118.23,28.7 236.12,58.8 353.944,89.1 15.406,-75 -14.399,-148.8 -80.527,-189.3 -16.254,-10 -4.238,-37.5 12.225,-27.4 77.818,47.6 117.151,133.3 97.681,223.3 -0.074,0.3 -0.409,0.4 -0.495,0.7 159.063,41.1 317.873,83.2 476.313,126.6 -3.2,-63.6 -18.61,-123.9 -43.9,-179.3 -108.18,20 -220.52,-54.2 -294.16,-126.1 -13.72,-13.4 5.2,-36.7 19.07,-23.2 63.87,62.4 165.58,135.5 261.44,121.6 -37.07,-69 -90.66,-128.9 -159.1,-174.5 -16.08,-10.8 3.1,-33.9 19.07,-23.2 76.01,50.7 134.79,119.2 174.01,197.9 3.69,3.1 5.47,7.3 5.67,11.8 13.16,28.2 23.55,57.7 31.58,88.1 9.16,-3.7 19.38,-6.1 28.04,-9.9 27.96,-12.4 51.35,-33.6 70.15,-57.3 12.01,-15.1 35.19,3.9 23.17,19.1 -15.96,20.1 -34.25,37 -55.56,51.3 -8.53,5.7 -17.85,10.3 -27.03,14.9 -5.44,2.5 -10.99,4.9 -16.63,6.9 -3.47,1.4 -10.83,5.9 -13.69,5.8 -0.39,0.5 -0.92,0.7 -1.37,1.1 5.15,26.2 8.92,52.9 9.85,80.2 0.04,1.2 -0.9,1.7 -1.09,2.8 62.87,17.3 125.48,35.6 188.13,53.7 7.49,-3.4 16.33,-0.7 20.02,5.7 28.96,8.3 57.97,16.5 86.96,24.8 -0.7,-32.3 -2.63,-64.5 -7.91,-96.4 -6.44,-38.8 -38.77,-75.3 -59.49,-107.7 -10.39,-16.2 13.91,-33.8 24.38,-17.5 21.85,34.1 48.5,67.9 61.34,106.6 12.25,37.1 11.29,81.4 11.85,120 0.02,1.3 -1.02,2 -1.28,3.2 258.86,74.3 517.09,150.7 773.73,232.4 -29.64,-44.3 -40.15,-97.4 -50.08,-151.9 -1.02,-5.5 -2.75,-10.8 -3.89,-16.3 -62.13,24.9 -143.52,0.4 -203.99,-17.5 -90.06,-26.6 -170.2,-82 -235.01,-148.7 -13.32,-13.7 5.57,-37.1 19.07,-23.2 52.83,54.4 111.74,95.6 180.96,126.9 23.04,10.4 53.31,21.8 85.5,30.3 13.61,-91.6 -46.1,-168.2 -101.96,-235.6 -12.35,-14.9 12.08,-32.3 24.38,-17.5 61.33,74 123.98,159.4 107,259.9 41.87,8.1 84.42,9.4 116.95,-4.3 -21.18,-84.1 -56.26,-162.1 -105.66,-234.7 -116.65,-171.5 -308.85,-285.9 -513.77,-310.6 -19.26,-2.3 -14.64,-32 4.5,-29.7 80.53,9.7 158.78,33.2 231.83,67.7 -10.26,-47 -32.9,-89.3 -70.46,-121 -14.75,-12.5 4.26,-35.7 19.07,-23.2 48.81,41.2 77,98.2 85.43,161.1 66.13,35.3 126.72,80.7 179.67,134.3 20.04,-54.7 39.16,-112.8 21.59,-170.7 -5.59,-18.4 22.39,-29.3 28.02,-10.7 11.91,39.2 9.76,77.9 1.46,115.9 29.47,6.2 58.28,5.6 87.62,-3.6 18.38,-5.8 29.21,22.2 10.73,28 -35.08,11.1 -70.13,12.7 -105.75,4.7 -5.43,18.5 -11.83,36.9 -18.55,55.1 -0.68,1.9 -2.21,2.1 -3.26,3.4 0.05,0 0.09,0.1 0.14,0.1 49.88,55.2 90.9,115.4 123.85,181.1 42.98,-26.1 74.5,-64.8 88.35,-113.7 5.2,-18.4 34.92,-14.1 29.67,4.5 -16.48,58.1 -51.9,106 -104.52,136.4 -0.22,0.1 -0.44,0.1 -0.66,0.2 3.64,8 7.75,15.7 11.15,23.8 23.15,55.5 29.65,124.9 45.67,188.2 45.19,-1.1 86.74,-11.7 125.93,-27.9 0,-0.1 -0.03,-0.1 -0.03,-0.1 0.22,-67.5 19.87,-129 59.37,-183.8 11.3,-15.7 34.44,3.4 23.17,19 -32.24,44.8 -49.56,95.9 -51.84,150.7 62.89,-32 119.56,-78 173.5,-125.6 14.49,-12.7 31.89,11.7 17.49,24.4 -97.58,86.1 -204.49,167.3 -339.12,172.7 12.06,37 28.95,70.8 57.58,96.1 0.83,0.8 0.57,1.7 1.2,2.5 40.56,13.1 81.13,26.2 121.7,39.7 2.47,-0.2 4.73,-1.1 7.22,-1.2 6.83,-0.5 10.81,3.3 13.34,8 104.09,34.8 207.85,71.4 310.85,110 -14.34,-26.8 -23.14,-56 -30.15,-86.9 -16.68,-73.4 -31.13,-144.9 -64.5,-213 -8.53,-17.4 19.56,-28 28.01,-10.7 24.52,50 40.18,102.2 52.84,156.3 14.22,60.8 20.03,124 62.59,172.6 208.21,79.9 412.45,169.8 607.22,276.1 -43.64,-80.6 -52.38,-176.2 -66.59,-265.9 -6.61,-41.8 -13.86,-83.1 -22.45,-123.8 -27.09,-1.8 -53.8,-5.3 -80.27,-9.6 -9.3,12.9 -30.43,22.1 -42.98,28.8 -42.49,22.6 -87.47,37.2 -135.06,44.3 -19.19,2.9 -22.34,-27 -3.27,-29.8 28.45,-4.3 55.71,-11.4 82.62,-21.5 12.42,-4.7 24.37,-10.5 36.21,-16.4 4.67,-2.3 15.79,-7.4 25.28,-13 -196.27,-41.6 -371.24,-153 -491.61,-317.6 -11.41,-15.6 12.95,-33.1 24.39,-17.5 85.75,117.3 199.54,206.2 329.19,261 -9.56,-93 -52.85,-176.7 -125.08,-237.5 -14.76,-12.5 4.25,-35.7 19.08,-23.2 81.58,68.7 130.57,165.6 137.27,272 69.13,25.8 141.92,43.1 217.48,49 -20.78,-89 -50.24,-174.8 -100.06,-254.8 -1.31,-2.1 -2.87,-4 -4.19,-6 -2.7,2.1 -5.86,3.8 -10.04,3.6 -63.94,-2.9 -122.08,-28 -168.13,-72.4 -13.81,-13.4 5.12,-36.7 19.08,-23.2 39.19,37.8 86.41,58.8 139.72,64.1 -46.5,-65.6 -102.32,-122 -165.26,-170.2 -1.15,3.8 -3.71,7.1 -8.16,9.2 -73.41,33.8 -152.93,38.1 -230.02,14.6 -18.48,-5.7 -6.03,-33 12.22,-27.4 67.81,20.7 137.82,15 202.25,-13.5 -156.66,-112.4 -349.04,-181.3 -528.78,-236.7 -18.46,-5.7 -6.02,-33.1 12.23,-27.4 84.56,26.1 168.81,55 250.42,89 -1.47,-38.8 -9.52,-75.9 -26.96,-111.2 -8.58,-17.4 19.52,-28 28.01,-10.8 20.6,41.8 30.76,86.2 30.23,132.8 -0.01,0.8 -0.73,1.2 -0.85,2 95.84,41.9 187.33,91.7 269.9,154.3 5.03,-61 -2.49,-120.8 -23.5,-178.7 -6.6,-18.2 21.41,-29 28.02,-10.8 24.33,67.1 32.48,136.9 24.36,207.8 -0.15,1.3 -1.25,1.7 -1.66,2.8 53.63,43.7 103.15,93.1 147.11,149.9 16.06,20.7 29.9,42.6 42.89,65 19.49,-61 25.07,-123.5 19.71,-185.6 -40.96,-26.9 -72.14,-63.2 -93.26,-107.7 -8.32,-17.5 19.76,-28.1 28.02,-10.7 14.83,31.2 35.58,57.3 61.4,78.7 -4.59,-26.6 -11.21,-53 -20.42,-79.2 -6.42,-18.2 21.58,-29 28.01,-10.7 13.76,39 22.31,78.7 26.47,118.5 0.26,1.1 0.49,2 0.39,3.2 7.46,76.1 -2.33,152.8 -29.86,227.2 -0.38,1 -1.33,1 -1.83,1.9 34.75,69.1 58.79,143.3 75.79,219.3 16.38,73.3 22.1,156.3 36.27,235.9 46.57,-30.9 81.61,-71.9 104.14,-123.3 7.77,-17.8 35.16,-5.5 27.4,12.2 -25.17,57.5 -65.17,104.6 -118.03,138.4 -2.6,1.7 -5.2,2.2 -7.73,2.3 12.69,59.8 31.58,116.7 65.97,164.6 2.46,3.4 2.63,6.8 2.21,10 202,114 393.22,246.2 567.06,404.3 14.24,12.9 -4.72,36.2 -19.08,23.1 -191.71,-174.3 -404.56,-316.7 -629.63,-437.8 -2.57,1.5 -5.51,2.6 -9.47,1.4 -72.76,-20.7 -157.99,28.7 -222.51,59.6 -38.52,18.4 -76.15,38.7 -113.7,59.1 0.08,1.2 1,1.8 0.8,3.1 -7.58,47.4 -18.65,94.5 -33.68,139.5 34.84,59.3 45.11,127.8 26.44,194.4 -5.17,18.4 -34.89,14 -29.67,-4.6 14.26,-50.8 10.18,-102.6 -10.85,-150 -38.63,94.3 -100.55,174.9 -201.64,219.7 -17.72,7.9 -28.36,-20.2 -10.73,-28 39.54,-17.5 71.96,-41.5 99.46,-69.5 -40.73,-8.3 -82.08,-4.9 -121.31,10.6 -18.02,7.1 -28.74,-20.9 -10.73,-28 50.39,-19.9 102.75,-21.7 154.46,-7.9 58.26,-72.4 88.24,-166.8 105.04,-261.8 -9.99,5.4 -19.95,10.9 -29.98,16.2 -84.39,44.8 -171.04,78.9 -261.44,103.5 -42.27,135.7 -151.32,233.9 -289.65,265.1 -18.89,4.2 -21.91,-25.7 -3.27,-29.9 121,-27.3 214.43,-112 257.53,-226.1 -26.94,6.4 -54.01,12.6 -81.73,17.3 -67.75,11.6 -139.49,19.7 -212.65,23.2 -14.58,24.3 -31.91,46.3 -51.43,65.7 0.09,1.1 1.02,1.8 0.82,3.1 -5.01,33.6 -15.68,64.6 -32.85,94 -9.64,16.5 -37.14,4.4 -27.39,-12.3 10.09,-17.2 17.01,-35.2 22.51,-53.7 -51.55,37.8 -113.61,60.3 -180.64,62.1 -19.24,0.6 -22.61,-29.3 -3.27,-29.8" /></g><g
         transform="scale(0.195084)"
         id="g441"><path
           id="path443"
           style="fill:#7cb342;fill-opacity:1;fill-rule:nonzero;stroke:none"
           d="m 4263.13,15868.5 c 8.97,22.6 17.94,45.1 26.9,67.6 256.82,-23.8 516.22,-47.6 771.91,-13.8 246.11,32.5 484.96,118.9 694.95,251.3 66.33,41.9 132.26,89.3 209.23,104.3 113.59,22.1 227.31,-30.2 329.52,-84.4 131.62,-69.9 260.87,-146 375.41,-241.4 41.59,-34.6 84.84,-88.7 60.47,-137 -25.68,-50.9 -99.34,-44.5 -154.58,-30.4 -75.17,19.2 -140.62,37.1 -214.24,61.5 -32.04,10.7 -81.31,11.2 -84.65,-22.4 -0.92,-9.2 2.71,-18.3 6.96,-26.5 43.09,-83.7 147.88,-116.2 242.02,-115.1 94.14,1.2 186.96,27.4 281.07,24.8 170.15,-4.8 326.37,-104.8 437.18,-234 31.47,-36.7 61.28,-88.1 38.16,-130.6 -27.91,-51.2 -103.2,-41.8 -159.13,-25.1 -48.44,14.4 -96.88,28.9 -145.31,43.3 -26.08,7.8 -53.4,15.7 -80.14,10.6 -26.73,-5.1 -52.26,-27.7 -50.81,-54.9 1.44,-26.9 26.61,-45.5 49.63,-59.5 71.19,-43.1 145.82,-80.6 222.96,-111.9 101.44,-41.2 219.25,-50.7 326.05,-74.7 45.45,-10.2 92.06,-21 130.79,-46.8 43.8,-29.3 73.29,-75.1 100.91,-120 53.03,-86.2 103.8,-173.7 152.23,-262.5 26.19,-48.1 50.99,-110.1 17.97,-153.8 -16.67,-22 -44.16,-32.6 -70.66,-40.4 -311.29,-91.3 -657.39,81.2 -841.16,348.6 -61.27,89.1 -125.77,199.5 -233.63,207.5 -48.38,-44.4 -35.66,-127.4 5.25,-178.7 40.9,-51.4 101.73,-81.9 154.59,-120.9 52.87,-38.9 101.92,-95.2 99.4,-160.8 -0.54,-14.2 -4.09,-29.2 -14.64,-38.6 -15.57,-14 -39.49,-10.6 -59.89,-6.1 -211.66,46.3 -431.96,132.6 -549.36,314.7 -79.23,122.9 -109.51,285.5 -230.77,367.2 -39.63,26.7 -99.2,39.4 -131.06,3.8 -39.56,-44.2 -0.26,-112.8 40.13,-156.3 72.91,-78.4 151.65,-151.4 235.37,-218.1 45.82,-36.5 98.77,-86.2 83.47,-142.8 -15.17,-56.2 -86.65,-73.1 -144.74,-70.6 -179.77,7.7 -343.69,101.2 -494.27,199.7 -115.2,75.4 -228.88,156.5 -317.06,262.2 -88.17,105.7 -149.46,239.5 -144.16,377.1 2.59,67.4 19.71,140.4 -14.55,198.5 -37.29,63.3 -118.99,81.2 -191.45,93.1 -252.69,41.4 -513.58,100.9 -766.27,142.3" /></g><g
         transform="scale(0.194558)"
         id="g445"><path
           id="path447"
           style="fill:#aed581;fill-opacity:1;fill-rule:nonzero;stroke:none"
           d="m 5899.54,14770 c -54.57,57.5 -77.76,135.5 -63.18,212.5 74.65,-78.5 160.56,-149.3 253.88,-200.1 -0.38,-1.6 -1.45,-2.8 -1.1,-4.7 5.06,-28.7 16.83,-53.9 35.79,-76 10.41,-12.1 29.75,3.4 19.34,15.6 -13.16,15.3 -21.11,32.2 -26.4,50.9 41.53,-20.5 84.28,-37.2 128.27,-48.2 15.3,-3.9 24.35,19.2 8.87,23.1 -83.53,20.9 -161.97,61.2 -234.63,112.4 42.45,17 86.99,21.9 132.56,13.5 15.71,-2.9 18.02,21.8 2.4,24.7 -54.31,10 -108.72,2.7 -158.65,-20.8 -96,72.3 -181.09,163.2 -251.14,256.6 26.67,2.7 52.54,8.5 79.67,8.6 33.67,0.2 67.44,-7 100.36,-13.3 15.68,-2.9 17.99,21.7 2.39,24.7 -29.48,5.6 -58.86,10.2 -88.75,12.2 5.91,12.4 12.67,24.1 21.3,35.2 7.16,9.2 34.33,39.7 47.92,38 15.85,-2 18.25,22.7 2.4,24.7 -20.98,2.6 -43.33,-20.3 -57.07,-33.5 -18.55,-17.9 -31.84,-40.1 -41.57,-63.8 -26.27,-1.3 -51.93,-7.3 -78.22,-9.3 -2,-0.2 -2.78,-1.5 -4.17,-2.3 -9.86,13.6 -19.48,27.2 -28.7,40.8 -69.43,102.1 -106.19,216.3 -141.29,333.4 -4.8,16.1 -9.69,34.1 -15.04,53 60.64,-2.4 119.3,-14.4 174.49,-33.9 19.23,-95.6 65.19,-181.5 135.3,-249.5 11.33,-11 30.77,4.4 19.33,15.5 -63.69,61.8 -106.29,138.3 -126.4,224.2 105.48,-44.1 194.39,-120.8 248.77,-229.7 7.12,-14.3 29.78,-4.2 22.63,10.1 -24.07,48.2 -54.87,90.3 -90.44,126.7 32.12,15.8 65.16,29 101.7,23.2 15.78,-2.5 18.13,22.1 2.39,24.6 -42.5,6.8 -81.82,-8.8 -119.19,-27.5 -1.74,-0.9 -2.09,-2.5 -3.14,-3.7 -99.14,91.9 -231.75,142.1 -372.88,145.5 -15.86,52.9 -36.47,108.8 -70.24,146.8 252.72,-80.8 497.1,-191.3 734.9,-310.1 55.97,-69.8 73.41,-157.4 96.3,-242.3 -0.03,-0.1 -0.1,-0.1 -0.14,-0.1 -31,-57.8 -31.17,-125.6 -1.13,-183.8 7.32,-14.1 29.99,-4.1 22.64,10.1 -22.52,43.6 -24.94,91.1 -9.84,135.8 24.87,-78.4 64.3,-150.6 113.27,-216.7 18.49,-24.9 38.9,-48.2 60.11,-70.8 -8.42,-56.5 7.22,-112.9 43.4,-157.2 10.12,-12.4 29.43,3.1 19.33,15.5 -27.66,33.9 -40.46,74.8 -39.2,117.5 45.66,-45 96.43,-84.8 150.03,-120.6 1.37,-41.8 16.27,-80.2 45.62,-110.7 11.02,-11.4 30.41,4 19.33,15.5 -21.12,22 -34.26,48.5 -38.64,77.9 60.89,-38.3 125.09,-71.3 190.03,-99.5 14.67,-6.3 23.48,16.9 8.86,23.2 -36.47,15.8 -72.1,33.4 -107.02,52.2 22.55,20.1 49.04,31.7 79.91,33.7 15.93,1 11.8,25.4 -4.03,24.4 -37.97,-2.4 -72.32,-18.1 -98.93,-45.3 -0.12,-0.1 -0.05,-0.2 -0.16,-0.4 -41.44,23.5 -81.32,49.3 -119.46,77.5 19.24,23.4 56.16,27.4 84.43,23.9 15.84,-2.1 18.25,22.6 2.39,24.6 -36.23,4.6 -83.01,-2.9 -106.66,-33.6 -66.31,51.3 -126.52,110.3 -177.65,178.4 71.91,16.1 143.89,4.5 206.69,-35.8 13.41,-8.6 28.15,11.4 14.7,20 -26.85,17.2 -55.35,29.9 -84.83,37.9 17.45,31.5 47.1,52.6 83.08,58.3 15.77,2.5 11.78,27 -4.03,24.5 -46.25,-7.4 -83.58,-35.9 -104.35,-77.4 -41.18,7.3 -83.8,5.8 -126.21,-5.4 -51.57,75.4 -83.09,158.5 -106.5,246.6 78.86,11.2 147.69,-27.1 213.94,-67.1 13.58,-8.2 28.36,11.7 14.7,19.9 -72.63,43.9 -148.76,85.2 -235.33,71.3 -14.15,54 -30.04,107 -57.8,154.4 20.95,-10.6 41.94,-21.2 62.79,-31.9 237.47,-121.7 472.41,-248.5 705.38,-378.8 -11.43,-48.5 -9.33,-96 2.46,-141 -2,-5.2 -0.66,-11.5 3.98,-15 16.71,-52.8 47.34,-101.8 88.18,-143.9 11.05,-11.4 30.45,4 19.33,15.5 -35.94,37.1 -64.32,79.7 -80.95,125.9 35.72,-2.9 65.65,-25.6 93.87,-47.4 12.67,-9.8 27.31,10.2 14.7,20 -34.94,27 -71.46,51.7 -115.79,52.2 -10.11,38.8 -12.3,79.5 -3.3,121.4 96.51,-54.1 192.25,-109.6 288.03,-165 3.43,-41 11.21,-81.2 23.25,-119.5 -38.34,-42.8 -48.15,-103.6 -21.52,-155.7 7.25,-14.2 29.91,-4.2 22.63,10 -19.69,38.6 -16.83,84.3 7.99,118.7 27.79,-71.7 74.2,-133.7 147.1,-173.4 14.01,-7.6 22.69,15.6 8.87,23.1 -42.91,23.4 -75.08,55.8 -99.53,93.4 41.91,7.3 75.32,-10 111.43,-34 13.27,-8.9 27.99,11 14.69,19.9 -44.07,29.4 -86.71,50.3 -139.68,36.5 -27.03,50 -41.91,107.4 -48.53,165.7 93.41,-54.1 186.44,-108.9 279.22,-164.1 -3.8,-59.9 13.01,-117.3 48.78,-165.6 9.54,-12.9 28.81,2.7 19.33,15.5 -29.39,39.7 -43.66,86.4 -43.27,135.2 54.83,-32.7 109.7,-65.4 164.21,-98.6 13.56,-8.2 28.34,11.7 14.7,20 -85.82,52.3 -172.24,103.6 -258.76,154.7 34.81,52.8 95.36,78.5 157.64,63.5 15.31,-3.6 24.37,19.5 8.86,23.2 -73.3,17.6 -146.33,-9.5 -187.49,-73.4 -0.15,-0.2 0.02,-0.5 -0.12,-0.7 -116.9,68.9 -234.24,137.1 -352.16,204.2 39.02,35.3 83.25,61.5 130.37,79.1 51.5,-74.9 160.45,-97.1 245.47,-98.1 15.84,-0.2 18.42,24.5 2.4,24.6 -73.74,0.9 -175.82,17.6 -223.68,81.8 61.92,18.6 128.22,22.3 194.84,8.9 15.64,-3.1 17.94,21.6 2.39,24.7 -73.99,14.8 -148.37,9.1 -217.23,-14 -3.97,0.4 -7.44,-1 -10.21,-3.5 -24.15,-8.8 -47.46,-20 -69.87,-33 -3.18,7.5 -7.78,14.8 -10.59,22.1 -9.1,23.6 -10.41,49.6 -7.54,74.4 1.83,15.9 -22.84,18.3 -24.67,2.4 -2.44,-21 -1.59,-41.6 2.49,-62.4 1.63,-8.3 4.39,-16.4 7.09,-24.5 1.68,-4.6 3.57,-9.2 5.66,-13.7 1.23,-2.8 2.91,-9.8 4.61,-11.4 -0.04,-0.5 0.12,-1 0.14,-1.5 -18.31,-12.2 -36.05,-25.6 -52.54,-41 -0.73,-0.7 -0.51,-1.6 -1.03,-2.3 -46.84,26.6 -94.07,52.5 -141.22,78.5 -2.39,6.4 -9.12,10 -15.02,8.4 -21.8,12 -43.51,24.2 -65.28,36.3 19.26,18.4 39.21,36.2 60.91,51.7 26.44,18.9 66.65,21.3 97.64,28.1 15.54,3.4 11.64,27.9 -4.02,24.5 -32.67,-7.2 -67.95,-11.3 -98.1,-26.5 -28.78,-14.4 -54.1,-40.9 -76.97,-63.1 -0.81,-0.8 -0.59,-1.8 -1.14,-2.6 -194.57,107.8 -390.03,214 -587.6,316.2 43.17,8.5 80.32,33.4 117.92,59.4 3.84,2.7 7.91,4.7 11.79,7.2 21.79,-50.7 83.64,-84 129.39,-108.8 68.15,-37.1 147.3,-51.6 224.1,-50.5 15.78,0.3 18.39,24.9 2.4,24.7 -62.6,-0.9 -121.07,9.5 -179.8,31.6 -19.55,7.4 -43.87,18.4 -67.63,32.2 45.53,61.5 125.15,71.3 197.15,78.1 15.91,1.5 11.82,25.9 -4.03,24.4 -79.04,-7.4 -165.5,-20.6 -214.27,-89.3 -29.16,19.8 -54.81,43.8 -65.81,70.9 61.49,36.7 127.52,61.8 198.8,75.3 168.27,32 347.38,-13.4 481.49,-118.6 12.6,-9.9 27.23,10.1 14.7,19.9 -52.7,41.4 -112.14,73.4 -174.95,95.9 33.43,21.4 71.37,32.9 111.83,29.5 15.9,-1.3 18.36,23.3 2.4,24.7 -52.57,4.4 -102.33,-12.4 -143.94,-44.2 -59.28,18 -121.17,26.9 -183.4,26.5 20.25,43.7 42.98,88.7 87.08,112.3 14.02,7.5 4.02,30.2 -10.1,22.6 -29.88,-15.9 -51.19,-39.7 -68.56,-66.8 -20.83,13.6 -37.33,30.7 -49.06,53.3 -7.36,14.1 -30.04,4.1 -22.63,-10.1 14.03,-27 33.53,-48.4 59.05,-64.5 -7.65,-14 -14.66,-28.5 -21.39,-43 -0.68,-1.5 0.06,-2.6 -0.06,-3.9 -0.05,0 -0.1,0 -0.15,0 -61.35,-3.1 -120.5,-14.3 -178.09,-33.4 -9.84,40.3 -5.65,81.3 14.82,118 7.7,13.8 -12.19,28.6 -19.96,14.7 -24.36,-43.6 -31.6,-92.2 -18.63,-140.7 0.05,-0.2 0.19,-0.3 0.26,-0.5 -6.8,-2.6 -13.69,-4.7 -20.44,-7.4 -45.92,-18.9 -90.27,-55.7 -136.6,-83.3 -25.74,27 -43.79,57.5 -57.21,89.9 0.02,0 0.05,0 0.07,0 39.28,39.6 63.74,87 72.68,142 2.56,15.8 -22.12,18.2 -24.67,2.4 -7.3,-44.9 -27.07,-84.9 -57.7,-118.2 -18.08,55.4 -24.32,115.3 -28.03,174.6 -0.99,16 -25.44,11.8 -24.45,-4 6.7,-107.3 21.74,-217.1 97.23,-298.9 -28.69,-14.6 -58.28,-24.5 -89.77,-22.5 -0.93,0 -1.34,-0.7 -2.18,-0.8 -31.33,16.1 -62.68,32.1 -94.23,47.9 -1.32,1.6 -2.16,3.4 -3.52,5 -3.71,4.2 -8.28,4.3 -12.5,3 -81.08,40.6 -163.06,79.8 -245.8,117.4 24.04,7.2 46.24,19.2 68.36,33.1 52.62,33.1 102.83,66.5 162.1,86.7 15.14,5.2 4.91,27.8 -10.1,22.7 -43.54,-14.9 -83.19,-36.3 -122.18,-60.5 -43.8,-27.2 -84.09,-60.7 -137.37,-64.2 -168.27,74.9 -340.06,141.7 -515.86,193.4 72.55,21.6 133.47,72.3 194.18,116.4 28.24,20.5 56.6,40.4 85.42,59.2 16.84,-14.8 34.51,-28.3 52.51,-41.3 -2.14,-13 4.85,-30.7 8.27,-41.9 11.59,-38 29.33,-72.8 52.98,-104.8 9.53,-12.9 28.81,2.7 19.33,15.5 -14.13,19.1 -25.87,39.2 -35.69,60.8 -4.54,10 -8.14,20.4 -11.6,30.7 -1.36,4.1 -4.87,13.6 -7.15,22.4 138.95,-90.3 306.2,-127.4 472.6,-101.6 15.78,2.4 11.79,26.9 -4.03,24.4 -118.55,-18.4 -236.96,-3.8 -344.65,39.9 59.89,48.7 134.03,72.3 211.76,65.7 15.89,-1.4 18.35,23.3 2.39,24.6 -87.8,7.5 -173,-20.4 -239.02,-78.6 -55.45,25.3 -108.06,57.7 -155.66,98.3 64.12,39.9 131.43,72.8 207.27,90.4 1.98,0.5 3.97,0.7 5.96,1.1 0.35,-2.8 1.19,-5.7 3.74,-8 39.02,-35.7 87.66,-54.9 140.51,-55.9 15.85,-0.3 18.41,24.4 2.4,24.7 -45,0.8 -84.83,16.1 -119.07,44.1 65.5,11.2 131.05,11.6 195.92,2.9 -1.5,-2.8 -1.97,-6.3 -0.57,-10.1 23.09,-62.6 67.05,-111.6 125.81,-142.9 14.08,-7.5 22.77,15.8 8.86,23.2 -51.69,27.5 -89.24,71.7 -110.24,126 157.15,-25.9 309.74,-98 447.09,-170.6 14.11,-7.4 22.81,15.8 8.86,23.2 -64.62,34.1 -130.74,66.4 -198.26,94.2 23.55,21.8 49.89,38.8 80.71,49.2 15.16,5.2 4.92,27.8 -10.09,22.7 -36.39,-12.4 -68.31,-32.4 -95.17,-59.9 -0.49,-0.5 -0.28,-1.1 -0.67,-1.7 -80.46,31.5 -163,55.9 -247.8,67.5 32.7,38.6 72.04,69.1 118.13,90.7 14.48,6.8 4.41,29.4 -10.1,22.6 -53.37,-24.9 -98.91,-61 -135.56,-107.1 -0.7,-0.9 -0.28,-1.7 -0.7,-2.6 -56.8,5.8 -114.58,5.9 -173.44,-1.6 -21.5,-2.8 -42.38,-7.5 -63,-12.9 24.25,47 57.46,86.7 96.9,119.9 39.63,-8.2 79.04,-5.2 117.34,8.4 15.08,5.4 4.87,28 -10.1,22.6 -26.88,-9.5 -54.27,-12.7 -81.85,-10.1 18.21,12.9 37.53,24.4 58.2,34.3 14.4,7 4.34,29.6 -10.1,22.7 -30.86,-14.8 -59.01,-33 -84.67,-53.8 -0.81,-0.5 -1.48,-0.9 -2.09,-1.6 -48.85,-40.2 -87.92,-90.7 -115.28,-150.2 -0.38,-0.8 0.16,-1.4 -0.03,-2.1 -60.65,-20.1 -118.01,-49.4 -172.38,-83.9 -52.38,-33.2 -104.19,-78.4 -158.94,-116.6 -9.16,45.3 -5.69,89.7 11.2,132.9 5.82,14.9 -17.33,23.7 -23.14,8.9 -18.87,-48.3 -23.02,-99.2 -11.92,-149.8 0.55,-2.5 1.76,-4.4 3.19,-5.9 -42.33,-27.5 -86.6,-49.7 -134.64,-57.6 -3.43,-0.5 -5.53,-2.4 -7.17,-4.5 -184.52,51.4 -373.41,85.9 -567.3,95 -15.88,0.8 -18.4,-23.9 -2.39,-24.6 213.83,-10.2 421.29,-51.3 623.46,-112.1 0.64,-2.3 1.73,-4.7 4.69,-6.3 54.62,-30.4 75.54,-109 95.18,-164.8 11.73,-33.2 21.87,-67 31.89,-100.9 -0.73,-0.6 -1.65,-0.5 -2.28,-1.3 -23.26,-32.1 -44.27,-66.1 -61.82,-101.2 -54.98,-14.3 -100.98,-48.3 -128.94,-98.1 -7.73,-13.7 12.16,-28.5 19.96,-14.6 21.35,38 54.03,65.9 93.97,81.2 -32.5,-77.6 -43.43,-160.8 -10.57,-246.1 5.76,-14.9 28.37,-4.7 22.63,10.1 -12.85,33.4 -17.77,66.3 -17.47,98.8 28.62,-19 50.79,-45.1 64.66,-77.1 6.38,-14.7 29,-4.6 22.64,10.1 -17.83,41 -47.38,72.7 -85.64,94.8 8.28,76.3 45.92,149 91.56,214.2 2.68,-8.9 5.3,-18 8.05,-26.9 23.15,-75.4 53.85,-146 92.28,-213.1 -54.61,-104 -48.24,-225 14.34,-324 8.54,-13.6 27.76,2.1 19.33,15.5 -54.74,86.6 -59.78,190.7 -18.32,282.5 11.95,-19.5 24.17,-38.9 37.6,-57.9 32.83,-46.3 69.97,-93 110.68,-137.7 -5.7,-22.7 -8.41,-45.7 -8.33,-68.4 -0.73,-0.6 -1.66,-0.5 -2.31,-1.4 -16.71,-22.5 -28.56,-46.8 -35.71,-74 -4.01,-15.3 19.09,-24.3 23.14,-8.9 4.21,16 10.64,30.5 18.26,44.5 8,-52.2 31.1,-101.6 69.19,-141.8 10.94,-11.5 30.32,4 19.34,15.6" /></g><g
         transform="scale(0.200737)"
         id="g449"><path
           id="path451"
           style="fill:#00695c;fill-opacity:1;fill-rule:nonzero;stroke:none"
           d="m 7041.14,16179.3 c 34.48,4.3 43.52,-48.8 9.01,-53.2 -136.47,-17 -265.52,-60.4 -381.4,-125.7 44.5,-45.1 94.46,-77.2 154.74,-99.7 65.93,-24.7 135.39,-15.3 203.59,-24.1 34.48,-4.4 29.52,-58.1 -4.97,-53.7 -74.15,9.5 -145.06,5.5 -217.69,27.3 -71.43,21.4 -132.77,68.1 -183.23,121.6 -137.16,-87.4 -253.29,-207.1 -336.91,-352.7 136.34,-11.7 272.37,-32.2 407.4,-63.7 96.08,-22.4 188.11,-53.2 277.05,-90 2.9,-0.7 5.51,-1.8 7.9,-3.3 172.18,-72.1 331.9,-168.5 483.44,-278.2 0.14,0.1 0.2,0.2 0.34,0.2 121.42,47.1 249.06,49.3 371.86,5.7 32.8,-11.6 13.67,-62.1 -19.07,-50.4 -99.17,35.2 -201.97,37 -300.98,5.6 123.23,-92.7 241.45,-193.3 356.19,-296.8 25.52,-23 -5.94,-66.9 -31.8,-43.6 -263.28,237.5 -538.4,456.5 -859.67,596.8 -18.89,-82.4 -34.02,-156.2 -15.77,-243.7 4.27,-20.5 9.52,-40.8 15.27,-60.8 1.26,0.1 2.26,0.7 3.61,0.7 101.89,1.3 181.65,-58.8 255.61,-122.3 26.18,-22.4 -5.34,-66.2 -31.79,-43.5 -62.18,53.3 -126.55,104.7 -209.54,110.9 27.35,-72.2 67.31,-138.5 127.42,-190.5 26.08,-22.5 -5.42,-66.3 -31.8,-43.5 -77.23,66.7 -127.89,151 -157.52,248.7 -15.41,50.9 -28.47,102.3 -35.21,154.9 -105.96,-39.7 -144.89,-218 -136.92,-316.3 2.79,-34.5 -50.38,-43.7 -53.19,-9 -10.81,133.4 40.92,340.3 187.37,380.5 2.23,51.3 19.02,105.4 31.84,155 -65.57,26.5 -132.87,50.1 -202.61,69.5 -294.9,81.9 -605.3,102.4 -910.45,74.5 17.85,-96.9 50.24,-188.1 94.81,-272.4 2.03,0.8 3.81,1.8 6.29,2 140.73,14.8 273.21,-13.3 396.41,-82.7 30.22,-17 -1.82,-60.5 -31.8,-43.6 -105.84,59.6 -222.19,84.1 -342.61,74 63.31,-103.4 146.7,-194.6 248.63,-268.8 28.08,-20.4 -3.63,-64.1 -31.8,-43.6 -210.21,153.1 -348.46,375.3 -394.03,630.5 -111.65,-12.4 -222.44,-31.1 -331.28,-56.1 -34,-7.8 -42.72,45.5 -9,53.2 267.02,61.3 537.53,82.7 806.99,65.3 59.96,108.6 136.49,204.2 225.51,284.8 -0.67,2.1 -1.61,3.9 -1.79,6.4 -8.77,126.3 17.86,243.9 79.76,354.2 16.97,30.3 60.4,-1.7 43.58,-31.8 -49.42,-88.1 -72.15,-184.9 -70.11,-285 152.57,121.6 336.98,201.3 538.32,226.4" /></g><g
         transform="scale(0.184938)"
         id="g453"><path
           id="path455"
           style="fill:#ff9999;fill-opacity:1;fill-rule:nonzero;stroke:none"
           d="m 6697.67,16243.2 c -50.97,-52.4 -47.16,-142.2 11.09,-186.6 44.56,-33.9 112.29,-23.8 155.28,10.5 0.49,0.3 1.01,0.3 1.5,0.6 66.46,35.8 66.53,122.6 22.39,175 -48.23,57.3 -140.75,51.5 -190.26,0.5" /></g><g
         transform="scale(0.188537)"
         id="g457"><path
           id="path459"
           style="fill:#ff9999;fill-opacity:1;fill-rule:nonzero;stroke:none"
           d="m 6702.16,16206.5 c -30.89,-41.6 -39.18,-105.9 -0.5,-146.3 37.32,-38.9 91.56,-53.8 142.02,-31.8 10.05,4.4 14.59,12.1 15.78,20.4 21.04,14.4 37.14,37.2 43.76,61.9 30.22,112.9 -131.58,189.3 -201.06,95.8 z m 115,-115.2 c -29.18,-3.9 -58.7,33.1 -43.99,60.7 4.66,8.8 16.16,16.9 26.6,14.7 4.52,-1.4 7.52,-4.3 9.63,-8.2 -20.89,-0.8 -40.1,-25.4 -22.69,-46.2 13.68,-16.3 28.83,-19.5 42.54,-16 -3.62,-2.6 -7.66,-4.4 -12.09,-5" /></g><g
         transform="scale(0.202667)"
         id="g461"><path
           id="path463"
           style="fill:#ff9999;fill-opacity:1;fill-rule:nonzero;stroke:none"
           d="m 6591.69,16288.4 c -48.64,11.6 -111.36,-1.3 -143.81,-41.7 -30.99,-38.7 -10.08,-110.9 26.72,-137.9 38.3,-28.2 88.88,-28.1 125.82,1.9 24.51,11 44.61,32.7 54.21,58.2 16.9,45 -15.72,108.2 -62.94,119.5 z m -52.65,-119 c -8.59,10.7 -30.12,55 -4.36,63.4 16.82,5.5 32.66,-17.2 18.23,-30.3 -17.35,-15.7 -7.21,-39.5 9,-46.1 -7.94,0.8 -15.93,4.4 -22.87,13" /></g><g
         transform="scale(0.196467)"
         id="g465"><path
           id="path467"
           style="fill:#ff9999;fill-opacity:1;fill-rule:nonzero;stroke:none"
           d="m 7304.74,16288.8 c -46.8,11.2 -94.55,-11.8 -114.6,-55.9 -29.58,-65 8.57,-124.4 63.07,-141.7 12,-7.9 25.87,-13.1 41.43,-13.7 58.35,-2.2 91.76,43.2 92.76,99.4 0.95,53.6 -28.94,98.9 -82.66,111.9 z m -9.13,-137.3 c 13.03,-4.1 23.57,-2.2 32.07,2.7 -0.26,-0.9 -0.58,-1.8 -0.88,-2.6 -5.16,0 -10.44,-1 -15.63,-4.4 -8.8,-5.8 -19.49,-7.6 -30.08,-6.9 -10.95,7.5 -18.07,19.4 -15.18,34.4 1.87,9.7 6.6,19.7 15.28,25.1 4.56,3.5 7.76,3.9 10.22,2.6 -8.24,-5.2 -14.35,-14 -13.48,-26.2 0.08,-1.1 0.17,-2.3 0.25,-3.5 0.65,-9 9,-18.5 17.43,-21.2" /></g><g
         transform="scale(0.200739)"
         id="g469"><path
           id="path471"
           style="fill:#ff9999;fill-opacity:1;fill-rule:nonzero;stroke:none"
           d="m 7259.83,16192.4 c 12.53,-41.1 -5.98,-78.4 -36.46,-100 -38.61,-48.6 -105.73,-47 -151.6,-1.1 -53.06,53.1 -23.26,142.5 36.01,174.3 64.28,34.4 132.95,-10.5 152.05,-73.2" /></g><g
         transform="scale(0.183466)"
         id="g473"><path
           id="path475"
           style="fill:#ff9999;fill-opacity:1;fill-rule:nonzero;stroke:none"
           d="m 7381.04,16297.4 c -75.41,2.6 -131.96,-53.3 -123.67,-130.5 6.68,-62.2 44.49,-142.8 118.58,-118.8 67.62,-7.4 122.37,32.1 124.48,107.1 1.83,64.6 -50.49,139.7 -119.39,142.2 z m -48.26,-121.2 c 6.11,14.9 17.65,26.1 31.63,28.7 -41,-27.8 -23.96,-100.1 35.82,-98.7 4.53,0.1 8.1,1.5 12.11,2.3 -39.02,-14.6 -98.23,22.1 -79.56,67.7" /></g><g
         transform="scale(0.18543)"
         id="g477"><path
           id="path479"
           style="fill:#ff9999;fill-opacity:1;fill-rule:nonzero;stroke:none"
           d="m 7805.76,16278.7 c -64.02,-20.5 -101.15,-97.6 -48.74,-150.3 26.8,-27 64.35,-42 98.24,-35.5 12.72,0.7 25.09,3.1 35.16,9.6 26.94,17.3 36.19,49.3 34.65,80.1 -3.12,62 -52.84,117.4 -119.31,96.1" /></g><g
         transform="scale(0.183282)"
         id="g481"><path
           id="path483"
           style="fill:#ff9999;fill-opacity:1;fill-rule:nonzero;stroke:none"
           d="m 7977.3,16250.1 c 34.96,-32.6 41.53,-70.7 33.13,-108.4 0.99,-4.9 0.78,-10.3 -1.52,-16.2 -3.82,-9.8 -8.76,-18.9 -14.44,-27.3 -6.5,-12.8 -13.94,-25.4 -22.52,-37.3 -8.67,-12 -21.14,-13.9 -31.91,-10.1 -36.94,-18.6 -81.27,-21.4 -121.24,-0.1 -71.78,38.2 -90.36,130 -49.4,196.6 19.7,32 48.85,44.9 78.92,45.2 45.53,7.5 93.95,-9.8 128.98,-42.4" /></g><g
         transform="scale(0.187957)"
         id="g485"><path
           id="path487"
           style="fill:#ff9999;fill-opacity:1;fill-rule:nonzero;stroke:none"
           d="m 8604.01,16172 c 3.69,-18 1.68,-33.5 -2.64,-47.6 2.99,-7.8 3.2,-16.8 -2.09,-25.7 -47.54,-80.3 -148.45,-98.2 -222.67,-43.3 -32.98,24.4 -46.19,64.7 -47.52,103.8 -1.56,45.7 39.35,77.6 74.79,97.4 78.06,43.4 181.85,4.6 200.13,-84.6" /></g><g
         transform="scale(0.183416)"
         id="g489"><path
           id="path491"
           style="fill:#ff9999;fill-opacity:1;fill-rule:nonzero;stroke:none"
           d="m 8800.57,16227 c 18.32,-17.9 31.85,-40.5 37.37,-67.9 3.83,-19.1 0.7,-41.3 -7.81,-60.9 4.11,-8.3 4.16,-18.3 -3.47,-28 -59.68,-76.1 -180.03,-81.1 -233.02,6 -51.61,84.8 -2.81,178.3 87.25,205.6 59.79,18.2 100.3,-10.9 119.68,-54.8" /></g><g
         transform="scale(0.200144)"
         id="g493"><path
           id="path495"
           style="fill:#669933;fill-opacity:1;fill-rule:nonzero;stroke:none"
           d="m 3471.09,15636.1 c -183.77,-101.1 -381.21,-156.7 -582.43,-171.3 -0.31,0.4 -0.31,0.8 -0.65,1.3 -107.54,136.9 -197.28,283.9 -269.52,442.4 -15,32.9 -67,11.7 -51.98,-21.2 69.2,-151.8 154.5,-293.4 255.22,-426 -166.29,-4.6 -334.41,18.1 -498.91,66.5 -426.23,125.4 -739.71,426.7 -1031.94,745.7 -24.28,26.5 -69.21,-7.2 -44.79,-33.9 227.3,-248.1 462.09,-472.2 746.6,-628.6 -188.29,-53.9 -379.44,-93.8 -573.91,-118.8 -35.94,-4.6 -28.59,-60.2 7.34,-55.6 216.79,27.8 429.71,73.6 638.95,136.7 89.07,-44 182.77,-81.7 282.92,-111.2 379.79,-111.7 797.82,-68.6 1144.31,122 31.4,17.2 10.44,69.4 -21.21,52" /></g><g
         transform="scale(0.200135)"
         id="g497"><path
           id="path499"
           style="fill:#f48fb1;fill-opacity:1;fill-rule:nonzero;stroke:none"
           d="m 2711.99,16236.2 c -65.18,22.9 -126.38,12.4 -173.54,-29.9 -24.38,45.8 -68.67,93.7 -117.49,57 -60.06,-45.2 -59.12,-132.3 -16.88,-189 -92.91,-28.5 -190.83,-94.1 -153.75,-203.6 17.57,-51.9 95.63,-46.9 135.79,-38.4 19.97,4.2 37.52,13 53.04,24.5 4.23,-52.6 29.47,-96.4 97.18,-111 79.4,-17.1 104.96,82.2 106.1,156.3 68.4,-35.5 152.61,-47.1 180.6,46.3 24.99,83.5 -43.25,155.2 -117.13,184.6 14.45,20.2 22.33,43.3 23.38,73.7 0.42,12.2 -4.71,25.1 -17.3,29.5" /></g><g
         transform="scale(0.197679)"
         id="g501"><path
           id="path503"
           style="fill:#fce4ec;fill-opacity:1;fill-rule:nonzero;stroke:none"
           d="m 2613.54,16288.2 c -23.13,10.2 -54.92,11.8 -75.94,-4.9 -14.14,-11.2 -25.48,-29.6 -26.54,-48.3 -5.7,-1.3 -11.27,-4 -15.83,-9.9 l -8.63,-11.3 c -7.97,-10.4 -7.32,-23.9 -0.13,-34.5 32.57,-47.6 93.89,-81.4 141.11,-30.2 34.82,37.8 41.25,114.8 -14.04,139.1" /></g><g
         transform="scale(0.192321)"
         id="g505"><path
           id="path507"
           style="fill:#f48fb1;fill-opacity:1;fill-rule:nonzero;stroke:none"
           d="m 1511.04,16271.2 c -91.73,28.8 -175.26,-9.3 -208.21,-90.4 -54.64,36.4 -120.06,24.4 -157.67,-44.6 -34.27,-62.8 32.27,-106.6 87.7,-108.5 -58.76,-57.3 -108.54,-131.7 -44.88,-205.9 44.81,-52.4 95.04,-22.2 130.75,21.2 19,-69.4 59.6,-139.9 134.42,-109.5 63.82,26 69.27,105.5 54.07,170.7 85.77,-26.4 173.48,-15.6 196.36,94.4 23.81,114.4 -88.64,163.3 -184.61,164.8 10.59,24.9 14.35,52 10.05,84.6 -1.29,9.6 -8.26,20.2 -17.98,23.2" /></g><g
         transform="scale(0.190073)"
         id="g509"><path
           id="path511"
           style="fill:#fce4ec;fill-opacity:1;fill-rule:nonzero;stroke:none"
           d="m 1352.96,16258 c -7.13,1.8 -14.97,0.2 -22.27,-7 -33.94,-33.4 -30.18,-83.5 9.61,-111.1 37.67,-26.2 97.19,-15.1 126.03,19.3 31.09,37.2 25.53,87.7 -13.94,116.3 -33.85,24.5 -74.92,10.8 -99.43,-17.5 z m 66.15,-62.7 c -8.98,-8.3 -21,-11 -32.89,-10.3 -4.33,0.2 -24.06,8.1 -20.4,16.5 11.27,-0.7 23.07,4.1 29.59,16.7 13.03,25.2 46.7,-1.6 23.7,-22.9" /></g><g
         transform="scale(0.204979)"
         id="g513"><path
           id="path515"
           style="fill:#f48fb1;fill-opacity:1;fill-rule:nonzero;stroke:none"
           d="m 1276.32,16276.7 c -60.63,17.7 -145.31,-17.7 -176.87,-73.8 -59.88,58.6 -150.42,97.1 -217.1,24.2 -90.009,-98.5 -5.115,-182.4 93.666,-220.3 -89.605,-34.8 -119.62,-124.9 -56.866,-204.6 34.768,-44.2 86.36,-38.2 126.34,-12.3 8.92,-72.8 42.98,-133.2 134.25,-126.3 88.86,6.6 106.56,95.5 92.69,169 95.85,-32.9 232.58,-40.9 244.07,83.9 9.37,101.7 -75.33,182.8 -168.65,188.9 39.56,66 30.2,141.6 -71.53,171.3" /></g><g
         transform="scale(0.20208)"
         id="g517"><path
           id="path519"
           style="fill:#fce4ec;fill-opacity:1;fill-rule:nonzero;stroke:none"
           d="m 1213.62,16292.4 c -37.22,7.6 -75.28,-18.9 -72.79,-53.4 -13.5,10.8 -35.19,10.7 -41.73,-10.3 -13.96,-44.7 9.27,-93.3 56.25,-105.1 48.93,-12.4 96.73,16.9 114.43,62.7 16.97,43.9 -9.31,96.6 -56.16,106.1 z m 2.01,-63.6 c 10.1,-11.9 0.19,-32.2 -9.12,-41.2 -17.83,-17.2 -66.48,-13.8 -55.88,20.2 0.48,1.6 0.23,2.9 0.46,4.4 17.91,-21.8 51.05,0.9 45.45,26.6 1.18,0 1.77,-0.8 3.53,-0.2 6.44,-0.3 11.71,-5.2 15.56,-9.8" /></g><g
         transform="scale(0.188568)"
         id="g521"><path
           id="path523"
           style="fill:#669933;fill-opacity:1;fill-rule:nonzero;stroke:none"
           d="m 2937.78,16285.3 c -61.2,-24.2 -111.19,-75.3 -133.95,-137 -17.98,-48.7 -19.5,-102.6 -39.95,-150.4 -13.67,-31.9 -35.23,-59.6 -56.98,-86.7 -27.1,-33.7 -54.87,-66.8 -83.3,-99.3 71.7,-32.4 158.08,-16.6 225.78,23.5 67.7,40 119.89,101.4 167.69,163.9 18.71,24.4 37.15,49.6 48.68,78.1 24.46,60.6 13.74,133.6 -25.83,185.6 -7.31,9.6 -15.72,18.7 -26.3,24.5 -22.94,12.5 -51.52,7.4 -75.84,-2.2" /></g><g
         transform="scale(0.197079)"
         id="g525"><path
           id="path527"
           style="fill:#669933;fill-opacity:1;fill-rule:nonzero;stroke:none"
           d="m 2119.86,15937.3 c -28.8,-32.3 -84.78,-26.3 -116.28,3.3 -31.49,29.7 -42.72,75.1 -44.73,118.3 -2.01,43.2 3.66,86.7 -0.86,129.7 -4.52,43 -21.53,87.7 -57.69,111.4 7.61,-9.5 20.59,-12.4 32.43,-15.3 69.26,-16.8 134.4,-55.8 175.25,-114.3 40.85,-58.4 54.82,-136.8 28.98,-203.3 -4.18,-10.7 -9.42,-21.2 -17.1,-29.8" /></g><g
         transform="scale(0.193121)"
         id="g529"><path
           id="path531"
           style="fill:#f06292;fill-opacity:1;fill-rule:nonzero;stroke:none"
           d="m 4294.61,15707.4 c 54.16,37.7 99.08,88 132.96,144.6 61.36,102.5 86.2,226.3 69.09,344.6 -3,20.7 -7.57,42.1 -20.03,58.9 -32.83,44.5 -100.26,37.9 -153.99,25 -162.75,-39.3 -321.6,-94.7 -473.41,-165.3 -31.42,-14.6 -62.98,-30.1 -88.9,-53.1 -74.22,-65.9 -86.37,-175.4 -93.54,-274.4 -5.24,-72.3 -4.43,-158.3 54.85,-200.2 42.52,-30 99.76,-24.8 151.11,-16.4 68.92,11.3 137.24,26.1 204.61,44.5 76.22,20.8 152.37,46.7 217.25,91.8" /></g><g
         transform="scale(0.20111)"
         id="g533"><path
           id="path535"
           style="fill:#f06292;fill-opacity:1;fill-rule:nonzero;stroke:none"
           d="m 3254.44,16152.8 c 36.57,-87.9 96.6,-165 167.46,-228.7 35.34,-31.8 74.05,-60.8 118.22,-78.3 42.01,-16.6 87.46,-22.3 132.46,-26.6 149.41,-14 299.77,-13.1 449.83,-12.3 35.06,0.2 74.24,2.1 98.46,27.4 21.83,22.9 24.25,59.2 13.82,89 -10.43,29.8 -31.56,54.5 -52.91,77.8 -122.41,133.6 -275.98,250.5 -455.16,277.4 -142.47,21.5 -286.53,-15.6 -425.84,-52.4 -21.88,-5.8 -47.42,-15.1 -52.68,-37.1 -2.88,-12.1 1.56,-24.7 6.34,-36.2" /></g><g
         transform="scale(0.210086)"
         id="g537"><path
           id="path539"
           style="fill:#f06292;fill-opacity:1;fill-rule:nonzero;stroke:none"
           d="m 4150.55,15454.1 c 18.87,-11.3 41.25,-20.7 62.39,-14.7 23.85,6.8 38.09,30.7 48.92,53 22.64,46.6 40.89,95.3 59.1,143.8 22.34,59.5 44.68,119 67.01,178.5 21.98,58.6 44.3,121.7 29.23,182.4 -12.95,52.3 -51.49,93.7 -88.61,132.7 -28.97,30.4 -57.94,60.9 -86.9,91.3 -36.19,38 -79.29,78.9 -131.7,76.5 -94.1,-97.2 -177.83,-214.8 -190.53,-349.5 -9.24,-97.9 20.22,-195.9 62.05,-284.9 38.68,-82.4 90.97,-162.4 169.04,-209.1" /></g><g
         transform="scale(0.204921)"
         id="g541"><path
           id="path543"
           style="fill:#f06292;fill-opacity:1;fill-rule:nonzero;stroke:none"
           d="m 4711.96,15775.3 c 25.36,118 87.82,224.3 149.35,328.2 12.67,21.3 25.54,43 43.17,60.5 18.7,18.6 42.02,31.8 65.67,43.5 144.92,71.6 314.22,92.5 472.2,58.4 7.2,-1.5 14.71,-3.4 20.24,-8.2 6.2,-5.5 8.89,-13.8 10.94,-21.8 17.63,-68.6 6.7,-141 -4.31,-211 -11.55,-73.5 -24.38,-150.1 -68.51,-210 -51.34,-69.6 -136.61,-105 -219.78,-128.9 -118.88,-34.1 -242.6,-51.2 -366.27,-50.8 -27.43,0.1 -56.95,1.8 -78.54,18.7 -34.27,26.9 -33.3,78.8 -24.16,121.4" /></g><g
         transform="scale(0.192236)"
         id="g545"><path
           id="path547"
           style="fill:#f06292;fill-opacity:1;fill-rule:nonzero;stroke:none"
           d="m 4931.33,16279.3 c -10.84,-13.7 -11.38,-32.5 -11.43,-50 -0.18,-66.1 -0.36,-132.3 -0.53,-198.4 -0.2,-70.7 -0.22,-142.6 20.32,-210.2 35.2,-115.9 129.64,-208.2 240.01,-258.1 110.35,-49.9 235.19,-60.8 355.84,-50.2 25.13,2.2 52.72,6.6 68.9,26 12.24,14.6 15.16,34.7 17.57,53.6 14.66,115.2 27.41,235.3 -11.53,344.7 -41.46,116.5 -138.5,207.1 -248.85,262.8 -110.35,55.8 -233.77,80.1 -356.38,96 -26.22,3.4 -57.47,4.5 -73.92,-16.2" /></g><g
         transform="scale(0.207442)"
         id="g549"><path
           id="path551"
           style="fill:#d81b60;fill-opacity:1;fill-rule:nonzero;stroke:none"
           d="m 3763.61,15519.9 c -62.73,38.5 -126.09,77.5 -178.12,129.5 -52.04,52 -92.45,119.2 -98.31,192.5 -5.82,72.9 22.99,145.2 65.92,204.3 42.92,59.1 99.3,107 155.74,153.4 49.1,40.4 102.2,81.7 165.25,89.8 81.73,10.6 161.85,-39.1 210.73,-105.4 48.88,-66.3 72.57,-147.4 95.36,-226.6 18.44,-64.1 36.88,-128.1 55.31,-192.2 4.01,-13.9 7.95,-18.5 13.23,-32 16.96,135.8 33.92,271.6 50.87,407.4 3.03,24.3 6.34,49.4 19.01,70.3 28.61,47.3 92.77,56.7 148.03,55.2 44.69,-1.3 89.18,-6.4 133.44,-12.7 93.29,-13.3 188.09,-32.5 268.62,-81.5 80.52,-48.9 145.15,-132.9 148.08,-227.1 3.31,-106.6 -69.07,-198.9 -137.6,-280.6 -28.97,-34.6 -57.93,-69.1 -86.9,-103.6 -8.75,-10.5 -19.39,-19.4 -28.77,-29.3 135.82,38.4 274.6,66.4 414.71,83.4 43.16,5.3 88.11,9.3 129.13,-5.1 78.57,-27.5 119.72,-113.3 140.96,-193.8 29.81,-113 36.73,-230.9 34.85,-347.7 -0.81,-49.7 -3.52,-100.9 -24.35,-146.1 -44.03,-95.4 -157.06,-139.1 -261.82,-147.7 -192.63,-16 -390.85,59.6 -523.91,199.8 8.4,-2.1 -11.25,21.8 -18.11,16.6 -6.86,-5.3 -3.83,-16.1 -0.01,-23.9 76.75,-155.8 221.24,-280.5 254.35,-451.1 6.12,-31.5 7.91,-65.4 -5.03,-94.8 -10.72,-24.4 -30.55,-43.6 -51.15,-60.5 -166.99,-137.1 -399.35,-160.7 -615.21,-150.9 -61.5,2.8 -124.77,8.3 -179.58,36.4 -56.5,28.9 -98.76,79 -138.18,128.7 -55.43,69.9 -111.1,149.8 -106.58,238.9 3.23,63.8 37.14,121.4 70.12,176.1 42.17,70 84.35,140 126.52,209.9 8.4,14 9.08,35.1 21.36,45.8 -61.82,-62.5 -152.53,-83.7 -232.82,-119.4 -99.62,-44.2 -202.97,-115.8 -307.51,-84.8 -84.12,24.8 -135.18,108.3 -173.56,187.2 -38.44,79 -72.91,163.2 -72.08,251 0.83,87.9 44.77,180.5 125.48,215.2 30.36,13.1 63.67,17.3 96.54,20.7 96.48,10 199,6.2 295.99,4.7" /></g><g
         transform="scale(0.192775)"
         id="g553"><path
           id="path555"
           style="fill:#ffff66;fill-opacity:1;fill-rule:nonzero;stroke:none"
           d="m 4521.1,16271.4 c -10.57,-22.7 -5.62,-51 9.96,-70.6 15.58,-19.6 40.49,-30.6 65.48,-31.9 15.77,-0.8 33.09,2.7 43.14,14.9 8.79,10.6 10.19,25.5 10.06,39.3 -0.17,18 -2.82,37.3 -14.89,50.7 -11.69,12.9 -29.77,17.7 -46.92,21 -17.62,3.3 -37.37,5.2 -52.07,-5.1 -6.52,-4.5 -11.4,-11.1 -14.76,-18.3" /></g><g
         transform="scale(0.194326)"
         id="g557"><path
           id="path559"
           style="fill:#ffff66;fill-opacity:1;fill-rule:nonzero;stroke:none"
           d="m 4842.43,16200 c 0.9,12.3 -1.02,24.7 -4.45,36.5 -4.09,14.1 -10.52,27.9 -20.77,38.4 -19.01,19.4 -48.27,25.1 -75.47,24.3 -31.78,-1 -66.2,-11.6 -83.03,-38.5 -14.51,-23.3 -12.41,-54.1 -0.69,-78.9 17.95,-37.9 59.23,-64.7 101.1,-61.8 41.86,3 80.28,38.1 83.31,80" /></g><g
         transform="scale(0.195626)"
         id="g561"><path
           id="path563"
           style="fill:#ffff66;fill-opacity:1;fill-rule:nonzero;stroke:none"
           d="m 4474.05,16293 c -14.13,-4.8 -25.37,-15.8 -34.08,-27.9 -13.94,-19.3 -22.72,-43.7 -18.3,-67.2 6.97,-36.9 44.62,-61.2 81.73,-67.2 19.53,-3.1 41.34,-1.9 56.5,10.8 15.51,13 20.3,34.7 22.01,54.9 1.65,19.6 0.97,40.4 -9.55,57 -8.22,12.9 -21.54,21.7 -35.12,28.8 -19.47,10.2 -42.37,17.8 -63.19,10.8" /></g><g
         transform="scale(0.195853)"
         id="g565"><path
           id="path567"
           style="fill:#ffff66;fill-opacity:1;fill-rule:nonzero;stroke:none"
           d="m 4723.89,16243.3 c 3.52,21.8 -14.67,42.1 -35.24,50.1 -12.52,5 -27.15,6.6 -39.18,0.6 -14.17,-7.1 -21.85,-24.3 -19.62,-40 2.23,-15.7 13.3,-29.4 27.32,-36.8 24.66,-13.1 62.29,-1.5 66.72,26.1" /></g><g
         transform="scale(0.197808)"
         id="g569"><path
           id="path571"
           style="fill:#ffff66;fill-opacity:1;fill-rule:nonzero;stroke:none"
           d="m 4556.99,16278.7 c -24.64,19.9 -63.59,21.3 -87.48,0.5 -23.18,-20.2 -27.45,-58.6 -9.25,-83.4 7.52,-10.2 18.04,-17.9 29.25,-23.9 9.31,-5 19.35,-8.9 29.86,-9.9 27.15,-2.4 54.02,17.3 61.76,43.5 7.74,26.1 -2.93,56.1 -24.14,73.2" /></g><g
         transform="scale(0.195686)"
         id="g573"><path
           id="path575"
           style="fill:#ffff66;fill-opacity:1;fill-rule:nonzero;stroke:none"
           d="m 4902.59,16246.9 c 0.22,5 0.2,10.3 -1.65,15 -2.5,6.3 -7.96,10.9 -13.22,15.3 -9.63,7.9 -19.67,16.1 -31.74,19.3 -13.26,3.5 -27.58,0.5 -39.85,-5.6 -16.76,-8.4 -31.51,-25.3 -29.06,-43.9 1.4,-10.6 8.16,-19.8 15.42,-27.7 10.2,-11.1 22.19,-21.1 36.45,-26.1 14.26,-4.9 31.1,-4.1 43.25,4.8 14.71,10.9 19.58,30.7 20.4,48.9" /></g><g
         transform="scale(0.197309)"
         id="g577"><path
           id="path579"
           style="fill:#ffff66;fill-opacity:1;fill-rule:nonzero;stroke:none"
           d="m 4667.28,16292.1 c -9.27,-16.9 -9.52,-38.9 1.19,-54.9 10.7,-16 32.68,-24.2 50.62,-17.2 17.94,7 28.61,29.6 20.87,47.3 -12.26,19.9 -35.34,32.7 -58.74,32.5 -3.39,0 -6.99,-0.3 -9.72,-2.4 -1.85,-1.3 -3.12,-3.3 -4.22,-5.3" /></g><g
         transform="scale(0.194167)"
         id="g581"><path
           id="path583"
           style="fill:#ffff66;fill-opacity:1;fill-rule:nonzero;stroke:none"
           d="m 4438.64,16250.2 c -3.01,7.1 -7.98,13 -13.26,18.5 -16.69,17.5 -44.68,31.3 -63.79,16.6 -6.16,-4.8 -10.18,-11.8 -12.7,-19.2 -6.8,-19.9 -2.7,-43.6 11.77,-58.8 14.47,-15.3 39.14,-20.5 57.78,-10.7 18.65,9.7 28.5,34.3 20.2,53.6" /></g><g
         transform="scale(0.196777)"
         id="g585"><path
           id="path587"
           style="fill:#ffff66;fill-opacity:1;fill-rule:nonzero;stroke:none"
           d="m 4355.31,16287.2 c -6.62,-6.1 -9.39,-15.3 -11.89,-23.9 -3.1,-10.8 -5.54,-24.1 2.71,-31.7 3.79,-3.5 9.05,-4.8 14.08,-5.8 18.34,-3.7 37.09,-5.4 55.8,-5.1 12.87,14.9 14.41,38.5 3.59,54.9 -10.82,16.5 -33.06,24.4 -51.85,18.5 -4.56,-1.4 -8.94,-3.6 -12.44,-6.9" /></g><g
         transform="scale(0.191647)"
         id="g589"><path
           id="path591"
           style="fill:#ffff66;fill-opacity:1;fill-rule:nonzero;stroke:none"
           d="m 4858.26,16245.3 c 3.84,16.5 -7.14,33.5 -21.66,42.1 -14.53,8.6 -31.88,10.7 -48.66,12.6 -9.98,-11.7 -19.46,-24.7 -22.35,-39.8 -2.9,-15.2 2.58,-32.9 16.28,-39.9 6.76,-3.5 14.59,-4 22.17,-4.5 16.68,-1.1 35.36,-1.5 47.76,9.7 0.97,6.9 4.88,13.1 6.46,19.8" /></g><g
         transform="scale(0.187701)"
         id="g593"><path
           id="path595"
           style="fill:#ffff66;fill-opacity:1;fill-rule:nonzero;stroke:none"
           d="m 5089.93,16191.7 c 5.06,22.4 1.19,46.7 -10.57,66.4 -6,10 -14.02,18.9 -23.8,25.3 -19.49,12.8 -43.93,14.7 -67.21,15.8 -8.93,0.4 -17.97,0.8 -26.7,-1.1 -29.24,-6.3 -47.35,-35.7 -57.29,-63.9 -4.05,-11.5 -7.36,-23.5 -6.84,-35.7 0.83,-19.5 11.59,-37.5 25.78,-50.9 25.31,-23.9 62.87,-34.7 96.65,-26.2 33.78,8.4 62.31,36.4 69.98,70.3" /></g><g
         transform="scale(0.196487)"
         id="g597"><path
           id="path599"
           style="fill:#ffff66;fill-opacity:1;fill-rule:nonzero;stroke:none"
           d="m 5392.29,16160.5 c 31.35,15.6 45.76,58.2 30.33,89.6 -17.07,34.8 -60.12,48.1 -98.83,49.4 -12.65,0.5 -26.31,-0.3 -36.27,-8.1 -6.65,-5.2 -10.79,-12.9 -14.63,-20.4 -7.74,-15.1 -15.16,-30.8 -17.54,-47.6 -2.37,-16.8 0.98,-35.2 12.55,-47.7 12.64,-13.6 32.28,-17.8 50.67,-20.5 24.76,-3.7 51.3,-5.9 73.72,5.3" /></g><g
         transform="scale(0.193225)"
         id="g601"><path
           id="path603"
           style="fill:#ffff66;fill-opacity:1;fill-rule:nonzero;stroke:none"
           d="m 5320.28,16145.5 c 19.05,16.3 27.35,41.8 31.44,66.5 1.52,9.2 2.58,18.6 1.43,27.8 -2.84,22.9 -19.75,42.8 -41.05,51.5 -21.31,8.7 -46.19,6.7 -67.01,-3.1 -3.29,-1.5 -6.55,-3.3 -9,-6 -2.31,-2.5 -3.76,-5.7 -5.16,-8.8 -14.9,-33.1 -29.07,-71.4 -14.26,-104.5 16.77,-37.5 72.38,-50 103.61,-23.4" /></g><g
         transform="scale(0.202578)"
         id="g605"><path
           id="path607"
           style="fill:#ffff66;fill-opacity:1;fill-rule:nonzero;stroke:none"
           d="m 4660.47,16163.6 c 3.84,5.9 6.99,12.3 9.31,18.9 11.48,32.9 0.04,72.5 -27.23,94.1 -22.92,18.3 -53.88,23.4 -83.13,21.8 -13.62,-0.7 -28.2,-3.3 -37.81,-12.9 -7.46,-7.5 -10.71,-18.2 -13.37,-28.4 -5.97,-23 -10.28,-47.3 -4.46,-70.4 8.18,-32.3 37.46,-58.1 70.51,-62.7 33.05,-4.7 67.97,11.7 86.18,39.6" /></g><g
         transform="scale(0.200259)"
         id="g609"><path
           id="path611"
           style="fill:#ffff66;fill-opacity:1;fill-rule:nonzero;stroke:none"
           d="m 4340.82,16172 c 10.98,16.6 14.04,37.9 9.81,57.4 -5.69,26.3 -24.62,49.3 -49.27,59.9 -24.65,10.7 -54.39,8.7 -77.42,-5.1 -19.55,-18.7 -29.15,-47.2 -24.84,-73.9 4.31,-26.6 22.4,-50.7 46.83,-62.3 32.16,-15.2 75.32,-5.7 94.89,24" /></g><g
         transform="scale(0.202349)"
         id="g613"><path
           id="path615"
           style="fill:#ffff66;fill-opacity:1;fill-rule:nonzero;stroke:none"
           d="m 3748.94,16278.1 c -29.34,-5.5 -45.52,-41.3 -37.99,-70.2 7.54,-28.8 32.34,-50.3 59.03,-63.6 18.64,-9.4 40.61,-15.7 60.18,-8.5 19.62,7.2 32.38,26.5 39.35,46.2 4.92,13.9 7.65,29.1 4.19,43.4 -3.48,14.4 -12.9,26.7 -23.83,36.7 -18.51,16.9 -42.7,28.5 -67.78,28.5 -25.08,0.1 -20.87,9.4 -33.15,-12.5" /></g><g
         transform="scale(0.193574)"
         id="g617"><path
           id="path619"
           style="fill:#ffff66;fill-opacity:1;fill-rule:nonzero;stroke:none"
           d="m 3961.34,16217.4 c 3.93,-19.6 18.63,-35.3 34.97,-46.7 27.01,-18.8 61.85,-28.5 93.52,-19.6 31.66,9 57.79,39.6 55.61,72.4 -2.35,35.4 -34.95,62.3 -69.09,71.6 -11.56,3.2 -23.67,4.9 -35.56,3.4 -37.59,-4.9 -83.38,-61.6 -79.45,-81.1" /></g><g
         transform="scale(0.202126)"
         id="g621"><path
           id="path623"
           style="fill:#ffff66;fill-opacity:1;fill-rule:nonzero;stroke:none"
           d="m 5216.86,16119.8 c 41.2,-3.6 84.59,16.5 105.13,52.4 5.82,10.2 9.84,21.5 10.56,33.3 2.18,35.2 -25.72,66 -57.27,81.8 -14.98,7.5 -31.42,12.7 -48.18,12.5 -32.58,-0.3 -63.19,-22.6 -75.99,-52.5 -12.79,-30 -8.37,-66.1 9.09,-93.6 5.91,-9.3 13.35,-17.8 22.71,-23.7 10.13,-6.3 22.06,-9.2 33.95,-10.2" /></g><g
         transform="scale(0.189336)"
         id="g625"><path
           id="path627"
           style="fill:#ffff66;fill-opacity:1;fill-rule:nonzero;stroke:none"
           d="m 4198.68,16241.3 c -10.34,-7.8 -17.49,-19.3 -22.84,-31.1 -22.48,-49.7 1,-115.2 49.92,-139.3 48.93,-24.1 118.84,-4.6 140.85,45.3 63.58,144.1 -90.66,183.8 -167.93,125.1" /></g><g
         transform="scale(0.191283)"
         id="g629"><path
           id="path631"
           style="fill:#ffff66;fill-opacity:1;fill-rule:nonzero;stroke:none"
           d="m 4258.91,15878.7 c -35.46,0 -69.44,9.9 -96.19,29.2 -24.5,17.7 -49.99,51.8 -41.12,89.7 2.23,9.5 11.75,15.3 21.22,13.1 9.49,-2.2 15.4,-11.7 13.17,-21.2 -4.6,-19.6 10.45,-40.7 27.42,-52.9 37.03,-26.8 92.83,-30.1 142.02,-8.3 41.58,18.3 80.31,53.5 115.17,104.5 29.98,43.8 49.7,87.6 58.59,130.1 7.84,37.3 7.88,76.9 0.09,114.2 -1.98,9.6 4.14,18.9 13.68,20.9 9.72,2 18.89,-4.1 20.89,-13.7 8.76,-42.1 8.73,-86.6 -0.09,-128.7 -9.86,-47 -31.4,-95 -64.01,-142.7 -38.64,-56.5 -82.38,-95.8 -130.03,-116.9 -26.11,-11.6 -53.9,-17.3 -80.81,-17.3" /></g><g
         transform="scale(0.190384)"
         id="g633"><path
           id="path635"
           style="fill:#ffff66;fill-opacity:1;fill-rule:nonzero;stroke:none"
           d="m 4908.42,15888.6 c -23.37,0 -47.8,8.6 -68.08,24.7 -22.75,18.1 -40.3,43.9 -55.24,81.2 -18.43,46 -27.99,94.4 -28.42,143.9 -0.17,18.8 0.99,37.5 2.17,56.3 1.87,29.3 3.6,57 0.2,84.5 -1.2,9.7 5.71,18.6 15.41,19.8 10.02,1 18.59,-5.7 19.79,-15.4 3.81,-30.8 1.89,-61.5 0,-91.1 -1.13,-17.9 -2.27,-35.9 -2.1,-53.7 0.39,-44.5 9.35,-89.8 25.89,-131.1 12.53,-31.4 26.64,-52.5 44.38,-66.7 20.3,-16.1 46.92,-21.3 66.39,-12.9 8.96,3.8 19.42,-0.2 23.3,-9.3 3.88,-9 -0.25,-19.4 -9.26,-23.3 -10.71,-4.6 -22.42,-6.9 -34.43,-6.9" /></g><g
         transform="scale(0.193633)"
         id="g637"><path
           id="path639"
           style="fill:#ffff66;fill-opacity:1;fill-rule:nonzero;stroke:none"
           d="m 5305.75,16186.7 c -0.86,0 -1.74,0.1 -2.63,0.2 -9.51,1.5 -16.05,10.4 -14.62,19.9 -0.02,0 -0.02,0 -0.02,0 -0.07,0 -0.98,3 -8.2,8.6 -32.86,25.7 -77.81,41.4 -130.04,45.6 -49.65,4.1 -100.81,-2.2 -145.92,-7.7 -24.59,-3 -44.57,-6.2 -59.08,-17.5 -7.7,-6 -18.62,-4.6 -24.48,3 -5.93,7.6 -4.59,18.5 3,24.4 23.31,18.2 52.7,21.8 76.33,24.7 46.78,5.7 99.82,12.1 152.97,7.9 59.01,-4.8 110.42,-23 148.68,-52.9 16.32,-12.7 23.45,-26.6 21.23,-41.3 -1.3,-8.7 -8.75,-14.9 -17.22,-14.9" /></g><g
         transform="scale(0.19559)"
         id="g641"><path
           id="path643"
           style="fill:#ffff66;fill-opacity:1;fill-rule:nonzero;stroke:none"
           d="m 5094.6,16167.2 c -49.95,0 -99.78,2.7 -148.94,5.4 -9.51,0.5 -16.82,8.6 -16.3,18.2 0.51,9.5 8.34,16.9 18.18,16.3 117.36,-6.5 238.63,-13.2 352.82,18.7 51.39,14.3 84.14,34.8 100.14,62.9 4.68,8.3 15.27,11.3 23.54,6.5 8.29,-4.8 11.17,-15.3 6.45,-23.6 -20.72,-36.4 -60.26,-62.3 -120.87,-79.1 -70.69,-19.7 -142.98,-25.3 -215.02,-25.3" /></g><g
         transform="scale(0.201841)"
         id="g645"><path
           id="path647"
           style="fill:#ffff66;fill-opacity:1;fill-rule:nonzero;stroke:none"
           d="m 4783.67,15828.3 c -1.96,0 -3.94,0.4 -5.88,1.1 -8.65,3.2 -13.03,12.9 -9.78,21.5 51.36,136.9 136.9,259.7 247.36,355.4 33.78,29.2 79.68,64.6 135.11,78.6 59.38,15.1 119,1.1 155.68,-36.6 6.45,-6.6 6.31,-17.2 -0.31,-23.6 -6.6,-6.5 -17.25,-6.3 -23.65,0.3 -27.95,28.7 -76.48,39.4 -123.48,27.5 -48.64,-12.3 -90.44,-44.7 -121.44,-71.6 -106.25,-91.9 -188.52,-210.1 -237.95,-341.7 -2.52,-6.8 -8.88,-10.9 -15.66,-10.9" /></g><g
         transform="scale(0.202033)"
         id="g649"><path
           id="path651"
           style="fill:#ffff66;fill-opacity:1;fill-rule:nonzero;stroke:none"
           d="m 4538.01,15942.7 c -3.19,0 -6.42,0.9 -9.29,2.8 -7.66,5.1 -9.7,15.5 -4.57,23.2 l 42.96,64.1 c 24.89,37.2 50.66,75.7 64.48,117.9 14.71,44.9 12.81,89.4 -5.22,122.1 -4.47,8.1 -1.55,18.2 6.55,22.7 8,4.5 18.23,1.6 22.69,-6.6 22.52,-40.7 25.33,-94.9 7.75,-148.6 -15.25,-46.6 -42.33,-87 -68.48,-126 l -42.96,-64.2 c -3.22,-4.8 -8.51,-7.4 -13.91,-7.4" /></g><g
         transform="scale(0.199908)"
         id="g653"><path
           id="path655"
           style="fill:#ffff66;fill-opacity:1;fill-rule:nonzero;stroke:none"
           d="m 4354.78,16090.7 c -1.26,0 -2.51,0.1 -3.79,0.4 -56.43,12.9 -94.48,33.1 -119.77,63.8 -30.48,37 -39.61,100.5 -1.21,138.5 6.6,6.6 17.29,6.6 23.89,-0.1 6.55,-6.6 6.51,-17.3 -0.14,-23.9 -24.06,-23.8 -17.61,-67.3 3.54,-93 20.28,-24.6 52.43,-41.2 101.22,-52.3 9.08,-2.1 14.77,-11.2 12.71,-20.3 -1.79,-7.8 -8.76,-13.1 -16.45,-13.1" /></g><g
         transform="scale(0.202372)"
         id="g657"><path
           id="path659"
           style="fill:#ffff66;fill-opacity:1;fill-rule:nonzero;stroke:none"
           d="m 4169.7,15777 c -4.31,0 -8.61,1.7 -11.87,5 -58.87,59.6 -91,137.7 -122.09,213.3 -8.65,21 -17.27,42 -26.44,62.5 -52.42,117.2 -118.84,185.5 -197.4,202.9 -21.46,4.7 -45.35,1.5 -59.65,-8.1 -7.34,-4.9 -11.58,-11 -12.93,-18.6 -1.56,-9.1 -10.14,-15.2 -19.31,-13.5 -9.08,1.6 -15.14,10.2 -13.54,19.3 2.92,16.6 12.34,30.6 27.25,40.6 21.68,14.5 55.22,19.6 85.4,12.9 89.42,-19.8 163.65,-94.5 220.64,-221.8 9.32,-20.9 18.07,-42.2 26.85,-63.5 29.85,-72.6 60.72,-147.6 114.95,-202.5 6.47,-6.6 6.4,-17.2 -0.13,-23.6 -3.26,-3.3 -7.5,-4.9 -11.73,-4.9" /></g><g
         transform="scale(0.194788)"
         id="g661"><path
           id="path663"
           style="fill:#ffff66;fill-opacity:1;fill-rule:nonzero;stroke:none"
           d="m 3984.32,16056.7 c -16.2,0 -32.25,6.1 -45.89,17.5 -18.19,15.3 -29.88,38.2 -31.26,61.3 -2.07,35.5 15.73,72.5 48.85,101.5 46.58,40.9 104.73,54.1 145.29,58 52.31,5 103.94,-1.8 151.92,-10 7.45,-1.3 19.95,-3.3 29.37,-12.4 6.72,-6.5 10.4,-16.4 9.61,-25.8 -0.7,-8.3 -4.92,-15.7 -11.53,-20.2 -7.86,-5.5 -18.67,-3.4 -24.09,4.5 -3.9,5.7 -3.92,12.9 -0.67,18.5 -2.3,0.2 -6.25,0.8 -8.45,1.2 -45.7,7.8 -94.61,14.3 -142.87,9.7 -35.48,-3.4 -86.08,-14.7 -125.7,-49.5 -25.03,-22 -38.54,-48.7 -37.1,-73.5 0.79,-13.5 8.03,-27.6 18.91,-36.7 8.35,-7 18.08,-10.4 27.06,-9.2 9.21,1 18.11,-5.7 19.24,-15.2 1.1,-9.5 -5.72,-18.2 -15.22,-19.3 -2.48,-0.3 -4.99,-0.4 -7.47,-0.4" /></g><g
         transform="scale(0.210324)"
         id="g665"><path
           id="path667"
           style="fill:#f48fb1;fill-opacity:1;fill-rule:nonzero;stroke:none"
           d="m 3225.07,15976.9 c 118.92,87.3 -34.89,231.6 -145.69,160.2 -66.57,162.9 -281.17,12.9 -193.13,-112 -62.81,-3.2 -115.11,-34.9 -123.47,-109.7 -8.17,-73.1 61.91,-88.5 122.78,-82.3 -34.83,-65 -23.46,-139 56.38,-178.2 91.12,-44.8 127.07,55.1 135.86,133.3 55.18,-45.5 138.97,-60.6 185.89,9.6 46.03,68.9 25.33,146.6 -38.62,179.1" /></g><g
         transform="scale(0.206442)"
         id="g669"><path
           id="path671"
           style="fill:#fce4ec;fill-opacity:1;fill-rule:nonzero;stroke:none"
           d="m 3130.15,16295.3 c -24.71,4.7 -41.84,-17.7 -46.25,-38.8 -39.29,-13.2 -31.89,-68.5 -1.29,-94 37.1,-30.9 97.89,-23.4 116.66,25 18.75,48.4 -21.67,98.6 -69.12,107.8 z m 24.4,-98.5 c -7.44,-10.9 -21.36,-11.4 -32.57,-7.9 -5.84,1.8 -10.72,6 -14.92,10.3 -4.68,4.7 -6.34,17.2 -11.33,17 2.47,0.1 4.5,0.9 6.57,1.7 7.74,-4.9 16.75,-7.8 25.1,-7.9 7,-0.2 16.05,2.7 19.49,9.5 1.65,3.3 3.3,6.6 4.95,9.8 0.49,1 0.46,2 0.8,2.9 0.34,-0.3 0.76,-0.6 1.09,-1 9.72,-11.1 8.59,-23 0.82,-34.4" /></g><g
         transform="scale(0.18196)"
         id="g673"><path
           id="path675"
           style="fill:#f48fb1;fill-opacity:1;fill-rule:nonzero;stroke:none"
           d="m 5328.66,15719.6 c 54.24,-81.3 151.09,-63.7 214.86,-11.2 10.17,-90.3 51.72,-205.9 157.04,-154.1 92.29,45.4 105.43,130.9 65.17,206 70.37,-7.2 151.37,10.7 141.92,95.2 -9.66,86.4 -70.11,123.1 -142.72,126.7 101.77,144.5 -146.28,317.8 -223.23,129.5 -128.07,82.5 -305.85,-84.3 -168.39,-185.2 -73.92,-37.5 -97.85,-127.3 -44.65,-206.9" /></g><g
         transform="scale(0.178078)"
         id="g677"><path
           id="path679"
           style="fill:#fce4ec;fill-opacity:1;fill-rule:nonzero;stroke:none"
           d="m 5590.64,16169.6 c 21.75,-56.2 92.23,-64.8 135.24,-29 35.47,29.5 44.05,93.7 -1.49,109 -5.12,24.4 -24.97,50.4 -53.62,44.9 -55.01,-10.6 -101.87,-68.8 -80.13,-124.9 z m 52.79,50.6 c 0.38,0.5 0.88,0.8 1.26,1.2 0.4,-1.1 0.36,-2.2 0.93,-3.3 1.92,-3.8 3.83,-7.6 5.74,-11.4 3.99,-7.9 14.48,-11.2 22.6,-11.1 9.68,0.2 20.12,3.5 29.09,9.2 2.41,-0.9 4.76,-1.8 7.62,-2 -5.79,0.3 -7.71,-14.2 -13.13,-19.7 -4.88,-4.9 -10.53,-9.8 -17.3,-11.9 -13,-4.1 -29.13,-3.5 -37.76,9.2 -9.01,13.2 -10.31,27 0.95,39.8" /></g></g></g></svg>