<?xml version="1.0" encoding="UTF-8" standalone="no"?>
<svg
   xmlns:dc="http://purl.org/dc/elements/1.1/"
   xmlns:cc="http://creativecommons.org/ns#"
   xmlns:rdf="http://www.w3.org/1999/02/22-rdf-syntax-ns#"
   xmlns:svg="http://www.w3.org/2000/svg"
   xmlns="http://www.w3.org/2000/svg"
   id="svg10155"
   version="1.1"
   viewBox="0 0 596.99347 330.13034">
  <defs
     id="defs10149" />
  <metadata
     id="metadata10152">
    <rdf:RDF>
      <cc:Work
         rdf:about="">
        <dc:format>image/svg+xml</dc:format>
        <dc:type
           rdf:resource="http://purl.org/dc/dcmitype/StillImage" />
        <dc:title></dc:title>
      </cc:Work>
    </rdf:RDF>
  </metadata>
  <g
     transform="translate(23.33008,-218.1134)"
     id="layer1">
    <g
       id="g10014"
       transform="matrix(0.35277777,0,0,-0.35277777,-703.12759,548.24391)">
      <g
         transform="scale(0.167455)"
         id="g681">
        <path
           id="path683"
           style="fill:#8bc34a;fill-opacity:1;fill-rule:nonzero;stroke:none"
           d="m 16277.8,2283.34 c -446.4,85.18 -864.5,283.01 -1215.9,564.85 -21.2,147.01 -11.7,293.63 29.5,436.56 6.3,21.83 -27,34 -33.4,11.97 -39.4,-136.5 -50.1,-276.53 -34.7,-416.9 -139.3,115.86 -267.3,245.35 -382,386.29 -3.1,-2.92 -5.3,-6.48 -9,-8.85 -1.4,-0.92 -2.8,-1.85 -4.3,-2.79 -4.9,-3.22 -10.1,-5.93 -15.3,-8.55 119,-146.36 252,-280.41 396.9,-399.98 -137.6,-23.31 -275,-47.99 -412,-74.53 -22.5,-4.35 -16.5,-39.29 5.9,-34.94 144.6,28 289.5,54.22 434.8,78.64 2.4,0.4 3.2,2.22 5,3.25 355.7,-284.55 778.6,-483.93 1231.3,-570.32 22.5,-4.29 25.4,31.06 3.2,35.3" />
      </g>
      <g
         transform="scale(0.16247)"
         id="g685">
        <path
           id="path687"
           style="fill:#8bc34a;fill-opacity:1;fill-rule:nonzero;stroke:none"
           d="m 15285.2,3765.86 c 31.7,-19.16 74.9,-3.32 99.4,24.5 24.5,27.83 35.4,64.6 48.5,99.3 30.1,80.25 74.5,155.13 130.4,220.05 11.2,-12.42 22.3,-24.83 33.5,-37.25 150.5,162.87 337,292.31 542.2,376.35 80.8,-137.11 60.3,-308.77 37.2,-466.21 15.1,41.68 84.7,31.21 104.2,-8.63 19.4,-39.84 4.5,-87.36 -13.2,-128.03 -55.3,-127.57 -135.8,-244.14 -235.5,-341.01 22.7,-31.04 81.6,-34.47 83.5,-72.88 1,-19.44 -15.3,-34.99 -30.7,-46.87 -137.4,-105.97 -310,-153.25 -478,-196.46 -26.9,-6.91 -54.8,-13.82 -82.1,-8.91 -27.1,4.88 -50.9,20.97 -72.2,38.38 -157,127.84 -226,353.95 -167.2,547.67" />
      </g>
      <g
         transform="scale(0.152)"
         id="g689">
        <path
           id="path691"
           style="fill:#8bc34a;fill-opacity:1;fill-rule:nonzero;stroke:none"
           d="m 15109.3,4797.25 c 166.6,-52.63 323.4,-136.08 460.1,-244.87 10,-7.97 20.5,-16.35 33.1,-18.62 18.6,-3.38 36.5,7.26 54.6,12.68 48.8,14.6 100.9,-9.15 142.1,-39.19 126.8,-92.59 196.5,-242.2 261,-385.3 16,32.82 63.1,39.84 95.4,22.98 32.4,-16.86 52.5,-50.18 68.1,-83.18 62,-131.37 76.3,-284.6 39.7,-425.17 -9.2,-35.41 -21.7,-70.29 -40.9,-101.4 -62.7,-101.35 -185.5,-146.97 -301.9,-172.53 -57.3,-12.59 -116,-22.07 -174.6,-17.72 -157.5,11.67 -292.5,122.23 -382.9,251.71 27.3,-3.41 46.4,31.17 39.5,57.83 -6.8,26.66 -29.3,45.85 -49.8,64.24 -85.1,76.42 -155.1,169.56 -204.9,272.55 -17.6,36.5 -31.2,84.37 -3.6,114.06 9.2,9.85 21.8,16.1 30.2,26.66 17.8,22.51 10.1,55.05 2.3,82.63 -53.8,188.87 -76.7,386.49 -67.5,582.64" />
      </g>
      <g
         transform="scale(0.152109)"
         id="g693">
        <path
           id="path695"
           style="fill:#689f38;fill-opacity:1;fill-rule:nonzero;stroke:none"
           d="m 15280.8,2547.58 c -7.9,-52.98 -15.9,-105.94 -23.8,-158.92 174,15.6 345,63.33 502,140.07 -12.7,-41.24 22.4,-85.27 64,-96.69 41.6,-11.42 85.9,1.28 125.8,17.5 98.8,40.04 189.8,103.76 250.3,191.51 85.7,124.57 100.9,295.56 34.7,431.5 -66.3,135.95 -212.9,229.98 -364.1,229.45 -10.2,-0.04 -21.3,-0.86 -28.8,-7.83 -15.9,-14.88 -2.6,-43.52 -13.8,-62.19 -6.4,-10.78 -19.4,-15.45 -31.4,-19.34 -165.9,-54.02 -331.8,-108.04 -497.7,-162.06 9.7,-26.99 35.9,-47.31 64.5,-50.08 -65.9,-92.48 -190.1,-115.8 -298.8,-148.68 -108.7,-32.87 -228.5,-105.22 -230.6,-218.76 59.7,-3.17 115.2,-29.51 171.8,-48.6 88.5,-29.84 182.7,-42.44 275.9,-36.88" />
      </g>
      <g
         transform="scale(0.160212)"
         id="g697">
        <path
           id="path699"
           style="fill:#669933;fill-opacity:1;fill-rule:nonzero;stroke:none"
           d="m 14285.9,3944.34 c -46.6,24.62 -88,-46.03 -41.3,-70.68 184.6,-97.44 344.5,-228.21 474,-383.12 -87.4,-40.19 -175.5,-58.96 -273.2,-58.61 -106.8,0.39 -200.4,50.9 -301.9,75.09 -51.4,12.23 -73.1,-66.7 -21.8,-78.93 110.4,-26.3 208.9,-69.95 323.7,-78.01 112.9,-7.92 225,25.39 325.4,74.35 147.8,-197.73 248.5,-429.97 289.1,-681.55 -199.8,56.6 -404,100.45 -612.6,128.13 -148.4,19.7 -295.6,25.44 -441.6,20.91 -4.5,0.57 -8.8,0.41 -13,-0.49 -283.2,-10.04 -561.6,-61.22 -835.6,-135.59 -0.2,0.16 -0.2,0.34 -0.4,0.5 -147.1,132 -327.1,203.61 -524.9,207.58 -52.8,1.07 -52.7,-80.79 0,-81.85 159.7,-3.21 306.6,-55.82 430.4,-153.49 -224.7,-65.56 -446.5,-144.88 -665,-230.29 -48.6,-18.99 -27.4,-98.17 21.8,-78.92 501.2,195.97 1009.3,359.24 1540.7,386.02 -17.4,-127.13 -35.5,-240.03 -108.4,-354.43 -17,-26.82 -35.3,-52.76 -54.3,-78.16 -1.7,0.92 -2.8,2.28 -4.7,3.02 -144,56.44 -289.4,13.98 -428.5,-36.47 -49.2,-17.87 -28,-96.99 21.7,-78.94 117,42.42 235.9,80.74 357.1,45.09 -77.6,-87.9 -169.9,-160.53 -283.1,-202.04 -49.2,-18.03 -27.9,-97.15 21.7,-78.94 145.5,53.35 262.6,145.77 357.1,268.68 49.2,63.95 95.3,129.88 133.1,200.96 129.1,-113.21 88.8,-387.24 24.7,-522.53 -22.4,-47.44 48.1,-89 70.7,-41.32 86.9,183.68 124.5,505.16 -61.9,640.74 24.4,74.03 29.6,159.88 38,237.19 107.3,2.46 215.5,-0.19 324.9,-10.09 462.7,-41.85 914.3,-179.28 1332.6,-382.64 -77.3,-128.02 -172.3,-240.11 -280.7,-335.83 -2.5,2.13 -4.5,4.5 -7.9,6.21 -191.9,96.42 -395,127.65 -607.2,95.21 -52,-7.96 -29.8,-86.82 21.8,-78.94 182.2,27.87 360.6,0.23 526.1,-78.73 -145.4,-112.93 -312.7,-197.6 -497.2,-248.27 -50.8,-13.95 -29.2,-92.93 21.7,-78.93 380.6,104.5 696.1,345.83 897.7,683.73 151.9,-77.48 299.2,-163.46 440.3,-257.35 44.1,-29.34 85,41.59 41.3,70.67 -346.2,230.35 -718.8,405.77 -1110.7,525.67 -26.9,186.33 -84.2,363.19 -167.4,525.32 2.1,2.57 4.4,4.62 6,8.1 80.2,174.67 105.5,355.82 76.8,545.75 -7.8,52.05 -86.7,29.86 -78.9,-21.76 22.9,-151.66 3.2,-301.28 -53.4,-442.34 -151.4,254.52 -370.5,466.56 -642.8,610.32" />
      </g>
      <g
         transform="scale(0.146561)"
         id="g701">
        <path
           id="path703"
           style="fill:#ff9999;fill-opacity:1;fill-rule:nonzero;stroke:none"
           d="m 15983.2,2018.29 c -91.5,-51.07 -138.3,-175.24 -62.6,-262.36 0.6,-0.65 1.3,-1.01 1.8,-1.65 42.9,-72.33 134.3,-123.38 216.4,-98.89 107.3,32.01 161.2,158.25 116.6,260.79 -43.2,99.57 -172.3,157.92 -272.2,102.11" />
      </g>
      <g
         transform="scale(0.145978)"
         id="g705">
        <path
           id="path707"
           style="fill:#ff9999;fill-opacity:1;fill-rule:nonzero;stroke:none"
           d="m 15930.6,2367.95 c -4,-39.8 7,-82.05 29.8,-114.83 -2.8,-12.72 -0.5,-26.53 11.8,-38.51 61.7,-60.1 149.3,-68.34 225.5,-32 78.9,37.65 102.3,136.36 80.1,214.28 -50,175.33 -329,152.95 -347.2,-28.94 z m 100.3,-61.96 c 18.1,-12.76 42.1,-16.4 71.1,-0.11 36.9,20.72 22.5,67.43 -7.7,80.14 5.3,4.53 11.3,7.18 18.6,6.62 16.6,-2.46 28.9,-20.74 30.9,-36.13 6.2,-48.61 -57.5,-86.46 -98,-64.52 -6.1,3.32 -11.1,8.2 -14.9,14" />
      </g>
      <g
         transform="scale(0.149239)"
         id="g709">
        <path
           id="path711"
           style="fill:#ff9999;fill-opacity:1;fill-rule:nonzero;stroke:none"
           d="m 15911.4,4269.66 c 0,-44.89 18.2,-90 49.6,-121.15 39.4,-67.68 117.2,-97.21 192.5,-76.14 72.3,20.25 146.5,119.19 121.3,196.66 -26.4,81.14 -115.5,137.42 -197,147.86 -79.3,10.14 -166.2,-68.29 -166.4,-147.23 z m 135.4,-73.26 c 28.8,0.77 58.2,31.53 40.7,65.76 -14.6,28.49 23,54.28 45.7,36.06 34.7,-27.92 -24.2,-83.63 -43.6,-95.08 -15.7,-9.24 -30.1,-10.13 -42.8,-6.74" />
      </g>
      <g
         transform="scale(0.139001)"
         id="g713">
        <path
           id="path715"
           style="fill:#ff9999;fill-opacity:1;fill-rule:nonzero;stroke:none"
           d="m 15942.1,4095.93 c -32.4,-90.65 -6.3,-183.45 88.5,-215.24 25.3,-8.48 50.6,-8.55 74.6,-3.27 97.7,-5.19 194.8,66.85 186.8,188.85 -5.5,82.72 -68,148.49 -149.8,158.81 -93.8,11.84 -169.2,-42.71 -200.1,-129.15 z m 172.4,-72.78 c 0.9,1.83 1.7,3.65 2.6,5.48 8.7,18.97 4.3,36.79 -5.8,50.13 4.7,0.56 9.6,-2.06 14.8,-10.37 10.6,-13.91 12.1,-32.87 9.3,-49.52 -4.4,-25.67 -23.1,-40.42 -45.1,-45.87 -17.5,5.23 -33.4,14.68 -44,29.27 -6.3,8.6 -14.2,13.33 -22.4,16.48 0,1.56 0,3.11 0.1,4.69 10.7,-12.97 26.4,-22.38 49.8,-23.65 15.1,-0.83 34.2,9.29 40.7,23.36" />
      </g>
      <g
         transform="scale(0.1406)"
         id="g717">
        <path
           id="path719"
           style="fill:#ff9999;fill-opacity:1;fill-rule:nonzero;stroke:none"
           d="m 15932.8,4649.66 c -45.4,-58.85 -38.3,-130.55 -2.1,-184.04 32.7,-102.31 142.3,-140.76 244.6,-94.49 118.3,53.5 124.7,216.32 48.2,303.92 -82.9,95.02 -221.5,64.35 -290.7,-25.39" />
      </g>
      <g
         transform="scale(0.139189)"
         id="g721">
        <path
           id="path723"
           style="fill:#ff9999;fill-opacity:1;fill-rule:nonzero;stroke:none"
           d="m 15874.4,2114.33 c -39.2,-113.18 20.3,-203.16 125.5,-230.22 97.1,-77.63 199,21.32 244.1,110.43 56,110.74 3.1,226.07 -111.1,264.69 -104.2,35.28 -224.8,-47.38 -258.5,-144.9 z m 105.2,-119.48 c 5.5,-3.48 10.1,-7.6 16.8,-10.31 88.5,-35.79 154.7,62.49 109.2,127.16 19.4,-11.78 30.3,-34.9 31,-60.64 2.2,-78.65 -106.9,-100.01 -157,-56.21" />
      </g>
      <g
         transform="scale(0.132859)"
         id="g725">
        <path
           id="path727"
           style="fill:#ff9999;fill-opacity:1;fill-rule:nonzero;stroke:none"
           d="m 15952.2,2830.2 c -20.8,-47.79 -25.3,-103.86 6.9,-147.4 12.1,-16.27 30.2,-27.37 49.9,-36.07 49.7,-30.67 118.1,-29.27 176.6,-2.66 114.4,52.05 101.8,196.22 12.8,266.89 -92.4,73.38 -204.2,15.52 -246.2,-80.76" />
      </g>
      <g
         transform="scale(0.13279)"
         id="g729">
        <path
           id="path731"
           style="fill:#ff9999;fill-opacity:1;fill-rule:nonzero;stroke:none"
           d="m 15951.8,2616.49 c -73.9,-30.3 -106.7,-85.92 -115.9,-149.93 -4.4,-7.05 -7.2,-15.59 -7.1,-26.15 0.2,-17.6 2.5,-34.74 6.4,-51.35 2.6,-23.84 6.8,-47.88 13.2,-71.59 6.4,-23.94 24.8,-34.27 43.9,-34.7 46.8,-50.94 114.5,-81.38 189.6,-71.76 134.8,17.27 218.1,149.87 193.4,278.28 -11.9,61.75 -49.8,99.15 -96.7,117.27 -66.8,38.7 -152.7,40.28 -226.8,9.93" />
      </g>
      <g
         transform="scale(0.124558)"
         id="g733">
        <path
           id="path735"
           style="fill:#ff9999;fill-opacity:1;fill-rule:nonzero;stroke:none"
           d="m 15806,3880.32 c -18,-28.43 -24.6,-56.2 -26.3,-83.17 -10.1,-11.39 -16.3,-26.59 -13,-45.28 29.4,-168.05 190.4,-263.7 352.8,-217.79 72.1,20.4 120.7,80.74 148.3,146.71 32.2,77.2 -17.1,158.15 -65,214.79 -105.4,124.72 -307.9,125.38 -396.8,-15.26" />
      </g>
      <g
         transform="scale(0.122307)"
         id="g737">
        <path
           id="path739"
           style="fill:#ff9999;fill-opacity:1;fill-rule:nonzero;stroke:none"
           d="m 15903.1,3354.3 c -42.7,-18.73 -80.2,-48.41 -107.2,-91.51 -18.7,-29.89 -27.7,-69.72 -25.8,-108.47 -12.3,-11.37 -18.8,-28.4 -12.1,-49.83 52.6,-167.53 253.8,-253.43 399.8,-139.46 142.2,111.02 119.3,301.22 -16.2,405.53 -89.9,69.25 -177.4,45.78 -238.5,-16.26" />
      </g>
      <g
         transform="scale(0.20194)"
         id="g741">
        <path
           id="path743"
           style="fill:#669933;fill-opacity:1;fill-rule:nonzero;stroke:none"
           d="m 16281.4,3664.27 c 18.6,23.02 -13.6,48.34 -35.5,33.72 -3.7,-2.52 -7.5,-5.04 -11.3,-7.56 -6.6,-4.43 -9.6,-10.16 -10,-15.97 -172.3,-194.76 -432.3,-219.42 -663,-134.62 199.3,1.81 405.1,163.04 503.5,315.93 17.2,26.67 -22.8,55.74 -40,28.93 -102.3,-158.92 -338.5,-342.72 -543.8,-286.01 96.1,155.24 191.9,312.41 306.1,453.38 20.1,24.77 -20,53.56 -40,28.93 -115.3,-142.34 -211.9,-301.18 -308.9,-457.9 -69.7,203.6 -25.2,421.53 117.7,584.14 21,23.93 -19.2,52.63 -40,28.93 -132,-150.18 -183.5,-346.29 -148.4,-536.82 -22.2,20.41 -45.6,40.13 -64.4,62.29 -48.5,57.11 -81.3,124.53 -108.4,193.69 -63.4,162.28 -42.1,346.27 26.1,502.49 12.8,29.17 -33.5,46.35 -46.3,17.25 -64.7,-148.27 -80.9,-301.87 -48.4,-460.39 15.8,-77.16 50.6,-149.26 90.7,-216.33 38.9,-65 105.2,-109.22 149.3,-167.28 -2.4,-6.77 -1.9,-14.45 4.9,-21.55 0.4,-0.42 0.8,-0.84 1.2,-1.26 -29.6,-3.56 -58.6,-11.77 -85.6,-26.18 -28,-14.9 -8.2,-60.14 19.9,-45.18 29.3,15.57 60.9,23.08 92.8,23.68 -13.4,-21.51 -26.9,-42.97 -40.5,-64.25 l -383.7,-600.18 c -17.1,-26.71 22.9,-55.78 40.1,-28.92 l 383.7,600.18 c 9,14.2 18,28.59 27,42.93 1.6,-6.02 3.1,-12.02 4.7,-18.03 5,-18.94 10.2,-37.71 1.8,-56.33 -13.1,-29.02 33.3,-46.17 46.3,-17.25 14.6,32.39 6.2,70.12 -4.3,105.49 275.5,-128.28 602.7,-112.27 806.7,140.05" />
      </g>
      <g
         transform="scale(0.190528)"
         id="g745">
        <path
           id="path747"
           style="fill:#003366;fill-opacity:1;fill-rule:nonzero;stroke:none"
           d="m 16293.5,4800.82 c -4.1,44.46 -33.3,78.17 -71.1,92.3 -53.5,45.69 -118.2,-0.87 -143.9,-56.57 -30.6,-66.2 15.1,-139.75 84.4,-148.62 64.8,-8.3 137.1,44.28 130.6,112.89 z m -143.5,39.49 c 4.8,2.74 9.9,4.24 15,5.53 -13.7,-13.88 -19.5,-35.39 -11.4,-53.89 8.9,-20.2 27,-26.76 46.1,-26.81 -16.3,-3.95 -40.7,9.25 -51.5,16.33 -25.5,16.77 -25.3,43.17 1.8,58.84" />
      </g>
      <g
         transform="scale(0.194308)"
         id="g749">
        <path
           id="path751"
           style="fill:#003366;fill-opacity:1;fill-rule:nonzero;stroke:none"
           d="m 16287.1,4470.78 c -5.9,23.59 -21.3,42.42 -40.9,55.51 2.8,11.19 -1,23.1 -15.7,26.74 -23.8,5.92 -50.6,0.97 -73.9,-10.92 -0.9,-0.26 -1.9,-0.26 -2.8,-0.55 -59.5,-18.3 -71,-76.86 -43.8,-124.05 5.5,-13.38 12.3,-26.16 19.1,-36.41 20.5,-30.99 50.1,-45.9 87,-37.3 54.2,12.65 83.9,75.66 71,126.98 z m -135.4,-12.09 c -2.2,10.43 5.5,21.55 16.4,30.42 -2.4,-10.37 -2.6,-21.26 1.2,-29.92 11,-25.09 36.7,-28.09 59.6,-21.58 -1.7,-3.55 -3.8,-6.79 -6.3,-9.33 -20.3,-20.37 -49,-7.99 -65.2,9.97 -2.5,7.5 -4.5,14.74 -5.7,20.44" />
      </g>
      <g
         transform="scale(0.197123)"
         id="g753">
        <path
           id="path755"
           style="fill:#003366;fill-opacity:1;fill-rule:nonzero;stroke:none"
           d="m 16271.9,4280.8 c -14.7,27.58 -38.8,42.55 -63.9,47.07 -2.8,11.29 -12,20.09 -26.7,16.02 -45.1,-12.54 -81.5,-34.69 -100.7,-78.97 -18.7,-43.04 6.2,-90.09 42.3,-113.91 37,-24.36 98.7,-22.55 134.5,3.46 42.6,30.9 37,84.02 14.5,126.33 z m -46.8,-19.78 c -9,-8.09 -13,-21.46 -3,-33.48 0.2,-16.87 -6.7,-22.87 -20.8,-17.99 -9.2,3.34 -17,8.76 -23.4,16.29 -14.1,14.61 -26,38.96 -3.8,51.69 18.6,10.63 38,0.37 51,-16.51" />
      </g>
      <g
         transform="scale(0.200521)"
         id="g757">
        <path
           id="path759"
           style="fill:#003366;fill-opacity:1;fill-rule:nonzero;stroke:none"
           d="m 16270.4,4031.29 c -19.3,30.6 -59.2,57.01 -95.3,53.79 -6,4.08 -13.6,5.54 -22.3,1.14 -54.4,-27.72 -103,-77.15 -73.9,-141.63 26.4,-58.56 100.9,-88.63 159.4,-66.87 61.4,22.8 61.7,106.68 32.1,153.57" />
      </g>
      <g
         transform="scale(0.203989)"
         id="g761">
        <path
           id="path763"
           style="fill:#003366;fill-opacity:1;fill-rule:nonzero;stroke:none"
           d="m 16288.1,3711.18 c -5.8,35.22 -32.5,66.41 -65.4,83.68 -23.5,28.96 -61.7,22.54 -94.4,3.74 -1.2,-0.61 -2.3,-1.2 -3.5,-1.85 -21.9,-13.38 -41,-31.96 -50.3,-48.96 -35.2,-64.06 23.5,-123.08 83,-135.87 63.2,-13.6 142.5,27.4 130.6,99.26 z m -108.7,-46.73 c -18.9,0.26 -37.3,40.03 -43.3,53.92 -10.5,24.62 15.3,42.43 36.7,42.61 5,0.05 9.6,-1.22 14.1,-2.65 -2.1,-1.07 -4.4,-1.12 -6.5,-2.76 -21.2,-17.04 -14.3,-50.72 0.6,-68.65 5.2,-6.15 11.4,-9.68 18.1,-11.95 -4.4,-6.11 -10.7,-10.64 -19.7,-10.52" />
      </g>
      <g
         transform="scale(0.197579)"
         id="g765">
        <path
           id="path767"
           style="fill:#339900;fill-opacity:1;fill-rule:nonzero;stroke:none"
           d="m 15359.9,2666.73 c 166,98.35 328.1,202.82 486.3,313.42 -16.8,4.88 -33.8,6.26 -51.7,3.5 -23.8,-3.68 -31.5,32.99 -7.6,36.68 21.7,3.35 43.1,2.54 63.8,-2.63 -37.9,148.23 23.4,298.44 161.9,377.37 21.1,11.98 37.9,-21.46 17,-33.37 -114.2,-65.08 -169.6,-185.6 -148.9,-308.13 29.3,94.15 98,172.37 191.7,210.69 22.2,9.1 39.4,-24.22 17,-33.35 -102.1,-41.79 -172.6,-133.54 -185.1,-243.19 106.3,-12.8 206.8,17.1 288.3,88.41 18.2,15.93 43.2,-11.95 25,-27.86 -79.4,-69.59 -177.5,-104.8 -280.7,-101.01 94.7,-70.59 217.2,-77.27 325.2,-14.86 21,12.11 37.9,-21.34 17.1,-33.37 -126.5,-73.1 -273.7,-59.08 -381.4,31.83 -3.4,-18.57 -10.4,-36.4 -21.7,-52.52 -13.8,-19.75 -45.2,0.78 -31.3,20.6 10.2,14.51 15.8,30.44 17.4,47.16 -158,-110.15 -319.6,-214.59 -485.3,-312.73 -20.8,-12.34 -37.7,21.14 -17,33.36" />
      </g>
      <g
         transform="scale(0.195691)"
         id="g769">
        <path
           id="path771"
           style="fill:#cc6666;fill-opacity:1;fill-rule:nonzero;stroke:none"
           d="m 16294.8,3414.48 c 5.2,11.96 4.5,24.83 0.9,37.25 1.6,3.17 2.6,6.74 2,11.04 -7.2,51.67 -77.9,84.49 -121.7,54.98 -44.1,-29.75 -56.2,-97.13 -11.9,-132.99 43.5,-35.21 108,-22.12 130.7,29.72" />
      </g>
      <g
         transform="scale(0.198104)"
         id="g773">
        <path
           id="path775"
           style="fill:#cc6666;fill-opacity:1;fill-rule:nonzero;stroke:none"
           d="m 16290.8,3064.23 c 9.2,18.03 8,36.8 0.7,53.35 5.3,5.07 8.2,12.83 4.7,21.44 -20.8,50.93 -81.8,44.87 -118.6,16.3 -37.3,-28.98 -44.1,-87.77 -6.6,-119.01 19,-15.9 42.3,-24.04 67,-20.15 21.9,3.44 43.5,29.88 52.8,48.07" />
      </g>
      <g
         transform="scale(0.196846)"
         id="g777">
        <path
           id="path779"
           style="fill:#cc6666;fill-opacity:1;fill-rule:nonzero;stroke:none"
           d="m 16227.1,3197.61 c 27.5,6.91 55,21.16 64.1,49.88 1.5,4.92 2,10.05 1.6,15.11 0.3,1.68 1,3.03 1.1,4.79 6.1,58.8 -60.2,95.77 -110.9,88.19 -26.1,-3.9 -44.4,-26.26 -50.7,-50.37 -4.8,-18.32 -0.8,-36.18 7.3,-52.32 2.2,-16.25 11.8,-31.08 31.8,-40.75 1.9,-0.89 3.9,-1.34 5.8,-2.13 15.1,-9.95 33.4,-16.53 49.9,-12.4" />
      </g>
      <g
         transform="scale(0.199074)"
         id="g781">
        <path
           id="path783"
           style="fill:#cc6666;fill-opacity:1;fill-rule:nonzero;stroke:none"
           d="m 16276,2868.01 c 12.1,8.21 21.2,19.49 22.7,36.44 1.3,14.13 -0.7,30.16 -6.6,43.98 0.1,2.84 -0.5,5.81 -2.3,8.95 -14.3,25.12 -33.9,50.67 -65.2,53.5 -33.8,3.04 -61.3,-11.27 -79.9,-39.19 -37.2,-55.74 7,-131.49 67.7,-142.24 31.2,-5.52 52.6,13.02 63.6,38.56" />
      </g>
      <g
         transform="scale(0.222243)"
         id="g785">
        <path
           id="path787"
           style="fill:#7cb342;fill-opacity:1;fill-rule:nonzero;stroke:none"
           d="m 13164.3,1462.53 c -27,11.67 -54.4,22.43 -81.9,32.78 10.9,58.59 24.1,116.61 39.4,174.08 21.6,-2.25 43.5,-4.08 64.9,-6.52 74,-8.42 158.7,-13.51 212.5,37.91 49.5,47.24 53,123.19 69.1,189.69 32.8,135.69 129.6,249.36 244.8,328.16 115.3,78.8 248.6,126.55 381.8,168.27 174.1,54.53 359.9,100.46 537.5,58.34 57.3,-13.62 122.4,-49.9 121.7,-108.86 -0.7,-59.44 -66.1,-93.31 -120.9,-116.31 -100.1,-42 -197.1,-91.46 -289.9,-147.82 -51.4,-31.23 -108.7,-87.35 -82.3,-141.41 21.2,-43.54 82.8,-47.65 128.9,-32.53 140.9,46.26 215.3,196.57 326.6,294.61 164.9,145.29 403.6,168.58 623,155.35 21.1,-1.27 45.4,-4.6 56.7,-22.48 7.7,-12.11 7,-27.76 3.6,-41.71 -15.6,-64.72 -79,-106.1 -141.4,-129.51 -62.3,-23.41 -130.1,-36.38 -184.2,-75.2 -54.1,-38.83 -89.4,-116.3 -54.5,-172.98 107.5,-21.96 200.9,67.95 285.3,138 253.2,210.1 638.5,282.82 917.1,107.74 23.7,-14.9 47.6,-32.84 57.7,-58.93 20.2,-51.69 -21.1,-105.4 -60,-145.04 -71.8,-73.31 -145.5,-144.71 -221,-214.15 -39.4,-36.14 -80.8,-72.7 -131.6,-89.17 -44.9,-14.56 -93.4,-12.14 -140.6,-9.55 -110.8,6.06 -228.4,29.31 -338.7,17.15 -84,-9.24 -167.1,-25.19 -248.5,-47.66 -26.4,-7.26 -56.1,-18.47 -64.9,-44.31 -8.9,-26.12 9.8,-55.2 34.5,-67.57 24.6,-12.36 53.5,-12.24 81.1,-11.85 51.2,0.72 102.5,1.43 153.7,2.15 59.2,0.83 135.3,-10.75 148.3,-68.49 10.9,-47.82 -32.4,-89.71 -73.2,-116.83 -143.9,-95.47 -323.9,-149.95 -491.3,-107.58 -92.5,23.43 -175.9,74.66 -267.4,101.79 -91.5,27.13 -202.8,24.33 -267.9,-45.44 -6.5,-6.87 -12.5,-14.69 -14.1,-23.95 -6.1,-33.71 42.1,-46.8 76.4,-45.26 78.6,3.54 147.3,2.87 226,0.85 57.8,-1.49 131.5,-15.54 142.5,-72.31 10.4,-53.87 -46.8,-94.73 -96.9,-117.023 -138.1,-61.403 -285.2,-99.957 -433,-131.792 -114.7,-24.726 -240.1,-44.328 -344.8,8.651 -71,35.895 -122.2,100.353 -175.4,159.494 -168.3,187.22 -377.5,337.49 -608.7,437.22" />
      </g>
      <g
         transform="scale(0.221638)"
         id="g789">
        <path
           id="path791"
           style="fill:#9ccc65;fill-opacity:1;fill-rule:nonzero;stroke:none"
           d="m 13924.3,1135.07 c -53.7,36.32 -101.5,80.75 -145.1,129.43 -41.9,46.92 -80,105.26 -122.8,157.65 -21.5,-41.62 -30.4,-85.91 -25.8,-132.73 1.5,-16.13 -23.5,-18.38 -25,-2.25 -5.1,52.31 4.9,103.1 29.7,149.46 1.2,2.28 2.9,3.73 4.7,4.82 -33.7,38.53 -70.8,72.43 -115.5,93.37 -3.1,1.49 -4.7,3.92 -5.7,6.46 -129.4,0.52 -258.5,9.88 -387,28.6 1.8,8 3.1,16.11 5,24.1 148.1,-21.43 296.9,-29.34 446,-26.95 1.3,2.13 3,4.11 6.3,4.9 61.7,14.56 103.8,85.52 138.4,134.48 20.6,29.22 39.9,59.4 59,89.66 -0.5,0.82 -1.5,0.92 -1.9,1.96 -13.8,37.75 -24.9,76.68 -32.3,115.78 -49.7,29.13 -85.2,75.01 -98.8,131.3 -3.7,15.57 19.8,24.54 23.6,8.83 10.3,-42.99 34.5,-79.26 69.2,-105.28 -10.3,84.71 2.1,168.98 57.7,243.06 9.7,12.98 29,-3.18 19.3,-16.11 -21.8,-28.97 -35.7,-59.77 -44.4,-91.49 33.2,10.59 62.1,29.97 84.4,57.32 10.3,12.56 29.6,-3.56 19.3,-16.1 -28.7,-35.13 -66.3,-57.81 -109.7,-68.85 -13,-76.78 3.6,-158.07 30.1,-234.36 5.1,8.03 10.2,16.1 15.3,24.09 43.5,67.21 92.9,127.54 148.9,182.46 -24.5,116.56 15.1,232.89 103.5,312.2 12.1,10.84 26.5,-9.78 14.6,-20.47 -77.3,-69.39 -111,-169.56 -95.9,-270.61 17.1,15.74 34.3,31.3 52.7,46.08 44.8,36.13 93.9,71.4 146,103.83 0.7,23.74 4.4,46.9 10.8,69.05 -0.6,0.81 -1.5,0.91 -1.9,1.94 -10.1,26.65 -14.9,53.63 -14.4,82.15 0.3,16.03 25.4,18.45 25.1,2.26 -0.4,-16.77 1.9,-32.72 5.5,-48.51 22.2,48.73 58.4,90.55 106.6,119.26 13.9,8.24 28.6,-12.19 14.6,-20.48 -69.1,-41.12 -113.3,-110.82 -120.3,-189.99 94.5,56.03 197.9,101.43 303,125.2 0,1.64 -0.7,3.07 0.2,4.87 12.9,26.56 31.3,47.91 55.9,64.23 13.5,8.95 28.1,-11.52 14.6,-20.48 -17.1,-11.32 -29.5,-25.65 -39.8,-42.39 46.1,8.48 92.5,13.02 138.5,11.6 15.9,-0.49 18.4,-25.53 2.2,-25.03 -87.3,2.7 -174.9,-14.94 -260,-44.83 36.8,-28.31 78.9,-45.42 125.6,-49.83 16.2,-1.52 11.6,-26.25 -4.4,-24.73 -55.8,5.25 -106.9,27.38 -149.1,64.07 -113.6,-43.97 -221.8,-109.23 -315.9,-180.99 25.2,-10.04 48.9,-22.8 75.3,-30.43 32.8,-9.47 67.8,-11.78 101.6,-14.76 16.1,-1.42 11.6,-26.15 -4.5,-24.74 -30.3,2.68 -60.2,6.31 -89.9,12.62 2.3,-13.73 5.7,-27.06 11,-40.22 4.5,-10.92 22.6,-48.25 36.3,-50.34 16,-2.44 11.5,-27.18 -4.5,-24.74 -21.2,3.23 -36.7,31.76 -46.4,48.46 -13.2,22.56 -20,47.9 -23,73.68 -25.3,8.54 -48.6,21.55 -73.7,30.74 -1.9,0.7 -2.3,2.2 -3.5,3.35 -13.3,-10.55 -26.5,-21.15 -39.2,-31.83 -96,-80.47 -163.4,-181.77 -230,-286.36 -9.1,-14.32 -18.9,-30.59 -29.3,-47.54 59.8,-14.4 120.4,-18.9 179.6,-15.06 45.2,87.98 113.8,159.04 201,206.09 14.1,7.61 28.8,-12.8 14.6,-20.48 -79.3,-42.74 -142,-105.59 -185.3,-183.86 115.1,13.84 223,64.15 306.2,155.39 10.9,11.95 30.2,-4.1 19.3,-16.11 -36.8,-40.39 -78.5,-72.91 -123.3,-98.62 27,-24.35 55.6,-46.3 92.9,-50.72 16,-1.91 11.5,-26.64 -4.5,-24.73 -43.4,5.14 -77.4,31.17 -108.7,59.83 -1.5,1.34 -1.4,2.97 -2.1,4.48 -122.1,-62.3 -265.4,-74.66 -404,-39 -30.1,-47.23 -65.7,-96.16 -109.1,-123.85 268.9,9.01 537.9,49.31 802.8,99.56 73.9,52.69 115.1,133.35 160.9,209.86 -0.1,0.07 -0.1,0.08 -0.1,0.15 -14.4,64.9 4.2,131.19 49.6,179.63 11.1,11.79 30.4,-4.25 19.3,-16.1 -34,-36.29 -49.5,-81.98 -47.1,-129.81 45.9,69.68 104.4,129.24 170.4,180.16 24.9,19.23 51.3,36.31 78.2,52.47 7.4,57.52 38.2,108.23 85.8,141.45 13.3,9.31 27.8,-11.19 14.5,-20.47 -36.3,-25.41 -60.1,-61.8 -70.6,-103.78 56.9,31.22 117.5,56.09 179.6,76.15 12.9,40.48 38.1,73.83 75.1,95.46 14,8.12 28.6,-12.31 14.6,-20.47 -26.6,-15.57 -46.8,-37.87 -59.2,-65.36 70,20.57 141.8,35.06 212.9,44.59 16.1,2.16 18.3,-22.89 2.3,-25.03 -40,-5.35 -79.6,-12.69 -118.9,-21.39 16.5,-25.85 39.1,-44.49 68.7,-54.92 15.3,-5.39 4.5,-28.11 -10.7,-22.75 -36.4,12.83 -65.6,37.61 -84,71.51 -0.1,0.15 0,0.28 -0.1,0.43 -46.9,-11.39 -92.9,-25.63 -137.9,-42.54 12.3,-28.16 47.2,-42.32 75.8,-46.64 16,-2.42 11.5,-27.15 -4.5,-24.73 -36.6,5.53 -80.2,25.77 -94.8,62.28 -78.9,-31.77 -153.9,-72.71 -222.6,-125.03 65.7,-35.58 139.1,-44.09 211.5,-22.18 15.5,4.68 24.4,-18.84 8.9,-23.53 -31,-9.37 -62.3,-13.89 -93.3,-13.54 8.4,-35.55 31.4,-64.36 65,-79.86 14.7,-6.8 4,-29.57 -10.7,-22.76 -43.1,19.93 -71.7,58.05 -80.5,104.29 -42.2,4.25 -83.3,17.52 -121.6,40.14 -71.2,-59.34 -124.9,-131.68 -172.1,-211.18 73.9,-32.75 151.6,-14.38 227.3,6.39 15.6,4.26 24.5,-19.26 8.9,-23.54 -83,-22.77 -168.7,-42.05 -249.4,-4.54 -28.7,-48.79 -58.8,-96.07 -99,-134.67 23.4,4.55 46.8,9.05 70.1,13.72 265.3,53.21 529.6,112 792.9,174.79 2.3,50.55 17.4,96.29 41.4,136.97 -0.6,5.57 2.5,11.36 8,13.55 30.9,46.9 74.3,86.2 125.8,116.02 13.9,8.07 28.6,-12.35 14.6,-20.47 -45.3,-26.25 -84.8,-60.03 -113.8,-100.49 35.6,-7.07 71.1,6.82 104.7,20.33 15.1,6.07 23.8,-17.5 8.8,-23.53 -41.5,-16.74 -84,-30.78 -127.4,-19.01 -20.6,-35.02 -34,-74.18 -36.7,-117.5 109.1,26.14 217.8,53.8 326.6,81.39 14.6,39.06 33.4,76.17 55.7,110.18 -25.6,52.4 -18.4,114.4 22,157.95 11,11.84 30.3,-4.2 19.3,-16.1 -29.9,-32.19 -39.7,-77.53 -25,-118.03 46.9,62.33 109.4,110.05 191.5,128.62 15.7,3.56 17.8,-21.51 2.2,-25.04 -48.3,-10.92 -88.7,-33.69 -122.9,-63.59 38.9,-18.77 76.3,-11.11 118.1,2.42 15.4,4.98 24.3,-18.55 8.9,-23.53 -51.2,-16.53 -98.5,-25.15 -146.4,3.03 -40.2,-41.35 -70.6,-93.33 -93.1,-148.36 106.1,27.05 212,54.81 317.8,83.04 12.8,59.48 45,110.85 93.3,148.09 12.9,9.94 27.4,-10.61 14.6,-20.48 -39.7,-30.6 -66.5,-72.18 -79.6,-119.92 62.6,16.77 125.1,33.46 187.5,50.81 15.5,4.32 24.4,-19.2 8.8,-23.54 -98.2,-27.31 -196.7,-53.49 -295.2,-79.47 19.4,-61.14 71.3,-102.97 136.2,-105.57 16,-0.64 18.5,-25.68 2.3,-25.03 -76.4,3.06 -140.2,49.67 -162.7,123.4 -0.1,0.27 0.2,0.44 0.1,0.71 -133.1,-34.94 -266.4,-69.06 -400.1,-102.01 28.4,-45.2 64.3,-83.01 105.4,-113.19 70.9,58.84 183.4,50.48 266.7,27.97 15.5,-4.2 11.2,-28.98 -4.5,-24.74 -72.2,19.52 -176.5,31.4 -240.9,-17.95 55.3,-35.27 119,-57.19 187.7,-62.58 16.1,-1.27 11.5,-26 -4.5,-24.74 -76.3,5.99 -147.3,32.12 -208.1,73.64 -4,0.76 -7,3.07 -9,6.3 -21.1,15.25 -40.8,32.59 -59.1,51.49 -5.1,-6.46 -11.7,-12.35 -16.4,-18.7 -15.4,-20.48 -23.9,-45.5 -27.9,-70.51 -2.6,-15.99 -27.4,-11.54 -24.8,4.48 3.5,21.24 10,41.02 19.7,60.21 3.9,7.67 8.8,14.83 13.7,21.93 2.9,4.09 6,8.04 9.3,11.86 2,2.41 5.5,8.7 7.7,9.83 0.1,0.5 0.3,0.91 0.5,1.39 -14.5,17.04 -28.1,34.97 -39.9,54.56 -0.6,0.86 -0.1,1.66 -0.4,2.52 -53.1,-13.02 -106.3,-25.24 -159.5,-37.63 -4.1,-5.55 -11.6,-7.19 -17,-4 -24.6,-5.73 -49.1,-11.61 -73.7,-17.4 13.7,-23.3 28.3,-46.1 45.2,-67.24 20.6,-25.77 59.1,-39.26 87.5,-54.44 14.2,-7.61 3.6,-30.43 -10.7,-22.76 -29.9,16.01 -63.2,29.8 -88.4,52.91 -24.1,22.07 -41.5,54.88 -57.7,82.86 -0.6,0.99 -0.1,1.9 -0.4,2.89 -219.6,-51.46 -439.7,-101.08 -660.7,-146.24 39.8,-20.28 69.2,-54.81 98.7,-90.57 3,-3.65 6.4,-6.77 9.5,-10.33 35.3,43.55 104.8,58.89 156.3,70.52 76.7,17.33 158,9.59 232.6,-12.7 15.3,-4.58 11.1,-29.37 -4.5,-24.73 -60.8,18.16 -120.7,24.21 -184.1,18.84 -21.2,-1.79 -47.9,-5.84 -74.9,-12.79 27.4,-72.51 102.4,-104.13 170.8,-130.6 15.1,-5.85 4.3,-28.58 -10.7,-22.75 -75.1,29.05 -155.8,65.88 -184.4,146.3 -33.9,-11.21 -65.6,-27.6 -83.8,-50.92 49.8,-52.83 107.4,-95.53 173.2,-128.45 155.3,-77.72 342.6,-82.88 502.6,-17.21 15,6.17 23.7,-17.41 8.8,-23.54 -62.9,-25.8 -129.7,-40.58 -197.2,-45.21 26.7,-30.17 60.6,-51.87 101,-59.7 15.9,-3.08 11.4,-27.84 -4.5,-24.75 -52.5,10.2 -96.4,40.36 -128.3,82.85 -62.8,-1.16 -125.6,7.26 -186.2,24.82 7.7,-48.19 17.4,-98.45 53.9,-133.64 11.6,-11.18 -4.4,-30.55 -16.1,-19.29 -24.7,23.85 -38.9,52.98 -48.4,84.18 -24.1,-7.51 -44.9,-19.7 -62.6,-38.44 -11.1,-11.75 -30.4,4.29 -19.3,16.1 21.1,22.41 46.1,37.95 75.4,46.6 -3.6,15.77 -6.4,31.84 -9,47.92 -0.2,1.62 0.8,2.45 1.1,3.78 -0.1,0.02 -0.1,0.04 -0.2,0.05 -59,19.96 -113.6,47.25 -164.5,81.8 -20.8,-36.67 -28,-77.84 -18.2,-119.26 3.7,-15.58 -19.8,-24.55 -23.5,-8.83 -11.7,49.28 -5.4,98.71 20.7,142.45 0.1,0.19 0.3,0.26 0.4,0.44 -6,4.36 -12.1,8.29 -17.9,12.87 -39.6,31.11 -72.7,79.22 -110.3,118.98 -32.6,-19.3 -58.6,-44.05 -80.7,-71.93 0,-0.02 0.1,-0.01 0.1,-0.04 27.4,-49.44 38.2,-102.45 31.7,-158.67 -1.9,-16.09 -26.6,-11.57 -24.8,4.48 5.3,45.88 -2.9,90.38 -23.6,131.32 -32.9,-49.04 -55.6,-105.83 -75.6,-162.67 -5.4,-15.28 -28.1,-4.48 -22.7,10.68 36.1,102.84 81.1,205.87 177.4,264.82 -24,22.17 -50.1,39.96 -81.4,46.76 -0.9,0.21 -1.1,1.02 -1.9,1.35 -35,-7.01 -70,-13.99 -105.2,-20.73 -1.7,-1.17 -3,-2.69 -4.8,-3.84 -4.8,-3.13 -9.3,-1.94 -13,0.45 -90.3,-17.13 -181.2,-32.76 -272.3,-46.57 21.5,-13.75 39.8,-31.52 57.6,-51.22 42.2,-46.88 82,-93.25 134.2,-129.42 13.3,-9.24 -2.9,-28.46 -16.1,-19.3 -38.4,26.57 -71.2,58.36 -102.5,92.75 -35.3,38.63 -65.3,82.45 -116.3,100.64 -184.9,-26.64 -371,-44.37 -556.8,-46.26 64.8,-41.09 110.2,-107.4 157.3,-167.22 21.9,-27.82 44.1,-55.06 67,-81.35 20.5,9.79 41.5,18.11 62.6,25.75 1.5,13.28 13.2,28.61 19.7,38.63 21.8,33.93 48.7,62.98 80.6,87.62 12.9,9.94 27.4,-10.61 14.6,-20.47 -19.1,-14.74 -36.1,-31.11 -51.6,-49.49 -7.2,-8.48 -13.6,-17.59 -19.8,-26.76 -2.5,-3.61 -8.5,-11.9 -13.2,-19.86 160.5,49.75 334,39.8 489.3,-31.35 14.7,-6.75 4,-29.51 -10.7,-22.75 -110.6,50.68 -230.2,69.23 -347.4,56.28 45,-64.08 110.9,-107.55 188.5,-122.55 15.9,-3.07 11.5,-27.82 -4.4,-24.74 -87.8,16.94 -163.2,67.76 -211.5,142.78 -61.1,-9.37 -121.4,-26.46 -179.1,-52.99 51.6,-56.6 108.1,-107.3 177.3,-145.45 1.8,-1 3.7,-1.71 5.5,-2.69 1.1,2.65 2.7,5.18 5.8,6.75 48,24.03 100.8,29.41 152.6,15.73 15.5,-4.1 11.2,-28.89 -4.5,-24.74 -44.1,11.66 -87.2,7.69 -128.4,-10.19 60.9,-29 124.7,-47.45 190.4,-56.93 -0.7,3.19 -0.2,6.69 2.3,10.01 39.8,54.78 96.2,90.38 162.2,104.68 15.8,3.43 17.9,-21.64 2.2,-25.03 -58,-12.58 -106.9,-45.36 -142.3,-92.51 160.5,-18.19 329.3,10.06 483.3,42.96 15.9,3.38 17.9,-21.68 2.3,-25.03 -72.5,-15.48 -145.9,-28.71 -219.5,-37.2 17,-27.82 38,-51.623 65.2,-70.335 13.3,-9.191 -2.9,-28.405 -16.1,-19.29 -32.1,22.087 -57.7,50.459 -76.4,84.695 -0.3,0.63 0.1,1.19 -0.2,1.81 -87.2,-8.5 -174.4,-9.46 -260.4,2.6 21.3,-46.674 51.2,-87.356 90.2,-121.114 12.3,-10.603 -3.8,-29.914 -16.1,-19.296 -45.2,39.095 -79.6,86.822 -102.7,141.96 -0.4,1.06 0.2,1.78 0.1,2.77 -57.1,9.99 -113.5,25.88 -168.8,49.47 -20.3,8.61 -39.3,18.98 -57.9,29.98 10.6,-52.56 32.1,-100.51 61.4,-143.777 40.9,-2.934 78.6,-16.734 112.2,-40.603 13.2,-9.401 -3,-28.626 -16.1,-19.293 -23.6,16.752 -49.5,27.379 -77.1,32.487 14.2,-17.568 29.9,-34.215 47.3,-49.592 12.1,-10.712 -3.9,-30.032 -16.1,-19.295 -26,22.961 -48.5,48.46 -67.8,75.852 -0.6,0.719 -1.2,1.295 -1.6,2.171 -36.6,52.66 -60.7,112.73 -71,178.37 -0.1,0.91 0.6,1.3 0.6,2.12" />
      </g>
      <g
         transform="scale(0.172254)"
         id="g793">
        <path
           id="path795"
           style="fill:#558b2f;fill-opacity:1;fill-rule:nonzero;stroke:none"
           d="m 15969.3,2160.62 c 4.6,-4.92 9.9,-9.49 16.6,-13.18 102,-55.89 206.1,-103.33 314.1,-140.77 -65.3,-22.57 -130.4,-44.72 -195.1,-65.53 -80.9,-25.99 -171.3,-60.48 -203.2,-139.23 -29.2,-72.37 2.9,-152.96 17.4,-229.65 29.6,-156.5 -17.6,-320.14 -100.4,-456.2 -82.8,-136.064 -199,-248.339 -317.9,-354.305 -155.4,-138.499 -327,-273.526 -531.3,-313.143 -66.1,-12.801 -150.8,-5.64 -177.8,55.99 -27.1,62.125 24.9,128.052 71.1,177.71 84.4,90.709 162,187.688 232,289.883 38.7,56.625 72,141.895 19.1,185.695 -42.5,35.28 -108.5,10.6 -149.3,-26.75 -124.7,-114.29 -131.6,-305.53 -201.2,-459.735 -103.1,-228.496 -340.4,-364.888 -574.7,-454.18 -22.5,-8.606 -49.3,-16.543 -69.5,-3.288 -13.7,8.98 -20.3,25.58 -23.4,41.658 -14.1,74.649 32.4,147.465 86.2,201.09 53.8,53.621 118.2,98.952 156.2,164.728 38,65.78 38.3,162.924 -24.6,205.444 -122,-27.655 -177,-165.027 -231.8,-277.506 -164.5,-337.369 -531,-594.0025 -902.8,-542.8313 -31.6,4.354 -64.9,11.7808 -87.8,34.1179 -45.2,44.2659 -27.5,119.5314 -5.7,178.9864 40.2,109.933 83.3,218.813 129.2,326.484 23.9,56.059 49.8,113.532 94.9,154.528 39.9,36.256 91.4,56.489 141.7,75.968 118.1,45.774 251.2,76.842 360.2,141.313 82.9,49.04 161.9,104.703 236,166.293 23.9,19.92 49.6,45.52 46.6,76.54 -3,31.34 -36.1,52.8 -67.5,54.07 -31.5,1.26 -61.4,-12.41 -89.9,-25.77 -53,-24.83 -105.9,-49.66 -158.9,-74.48 -61.1,-28.67 -145.6,-52.36 -186.4,1.52 -33.7,44.63 -8.4,108.51 21.3,155.9 104.7,166.82 266.3,308.05 460.2,342.62 107.2,19.11 217.9,5 325.9,19.79 107.9,14.81 222.2,69.97 257.2,173.13 3.4,10.15 6,21.13 3.4,31.53 -9.6,37.88 -65.9,28.84 -100.7,11.16 -80.1,-40.6 -151.9,-72.22 -234.6,-107.07 -60.8,-25.61 -144,-45.61 -182.1,8.25 -36.1,51.1 4.1,120.43 45.8,167.17 114.7,128.72 249.5,237.92 388.2,340.43 107.6,79.59 228.8,158.89 362.6,153.01 90.6,-3.98 174.2,-46.93 257.2,-83.44 243.2,-106.88 507.9,-163.78 773.5,-167.95" />
      </g>
      <g
         transform="scale(0.173258)"
         id="g797">
        <path
           id="path799"
           style="fill:#7cb342;fill-opacity:1;fill-rule:nonzero;stroke:none"
           d="m 15209.3,651.371 c 52.2,74.592 65.2,167.03 35.6,251.915 -71.3,-101.783 -156.8,-196.75 -254,-270.211 0.7,-1.714 2.1,-2.852 2,-5.107 -0.9,-33.372 -9.9,-63.974 -27.7,-92.253 -9.8,-15.52 -34.3,-1.211 -24.6,14.312 12.3,19.615 18.5,40.188 21.3,62.249 -43.6,-30.256 -89.3,-56.522 -137.3,-76.464 -16.7,-6.937 -30.9,17.732 -14,24.749 91.2,37.867 173.4,96.886 247.1,167.312 -51,12.075 -102.4,10.107 -152.7,-7.147 -17.3,-5.945 -24.1,21.673 -6.9,27.587 59.9,20.555 122.9,21.531 183.5,3.382 96.7,98.259 177.8,215.903 241.4,333.735 -30.7,-1.43 -61.1,0.71 -91.9,-3.73 -38.2,-5.53 -75.3,-19.43 -111.6,-32.11 -17.3,-6.06 -24.1,21.57 -6.9,27.58 32.5,11.36 65.1,21.57 98.6,28.89 -8.8,13.08 -18.4,25.25 -30.1,36.31 -9.7,9.19 -45.7,39.25 -60.8,35.01 -17.7,-4.95 -24.6,22.64 -6.9,27.58 23.3,6.55 52.6,-15.65 70.4,-28.32 24.1,-17.11 42.9,-40.06 58,-65.26 30,2.97 60.2,0.44 90.3,2.66 2.3,0.17 3.4,-1.19 5.1,-1.84 8.9,17.1 17.5,34.15 25.7,51.1 61.4,127.64 83.7,263.47 103.7,402.3 2.7,19.01 5.2,40.33 8,62.66 -68.4,-13.03 -132.9,-36.59 -192.2,-68.15 -5.6,-111.73 -43.1,-216.92 -111.1,-306.04 -11,-14.41 -35.7,-0.23 -24.6,14.31 61.8,80.97 97.1,174.96 105.4,275.83 -112.2,-67.87 -200.1,-170.02 -243.3,-302.79 -5.6,-17.4 -33,-9.86 -27.4,7.62 19.2,58.77 47,111.71 81.1,159.06 -39.1,12.53 -78.8,21.83 -119.3,9.04 -17.5,-5.53 -24.3,22.08 -6.9,27.58 47.1,14.88 94.3,3.93 139.9,-11.06 2.1,-0.69 2.8,-2.41 4.2,-3.66 96.9,121.11 238.8,200.59 398.3,228.41 9.1,62.71 22.9,129.7 54.8,178.47 -273,-134.53 -531.5,-301.36 -781.1,-476.53 -51.7,-88.74 -56.6,-191.08 -68.1,-291.28 0,-0.07 0.1,-0.04 0.2,-0.11 44.9,-60.24 56.7,-137.228 32.4,-208.301 -5.9,-17.293 -33.3,-9.776 -27.4,7.607 18.2,53.253 12.9,107.557 -11.9,155.764 -14.9,-93.227 -47.3,-181.832 -91.7,-265.082 -16.7,-31.422 -35.9,-61.314 -56.2,-90.51 19.2,-62.745 11,-129.379 -22.5,-185.773 -9.4,-15.787 -33.9,-1.436 -24.5,14.312 25.6,43.119 33.1,91.721 24.5,139.908 -44.2,-58.721 -95,-112.556 -149.8,-162.195 5.6,-47.736 -4.8,-93.819 -32.9,-133.381 -10.6,-14.85 -35.2,-0.62 -24.6,14.31 20.2,28.476 30.6,60.851 30.6,94.959 -62.6,-53.813 -129.8,-102.173 -198.7,-145.132 -15.6,-9.713 -29.5,15.083 -14,24.748 38.7,24.131 76.2,50.154 112.6,77.407 -29,18.988 -61,27.65 -96.4,24.636 -18.2,-1.567 -17.7,26.874 0.4,28.423 43.5,3.72 85.1,-8.234 120,-34.572 0.1,-0.119 0.1,-0.306 0.2,-0.423 43,33.593 83.9,69.716 122.4,108.107 -25.8,23.294 -68.4,21.632 -99.8,12.772 -17.7,-4.971 -24.6,22.613 -7,27.585 40.4,11.358 94.7,10.781 126.8,-20.055 66.5,69.498 124.8,146.654 171.2,232.589 -84.3,6.058 -164,-19.373 -228.4,-75.693 -13.8,-12.023 -33.9,8.088 -20.1,20.15 27.6,24.074 57.8,43.323 89.8,57.397 -25.1,32.759 -62.3,51.702 -104.1,52.062 -18.3,0.154 -18,28.584 0.4,28.426 53.7,-0.455 100.9,-26.457 131.5,-70.009 45.5,15.268 94.1,20.769 144.1,15.286 45.7,94.318 67.4,193.898 79,297.808 -91.4,-0.63 -163,-55.77 -231.3,-112.455 -14,-11.615 -34.2,8.465 -20.1,20.155 74.9,62.13 154.3,121.92 254.9,120.81 6.9,63.68 15.9,126.45 39.4,184.96 -22,-15.58 -44,-31.11 -65.9,-46.78 -248.7,-178.44 -493.7,-362.147 -735.9,-549.525 21.2,-53.163 26.9,-107.374 21.1,-160.465 3.2,-5.488 2.7,-12.883 -1.9,-17.699 -10,-62.745 -36.5,-123.465 -75.7,-178.188 -10.6,-14.808 -35.2,-0.582 -24.5,14.31 34.4,48.158 59.4,101.377 70.4,156.587 -40,-9.329 -70.1,-40.172 -98.4,-69.734 -12.7,-13.275 -32.7,6.944 -20.1,20.149 35.1,36.614 72.3,70.855 122.5,78.949 4.9,45.677 0.5,92.275 -16.8,138.235 -100.3,-77.777 -199.6,-156.942 -298.8,-236.043 3.1,-47.099 1.1,-94.062 -6.1,-139.514 50.8,-42.104 72.2,-109.381 50.9,-173.079 -5.8,-17.331 -33.3,-9.801 -27.4,7.616 15.8,47.086 4.8,98.401 -29.2,133.29 -19.4,-86.107 -61.5,-164.37 -137.5,-221.7489 -14.6,-11.0249 -28.4,13.8657 -14,24.7489 44.7,33.769 75.7,76.038 97.1,122.802 -48.8,1.245 -83.8,-24.056 -120.6,-57.519 -13.6,-12.305 -33.7,7.828 -20.1,20.149 45,40.86 89.8,71.809 152.3,65.056 22.2,61.347 29.3,129.075 26.9,196.311 -96.8,-77.309 -193,-155.255 -288.9,-233.628 14.5,-67.295 5.1,-135.2662 -27.2,-196.1218 -8.7,-16.23751 -33.2,-1.815 -24.6,14.3166 26.6,50.011 34.9,105.3562 26.1,160.6662 -56.6,-46.415 -113.3,-92.758 -169.5,-139.6874 -14,-11.6787 -34.2,8.4096 -20.1,20.1492 88.5,73.8892 177.8,146.7502 267.3,219.4332 -48.5,53.998 -121.5,72.909 -189.6,45.358 -16.8,-6.77 -31,17.895 -14,24.749 80.1,32.42 167.6,14.084 225.1,-51.421 0.3,-0.248 0.1,-0.525 0.3,-0.78 120.9,98.025 242.5,195.292 364.9,291.502 -50.3,33.39 -104.9,55.649 -161.4,67.592 -45.7,-93.694 -165.5,-137.455 -261.8,-153.025 -17.9,-2.895 -25,24.656 -6.9,27.591 83.5,13.501 196.5,49.804 239.9,130.676 -73.4,10.614 -149.3,3.544 -222.6,-22.884 -17.2,-6.205 -24,21.418 -6.9,27.585 81.4,29.354 166.8,35.498 248.8,21.028 4.5,1.067 8.7,0.086 12.2,-2.322 28.9,-5.866 57.3,-14.58 84.9,-25.56 2.3,9.074 6.3,18.183 8.2,26.942 6.4,28.284 3.4,58.017 -4,85.69 -4.8,17.689 22.8,24.615 27.6,6.906 6.3,-23.504 8.8,-46.918 7.7,-71.229 -0.4,-9.727 -2.2,-19.412 -3.9,-28.981 -1.1,-5.587 -2.4,-11.11 -4,-16.578 -1,-3.404 -1.7,-11.543 -3.4,-13.685 0.2,-0.564 0.1,-1.116 0.1,-1.691 22.9,-10.829 45.3,-22.952 66.6,-37.629 1,-0.654 0.9,-1.679 1.6,-2.435 48.6,38.136 97.8,75.535 146.9,113.083 1.6,7.621 8.6,12.842 15.6,12.035 22.7,17.356 45.2,34.856 67.9,52.273 -25,17.642 -50.6,34.344 -77.9,48.277 -33.2,16.977 -79.2,12.919 -115.6,15.358 -18.2,1.218 -17.9,29.659 0.5,28.43 38.2,-2.57 79,-1.28 115.7,-13.358 35.2,-11.528 68.4,-37.234 98.1,-58.54 1,-0.762 1,-1.921 1.7,-2.807 202.5,155.352 406.2,309.004 613,458.514 -50.4,2.37 -96.8,24.28 -143.9,47.4 -4.8,2.36 -9.8,3.98 -14.6,6.22 -16.1,-61.32 -80.6,-109.52 -128.3,-145.51 -71,-53.61 -158.4,-83.46 -245.7,-95.26 -17.9,-2.42 -25.1,25.13 -6.9,27.59 71.2,9.61 135.7,31.29 198.6,66.36 21,11.67 46.7,28.32 71.3,48.07 -62.1,61.96 -154.1,59.64 -236.9,55.06 -18.3,-1.01 -17.9,27.42 0.4,28.43 90.9,5.02 191.2,4.65 258.2,-64.91 29.8,27.35 54.8,58.99 62.7,91.51 -76,31.24 -155.2,48.46 -238.4,51.75 -196.3,7.75 -391.8,-74.18 -526.1,-216.36 -12.6,-13.37 -32.6,6.86 -20.1,20.14 52.8,55.88 114.8,102.24 182.3,138.46 -41.6,18.65 -86.6,25.25 -131.9,14.51 -17.8,-4.22 -24.8,23.34 -6.9,27.58 58.8,13.97 118.2,3.32 170.8,-25.65 64.2,30.45 132.9,51.05 203.5,61.18 -30.4,46.09 -63.8,93.36 -117.8,112.62 -17.2,6.12 -9.7,33.56 7.6,27.39 36.6,-13.05 64.8,-36.45 89.1,-64.21 21.4,18.96 37.1,41.24 46.6,68.79 6,17.26 33.4,9.75 27.4,-7.62 -11.3,-32.94 -29.8,-60.58 -56,-83.16 11,-14.59 21.4,-29.83 31.5,-45.22 1.1,-1.55 0.4,-2.88 0.8,-4.37 0,0 0.1,0.01 0.2,0.02 70.1,6.91 139.1,4.23 207.7,-7.67 4.3,47.46 -7.4,93.28 -36.9,131.38 -11.1,14.33 9,34.53 20.2,20.06 35,-45.33 51.5,-99.26 45,-156.48 0,-0.24 -0.2,-0.39 -0.2,-0.63 8.1,-1.73 16.3,-2.92 24.4,-4.93 55.3,-13.63 111.9,-47.79 169.2,-71.27 24.6,35.06 39.9,72.71 49.6,111.71 0,0.01 -0.1,-0.01 -0.1,0.01 -51.3,38.2 -87.1,87.83 -106.6,148.81 -5.5,17.45 22.1,24.3 27.6,6.9 15.9,-49.76 45.2,-91.79 85.6,-124.37 11.1,65.91 8,135 2.1,202.9 -1.6,18.25 26.9,17.71 28.4,-0.41 10.6,-122.86 12.2,-250.04 -59.5,-355.63 35,-11.69 70.2,-17.85 105.6,-10.3 1.1,0.22 1.7,-0.52 2.6,-0.51 32.9,23.54 65.7,47.05 98.8,70.38 1.2,2.01 1.9,4.18 3.2,6.19 3.5,5.46 8.6,6.33 13.6,5.61 85.1,59.72 171.5,118.14 259,174.82 -28.5,4.18 -55.7,13.95 -83.2,25.99 -65.3,28.67 -127.9,57.95 -198.6,70.9 -18.1,3.31 -10.3,30.67 7.6,27.39 51.9,-9.51 100.5,-27.02 148.9,-47.85 54.3,-23.41 105.7,-54.58 166.7,-49.57 178.2,113.58 361.8,218.53 552.4,307.04 -85.9,12.16 -163.7,59.34 -240,99.09 -35.6,18.48 -71.1,36.23 -107,52.65 -16.6,-19.65 -34.3,-38 -52.6,-55.72 4.7,-14.39 -0.3,-35.64 -2.2,-48.98 -6.7,-45.13 -20.9,-87.62 -42.3,-127.88 -8.7,-16.23 -33.2,-1.81 -24.6,14.32 12.8,24.06 22.7,48.87 30.2,75.07 3.4,12.08 5.7,24.44 7.9,36.79 0.9,4.87 3.2,16.23 4.3,26.6 -142.3,-126.06 -325.7,-196.59 -518.9,-195.57 -18.3,0.1 -17.9,28.53 0.4,28.43 137.6,-0.73 269.5,35.84 384.3,103.77 -76.3,45.1 -164.4,59.26 -251.4,38.53 -17.8,-4.24 -24.8,23.33 -6.9,27.59 98.3,23.41 199.7,6.14 284.5,-48.67 58.6,38.11 112.8,83.83 159.9,138.04 -79.5,34.32 -161.5,60.22 -250.5,67.35 -2.3,0.18 -4.6,0.04 -7,0.2 0.1,-3.25 -0.3,-6.61 -2.8,-9.69 -38.3,-47.1 -90.2,-77.22 -150,-87.26 -17.9,-3.01 -25,24.54 -6.9,27.58 51,8.55 93.5,32.7 127.6,70.31 -76.2,1.56 -150.6,-9.17 -222.7,-30 2.1,-2.98 3.3,-6.82 2.3,-11.36 -15.5,-75.02 -57.1,-138 -118.5,-183.48 -14.7,-10.89 -28.5,13.99 -13.9,24.76 53.9,40.01 89,96.55 103.6,161.67 -173.9,-56 -334.7,-163.75 -478.2,-269.44 -14.8,-10.85 -28.6,14.02 -14,24.76 67.5,49.72 137,97.57 208.9,140.59 -30.4,20.78 -63.2,35.52 -99.9,42.14 -18.1,3.26 -10.3,30.62 7.6,27.39 43.4,-7.81 83,-25.13 118.1,-51.75 0.7,-0.49 0.5,-1.24 1.1,-1.78 85.9,49.39 175.4,91.03 269.6,118.63 -43.6,38.22 -93.4,66.21 -149.4,82.82 -17.5,5.22 -10,32.63 7.6,27.4 64.8,-19.25 122.6,-52.39 172,-98.5 1,-0.88 0.6,-1.93 1.3,-2.87 63.4,16.26 129,26.15 197,27.63 24.9,0.54 49.4,-1.26 73.7,-3.94 -35.5,49.22 -79.9,88.66 -130.3,119.6 -43.6,-16.04 -88.8,-19.35 -134.6,-10.4 -18,3.53 -10.2,30.9 7.6,27.39 32.2,-6.28 63.8,-5.19 94.6,2.41 -22.8,11.49 -46.7,21.36 -71.8,29.09 -17.5,5.39 -10,32.79 7.6,27.39 37.5,-11.54 72.5,-27.37 105.2,-46.62 1,-0.43 1.8,-0.78 2.6,-1.5 62.3,-37.24 115.2,-87.9 156.3,-150.79 0.6,-0.87 0.1,-1.59 0.4,-2.45 72.2,-12.45 142.3,-35.94 209.8,-65.86 65.1,-28.83 131.5,-71.23 200.1,-105.26 2.7,52.88 -8.7,102.67 -35.2,148.81 -9.2,15.91 15.6,29.88 24.7,13.99 29.6,-51.56 43,-108.58 39,-167.92 -0.2,-2.92 -1.3,-5.2 -2.7,-7.17 52.7,-24.02 106.7,-41.7 162.6,-42.46 4,-0.05 6.7,-1.85 8.9,-3.99 200.6,89.68 409,160.87 627.5,204.21 17.8,3.54 24.9,-24.02 6.9,-27.59 -240.9,-47.79 -469.3,-129.72 -688.3,-232.95 -0.4,-2.8 -1.2,-5.64 -4.3,-8.01 -56.8,-43.75 -67.2,-136.52 -80,-203.08 -7.7,-39.73 -13.4,-79.81 -19,-119.91 0.9,-0.6 1.9,-0.26 2.8,-1.15 31.8,-32.48 61.4,-67.43 87.3,-104.27 64.8,-6.87 122.7,-37.64 162.9,-89.35 11.1,-14.31 -8.9,-34.5 -20.1,-20.07 -30.7,39.5 -72.5,65.62 -120.4,76.28 50,-82.54 76.5,-175.15 53.7,-277.42 -4,-17.92 -31.3,-10.22 -27.4,7.61 9,40 8.9,78.23 3.1,114.96 -29.3,-26.37 -50,-59.78 -60.3,-98.39 -4.7,-17.73 -32.1,-10.1 -27.4,7.62 13.3,49.58 41.4,90.46 81.1,122.09 -22.4,85.2 -77.4,161.22 -140.3,227.52 -1.5,-10.65 -2.9,-21.32 -4.5,-31.96 -13.5,-89.51 -36.3,-174.72 -68.5,-257.45 79.6,-108.7 92.9,-247.08 38.7,-370.022 -7.4,-16.793 -31.9,-2.251 -24.6,14.316 47.5,107.548 35.5,226.496 -27.1,323.616 -10.3,-24.17 -20.9,-48.25 -32.9,-72.04 -29.4,-58.11 -63.6,-117.349 -102.2,-175.044 10.4,-24.812 17.3,-50.401 21.1,-76.194 1,-0.586 2,-0.248 2.9,-1.127 22.8,-22.771 40.3,-48.334 53.1,-77.986 7.1,-16.661 -17.6,-30.82 -24.8,-13.983 -7.5,17.433 -17.3,32.813 -28.3,47.441 -0.2,-60.592 -18,-120.548 -54.4,-172.629 -10.4,-14.952 -35.1,-0.714 -24.6,14.313" />
      </g>
      <g
         transform="scale(0.191192)"
         id="g801">
        <path
           id="path803"
           style="fill:#ffebee;fill-opacity:1;fill-rule:nonzero;stroke:none"
           d="m 14266.7,2024.82 c -162.3,-23.56 -328,31.38 -467.7,117.37 -68.2,41.98 -132.7,92.32 -179.6,157.28 -46.9,64.95 -75,145.99 -65.3,225.5 -19.4,-0.45 -36.7,11.72 -51.8,24.06 -181,148.46 -262.1,399.72 -230.2,631.72 17.3,126 75.9,259.34 192.9,309.44 49.3,21.14 95.8,39.3 148.5,29.19 -17.7,63.2 43.1,134.48 108.3,126.95 25.4,144.55 162.4,261.22 309.1,263.29 23.2,90.51 116.7,145.47 207.6,167.06 34.9,8.29 72,13.1 106.3,2.65 34.4,-10.46 65.1,-39.5 67.8,-75.28 53.6,49.83 145.1,51.41 200.4,3.46 -20.5,17.84 77.8,102.07 90.3,109.47 47.4,28.17 95.5,32.51 148.9,26.47 110.6,-12.49 212.6,-67.43 276.2,-160.35 11.3,-16.57 22.3,-34.93 40.3,-43.83 12.8,-6.37 27.7,-6.99 41.9,-9.12 98.9,-14.76 168.9,-101.94 224.2,-185.26 -7.6,62.34 43.4,122.13 104.4,137 61,14.87 126.6,-8.29 175.3,-47.91 48.8,-39.63 83.1,-94.02 113.1,-149.22 25.8,-47.67 49.1,-96.74 69.7,-146.93 8.3,-20.31 12.6,-25.09 24.8,-43.38 109.4,-28.81 203.3,-110.98 246.5,-215.54 43.2,-104.56 34.5,-229.1 -22.7,-326.67 35.8,-15.08 55.7,-55.51 57.8,-94.35 2.1,-38.85 -10.2,-76.86 -22.4,-113.79 41.3,-8.85 73.5,-43.22 90.3,-81.99 16.7,-38.77 20.4,-81.8 22.6,-123.99 5.8,-112.86 1.8,-229.95 -45.8,-332.46 -61.7,-133.19 -191.1,-225.48 -329.5,-274.34 -138.5,-48.86 -287.1,-59.59 -433.6,-68.45 -360.8,-21.81 -738.1,-31.87 -1066,120.33 -56.3,26.16 -91.1,50.54 -152.6,41.62" />
      </g>
      <g
         transform="scale(0.170933)"
         id="g805">
        <path
           id="path807"
           style="fill:#ff6666;fill-opacity:1;fill-rule:nonzero;stroke:none"
           d="m 15826.6,3485.04 c 24.8,-2.9 45.5,-18.47 62.8,-35.6 91.9,-90.79 116.8,-230.48 121.6,-362.92 4.8,-132.44 -5.8,-268.81 31.7,-393.97 46.4,-154.38 160.4,-274.01 257.3,-400.57 -15.2,-19.98 -45.8,-11.71 -66.9,-0.77 -249.2,128.85 -445.1,349.93 -543.5,613.34 -61.1,163.6 -80.5,363.66 26.1,513.21 26.5,37.15 67.1,72.4 110.9,67.28" />
      </g>
      <g
         transform="scale(0.173193)"
         id="g809">
        <path
           id="path811"
           style="fill:#ff6666;fill-opacity:1;fill-rule:nonzero;stroke:none"
           d="m 16204.9,2250.34 c 6,268.4 28.1,537.43 66.3,805.17 13.4,94.35 28.8,190.93 10,282.4 -6.5,31.82 -18.5,64.38 -44.5,83.02 -44.7,31.96 -114.2,8.32 -151.9,-36.09 -37.7,-44.39 -51.4,-102.85 -62.9,-158.74 -35.9,-174.48 -63.7,-352.81 -43.9,-526.45 19.7,-173.66 91.8,-344.05 226.9,-449.31" />
      </g>
      <g
         transform="scale(0.176496)"
         id="g813">
        <path
           id="path815"
           style="fill:#ff6666;fill-opacity:1;fill-rule:nonzero;stroke:none"
           d="m 16117,2291.13 c -38.4,-51.89 -91.8,-103.74 -154.5,-103.05 17.4,190.78 43.7,381.3 78.9,570.72 10.8,57.79 24.3,119.34 66.3,162.35 42,43.02 122.1,53.65 152.6,5.92 10.1,-15.8 13.3,-35.21 15.6,-54.18 24.1,-199.98 -34.2,-413.54 -158.9,-581.76" />
      </g>
      <g
         transform="scale(0.179541)"
         id="g817">
        <path
           id="path819"
           style="fill:#ff6666;fill-opacity:1;fill-rule:nonzero;stroke:none"
           d="m 15977.5,2341.6 c 43.8,67.71 69.4,144.6 90.3,221.33 30.6,112.41 52.4,229.6 34.2,341.72 -8.4,51.66 -25.2,102.9 -17.8,155.67 7.5,52.77 50.8,108.31 103.6,105.82 66.8,-3.16 89.6,-85.85 94.8,-152.16 13.8,-175.94 17.4,-358.25 -43.2,-528.72 -60.6,-170.47 -197.9,-328.19 -373.8,-368.05 -14.4,-3.26 -33.9,-2.86 -37.2,11.06 -1.8,7.13 2,14.66 5.9,21.27 39.9,68.94 99.8,125.05 143.2,192.06" />
      </g>
      <g
         transform="scale(0.18327)"
         id="g821">
        <path
           id="path823"
           style="fill:#ff6666;fill-opacity:1;fill-rule:nonzero;stroke:none"
           d="m 16291.3,2806.28 c -1.8,32.59 -6.2,65.65 -21.1,93.95 -23.5,44.53 -81.1,72.99 -128.7,49.71 -21.6,-10.56 -38.1,-29.83 -50.9,-50.25 -46.9,-75 -50.4,-165.77 -60.8,-251.7 -25.6,-213.28 -113.8,-437.85 -295.3,-562.4 159.9,35.38 309.1,130.68 410.8,262.25 101.6,131.56 154.7,298.16 146,458.44" />
      </g>
      <g
         transform="scale(0.186419)"
         id="g825">
        <path
           id="path827"
           style="fill:#ff6666;fill-opacity:1;fill-rule:nonzero;stroke:none"
           d="m 16271.6,2446.17 c -8.1,24.74 -23,46.86 -42.8,63.46 -15.2,12.76 -33.7,22.42 -54.1,23.66 -38.4,2.33 -74.2,-25.29 -100.1,-55.54 -48.7,-56.73 -78,-126.62 -120.5,-187.9 -73.9,-106.58 -184.3,-182.58 -294.5,-251.12 85.9,-33.45 185.8,-30.68 276.7,-0.22 90.9,30.44 173.1,87.35 240.8,156.77 66.6,68.34 122.9,164.73 94.5,250.89" />
      </g>
      <g
         transform="scale(0.168165)"
         id="g829">
        <path
           id="path831"
           style="fill:#ff6666;fill-opacity:1;fill-rule:nonzero;stroke:none"
           d="m 15522.2,2782.4 c -17.5,-76.94 48.9,-140.69 112.2,-182.65 194.2,-128.71 425.5,-212.36 665.6,-204.18 -145.6,65.83 -274,165.5 -372.8,289.36 -36.2,45.26 -68.6,93.96 -111.2,133.22 -42.6,39.25 -97.8,68.96 -157.6,66.73 -59.8,-2.23 -122.7,-43.64 -136.2,-102.48" />
      </g>
      <g
         transform="scale(0.163337)"
         id="g833">
        <path
           id="path835"
           style="fill:#ff8585;fill-opacity:1;fill-rule:nonzero;stroke:none"
           d="m 16231.2,3664.81 c 27.6,-85.33 1.7,-180.39 -6.7,-271.74 -11.7,-127.09 11.9,-255.06 67.5,-365.88 4.8,-9.38 8,-23.88 -2,-28.63 -5.1,-2.45 -10.9,-0.34 -15.9,1.86 -110.1,48.75 -199.2,138.8 -246.6,249.22 -47.5,110.41 -52.9,240.28 -14.9,359.4 11.5,36.1 27.6,72.33 55.3,98.97 27.8,26.65 69.3,41.71 103.7,29.14 30.7,-11.19 49.6,-41.32 59.6,-72.34" />
      </g>
      <g
         transform="scale(0.166563)"
         id="g837">
        <path
           id="path839"
           style="fill:#ff8585;fill-opacity:1;fill-rule:nonzero;stroke:none"
           d="m 15997.5,3557.61 c -27,94.77 -6.3,198.53 14.5,297.71 6.9,32.83 13.8,65.7 23.3,98.01 10.2,34.6 24.1,69.48 48.9,96.44 24.9,26.96 62.8,44.55 97,36.55 49.4,-11.57 70.5,-67.3 82.1,-116.61 23.7,-101.88 36.7,-209.09 15.3,-314.25 -41.5,-6.34 -83.6,-12.84 -122.7,-29.51 -39.1,-16.68 -75.7,-45.01 -93.4,-83.62 -3.1,-6.72 -5.8,-13.97 -11.3,-18.98 -10,-9.01 -26.2,-7.01 -35.9,1.14 -9.7,8.16 -14.3,20.78 -17.8,33.12" />
      </g>
      <g
         transform="scale(0.170812)"
         id="g841">
        <path
           id="path843"
           style="fill:#ff8585;fill-opacity:1;fill-rule:nonzero;stroke:none"
           d="m 15997.4,3534.44 c -12.8,24.14 -26.8,48.37 -30.6,75.83 -4.2,29.64 3.8,60.17 7.4,90.35 8.5,72.3 -8.5,143.24 -18,214.32 -9.5,71.07 -10.4,148.2 26.4,212.75 103.7,7.26 181.5,-84.48 220.8,-177.52 96.6,-228.58 60.2,-504.17 -49.2,-739.72 -9.6,-20.81 -25.4,-44.95 -47.7,-43.81 -12.3,129.42 -49.5,254.93 -109.1,367.8" />
      </g>
      <g
         transform="scale(0.17669)"
         id="g845">
        <path
           id="path847"
           style="fill:#ffa3a3;fill-opacity:1;fill-rule:nonzero;stroke:none"
           d="m 16183.7,3767.78 c 28.7,-13.24 40.9,-46.2 50.5,-76.37 20.6,-64.87 40.3,-130.45 49.4,-198.54 16.4,-122.82 -2.1,-249.41 -20.5,-374.07 -2.4,-16.14 -4.9,-32.71 -13,-47.22 -18.9,-34.03 -65.2,-46.95 -100.6,-35.07 -35.3,11.87 -60.2,43.15 -74.7,77.31 -14.4,34.18 -19.9,71.72 -28,108.24 -13.5,61.38 -34.5,120.99 -40.6,183.97 -8,81.75 9.2,165.69 35.7,245.62 10.9,32.68 24,66.08 48.5,90.98 24.5,24.91 63.2,39.04 93.3,25.15" />
      </g>
      <g
         transform="scale(0.17319)"
         id="g849">
        <path
           id="path851"
           style="fill:#ffa3a3;fill-opacity:1;fill-rule:nonzero;stroke:none"
           d="m 16138.9,3488.91 c 6.5,15.49 25.3,23.33 41.7,22.1 16.3,-1.23 30.8,-9.43 44.7,-17.45 17,79.29 34,158.6 51,237.89 11.8,55.07 23.7,111.14 18.8,166.23 -2.9,32.41 -15.6,68.27 -46.5,77.72 -29.9,9.14 -64.1,-12.3 -80.5,-40.47 -16.4,-28.17 -19.4,-61.22 -21.9,-92.97 -7.2,-90.68 -14.5,-181.36 -21.7,-272.04 -2.3,-28.5 -3.7,-60.08 14.4,-81.01" />
      </g>
      <g
         transform="scale(0.180843)"
         id="g853">
        <path
           id="path855"
           style="fill:#ff8585;fill-opacity:1;fill-rule:nonzero;stroke:none"
           d="m 16006.4,3670.77 c -11,-15.67 -15,-34.83 -17.5,-53.4 -8.4,-62.19 -3.4,-124.51 1.6,-186.25 4.6,-56.44 9.2,-112.88 13.8,-169.32 1.5,-19.03 4.1,-40.12 18.9,-51.54 16,-12.39 39.5,-8.35 60.1,-10.42 70.3,-7.05 104.6,-83.51 126.5,-149.62 12.8,-38.52 25.6,-77.05 38.3,-115.58 51.9,220.49 33.5,452.7 -51.9,654.08 -16.4,38.8 -36.9,78.29 -72.8,100.06 -36,21.77 -91.5,18.31 -117,-18.01" />
      </g>
      <g
         transform="scale(0.185054)"
         id="g857">
        <path
           id="path859"
           style="fill:#ff8585;fill-opacity:1;fill-rule:nonzero;stroke:none"
           d="m 16021.5,3365.46 c -20.5,-25.23 -23.4,-59.17 -25.5,-90.69 -6,-93.07 -12,-186.13 -18.1,-279.2 98.5,-0.61 175,-85.37 199,-179.08 23.9,-93.72 6.9,-194.82 -10.1,-292.5 110.9,230.01 133.2,496.74 61.1,730.79 -14.3,46.16 -33.7,93.33 -72.5,121.39 -38.7,28.06 -101.9,28.67 -133.9,-10.71" />
      </g>
      <g
         transform="scale(0.188051)"
         id="g861">
        <path
           id="path863"
           style="fill:#ff8585;fill-opacity:1;fill-rule:nonzero;stroke:none"
           d="m 16141,3043.37 c -42.5,-45 -32.6,-113.46 -29,-172.97 6.8,-110.89 -20.4,-226.99 -83.9,-322.78 9.2,22.12 38.9,28.21 61.5,22.87 45.4,-10.74 78.1,-55.9 74.8,-103.13 17.7,37.87 52.8,65.49 74.7,101.34 20.6,33.89 28.3,73.23 35.4,111.55 13,69.21 25.5,139.88 15.9,208.24 -9.6,68.36 -45.2,135.23 -107,164.06 -5.8,2.7 -12,5.09 -18.6,4.6 -9.2,-0.69 -17.3,-6.91 -23.8,-13.78" />
      </g>
      <g
         transform="scale(0.172218)"
         id="g865">
        <path
           id="path867"
           style="fill:#ff8585;fill-opacity:1;fill-rule:nonzero;stroke:none"
           d="m 16288.3,4258.09 c -3.7,38.85 -9.6,81.8 -39.9,105.08 -30.6,23.53 -77.8,17.73 -112.3,-4.3 -34.5,-22.05 -58.6,-57.1 -79.1,-92.35 -24.1,-41.24 -45.4,-87.51 -39.5,-133.19 3.4,-26.49 15.6,-50.4 27.7,-73.73 37.5,-72.39 75.1,-144.78 112.6,-217.17 3.4,5.76 6.8,11.53 10.1,17.3 -11.4,64.51 12.8,136.29 62.1,183.85 20.8,20.19 46.6,37.22 58.8,63.28 11.2,23.71 9,50.49 6.6,75.78 -2.4,25.15 -4.8,50.3 -7.1,75.45" />
      </g>
      <g
         transform="scale(0.168686)"
         id="g869">
        <path
           id="path871"
           style="fill:#ff8585;fill-opacity:1;fill-rule:nonzero;stroke:none"
           d="m 16272.2,4483 c 27.8,-26.53 24.3,-72.37 15.6,-111.43 -9.1,-40.47 -21.9,-80.35 -38.1,-118.97 -15.1,33.33 -69.5,27.8 -95,-1.2 -25.6,-29.02 -30.1,-69.53 -33.4,-107.01 -4.1,-46.47 -8.1,-92.95 -12.2,-139.44 -72.8,110.45 -68.1,263.62 -9,389.66 16.1,34.27 37.1,68.32 69.1,89.05 31.9,20.73 77.1,24.15 103,-0.66" />
      </g>
      <g
         transform="scale(0.165527)"
         id="g873">
        <path
           id="path875"
           style="fill:#ff8585;fill-opacity:1;fill-rule:nonzero;stroke:none"
           d="m 15921.1,3983.67 c -8.6,-32.79 -14.9,-67.43 -6.3,-99.16 6.1,-22.34 19.2,-41.68 32,-60.6 29.4,-43.21 58.8,-86.41 88.1,-129.62 -22.1,115.1 -11.1,238.24 31.4,351.55 15.7,41.81 36.6,83.63 70.9,113.12 34.2,29.48 84.6,43.78 123.1,25.02 1.9,72.09 15.4,144.56 39.7,213.88 -17,17.9 -45.9,20.79 -70.6,13.13 -24.8,-7.66 -46.2,-24.16 -66.1,-41.3 -117.4,-101.34 -203.6,-238.66 -242.2,-386.02" />
      </g>
      <g
         transform="scale(0.176283)"
         id="g877">
        <path
           id="path879"
           style="fill:#ffa3a3;fill-opacity:1;fill-rule:nonzero;stroke:none"
           d="m 15999.4,4228.85 c -16.7,-62.46 -26.7,-126.31 -29.8,-190.08 -0.4,-8.43 -0.6,-17.15 2.6,-24.74 4.5,-10.58 14.7,-17.09 23.7,-24.19 56.3,-44.81 68.2,-124.92 76.4,-197.94 -3.9,32.01 22.3,64.41 53.9,74.77 31.5,10.35 65.7,2.12 92.8,-14.45 27,-16.57 48.1,-40.73 68.8,-64.59 12,16.36 12.2,37.76 11.5,57.4 -2.1,61.49 -7.2,122.7 -15.2,183.34 -7.1,54.21 -16.8,108.57 -38.8,157.81 -22,49.24 -57.4,93.45 -106.1,116.82 -31.2,14.98 -72.1,19.75 -101,-2.52 -22.1,-16.99 -31.7,-45.15 -38.8,-71.63" />
      </g>
      <g
         transform="scale(0.181665)"
         id="g881">
        <path
           id="path883"
           style="fill:#ffa3a3;fill-opacity:1;fill-rule:nonzero;stroke:none"
           d="m 15897.9,4018.83 c -18.7,-38.25 -11.9,-81.99 -4.8,-122.43 7.7,-43.85 15.5,-87.7 23.2,-131.55 0.6,-3.31 1.3,-6.82 3.6,-9.18 4,-4.06 10.8,-3.08 16.7,-2.16 55.9,8.8 111.2,-14.72 151.6,-50.99 40.5,-36.27 68.4,-84.24 94.2,-132.3 37.7,-70.21 72.8,-144.18 79.9,-225.07 -8.5,51.74 -0.5,107.04 22.6,156.14 5.9,12.49 12.9,25.05 13.9,38.54 1.2,15.55 -5.6,29.98 -12.3,43.62 -18.1,37.12 -36.3,74.23 -54.4,111.35 -62.8,128.47 -128.8,260.91 -240.5,349.18 -8.4,6.58 -17.3,13.04 -27.8,15.46 -26.3,6.01 -53.7,-15.52 -65.9,-40.61" />
      </g>
      <g
         transform="scale(0.185799)"
         id="g885">
        <path
           id="path887"
           style="fill:#ff8585;fill-opacity:1;fill-rule:nonzero;stroke:none"
           d="m 16035.9,3444.07 c 70.7,-12.37 126.8,-65.2 160.4,-127.27 33.5,-62.08 48,-133.26 62,-203.34 24,18.5 28,52.05 29.7,81.43 7,118.24 12,237.75 -10.1,352.36 -22.1,114.6 -73.9,225.35 -164,296.6 -8.1,6.43 -16.8,12.63 -26.9,15.39 -26.3,7.14 -55.6,-11.38 -70,-35.75 -14.4,-24.37 -17.2,-53.05 -19.1,-80.61 -5.9,-87.99 -5.4,-176.02 1.6,-263.14 0.7,-8.77 1.7,-18.12 7.4,-24.59 6.9,-7.85 18.5,-9.25 29,-11.08" />
      </g>
      <g
         transform="scale(0.18859)"
         id="g889">
        <path
           id="path891"
           style="fill:#ffa3a3;fill-opacity:1;fill-rule:nonzero;stroke:none"
           d="m 16153.7,3124.02 c 40.1,-16.32 72.1,-49.87 86.4,-90.77 59.9,120.28 45,270.14 -36.7,367.93 -9.9,11.93 -21.2,23.4 -35.6,29.49 -14.5,6.1 -32.9,5.84 -45.9,-4.27 33,-81.56 35.7,-176.5 7.4,-263.52 -1.8,-5.4 -3.7,-11.02 -2.9,-16.49 1.9,-12.37 15.8,-17.71 27.3,-22.37" />
      </g>
      <g
         transform="scale(0.161567)"
         id="g893">
        <path
           id="path895"
           style="fill:#ff8585;fill-opacity:1;fill-rule:nonzero;stroke:none"
           d="m 16035.9,3991.73 c 35.7,28.33 83.9,52.88 122.8,34.1 19.1,-9.23 31.8,-27.39 42.3,-45.78 18.6,-33.01 32.4,-69 40.6,-106.51 1.9,-8.76 3.6,-17.81 2.2,-26.87 -2.2,-14.48 -11.5,-27.12 -20.4,-39.19 -70.8,-96.87 -127,-206.91 -143.3,-323.08 -16.2,-116.18 11.3,-238.96 89.7,-320.44 37.7,-39.19 85.3,-67.46 130.2,-98.41 -100.6,3.8 -206.5,9.16 -288.5,63.05 -54.2,35.64 -93.2,89.96 -122.3,148.1 -56.9,113.93 -78.6,247.76 -54.3,377.34 24.2,129.57 95.6,253.87 201,337.69" />
      </g>
      <g
         transform="scale(0.189922)"
         id="g897">
        <path
           id="path899"
           style="fill:#ff8585;fill-opacity:1;fill-rule:nonzero;stroke:none"
           d="m 16015.1,2290.67 c 10.3,34.05 16.9,69.39 33.5,101.23 10.6,20.46 25,38.84 38.1,57.93 52.9,77.06 84.6,167.59 90.6,258.38 31.3,-9.61 53,-36.86 68,-65.55 54.7,-104.62 38.5,-242.41 -30.6,-346.1 -69.1,-103.68 -185.6,-173.01 -306.3,-194.99 49,54.64 85.9,119.91 106.7,189.1" />
      </g>
      <g
         transform="scale(0.178849)"
         id="g901">
        <path
           id="path903"
           style="fill:#689f38;fill-opacity:1;fill-rule:nonzero;stroke:none"
           d="m 15768.2,2112.2 c 42,-9.51 70.8,-58.98 113.8,-56.29 25.4,1.58 45.9,21.58 70.4,28.47 64.6,18.15 126.5,-58.12 192.1,-43.65 20.6,4.54 38.7,17.86 59.6,20.9 57.2,8.31 95.9,-69.46 72.7,-122.39 -23.2,-52.94 -81.2,-80.76 -136.4,-98.09 -211.8,-66.58 -444.5,-42.25 -653.8,32.07 -96.3,34.22 -193.3,82.34 -251.5,166.43 -22.2,32.15 -38.3,71.41 -31.3,109.87 7,38.46 43.8,72.89 82.4,66.21 24.5,-4.25 43.6,-22.89 65.7,-34.54 72.2,-38.2 165.9,2.08 240.4,-31.66 28.5,-12.96 53,-36.46 84.1,-40.99 30.5,-4.44 61.8,10.45 91.8,3.66" />
      </g>
      <g
         transform="scale(0.183937)"
         id="g905">
        <path
           id="path907"
           style="fill:#8bc34a;fill-opacity:1;fill-rule:nonzero;stroke:none"
           d="m 15982.1,1373.87 c 50.5,-5.67 100.9,8.06 149.8,21.67 56,15.58 112.1,31.17 168.1,46.76 -45.9,54.26 -108.6,92.47 -175.2,117.3 -26.6,9.92 -54.3,17.91 -82.6,19.25 -32.8,1.56 -65.4,-5.77 -97.1,-14.3 -75.2,-20.2 -148.6,-47.38 -218.8,-81.06 89.5,-26.29 163.1,-99.2 255.8,-109.62" />
      </g>
      <g
         transform="scale(0.177808)"
         id="g909">
        <path
           id="path911"
           style="fill:#8bc34a;fill-opacity:1;fill-rule:nonzero;stroke:none"
           d="m 16215.5,1439.21 c 7.2,5.73 16.1,11.54 25,9.12 6.2,-1.7 10.7,-7.06 14.4,-12.3 30.6,-42.3 45.1,-95.91 40.1,-147.85 -15.5,-158.78 -196.1,-262.07 -215,-420.471 -40,83.13 -81.1,173.981 -62.4,264.331 5.7,27.67 16.9,53.89 29,79.43 40.9,86.16 94.2,168.46 168.9,227.74" />
      </g>
      <g
         transform="scale(0.185763)"
         id="g913">
        <path
           id="path915"
           style="fill:#8bc34a;fill-opacity:1;fill-rule:nonzero;stroke:none"
           d="m 16094,1238.56 c 32.7,-25.15 60.5,-56.27 92.9,-81.78 32.5,-25.51 71.9,-45.76 113.1,-43.56 -37.8,-2.19 -75.6,-4.38 -113.4,-6.57 -85.2,-4.94 -171.9,-9.75 -254.7,10.69 -82.8,20.45 -162.7,70.36 -198.2,147.94 111.4,61.9 259.2,50.94 360.3,-26.72" />
      </g>
      <g
         transform="scale(0.180786)"
         id="g917">
        <path
           id="path919"
           style="fill:#8bc34a;fill-opacity:1;fill-rule:nonzero;stroke:none"
           d="m 16047.3,543.133 c -29.4,92.817 -59.1,189.114 -47.6,285.775 13.4,112.145 80.6,210.172 152.7,297.132 12.8,15.55 33.6,32.38 50.7,21.72 4.6,-2.84 7.9,-7.27 11,-11.64 50.8,-70.71 85.9,-162.127 57.7,-244.461 -23.2,-67.505 -83.1,-114.118 -134.7,-163.41 -51.6,-49.29 -100.3,-114.526 -89.8,-185.116" />
      </g>
      <g
         transform="scale(0.1865)"
         id="g921">
        <path
           id="path923"
           style="fill:#8bc34a;fill-opacity:1;fill-rule:nonzero;stroke:none"
           d="m 16300,764.47 c -114.7,40.806 -182.2,165.052 -294.7,211.665 -50.7,21.04 -108.6,24.435 -161.5,9.461 41.2,-21.98 57.2,-71.661 83.8,-110.039 59.5,-85.718 175.4,-114.256 279.4,-105.553 31.3,2.623 64.5,7.704 93,-5.534" />
      </g>
      <g
         transform="scale(0.183427)"
         id="g925">
        <path
           id="path927"
           style="fill:#8bc34a;fill-opacity:1;fill-rule:nonzero;stroke:none"
           d="m 16175.1,351.974 c -18.4,20.268 -35.7,41.595 -50.3,64.782 -77,122.541 -62.3,295.362 34.3,403.157 47,-44.189 96.3,-92.179 110.9,-155.034 12,-51.936 -1.6,-105.836 -10.1,-158.463 -14.6,-90.294 -11.9,-189.363 40.1,-264.58 -45.5,31.965 -87.5,68.978 -124.9,110.138" />
      </g>
    </g>
  </g>
</svg>
