<?xml version="1.0" encoding="UTF-8" standalone="no"?>
<svg
   xmlns:dc="http://purl.org/dc/elements/1.1/"
   xmlns:cc="http://creativecommons.org/ns#"
   xmlns:rdf="http://www.w3.org/1999/02/22-rdf-syntax-ns#"
   xmlns:svg="http://www.w3.org/2000/svg"
   xmlns="http://www.w3.org/2000/svg"
   id="svg9647"
   version="1.1"
   viewBox="0 0 570.80865 273.37842">
  <defs
     id="defs9641" />
  <metadata
     id="metadata9644">
    <rdf:RDF>
      <cc:Work
         rdf:about="">
        <dc:format>image/svg+xml</dc:format>
        <dc:type
           rdf:resource="http://purl.org/dc/dcmitype/StillImage" />
        <dc:title></dc:title>
      </cc:Work>
    </rdf:RDF>
  </metadata>
  <g
     transform="translate(168.23169,47.576117)"
     id="layer1">
    <g
       id="g9522"
       transform="matrix(0.35277777,0,0,-0.35277777,-185.97921,254.17821)">
      <path
         id="path101"
         style="fill:#669933;fill-opacity:1;fill-rule:nonzero;stroke:none;stroke-width:0.1"
         d="m 1270.33,730.621 c 5.77,2.789 9.51,-5.246 5.36,-9.129 -0.71,-0.67 -1.43,-1.338 -2.15,-2.008 -1.26,-1.179 -2.61,-1.534 -3.86,-1.332 -49.49,-26.703 -67.47,-80.263 -60.95,-133.016 10.18,41.879 54.26,77.307 91.3,90.514 6.47,2.304 10.62,-7.537 4.13,-9.853 -38.5,-13.727 -88.83,-54.446 -86.98,-100.461 37.42,12.588 75.24,25.044 110.55,42.176 6.2,3.009 10.29,-6.858 4.12,-9.853 -35.65,-17.298 -73.86,-29.83 -111.63,-42.544 39.45,-24.686 87.54,-26.038 128.82,-3.935 6.07,3.252 10.14,-6.631 4.12,-9.853 -38.12,-20.411 -81.95,-21.617 -120.36,-4.857 3.21,-5.676 6.21,-11.568 9.96,-16.62 9.64,-13.028 22.22,-23.253 35.46,-32.352 31.06,-21.352 70.86,-25.911 107.12,-19.214 6.77,1.251 8.12,-9.348 1.36,-10.597 -34.42,-6.357 -67.56,-2.197 -99.35,12.428 -15.48,7.12 -28.95,17.998 -41.11,29.744 -11.78,11.38 -17.83,27.529 -27.89,39.675 -1.54,-0.182 -3.13,0.319 -4.3,2.081 -0.07,0.105 -0.14,0.209 -0.21,0.315 -2.2,-6.04 -5.35,-11.745 -9.72,-16.739 -4.52,-5.167 -13.07,1.24 -8.53,6.425 4.71,5.398 7.85,11.679 9.55,18.385 -5.19,-1.772 -10.38,-3.552 -15.53,-5.371 l -145.28,-51.312 c -6.46,-2.283 -10.62,7.557 -4.12,9.854 l 145.28,51.31 c 3.44,1.213 6.91,2.389 10.37,3.576 -1.19,0.63 -2.38,1.258 -3.56,1.887 -3.75,1.985 -7.45,4.004 -11.78,3.151 -6.76,-1.329 -8.09,9.272 -1.36,10.597 7.54,1.485 15.08,-2.148 22.01,-6.092 -13.47,64.332 5.99,132.462 69.16,163.02" />
      <path
         id="path103"
         style="fill:#003366;fill-opacity:1;fill-rule:nonzero;stroke:none;stroke-width:0.1"
         d="m 1379.4,475.965 c -1.45,-14.17 11.05,-26.678 25.62,-23.665 12.27,2.536 24.52,13.227 17.92,25.979 -1.05,8.167 -6.4,15.526 -15.04,18.42 -13.34,4.465 -27.14,-7.465 -28.5,-20.734 z m 17.91,-7.252 c -0.9,2.475 -2.4,7.93 -0.85,11 -0.88,-3.811 -0.42,-7.705 3.19,-10.412 3.29,-2.479 7.84,-2.32 11.24,-0.23 -0.5,-0.96 -1.03,-1.906 -1.8,-2.723 -4.37,-4.657 -9.63,-3.488 -11.78,2.365" />
      <path
         id="path105"
         style="fill:#003366;fill-opacity:1;fill-rule:nonzero;stroke:none;stroke-width:0.1"
         d="m 1345.54,562.454 c -3.49,-7.071 -1.86,-13.776 3.45,-19.399 1.75,-1.86 4.02,-3.848 6.47,-5.582 8.28,-7.761 20.69,-8.2 27.21,2.992 0.11,0.176 0.15,0.377 0.25,0.555 3.51,4.154 5.78,9.353 5.71,14.462 -0.04,3.14 -2.28,4.473 -4.68,4.432 -1.73,4.59 -4.81,8.613 -9.31,10.928 -9.79,5.038 -23.97,2.008 -29.1,-8.388 z m 16.37,-16.373 c -2.88,4.134 -4.03,10.538 1.06,13.689 0.64,0.394 1.39,0.669 2.19,0.839 -2.4,-4.326 -3.01,-9.675 1.55,-13.105 1.58,-1.182 3.8,-1.656 6.01,-1.645 -2.31,-1.791 -4.93,-2.832 -6.94,-1.894 -1.1,0.513 -2.47,1.267 -3.87,2.116" />
      <path
         id="path107"
         style="fill:#003366;fill-opacity:1;fill-rule:nonzero;stroke:none;stroke-width:0.1"
         d="m 1332.46,624.664 c -7.06,-6.122 -10.4,-18.719 -7.16,-27.486 3.16,-8.577 11.64,-15.951 21.39,-14.174 10.02,1.826 16.32,8.25 21.07,16.926 1.54,2.812 0.17,5.127 -2.02,6.252 0.28,5.372 -1.64,11.045 -6.61,15.393 -7.61,6.67 -18.27,10.364 -26.67,3.089 z m 21.31,-23.028 c -3.68,-3.962 -8.12,-0.337 -10.44,3.266 -1.25,1.664 -1.99,3.528 -2.23,5.59 -0.33,3.117 1.23,4.249 4.69,3.399 2,-2.622 4.94,-2.44 7.03,-0.979 2.85,-3.48 4.02,-7.969 0.95,-11.276" />
      <path
         id="path109"
         style="fill:#003366;fill-opacity:1;fill-rule:nonzero;stroke:none;stroke-width:0.1"
         d="m 1335.51,687.586 c 5.46,-5.529 9.03,-15.178 6.6,-22.566 0.56,-1.449 0.49,-3.118 -0.85,-4.711 -8.45,-10.032 -21.16,-17.776 -33.23,-8.55 -10.96,8.379 -13.61,25.424 -6.2,36.612 7.76,11.727 25.32,7.688 33.68,-0.785" />
      <path
         id="path111"
         style="fill:#003366;fill-opacity:1;fill-rule:nonzero;stroke:none;stroke-width:0.1"
         d="m 1268.99,739.816 c -0.23,-13.285 9.41,-28.709 24.79,-24.403 4.08,1.143 8.98,4.273 12.92,8.285 0.19,0.206 0.37,0.427 0.56,0.646 5.63,6.021 8.89,13.832 3.9,20.275 -2.05,7.844 -7.36,15.079 -14.56,18.068 -14.7,6.098 -27.36,-8.732 -27.61,-22.871 z m 15.49,5.733 c 0.15,-1.531 0.59,-3.042 1.64,-4.44 3.07,-4.077 9.9,-7.207 14.58,-3.538 0.45,0.354 0.57,0.841 0.91,1.245 0.08,-1.034 0.12,-2.074 -0.14,-3.128 -1.1,-4.545 -6.17,-9.152 -10.89,-5.695 -2.66,1.952 -10.2,7.846 -9.32,11.892 0.42,1.922 1.7,3.029 3.22,3.664" />
      <path
         id="path113"
         style="fill:#669933;fill-opacity:1;fill-rule:nonzero;stroke:none;stroke-width:0.1"
         d="m 701.668,492.061 c -36.324,33.888 -78.437,58.113 -123.789,73.178 -0.096,-0.081 -0.123,-0.182 -0.225,-0.26 -32.65,-25.197 -61.801,-53.745 -87.596,-85.936 -5.359,-6.688 -16.069,1.198 -10.705,7.891 24.711,30.839 52.525,58.393 83.358,82.988 -37.916,10.726 -77.843,15.276 -118.427,13.723 -105.161,-4.027 -194.654,-55.009 -280.294,-111.28 -7.115,-4.674 -15.474,5.677 -8.317,10.379 66.61,43.768 133.547,81.588 207.968,100.971 -40.104,23.323 -81.682,43.588 -124.886,60.621 -7.986,3.148 -3.065,15.502 4.918,12.355 48.165,-18.988 94.396,-41.88 138.779,-68.522 23.007,4.92 46.716,8.143 71.427,9.089 93.702,3.588 187.19,-30.595 255.681,-94.492 6.207,-5.791 -1.635,-16.543 -7.892,-10.705" />
      <path
         id="path115"
         style="fill:#ef6c00;fill-opacity:1;fill-rule:nonzero;stroke:none;stroke-width:0.1"
         d="m 498.188,404.307 c 1.034,4.772 1.15,8.956 0.449,12.861 -0.52,2.898 1.149,5.75 4.013,6.43 16.844,4 32.87,15.981 32.068,34.555 -0.997,23.091 -21.005,25.322 -38.774,21.144 4.042,17.072 3.943,41.358 -15.286,42.039 -16.394,0.58 -24.735,-8.009 -28.762,-19.84 -2.893,3.548 -6.414,6.586 -10.753,8.713 -8.731,4.279 -26.363,9.966 -33.412,-0.927 -14.879,-22.995 3.799,-43.736 23.472,-55.694 -12.989,-10.549 -18.268,-30.505 -7.102,-44.365 9.076,-11.268 22.031,-2.843 30.291,6.268 8.367,-12.471 21.812,-18.428 38.107,-16.96 3.151,0.283 5.074,2.938 5.689,5.776" />
      <path
         id="path117"
         style="fill:#594842;fill-opacity:1;fill-rule:nonzero;stroke:none;stroke-width:0.1"
         d="m 471.119,440.063 c -5.83,-0.981 -13.131,0.484 -16.942,5.47 -2.563,3.355 -4.079,8.174 -3.242,12.495 -1.223,0.603 -2.329,1.544 -3.022,3.156 l -1.311,3.05 c -1.211,2.817 -0.286,5.847 1.948,7.82 10.119,8.926 25.969,13.09 33.738,-1.245 5.728,-10.568 2.767,-28.401 -11.169,-30.746" />
      <path
         id="path119"
         style="fill:#ef6c00;fill-opacity:1;fill-rule:nonzero;stroke:none;stroke-width:0.1"
         d="m 243.334,613.699 c 2.767,6.943 3.45,13.135 2.503,19.215 21.263,-5.023 48.802,-0.512 49.938,26.068 1.092,25.543 -17.659,32.817 -38.056,31.795 6.994,13.535 10.23,31.379 -2.402,40.674 -14.809,10.897 -27.704,-2.395 -35.773,-16.653 -5.458,11.559 -14.857,21.026 -27.665,11.987 -18.194,-12.839 -11.362,-32.027 -1.595,-47.95 -12.337,2.683 -29.468,-3.282 -25.413,-19.052 4.451,-17.308 18.213,-23.623 32.305,-18.633 2.74,-19.741 19.046,-32.808 40.892,-31.579 2.315,0.13 4.442,2.063 5.266,4.128" />
      <path
         id="path121"
         style="fill:#594842;fill-opacity:1;fill-rule:nonzero;stroke:none;stroke-width:0.1"
         d="m 231.766,654.842 c 10.187,4.06 14.186,14.765 9.455,24.582 -4.388,9.105 -16.758,14.796 -26.416,11.173 -10.201,-3.829 -13.784,-14.535 -8.228,-23.711 1.194,-1.974 2.819,-2.736 4.469,-2.751 3.784,-7.524 11.985,-12.774 20.72,-9.293 z m -9.263,15.638 c -0.726,3.109 -3.036,4.803 -5.534,5.266 -0.331,2.047 4.406,2.671 5.362,2.483 2.627,-0.517 5.104,-1.752 6.603,-4.065 3.839,-5.92 -4.979,-9.898 -6.431,-3.684" />
      <path
         id="path123"
         style="fill:#ef6c00;fill-opacity:1;fill-rule:nonzero;stroke:none;stroke-width:0.1"
         d="m 171.707,416.414 c 22.311,-4.117 47.055,9.913 50.906,34.395 4.724,30.034 -27.906,36.295 -52.406,34.264 7.633,16.454 8.76,38.407 -11.742,45.261 -21.058,7.039 -32.662,-5.139 -39.092,-21.732 -7.857,8.483 -19.6355,12.957 -30.4406,4.639 -19.5023,-15.014 -17.8019,-37.979 1.1985,-51.503 -25.4852,-3.03 -50.4469,-17.722 -35.1371,-46.23 11.3421,-21.119 34.925,-17.457 52.4952,-7.237 4.082,-15.082 21.891,-28.443 37.204,-27.884 25.693,0.939 32.391,18.155 27.014,36.027" />
      <path
         id="path125"
         style="fill:#594842;fill-opacity:1;fill-rule:nonzero;stroke:none;stroke-width:0.1"
         d="m 157.935,456.959 c -1.417,11.654 -10.779,21.253 -22.851,21.256 -11.588,0.002 -19.823,-9.895 -19.21,-21.082 0.287,-5.248 5.311,-6.532 9.075,-4.826 -2.604,-7.862 4.665,-16.234 13.74,-16.666 11.417,-0.544 20.604,10.142 19.246,21.318 z m -19.231,-8.042 c -0.37,0.255 -0.553,0.101 -0.831,0.153 2.809,5.644 -3.545,12.844 -8.975,8.839 0.033,0.361 0.171,0.661 0.15,1.048 -0.464,8.502 11.016,6.443 14.14,1.4 1.631,-2.632 2.741,-7.903 -0.303,-10.089 -1.162,-0.834 -2.669,-1.657 -4.181,-1.351" />
      <path
         id="path127"
         style="fill:#669933;fill-opacity:1;fill-rule:nonzero;stroke:none;stroke-width:0.1"
         d="m 557.196,600.142 c -11.921,8.568 -19.939,22.362 -21.485,36.961 -1.221,11.528 1.402,23.27 -0.411,34.719 -1.211,7.651 -4.353,14.844 -7.579,21.884 -4.019,8.769 -8.214,17.456 -12.583,26.056 17.282,3.073 35.105,-5.078 47.559,-17.449 12.455,-12.37 20.387,-28.504 27.307,-44.637 2.71,-6.315 5.324,-12.768 6.255,-19.576 1.975,-14.446 -4.341,-29.655 -15.749,-38.733 -2.106,-1.676 -4.422,-3.18 -7.029,-3.852 -5.647,-1.456 -11.549,1.223 -16.285,4.627" />
      <path
         id="path129"
         style="fill:#669933;fill-opacity:1;fill-rule:nonzero;stroke:none;stroke-width:0.1"
         d="m 380.609,559.326 c -4.668,8.941 -17.666,10.797 -26.482,5.899 -8.816,-4.899 -13.959,-14.541 -16.885,-24.193 -2.926,-9.651 -4.129,-19.798 -7.612,-29.264 -3.482,-9.465 -9.884,-18.601 -19.417,-21.893 2.263,1.719 5.363,1.626 8.205,1.601 16.625,-0.152 33.587,4.941 46.166,15.811 12.578,10.871 20.227,27.811 18.184,44.311 -0.33,2.669 -0.914,5.345 -2.159,7.728" />
      <path
         id="path131"
         style="fill:#8bc34a;fill-opacity:1;fill-rule:nonzero;stroke:none;stroke-width:0.1"
         d="m 843.495,499.096 c -6.652,57.343 -27.84,112.142 -60.29,159.271 -18.429,4.049 -37.092,4.213 -55.582,0.315 -2.824,-0.596 -4.057,3.736 -1.207,4.338 17.659,3.724 35.498,3.785 53.141,0.538 -13.388,18.723 -28.606,36.142 -45.4,51.978 0.399,0.358 0.872,0.614 1.204,1.054 0.132,0.172 0.262,0.345 0.393,0.517 0.455,0.6 0.847,1.229 1.226,1.861 17.44,-16.432 33.19,-34.529 46.994,-53.993 4.231,17.218 8.63,34.393 13.263,51.509 0.759,2.804 5.131,1.725 4.372,-1.078 -4.889,-18.058 -9.553,-36.174 -13.994,-54.347 -0.074,-0.303 -0.311,-0.393 -0.458,-0.608 32.753,-47.706 54.092,-103.123 60.839,-161.288 0.335,-2.886 -4.169,-2.925 -4.501,-0.067" />
      <path
         id="path133"
         style="fill:#8bc34a;fill-opacity:1;fill-rule:nonzero;stroke:none;stroke-width:0.1"
         d="m 683.293,695.191 c 2.07,-4.073 -0.265,-9.236 -3.906,-11.996 -3.641,-2.758 -8.259,-3.777 -12.642,-5.065 -10.136,-2.98 -19.738,-7.763 -28.222,-14.059 1.426,-1.483 2.852,-2.966 4.277,-4.45 -21.374,-17.036 -38.962,-38.795 -51.139,-63.266 16.128,-11.16 37.413,-10.181 56.974,-8.761 -5.259,-1.479 -4.598,-10.133 0.123,-12.881 4.722,-2.748 10.698,-1.34 15.856,0.462 16.178,5.651 31.232,14.501 44.037,25.889 3.61,-3.072 3.503,-10.345 8.208,-10.925 2.38,-0.294 4.437,1.566 6.037,3.354 14.261,15.937 21.625,36.721 28.447,56.991 1.091,3.24 2.192,6.606 1.834,10.006 -0.355,3.38 -2.119,6.442 -4.067,9.226 -14.302,20.448 -41.476,30.965 -65.817,25.475" />
      <path
         id="path135"
         style="fill:#8bc34a;fill-opacity:1;fill-rule:nonzero;stroke:none;stroke-width:0.1"
         d="m 604.856,842.994 c 4.65,-19.598 12.928,-38.332 24.288,-54.965 0.832,-1.218 1.707,-2.495 1.863,-3.963 0.231,-2.17 -1.143,-4.138 -1.919,-6.179 -2.088,-5.491 0.203,-11.68 3.312,-16.663 9.581,-15.36 26.2,-24.637 42.113,-33.267 -3.909,-1.557 -5.113,-6.913 -3.445,-10.776 1.666,-3.863 5.328,-6.461 8.992,-8.529 14.585,-8.233 32.087,-11.168 48.56,-8.144 4.15,0.762 8.266,1.9 12.005,3.851 12.183,6.355 18.463,20.094 22.381,33.263 1.931,6.489 3.515,13.16 3.508,19.929 -0.017,18.213 -11.595,34.668 -25.724,46.16 0.162,-3.17 -3.976,-5.078 -6.984,-4.063 -3.008,1.016 -5.025,3.762 -6.968,6.273 -8.071,10.431 -18.194,19.267 -29.619,25.854 -4.049,2.336 -9.44,4.303 -13.086,1.377 -1.21,-0.97 -2.036,-2.377 -3.32,-3.25 -2.738,-1.857 -6.415,-0.703 -9.523,0.434 -21.265,7.775 -43.799,12.069 -66.434,12.658" />
      <path
         id="path137"
         style="fill:#689f38;fill-opacity:1;fill-rule:nonzero;stroke:none;stroke-width:0.1"
         d="m 861.822,803.103 c 6.163,0.467 12.326,0.936 18.489,1.405 -3.26,-19.894 -10.194,-39.178 -20.347,-56.593 4.852,1.11 9.624,-3.3 10.588,-8.183 0.965,-4.884 -0.871,-9.871 -3.073,-14.336 -5.44,-11.023 -13.54,-20.968 -24.147,-27.181 -15.057,-8.821 -34.863,-9.129 -49.95,-0.36 -15.087,8.769 -24.675,26.427 -23.339,43.827 0.09,1.173 0.277,2.45 1.142,3.248 1.846,1.701 5.031,-0.069 7.272,1.061 1.297,0.654 1.943,2.107 2.492,3.45 7.614,18.639 15.228,37.28 22.841,55.918 3.025,-1.349 5.142,-4.528 5.221,-7.839 11.198,6.802 14.928,20.897 19.626,33.128 4.699,12.233 14.034,25.415 27.117,24.69 -0.137,-6.89 2.426,-13.5 4.147,-20.174 2.689,-10.432 3.345,-21.383 1.921,-32.061" />
      <path
         id="path139"
         style="fill:#8bc34a;fill-opacity:1;fill-rule:nonzero;stroke:none;stroke-width:0.1"
         d="m 541.085,479.902 c 27.574,18.664 58.595,32.217 91.024,39.769 2.375,0.552 4.867,1.128 6.697,2.739 2.708,2.386 3.236,6.319 4.573,9.671 3.594,9.02 13.304,13.992 22.661,16.585 28.836,7.989 59.442,0.705 88.465,-6.578 -3.019,6.266 1.504,14.133 7.852,16.973 6.349,2.839 13.711,1.908 20.485,0.33 26.962,-6.282 51.553,-22.276 68.228,-44.373 4.201,-5.567 7.938,-11.555 10.311,-18.113 7.728,-21.356 0.014,-45.104 -9.938,-65.519 -4.904,-10.059 -10.434,-19.952 -18.01,-28.187 -20.381,-22.155 -52.875,-29.246 -82.926,-27.441 3.742,3.68 0.837,10.628 -3.961,12.754 -4.796,2.127 -10.324,1.038 -15.496,0.153 -21.488,-3.675 -43.691,-3.116 -64.968,1.635 -7.541,1.684 -16.302,5.316 -17.471,12.954 -0.388,2.535 0.18,5.172 -0.409,7.669 -1.257,5.321 -7.026,8.028 -12.079,10.118 -34.584,14.307 -66.821,34.272 -95.038,58.861" />
      <path
         id="path141"
         style="fill:#558b2f;fill-opacity:1;fill-rule:nonzero;stroke:none;stroke-width:0.1"
         d="m 783.951,535.761 c 26.383,-15.02 44.381,-39.241 51.879,-68.373 -27.385,-2.14 -54.948,-1.072 -82.573,0.768 -0.066,0.395 -0.054,0.767 -0.232,1.192 -13.814,33.17 -41.704,57.291 -76.621,65.925 -6.492,1.606 -8.681,-8.504 -2.226,-10.101 30.214,-7.472 54.826,-27.986 67.635,-56.22 -1.769,0.129 -3.537,0.251 -5.306,0.383 -55.178,4.107 -110.375,8.067 -165.458,13.321 -6.563,0.625 -8.845,-9.472 -2.225,-10.103 53.055,-5.06 106.212,-8.887 159.355,-12.879 0.383,-0.029 0.766,-0.058 1.149,-0.086 -4.673,-10.939 -9.802,-21.547 -17.494,-30.818 -9.391,-11.319 -23.725,-16.7 -37.043,-21.775 -6.205,-2.364 -2.984,-12.197 3.266,-9.815 14.261,5.434 27.515,11.268 38.774,21.801 11.233,10.509 17.593,25.769 23.385,39.802 26.983,-1.965 53.898,-3.457 80.681,-2.483 -8.364,-26.726 -27.868,-59.332 -56.114,-66.437 -6.464,-1.627 -3.172,-11.435 3.265,-9.816 32.796,8.25 54.985,46.252 63.759,76.732 18.964,1.211 37.856,3.828 56.645,8.686 6.454,1.668 3.166,11.477 -3.266,9.814 -12.915,-3.338 -25.888,-5.537 -38.905,-6.971 -7.703,32.773 -28.306,59.975 -57.583,76.643 -5.815,3.31 -10.521,-5.902 -4.747,-9.19" />
      <path
         id="path143"
         style="fill:#558b2f;fill-opacity:1;fill-rule:nonzero;stroke:none;stroke-width:0.1"
         d="M 901.518,432.227 C 870.855,381.75 822.08,345.011 772.481,314.455 724.273,284.756 671.588,262.729 617.17,247.357 508.166,216.57 390.823,216.666 281.933,247.641 c -4.101,1.167 -5.433,-5.306 -1.359,-6.465 110.588,-31.458 227.971,-30.383 338.684,-0.085 55.13,15.086 107.948,38.3 156.833,67.832 50.675,30.614 100.204,69.087 131.298,120.274 2.218,3.651 -3.675,6.644 -5.871,3.03" />
      <path
         id="path145"
         style="fill:#7cb342;fill-opacity:1;fill-rule:nonzero;stroke:none;stroke-width:0.1"
         d="m 769.105,308.269 c 5.55,-14.891 2.084,-33.558 11.533,-47.29 4.717,-6.856 11.879,-12.386 17.396,-18.662 4.586,-5.216 8.67,-10.681 13.989,-15.15 0.374,-0.315 1.145,-0.041 1.021,0.521 -3.214,14.695 -8.749,28.921 -12.138,43.701 -3.448,15.038 -22.039,24.532 -28.694,38.001 -0.917,1.858 -3.87,0.926 -3.107,-1.121" />
      <path
         id="path147"
         style="fill:#558b2f;fill-opacity:1;fill-rule:nonzero;stroke:none;stroke-width:0.1"
         d="m 720.035,394.559 c 5.607,-8.466 9.222,-16.58 11.176,-26.592 1.336,-6.856 3.312,-15.008 7.21,-20.908 8.427,-12.754 18.02,-26.208 30.418,-35.333 1.606,-1.182 4.034,0.207 3.291,2.264 -2.78,7.686 -5.653,15.33 -8.159,23.115 -2.637,8.194 -2.901,16.497 -6.903,24.29 -7.353,14.319 -21.05,26.641 -34.137,35.76 -1.767,1.231 -4.193,-0.639 -2.896,-2.596" />
      <path
         id="path149"
         style="fill:#7cb342;fill-opacity:1;fill-rule:nonzero;stroke:none;stroke-width:0.1"
         d="m 729.73,285.773 c -2.199,-18.483 -0.154,-33.302 6.217,-50.7 7.512,-20.51 20.381,-35.819 32.232,-53.971 0.655,-1.004 2.451,-0.434 2.255,0.808 -2.95,18.572 -2.155,37.539 -7.82,55.533 -6.132,19.481 -12.048,34.154 -25.423,49.92 -2.111,2.489 -6.994,2.34 -7.461,-1.59" />
      <path
         id="path151"
         style="fill:#558b2f;fill-opacity:1;fill-rule:nonzero;stroke:none;stroke-width:0.1"
         d="m 673.245,379.171 c 8.519,-17.076 9.221,-36.644 17.315,-53.557 6.009,-12.559 16.26,-27.617 28.992,-34.039 -0.202,-1.518 0.515,-3.153 2.317,-3.47 0.309,-0.053 0.618,-0.107 0.926,-0.162 0.819,-0.143 1.641,0.269 2.01,1.016 l 0.414,0.84 c 0.985,1.998 -0.525,4.08 -2.492,4.312 -1.271,7.438 -3.808,13.413 -6.349,20.733 -2.914,8.398 -3.654,17.46 -7.819,25.385 -8.041,15.306 -19.559,29.257 -31.86,41.32 -1.495,1.465 -4.431,-0.421 -3.454,-2.378" />
      <path
         id="path153"
         style="fill:#7cb342;fill-opacity:1;fill-rule:nonzero;stroke:none;stroke-width:0.1"
         d="m 684.196,263.541 c 0.005,-0.228 0.009,-0.458 0.015,-0.687 0.007,-0.384 0.245,-0.427 0.381,-0.632 -0.677,-0.667 -1.153,-1.593 -1.197,-2.606 -0.906,-20.876 -0.411,-36.122 7.341,-55.894 8.65,-22.056 24.43,-43.459 37.442,-63.146 1.537,-2.326 4.531,-0.296 4.006,2.058 -5.825,26.144 -10.475,52.464 -16.35,78.578 -4.009,17.823 -10.969,32.882 -27.854,41.558 -0.3,0.155 -0.571,0.119 -0.859,0.175 0.116,0.474 -0.04,0.963 -0.84,1.334 -0.202,0.094 -0.404,0.187 -0.605,0.28 -0.747,0.346 -1.496,-0.236 -1.48,-1.018" />
      <path
         id="path155"
         style="fill:#558b2f;fill-opacity:1;fill-rule:nonzero;stroke:none;stroke-width:0.1"
         d="m 632.155,380.61 c -3.076,-19.625 1.322,-41.569 6.544,-60.474 6.421,-23.247 19.996,-37.795 35.297,-55.116 1.448,-1.64 4.57,-0.487 3.642,1.871 -7.607,19.339 -6.588,42.777 -11.941,62.986 -4.879,18.428 -12.942,40.509 -28.812,52.397 -1.68,1.259 -4.369,0.629 -4.73,-1.664" />
      <path
         id="path157"
         style="fill:#7cb342;fill-opacity:1;fill-rule:nonzero;stroke:none;stroke-width:0.1"
         d="m 633.141,246.645 c -0.562,0.598 -1.34,-0.073 -1.362,-0.698 -0.006,-0.142 0.017,-0.311 0.014,-0.456 -0.385,0.52 -1.392,0.335 -1.233,-0.391 0.174,-0.797 0.347,-1.594 0.52,-2.391 0.11,-0.502 0.467,-0.625 0.823,-0.607 0.038,-0.57 0.063,-1.112 0.123,-1.695 -16.309,-49.459 4.679,-95.923 33.667,-136.079 0.896,-1.242 2.618,-0.461 2.629,0.945 0.38,44.109 -6.49,89.993 -28.427,128.696 -1.378,4.734 -3.752,9.476 -6.754,12.676" />
      <path
         id="path159"
         style="fill:#558b2f;fill-opacity:1;fill-rule:nonzero;stroke:none;stroke-width:0.1"
         d="m 586.412,376.456 c -12.398,-49.966 5.158,-90.798 34.943,-130.454 0.678,-0.901 2.149,-0.419 2.067,0.741 -3.377,47.712 -1.866,90.178 -30.668,131.065 -1.838,2.608 -5.618,1.568 -6.342,-1.352" />
      <path
         id="path161"
         style="fill:#689f38;fill-opacity:1;fill-rule:nonzero;stroke:none;stroke-width:0.1"
         d="m 583.592,380.046 c -0.176,-0.835 1.124,-1.073 1.299,-0.241 0.176,0.836 -1.124,1.073 -1.299,0.241" />
      <path
         id="path163"
         style="fill:#7cb342;fill-opacity:1;fill-rule:nonzero;stroke:none;stroke-width:0.1"
         d="m 578.146,237.051 c -13.389,-42.897 -13.734,-87.438 16.305,-123.172 2.069,-4.488 4.191,-8.951 6.169,-13.484 0.596,-1.3677 2.719,-0.9985 2.599,0.571 -0.092,1.186 -0.16,2.451 -0.227,3.743 0.327,0.303 0.542,0.715 0.432,1.33 -0.26,1.445 -0.374,2.057 -0.636,2.782 -0.081,1.655 -0.176,3.337 -0.299,5.046 0.165,0.473 0.393,0.899 0.355,1.515 -2.589,42.073 3.168,85.348 -23.207,121.986 -0.455,0.634 -1.284,0.347 -1.491,-0.317" />
      <path
         id="path165"
         style="fill:#558b2f;fill-opacity:1;fill-rule:nonzero;stroke:none;stroke-width:0.1"
         d="m 538.225,372.628 c 1.814,-22.497 -3.665,-43.368 -3.98,-65.726 -0.151,-10.687 0.71,-18.922 4.404,-28.896 5.614,-15.158 20.197,-24.879 23.247,-41.913 1.423,-7.945 12.964,-3.39 8.831,3.168 -9.842,15.613 -0.391,26.671 1.173,41.47 1.278,12.098 -0.242,21.999 -2.906,33.806 -4.731,20.957 -16.263,41.242 -27.762,59.169 -0.91,1.417 -3.137,0.533 -3.007,-1.078" />
      <path
         id="path167"
         style="fill:#7cb342;fill-opacity:1;fill-rule:nonzero;stroke:none;stroke-width:0.1"
         d="m 515.195,220.557 c -5.49,-19.13 -13.326,-38.761 -9.729,-58.779 3.293,-18.323 12.627,-38.662 20.976,-55.215 0.689,-1.367 2.871,-1.506 3.177,0.261 3.451,19.941 7.491,41.106 8.629,61.27 1.004,17.794 -8.402,36.273 -12.726,53.31 -1.45,5.714 -9.018,3.714 -10.327,-0.847" />
      <path
         id="path169"
         style="fill:#558b2f;fill-opacity:1;fill-rule:nonzero;stroke:none;stroke-width:0.1"
         d="m 487.066,322.201 c 0.157,-17.357 -0.775,-33.981 1.821,-51.228 2.426,-16.118 14.151,-29.766 21.097,-44.311 0.849,-1.779 4.213,-2.148 4.368,0.358 1.043,16.828 5.89,33.496 1.874,49.96 -4.339,17.781 -15.08,32.101 -25.966,46.368 -1.102,1.443 -3.21,0.609 -3.194,-1.147" />
      <path
         id="path171"
         style="fill:#7cb342;fill-opacity:1;fill-rule:nonzero;stroke:none;stroke-width:0.1"
         d="m 462.805,217.9 c -12.188,-17.148 -19.157,-29.318 -18.672,-50.74 0.389,-17.195 4.671,-39.62 12.802,-54.969 0.467,-0.882 1.731,-0.568 2.135,0.163 8.707,15.766 12.284,35.866 16.693,53.281 4.827,19.066 -1.38,33.742 -8.051,51.359 -0.71,1.875 -3.603,2.744 -4.907,0.906" />
      <path
         id="path173"
         style="fill:#558b2f;fill-opacity:1;fill-rule:nonzero;stroke:none;stroke-width:0.1"
         d="m 450.758,305.134 c -2.474,-7.096 -2.715,-14.218 -4.047,-21.614 -1.458,-8.095 -3.963,-16.125 -3.8,-24.449 0.288,-14.76 10.376,-27.41 21.259,-36.741 0.687,-0.59 2.075,-0.473 2.405,0.496 3.843,11.276 9.841,25.675 6.911,37.556 -1.687,6.841 -4.202,13.262 -6.87,19.776 -3.32,8.106 -4.403,16.759 -8.259,24.574 -1.363,2.765 -6.277,4.194 -7.599,0.402" />
      <path
         id="path175"
         style="fill:#7cb342;fill-opacity:1;fill-rule:nonzero;stroke:none;stroke-width:0.1"
         d="m 393.453,220.163 c -3.41,-15.744 -14.068,-29.101 -15.365,-45.065 -1.217,-14.997 4.53,-30.125 8.401,-44.371 0.427,-1.575 2.525,-1.696 3.505,-0.647 10.565,11.299 15.947,24.425 20.433,39.043 4.742,15.449 -5.568,34.707 -5.735,50.498 -0.071,6.622 -9.929,6.59 -11.239,0.542" />
      <path
         id="path177"
         style="fill:#558b2f;fill-opacity:1;fill-rule:nonzero;stroke:none;stroke-width:0.1"
         d="m 399.972,306.932 c -8.293,-11.004 -19.472,-26.999 -18.824,-41.344 0.691,-15.268 4.053,-30.934 12.708,-43.672 0.545,-0.801 2.011,-1.042 2.611,-0.143 7.197,10.752 12.258,23.518 15.24,36.144 3.749,15.861 -0.98,32.36 -5.25,47.817 -0.744,2.694 -4.822,3.403 -6.485,1.198" />
      <path
         id="path179"
         style="fill:#7cb342;fill-opacity:1;fill-rule:nonzero;stroke:none;stroke-width:0.1"
         d="m 337.935,232.926 c -8.148,-10.213 -14.014,-17.862 -15.257,-31.227 -1.09,-11.711 2.235,-25.083 3.498,-36.775 0.122,-1.135 1.59,-1.669 2.353,-0.761 7.483,8.899 15.29,18.618 21.145,28.674 7.272,12.491 3.363,25.484 -0.873,38.081 -1.497,4.453 -7.884,5.744 -10.866,2.008" />
      <path
         id="path181"
         style="fill:#558b2f;fill-opacity:1;fill-rule:nonzero;stroke:none;stroke-width:0.1"
         d="m 342.418,306.027 c -8.266,-8.675 -14.609,-19.729 -18.298,-31.048 -4.707,-14.444 2.506,-27.225 8.007,-39.72 0.596,-1.356 2.528,-1.604 3.229,-0.171 5.212,10.646 10.742,18.172 14.01,29.865 3.347,11.979 2.36,26.051 1.38,38.383 -0.339,4.262 -5.563,5.593 -8.328,2.691" />
      <path
         id="path183"
         style="fill:#7cb342;fill-opacity:1;fill-rule:nonzero;stroke:none;stroke-width:0.1"
         d="m 184.395,273.039 c -2.057,-0.666 -2.544,-3.547 -0.907,-4.908 19.215,-15.975 41.479,-27.81 63.289,-39.823 18.469,-10.175 47.406,-2.878 65.436,4.875 4.209,1.809 5.028,7.949 0.532,10.068 -21.357,10.069 -37.616,24.446 -61.333,28.339 -22.919,3.762 -44.354,8.797 -67.017,1.449" />
      <path
         id="path185"
         style="fill:#689f38;fill-opacity:1;fill-rule:nonzero;stroke:none;stroke-width:0.1"
         d="m 1604.01,304.199 c 3.01,1.014 1.65,5.777 -1.39,4.755 -205.63,-69.127 -427.48,-17.239 -609.169,91.687 -2.747,1.647 -5.167,-2.676 -2.436,-4.313 C 1173.77,286.76 1397.2,234.674 1604.01,304.199" />
      <path
         id="path187"
         style="fill:#689f38;fill-opacity:1;fill-rule:nonzero;stroke:none;stroke-width:0.1"
         d="m 1318.98,125.984 c 3.19,-0.201 3.05,4.752 -0.12,4.953 -148.18,9.336 -279.53,103.637 -335.521,241.09 -1.191,2.925 -5.962,1.575 -4.755,-1.386 56.896,-139.668 189.796,-235.168 340.396,-244.657" />
      <path
         id="path189"
         style="fill:#7cb342;fill-opacity:1;fill-rule:nonzero;stroke:none;stroke-width:0.1"
         d="m 1084.46,351.434 c 7.08,10.941 20.06,15.365 25.34,27.456 3.99,9.143 2.11,20.532 1.94,30.197 -0.02,0.954 -1.25,1.351 -1.88,0.686 -6.11,-6.479 -15.31,-12.455 -19.44,-20.556 -5.96,-11.686 -2.23,-24.839 -8.28,-36.545 -0.8,-1.531 1.41,-2.641 2.32,-1.238" />
      <path
         id="path191"
         style="fill:#7cb342;fill-opacity:1;fill-rule:nonzero;stroke:none;stroke-width:0.1"
         d="m 1117.57,335.89 c 5.64,4.695 10.14,10.426 15.43,15.526 4.64,4.479 10.15,8.378 13.26,14.225 6.2,11.656 6.34,27.468 8.55,40.281 0.17,0.974 -1,1.646 -1.71,0.905 -8.98,-9.328 -22.01,-18.283 -28.15,-29.831 -3.09,-5.814 -3.46,-12.467 -4.89,-18.761 -1.6,-7.034 -4.26,-13.661 -5.53,-20.743 -0.34,-1.871 1.72,-2.701 3.04,-1.602" />
      <path
         id="path193"
         style="fill:#7cb342;fill-opacity:1;fill-rule:nonzero;stroke:none;stroke-width:0.1"
         d="m 1158.68,319.973 c 6.41,15.828 21.54,24.34 28.74,39.567 6.74,14.241 6.99,29.892 9.04,45.241 0.24,1.754 -1.91,2.56 -2.87,1.067 -8.12,-12.569 -19.06,-22.551 -27.3,-35.047 -9.54,-14.465 -5.54,-32.856 -12.11,-48.425 -1.28,-3.026 3.28,-5.435 4.5,-2.403" />
      <path
         id="path195"
         style="fill:#7cb342;fill-opacity:1;fill-rule:nonzero;stroke:none;stroke-width:0.1"
         d="m 1204.06,306.984 c 5.04,15.769 24.23,26.148 26.45,42.592 2.3,17.059 1.39,33.799 -1.09,50.822 -0.19,1.285 -1.77,1.713 -2.48,0.554 -17.76,-29.074 -24.56,-59.074 -30.28,-92.309 -0.84,-4.873 5.92,-6.275 7.4,-1.659" />
      <path
         id="path197"
         style="fill:#7cb342;fill-opacity:1;fill-rule:nonzero;stroke:none;stroke-width:0.1"
         d="m 1253.69,293.635 c 7.68,17.75 20.01,34.901 22.84,54.146 2.34,15.951 -3.97,36.397 -8.16,51.575 -0.23,0.83 -1.47,0.942 -1.85,0.168 -7.1,-14.649 -13.09,-29.972 -18.32,-45.391 -2.01,-5.932 -1.28,-13.669 -0.82,-19.715 1.01,-13.394 2.43,-24.98 0.56,-38.65 -0.45,-3.243 4.27,-5.543 5.75,-2.133" />
      <path
         id="path199"
         style="fill:#7cb342;fill-opacity:1;fill-rule:nonzero;stroke:none;stroke-width:0.1"
         d="m 1301.89,285.414 c 3.49,20.356 15.41,34.246 16.6,55.375 1.14,20.212 -3.23,43.124 -7.49,62.879 -0.23,1.1 -1.64,0.736 -1.94,-0.086 -7.09,-19.718 -12.07,-40.225 -17.41,-60.477 -5.29,-20.076 5.66,-37.187 4.13,-57.164 -0.27,-3.498 5.53,-3.927 6.11,-0.527" />
      <path
         id="path201"
         style="fill:#7cb342;fill-opacity:1;fill-rule:nonzero;stroke:none;stroke-width:0.1"
         d="m 1345.41,279.841 c 7.2,20.319 15.52,38.054 16.69,59.656 1.14,20.794 -5.93,44.343 -9.06,64.868 -0.33,2.162 -3.16,2.48 -3.82,0.33 -6.38,-20.75 -12.7,-41.436 -17.76,-62.554 -4.83,-20.168 4.57,-43.032 8.72,-62.53 0.63,-2.956 4.44,-1.99 5.23,0.23" />
      <path
         id="path203"
         style="fill:#7cb342;fill-opacity:1;fill-rule:nonzero;stroke:none;stroke-width:0.1"
         d="m 1392.07,276.62 c -0.85,11.782 6.64,21.642 11.35,31.569 3.22,6.784 3.32,14.093 3.63,21.4 0.8,18.759 -3.66,40.696 -7.22,59.19 -0.29,1.473 -2.34,1.078 -2.69,-0.119 -5.47,-18.976 -9.51,-38.137 -16.01,-56.835 -6.44,-18.481 5.08,-37.09 3.67,-55.557 -0.34,-4.57 7.61,-4.446 7.27,0.352" />
      <path
         id="path205"
         style="fill:#7cb342;fill-opacity:1;fill-rule:nonzero;stroke:none;stroke-width:0.1"
         d="m 1442.22,277.225 c 1.45,7.127 3.33,14.111 4.82,21.23 1.79,8.52 8.4,14.94 9.14,23.77 1.43,16.963 -3.97,33.359 -7.86,49.736 -0.55,2.309 -3.57,1.656 -4.18,-0.184 -4.68,-14.011 -12.33,-28.869 -13.36,-43.718 -0.51,-7.336 -0.03,-9.89 1.83,-16.949 2.96,-11.285 3.53,-21.764 3.65,-33.372 0.03,-3.426 5.28,-3.835 5.96,-0.513" />
      <path
         id="path207"
         style="fill:#7cb342;fill-opacity:1;fill-rule:nonzero;stroke:none;stroke-width:0.1"
         d="m 1484.53,282.609 c -0.18,8.432 6.29,15.114 10.61,21.672 2.98,4.52 1.52,12.48 1.31,17.432 -0.51,11.537 -4.84,22.586 -9.69,32.9 -0.18,0.389 -0.75,0.283 -0.93,-0.035 -5.59,-9.916 -9.69,-19.813 -12.29,-30.889 -1.16,-4.932 -2.72,-12.316 -1.12,-17.344 2.58,-8.044 9.32,-13.995 7.67,-23.355 -0.57,-3.241 4.5,-3.649 4.44,-0.381" />
      <path
         id="path209"
         style="fill:#7cb342;fill-opacity:1;fill-rule:nonzero;stroke:none;stroke-width:0.1"
         d="m 1528.44,288.885 c 2.89,9.91 6.95,17.392 4.6,27.799 -2.13,9.443 -4.94,20.597 -8.97,29.352 -0.21,0.448 -0.88,0.636 -1.14,0.103 -3.95,-8.155 -5.4,-17.744 -7.66,-26.502 -3.22,-12.51 1.37,-19.743 6.16,-31.061 1.41,-3.341 5.96,-3.296 7.01,0.309" />
      <path
         id="path211"
         style="fill:#7cb342;fill-opacity:1;fill-rule:nonzero;stroke:none;stroke-width:0.1"
         d="m 1562.64,295.689 c -0.35,7.067 2.84,13.431 2.73,20.454 -0.05,2.943 -2.08,5.885 -3.83,8.086 -2.25,2.844 -3.55,6.181 -4.88,9.503 -0.57,1.396 -3.1,1.698 -3.29,-0.144 -0.3,-2.987 -0.54,-5.833 -1.41,-8.716 -0.89,-2.939 -3.01,-6.275 -2.58,-9.505 0.91,-6.945 2.32,-14.577 4.5,-21.257 1.57,-4.842 9.01,-3.54 8.76,1.579" />
      <g
         transform="scale(0.102377)"
         id="g213">
        <path
           id="path215"
           style="fill:#7cb342;fill-opacity:1;fill-rule:nonzero;stroke:none"
           d="m 15414.9,2906.5 c 84.4,14.78 166,34.02 252.2,34.87 76.5,0.76 157.7,-3.01 232.5,17.29 178.3,48.4 277.5,187.21 394.1,320.34 6.3,7.21 -0.7,16.75 -9.4,14.82 -143.2,-31.66 -312.1,-12.06 -443.9,-85.66 -151.9,-84.77 -275.6,-201.01 -431.7,-282.15 -9.1,-4.72 -4.2,-21.33 6.2,-19.51" />
      </g>
      <path
         id="path217"
         style="fill:#558b2f;fill-opacity:1;fill-rule:nonzero;stroke:none;stroke-width:0.1"
         d="m 1573.78,253.219 c -2.72,6.82 1.7,15.068 -1.44,21.823 -3.21,6.918 -9.76,10.712 -12.43,18.019 -0.52,1.427 -2.91,1.14 -2.72,-0.491 0.39,-3.343 1.37,-6.322 1.66,-9.761 0.31,-3.876 -1.81,-8.332 -0.18,-12.122 1.53,-3.57 2.77,-7.172 5.27,-10.187 2.5,-2.998 5.47,-5.496 8.07,-8.402 0.72,-0.807 2.16,0.134 1.77,1.121" />
      <path
         id="path219"
         style="fill:#558b2f;fill-opacity:1;fill-rule:nonzero;stroke:none;stroke-width:0.1"
         d="m 1536.37,235.928 c 0.45,3.461 -0.37,7.717 1.34,10.81 2.25,4.06 2.43,9.181 1.84,13.616 -1.13,8.419 -6.84,18.291 -13.42,23.593 -0.36,0.287 -0.85,0.227 -1.09,-0.182 -4.11,-7.113 -4.9,-16.269 -4.45,-24.331 0.48,-8.713 8.22,-16.77 12.26,-24.118 0.78,-1.423 3.3,-1.046 3.52,0.612" />
      <path
         id="path221"
         style="fill:#558b2f;fill-opacity:1;fill-rule:nonzero;stroke:none;stroke-width:0.1"
         d="m 1497.11,218.363 c -0.5,10.801 6.66,24.742 2.83,35.211 -3.45,9.432 -8.41,18.996 -16.65,25.083 -0.41,0.306 -0.93,0.259 -1.21,-0.202 -4.41,-7.291 -6.79,-23.818 -4.56,-32.022 3.19,-11.734 9.31,-20.298 16.99,-29.279 0.93,-1.08 2.66,-0.036 2.6,1.209" />
      <path
         id="path223"
         style="fill:#558b2f;fill-opacity:1;fill-rule:nonzero;stroke:none;stroke-width:0.1"
         d="m 1450.72,200.278 c 0.8,25.163 6.64,50.273 -10.06,71.962 -1.2,1.558 -3.35,1.559 -4.41,-0.166 -15.17,-24.678 -5.16,-52.105 11.76,-72.654 0.94,-1.136 2.66,-0.694 2.71,0.858" />
      <path
         id="path225"
         style="fill:#558b2f;fill-opacity:1;fill-rule:nonzero;stroke:none;stroke-width:0.1"
         d="m 1385.43,189.585 c 2.61,13.535 7.61,26.369 9.51,40.049 1.97,14.155 -2.3,30.714 -4.76,44.42 -0.33,1.86 -3.11,3.121 -4.07,0.914 -4.88,-11.208 -10.72,-25.181 -11.73,-37.497 -1.37,-16.795 4.8,-31.946 8.81,-47.985 0.28,-1.127 2.02,-1.006 2.24,0.099" />
      <path
         id="path227"
         style="fill:#558b2f;fill-opacity:1;fill-rule:nonzero;stroke:none;stroke-width:0.1"
         d="m 1327.61,180.555 c 3.01,14.818 7.64,27.895 12.12,42.256 5.64,18.075 2.5,33.243 4.72,51.93 0.38,3.182 -4.02,5.357 -5.61,2.08 -6.78,-14.007 -16.58,-26.432 -17.98,-42.219 -1.53,-17.327 2.47,-36.768 5.07,-53.903 0.14,-0.9 1.48,-1.146 1.68,-0.144" />
      <path
         id="path229"
         style="fill:#558b2f;fill-opacity:1;fill-rule:nonzero;stroke:none;stroke-width:0.1"
         d="m 1270.67,194.081 c 9.38,12.123 19.44,22.618 22.98,38.261 3.68,16.304 4.34,33.494 4.5,50.16 0.03,3.068 -4.51,4.012 -5.82,1.307 -6.28,-12.928 -13.56,-26.306 -18.24,-39.9 -5.91,-17.165 -4.98,-31.706 -4.76,-49.338 0.01,-0.637 0.93,-1.025 1.34,-0.49" />
      <path
         id="path231"
         style="fill:#558b2f;fill-opacity:1;fill-rule:nonzero;stroke:none;stroke-width:0.1"
         d="m 1220.86,217.18 c 24.16,15.408 34.23,43.31 31.25,71.283 -0.32,3.057 -4.07,3.81 -5.68,1.273 -6.72,-10.576 -11.26,-22.03 -18.3,-32.584 -6.43,-9.631 -8.13,-27.289 -9.37,-38.49 -0.13,-1.147 0.99,-2.19 2.1,-1.482" />
      <path
         id="path233"
         style="fill:#558b2f;fill-opacity:1;fill-rule:nonzero;stroke:none;stroke-width:0.1"
         d="m 1179.88,233.51 c 6.45,11.701 13.32,24.113 18.21,36.534 4.67,11.849 4.91,26.552 5.78,39.186 0.26,3.886 -4.85,3.888 -6.56,1.469 -7.29,-10.325 -13.97,-21.689 -17.89,-33.73 -4.08,-12.535 -2.34,-30.171 -1.29,-43.067 0.07,-0.913 1.29,-1.211 1.75,-0.392" />
      <path
         id="path235"
         style="fill:#558b2f;fill-opacity:1;fill-rule:nonzero;stroke:none;stroke-width:0.1"
         d="m 1134.33,260.678 c 4.97,9.485 13.43,16.217 18.55,25.736 4.6,8.531 4.94,19.959 5.39,29.418 0.12,2.625 -3.62,3.803 -5.23,1.91 -5.94,-6.997 -11.94,-14.672 -15.3,-23.258 -4.25,-10.863 -1.69,-22.326 -4.71,-33.327 -0.21,-0.768 0.94,-1.167 1.3,-0.479" />
      <path
         id="path237"
         style="fill:#558b2f;fill-opacity:1;fill-rule:nonzero;stroke:none;stroke-width:0.1"
         d="m 1092.15,285.528 c 6.85,5.456 13.38,12.375 17.66,20.094 5.08,9.148 5.81,19.209 8.54,29.195 0.77,2.856 -2.98,4.521 -4.89,2.578 -5.34,-5.416 -12.35,-12.592 -14.97,-19.893 -3.49,-9.766 -4.92,-20.022 -8.76,-29.736 -0.54,-1.382 0.92,-3.426 2.42,-2.238" />
      <path
         id="path239"
         style="fill:#558b2f;fill-opacity:1;fill-rule:nonzero;stroke:none;stroke-width:0.1"
         d="m 1060.08,315.192 c 6.36,2.331 11.37,6.687 15.31,12.117 2.97,4.089 3.69,7.603 5.51,12.327 1.51,3.916 3.98,7.141 5.18,11.194 0.52,1.746 -1.8,3.443 -3.28,2.304 -2.58,-1.986 -4.39,-4.178 -6.61,-6.575 -3.06,-3.307 -7.47,-5.354 -10.05,-9.028 -4.5,-6.43 -7.95,-12.929 -8.07,-20.939 -0.02,-0.979 1.11,-1.731 2.01,-1.4" />
      <path
         id="path241"
         style="fill:#7cb342;fill-opacity:1;fill-rule:nonzero;stroke:none;stroke-width:0.1"
         d="m 1066.94,274.499 c 2.78,2.744 4.78,5.918 6.26,9.528 1.73,4.203 4.51,7.727 6.27,11.858 0.19,0.441 -0.07,1.101 -0.65,1.023 -14.79,-1.999 -32.3,-12.578 -30.19,-29.845 0.09,-0.715 0.71,-1.543 1.54,-1.397 5.71,1.002 12.68,4.786 16.77,8.833" />
      <path
         id="path243"
         style="fill:#7cb342;fill-opacity:1;fill-rule:nonzero;stroke:none;stroke-width:0.1"
         d="m 1093.22,253.919 c 8.37,6.974 13.42,20.039 17.5,29.977 0.17,0.399 -0.15,0.963 -0.64,0.772 -8.98,-3.516 -18.64,-7.696 -26.53,-13.187 -4.28,-2.971 -7.24,-8.133 -9.32,-12.755 -2.15,-4.771 -5.31,-8.389 -5.82,-13.658 -0.11,-1.104 0.55,-2.263 1.82,-2.168 7.75,0.58 17.06,6.08 22.99,11.019" />
      <path
         id="path245"
         style="fill:#7cb342;fill-opacity:1;fill-rule:nonzero;stroke:none;stroke-width:0.1"
         d="m 1099.13,216.148 c 11.66,6.264 22.9,12.513 30.98,23.165 7.66,10.105 12.93,22.308 19.36,33.237 0.42,0.718 -0.46,1.352 -1.1,1.016 -11.26,-5.908 -24.02,-11.513 -33.67,-19.91 -10.49,-9.121 -15.51,-21.47 -19.89,-34.464 -0.88,-2.583 2.37,-4.096 4.32,-3.044" />
      <path
         id="path247"
         style="fill:#7cb342;fill-opacity:1;fill-rule:nonzero;stroke:none;stroke-width:0.1"
         d="m 1131.28,191.895 c 11.66,7.339 20.65,12.57 28.24,24.25 8.14,12.535 12.49,27.913 17.11,42 0.27,0.812 -0.8,1.142 -1.32,0.697 -11.19,-9.728 -23.28,-19.119 -32.8,-30.567 -8.7,-10.455 -10.89,-21.109 -14.74,-33.912 -0.6,-1.999 1.89,-3.49 3.51,-2.468" />
      <path
         id="path249"
         style="fill:#7cb342;fill-opacity:1;fill-rule:nonzero;stroke:none;stroke-width:0.1"
         d="m 1166.78,172.484 c 7.43,11.916 23.91,19.997 28.2,33.594 3.77,11.929 8.15,25.35 8.37,37.901 0.01,0.386 -0.51,0.679 -0.83,0.431 -9.87,-7.775 -18.2,-18.823 -26.28,-28.454 -9.02,-10.758 -7.59,-28.569 -14.79,-40.634 -2,-3.364 3.29,-6.11 5.33,-2.838" />
      <path
         id="path251"
         style="fill:#7cb342;fill-opacity:1;fill-rule:nonzero;stroke:none;stroke-width:0.1"
         d="m 1212.17,152.258 c 6.7,9.683 13.9,19.908 17.5,31.142 3.7,11.569 0.98,27.955 1.09,40 0.01,1.636 -2.34,2.071 -3.06,0.686 -5.82,-11.223 -12.79,-21.855 -18.43,-33.125 -5.22,-10.445 -3.78,-25.688 -4.38,-37.07 -0.23,-4.278 5.37,-4.389 7.28,-1.633" />
      <path
         id="path253"
         style="fill:#7cb342;fill-opacity:1;fill-rule:nonzero;stroke:none;stroke-width:0.1"
         d="m 1248.93,141.617 c 5.1,8.942 10.37,17.286 13.23,27.261 2.86,9.977 -0.13,23.681 -0.33,33.976 -0.02,0.579 -0.83,0.915 -1.21,0.441 -6.91,-8.579 -13.56,-17.178 -18.93,-26.827 -5.15,-9.261 -2.39,-23.048 -1.35,-32.924 0.46,-4.473 6.29,-5.958 8.59,-1.927" />
      <path
         id="path255"
         style="fill:#7cb342;fill-opacity:1;fill-rule:nonzero;stroke:none;stroke-width:0.1"
         d="m 1287.16,132.633 c 5.37,5.947 9.9,11.762 10.61,19.959 0.75,8.582 -0.85,16.681 -2.84,25.025 -0.04,0.184 -0.27,0.196 -0.39,0.088 -5.73,-5.201 -11.45,-10.807 -14.91,-17.809 -4.27,-8.654 -3.46,-16.347 -0.81,-25.393 1.03,-3.556 5.88,-4.593 8.34,-1.87" />
      <path
         id="path257"
         style="fill:#7cb342;fill-opacity:1;fill-rule:nonzero;stroke:none;stroke-width:0.1"
         d="m 1340.92,114.488 c 13.13,0.551 26.67,8.329 37.99,14.285 1.33,0.702 0.64,2.426 -0.49,2.818 -12.37,4.273 -25.57,10.257 -38.85,10.729 -13.48,0.481 -24.88,-7.792 -37.88,-10.649 -2.51,-0.553 -1.73,-3.812 0.2,-4.478 13.4,-4.639 24.47,-13.314 39.03,-12.705" />
      <path
         id="path259"
         style="fill:#558b2f;fill-opacity:1;fill-rule:nonzero;stroke:none;stroke-width:0.1"
         d="m 1017.04,235.742 c 3.23,1.197 5.79,3.165 9.26,3.865 4.71,0.951 8.05,2.258 11.49,5.694 2.66,2.652 2.77,6.576 4.67,9.615 1.61,2.584 3,4.858 3.22,7.902 0.03,0.272 -0.23,0.519 -0.48,0.575 -2.44,0.555 -4.41,0.123 -6.81,-0.529 -3.59,-0.975 -9.24,-1.212 -12.25,-3.534 -3.99,-3.079 -5.72,-5.879 -7.31,-10.637 -1.24,-3.722 -3.12,-6.938 -4.36,-10.593 -0.5,-1.444 1.23,-2.852 2.57,-2.358" />
      <path
         id="path261"
         style="fill:#558b2f;fill-opacity:1;fill-rule:nonzero;stroke:none;stroke-width:0.1"
         d="m 1031.93,199.934 c 8.75,4.733 17.85,8.726 25.28,15.5 2.89,2.634 3.79,8.328 5.29,11.732 1.99,4.506 3.71,9.083 5.38,13.722 0.76,2.116 -2.25,4.151 -3.97,2.798 -2.97,-2.331 -6.09,-4.502 -8.98,-6.913 -3.59,-2.986 -8.53,-4.901 -11.71,-8.315 -2.86,-3.065 -4.67,-7.327 -6.29,-11.119 -2.27,-5.339 -4.34,-10.296 -7.09,-15.472 -0.72,-1.363 0.83,-2.61 2.09,-1.933" />
      <path
         id="path263"
         style="fill:#558b2f;fill-opacity:1;fill-rule:nonzero;stroke:none;stroke-width:0.1"
         d="m 1060.83,152.932 c 17.29,19.351 37.04,34.431 35.44,62.811 -0.05,0.872 -0.95,1.222 -1.66,0.862 -25.4,-12.816 -28.57,-37.369 -36.82,-62.072 -0.58,-1.722 1.92,-2.855 3.04,-1.601" />
      <path
         id="path265"
         style="fill:#558b2f;fill-opacity:1;fill-rule:nonzero;stroke:none;stroke-width:0.1"
         d="m 1095.79,124.365 c 8.13,6.25 19.15,15.378 24.21,24.311 7,12.358 10.03,27.933 11.57,41.962 0.18,1.678 -1.59,3.559 -3.28,2.303 -9.67,-7.203 -22.33,-17.048 -28.07,-27.792 -6,-11.213 -8.6,-25.831 -8.82,-38.504 -0.04,-2.055 2.72,-3.566 4.39,-2.28" />
      <path
         id="path267"
         style="fill:#558b2f;fill-opacity:1;fill-rule:nonzero;stroke:none;stroke-width:0.1"
         d="m 1136,100.157 c 8.16,8.888 19.85,16.558 23.39,28.7 3.77,12.921 5.09,29.267 5.3,42.663 0.01,0.966 -1.4,1.521 -2.01,0.734 -4.18,-5.388 -6.72,-11.445 -11.25,-16.65 -3.83,-4.393 -8.49,-8.93 -11.54,-13.893 -7.54,-12.284 -6.68,-24.762 -9.84,-38.419 -0.78,-3.3732 3.61,-5.6846 5.95,-3.135" />
      <path
         id="path269"
         style="fill:#558b2f;fill-opacity:1;fill-rule:nonzero;stroke:none;stroke-width:0.1"
         d="m 1180.64,80.8223 c 7.73,8.6367 14.76,17.8582 20.85,27.7227 7.63,12.367 3.81,27.988 6.53,41.639 0.39,1.994 -2.58,3.254 -3.45,1.281 -4.82,-10.863 -16.19,-19.531 -19.31,-30.918 -3.45,-12.588 -5.04,-25.7365 -6.6,-38.679 -0.13,-1.075 1.15,-1.9735 1.98,-1.0457" />
      <path
         id="path271"
         style="fill:#558b2f;fill-opacity:1;fill-rule:nonzero;stroke:none;stroke-width:0.1"
         d="m 1226.25,84.6816 c 7.68,8.1836 15.44,13.4129 19.17,24.2314 3.23,9.334 1.62,23.222 -0.86,32.519 -0.16,0.621 -1.02,0.781 -1.43,0.322 -5.92,-6.542 -10.96,-14.113 -15.71,-21.544 -6.92,-10.803 -4.49,-20.5506 -6.59,-32.6729 -0.53,-3.0488 3.19,-5.2344 5.42,-2.8555" />
      <path
         id="path273"
         style="fill:#558b2f;fill-opacity:1;fill-rule:nonzero;stroke:none;stroke-width:0.1"
         d="m 1276.16,95.7922 c 1.78,2.7996 3.12,5.7318 5.22,8.3318 2.02,2.497 5.41,6.009 5.75,9.357 0.56,5.53 1.79,13.165 -1.58,17.912 -1.02,1.431 -3.14,2.193 -4.7,1.052 -2.74,-2.011 -3.63,-4.105 -5.21,-7.116 -1.95,-3.709 -4.48,-6.056 -4.83,-10.439 -0.5,-6.179 0.5,-13.763 3.74,-19.1576 0.39,-0.6386 1.25,-0.5051 1.61,0.0598" />
      <path
         id="path275"
         style="fill:#689f38;fill-opacity:1;fill-rule:nonzero;stroke:none;stroke-width:0.1"
         d="m 1200.4,654.873 c -8.94,-26.523 -22.79,-51.384 -40.63,-72.945 -1.31,-1.579 -2.68,-3.233 -3.09,-5.243 -0.59,-2.974 1.05,-5.873 1.87,-8.796 2.19,-7.864 -1.78,-16.134 -6.72,-22.632 -15.22,-20.027 -39.4,-30.737 -62.52,-40.642 5.21,-2.654 6.19,-10.219 3.39,-15.35 -2.8,-5.132 -8.2,-8.258 -13.53,-10.652 -21.24,-9.525 -45.83,-11.347 -68.23,-5.056 -5.65,1.584 -11.196,3.687 -16.122,6.865 -16.043,10.351 -22.973,30.163 -26.711,48.886 -1.841,9.223 -3.179,18.657 -2.304,28.022 2.353,25.197 20.477,46.484 41.497,60.576 -0.63,-4.365 4.85,-7.533 9.14,-6.513 4.29,1.019 7.44,4.562 10.45,7.787 12.5,13.399 27.63,24.33 44.28,31.985 5.91,2.713 13.62,4.744 18.29,0.231 1.55,-1.5 2.51,-3.552 4.17,-4.921 3.55,-2.92 8.79,-1.793 13.24,-0.62 30.41,8.04 62.14,11.098 93.53,9.018" />
      <path
         id="path277"
         style="fill:#558b2f;fill-opacity:1;fill-rule:nonzero;stroke:none;stroke-width:0.1"
         d="m 1066.39,493.855 c -25.29,-3.386 -49.66,3.651 -69.509,19.32 17.229,15.374 36.209,28.692 55.619,41.528 0.25,-0.23 0.43,-0.485 0.77,-0.68 26.13,-15.153 57.06,-17.087 84.81,-5.085 5.16,2.231 1.48,10.109 -3.65,7.89 -24.01,-10.385 -50.92,-9.194 -73.87,3.169 1.25,0.815 2.5,1.633 3.75,2.446 39,25.346 77.93,50.801 117.45,75.332 4.71,2.922 1.1,10.838 -3.65,7.89 -38.07,-23.628 -75.57,-48.133 -113.15,-72.519 -0.27,-0.176 -0.54,-0.353 -0.81,-0.529 -2.45,9.696 -4.42,19.403 -3.99,29.522 0.52,12.351 7.37,23.25 13.69,33.425 2.95,4.741 -4.21,9.677 -7.18,4.902 -6.78,-10.896 -12.67,-21.546 -14.84,-34.324 -2.16,-12.749 1.35,-26.195 4.62,-38.529 -19.04,-12.425 -37.81,-25.131 -55.23,-39.418 -8.009,22.134 -11.564,53.875 3.71,73.01 3.5,4.379 -3.7,9.264 -7.18,4.902 -17.736,-22.216 -13.23,-58.932 -3.579,-83.789 -12.068,-10.464 -23.373,-21.833 -33.468,-34.648 -3.467,-4.404 3.727,-9.29 7.182,-4.904 6.938,8.81 14.498,16.886 22.474,24.472 21.841,-18 49.471,-25.705 77.541,-21.947 5.57,0.746 4.03,9.305 -1.51,8.564" />
      <path
         id="path279"
         style="fill:#8bc34a;fill-opacity:1;fill-rule:nonzero;stroke:none;stroke-width:0.1"
         d="M 978.631,782.822 C 960.44,761.55 946.193,736.916 936.826,710.54 c -0.686,-1.931 -1.402,-3.959 -2.92,-5.336 -2.248,-2.038 -5.583,-2.107 -8.51,-2.907 -7.872,-2.152 -12.942,-9.795 -15.99,-17.365 -9.394,-23.334 -6.196,-49.587 -2.849,-74.518 -4.95,3.113 -11.947,0.077 -14.918,-4.958 -2.971,-5.035 -2.888,-11.272 -2.208,-17.079 2.704,-23.114 13.744,-45.164 30.631,-61.178 4.253,-4.033 8.902,-7.72 14.156,-10.321 17.111,-8.47 37.675,-4.265 55.667,2.122 8.864,3.148 17.645,6.834 25.245,12.385 20.43,14.936 29.41,41.409 30.74,66.681 -3.43,-2.779 -8.95,0.304 -10.28,4.512 -1.32,4.207 0.11,8.722 1.34,12.959 5.09,17.602 6.72,36.201 4.76,54.422 -0.7,6.458 -2.91,14.119 -9.18,15.816 -2.08,0.563 -4.33,0.338 -6.36,1.065 -4.33,1.552 -6.05,6.626 -7.32,11.044 -8.69,30.238 -22.322,59.049 -40.199,84.938" />
      <path
         id="path281"
         style="fill:#558b2f;fill-opacity:1;fill-rule:nonzero;stroke:none;stroke-width:0.1"
         d="m 909.064,585.221 c 10.058,-23.453 28.593,-40.774 52.22,-49.783 4.37,22.673 6.077,45.798 7.147,69.046 -0.324,0.092 -0.636,0.118 -0.974,0.306 -26.405,14.668 -43.923,40.239 -47.842,70.221 -0.729,5.574 7.923,6.45 8.648,0.906 3.391,-25.942 18.206,-48.437 40.582,-61.798 0.059,1.49 0.124,2.978 0.18,4.468 1.774,46.479 3.673,92.958 4.479,139.466 0.097,5.541 8.746,6.495 8.649,0.906 -0.778,-44.795 -2.594,-89.559 -4.271,-134.326 -0.012,-0.323 -0.025,-0.647 -0.037,-0.969 9.577,2.872 18.922,6.156 27.395,11.707 10.34,6.777 16.19,18.242 21.68,28.888 2.56,4.961 10.47,1.343 7.89,-3.654 -5.88,-11.4 -12.01,-21.92 -21.87,-30.332 -9.84,-8.391 -23.182,-12.265 -35.45,-15.78 -0.904,-22.724 -2.197,-45.347 -5.535,-67.628 23.113,4.466 52.185,17.684 60.785,40.607 1.97,5.246 9.85,1.571 7.89,-3.654 -9.98,-26.616 -43.816,-41.567 -70.105,-46.021 -2.8,-15.727 -6.768,-31.26 -12.597,-46.496 -2.003,-5.235 -9.887,-1.563 -7.891,3.653 4.007,10.473 7.067,21.103 9.493,31.84 -26.649,9.526 -47.428,29.302 -58.589,55.329 -2.217,5.169 5.922,8.232 8.123,3.098" />
      <path
         id="path283"
         style="fill:#f29422;fill-opacity:1;fill-rule:nonzero;stroke:none;stroke-width:0.1"
         d="m 849.268,461.338 c 13.481,4.557 27.773,8.585 41.783,6.085 7.528,-1.343 15.649,-5.728 16.903,-13.271 0.772,-4.643 -1.277,-9.218 -2.632,-13.725 -1.974,-6.568 -2.51,-13.467 -3.254,-20.286 -3.709,-34.013 -12.881,-67.424 -27.059,-98.564 -6.211,-13.64 -14.125,-27.618 -27.397,-34.581 -5.044,-2.646 -10.632,-4.131 -16.265,-4.98 -24.633,-3.711 -49.341,4.418 -72.927,12.436 -4.8,1.632 -9.745,3.346 -13.508,6.743 -3.418,3.084 -5.572,7.303 -7.474,11.496 -8.436,18.586 -13.426,38.731 -14.642,59.106 -0.259,4.355 -0.299,8.943 1.746,12.797 1.662,3.133 4.52,5.426 7.3,7.628 23.746,18.806 47.689,37.741 74.66,51.528 13.737,7.021 28.151,12.646 42.766,17.588" />
      <path
         id="path285"
         style="fill:#f29422;fill-opacity:1;fill-rule:nonzero;stroke:none;stroke-width:0.1"
         d="m 665.78,608.467 c -2.755,-6.91 -2.509,-14.599 -2.214,-22.031 0.866,-21.822 1.811,-43.796 6.83,-65.049 2.022,-8.557 4.743,-17.063 9.422,-24.506 10.72,-17.063 30.675,-26.592 50.625,-29.42 19.951,-2.828 40.216,0.162 60.144,3.15 14.375,2.155 28.751,4.311 43.126,6.466 15.647,2.346 31.698,4.683 47.177,1.404 3.653,-0.773 7.749,-1.785 10.891,0.232 3.994,2.564 3.989,8.392 2.839,12.997 -1.579,6.321 -4.415,12.252 -7.359,18.065 -11.082,21.879 -24.058,42.957 -40.421,61.228 -16.363,18.27 -36.25,33.702 -58.972,42.934 -35.959,14.608 -77.045,12.807 -114.181,1.522 -1.578,-0.479 -3.187,-0.993 -4.5,-1.991 -1.626,-1.236 -2.65,-3.105 -3.407,-5.001" />
      <path
         id="path287"
         style="fill:#f29422;fill-opacity:1;fill-rule:nonzero;stroke:none;stroke-width:0.1"
         d="m 934.001,739.077 c -4.805,1.361 -9.819,2.733 -14.73,1.825 -5.142,-0.952 -9.479,-4.271 -13.599,-7.49 -14.734,-11.512 -29.782,-23.365 -39.635,-39.258 -3.298,-5.319 -5.955,-11.006 -8.603,-16.676 -2.665,-5.707 -5.358,-11.498 -6.437,-17.705 -1.129,-6.496 -0.44,-13.16 0.423,-19.699 6.041,-45.711 20.605,-90.284 42.718,-130.746 5.225,-9.558 11.869,-19.683 22.385,-22.523 22.002,20.911 35.813,48.783 49.176,76.037 6.022,12.279 12.043,24.558 18.064,36.837 6.782,13.831 13.741,28.551 12.381,43.895 -0.754,8.49 -4.031,16.531 -7.431,24.346 -7.149,16.43 -15.014,32.547 -23.565,48.291 -2.325,4.279 -4.748,8.595 -8.221,12.007 -6.101,5.991 -14.698,8.53 -22.926,10.859" />
      <path
         id="path289"
         style="fill:#f29422;fill-opacity:1;fill-rule:nonzero;stroke:none;stroke-width:0.1"
         d="m 1188.92,503.411 c -7.18,5.329 -14.36,10.659 -21.54,15.988 -7.07,5.249 -14.4,10.808 -18.24,18.733 -2.15,4.46 -3.13,9.534 -6.07,13.52 -3.2,4.338 -8.31,6.803 -13.34,8.758 -35.67,13.884 -76.56,9.803 -111.98,-4.717 -35.422,-14.518 -66.048,-38.709 -93.921,-64.949 -4.349,-4.092 -8.98,-10.297 -5.882,-15.402 1.126,-1.854 3.068,-3.035 4.953,-4.111 32.752,-18.68 70.146,-27.107 105.96,-38.901 27.56,-9.078 55.55,-20.422 84.49,-18.189 23.81,1.839 45.85,12.749 67.2,23.461 3.69,1.851 7.45,3.748 10.41,6.627 4.23,4.116 6.44,9.841 8.32,15.438 3.79,11.254 6.48,24.507 -0.22,34.306 -2.62,3.832 -6.42,6.672 -10.14,9.438" />
      <path
         id="path291"
         style="fill:#f29422;fill-opacity:1;fill-rule:nonzero;stroke:none;stroke-width:0.1"
         d="m 1046.77,238.209 c 4.22,3.322 6.84,8.259 10.61,12.086 8.52,8.644 22.79,11.632 27.95,22.617 1.65,3.511 2.12,7.443 2.52,11.3 1.69,16.423 2.47,33.079 -0.11,49.386 -2.58,16.305 -8.71,32.347 -19.54,44.804 -4.01,4.612 -8.6,8.672 -13.18,12.719 -8.3,7.336 -16.65,14.715 -26.14,20.431 -10.04,6.05 -21.18,10.13 -31.166,16.271 -11.741,7.222 -21.715,17.185 -33.947,23.54 -12.232,6.356 -28.351,8.337 -39.022,-0.387 -10.281,-8.406 -11.863,-23.199 -13.45,-36.382 -3.584,-29.754 -11.095,-59.21 -10.53,-89.173 0.565,-29.963 10.901,-61.824 35.48,-78.969 11.623,-8.107 25.47,-12.3 39.155,-15.98 12.439,-3.344 25.34,-6.39 38.09,-4.593 8.23,1.159 16.03,4.291 23.74,7.398 3.33,1.342 6.71,2.712 9.54,4.932" />
      <path
         id="path293"
         style="fill:#ffd54f;fill-opacity:1;fill-rule:nonzero;stroke:none;stroke-width:0.1"
         d="m 808.593,405.002 c 20.456,22.956 47.669,40.883 74.578,55.355 2.743,1.476 0.305,5.646 -2.437,4.17 -27.171,-14.613 -54.884,-32.912 -75.557,-56.109 -2.064,-2.317 1.34,-5.746 3.416,-3.416 v 0" />
      <path
         id="path295"
         style="fill:#ffd54f;fill-opacity:1;fill-rule:nonzero;stroke:none;stroke-width:0.1"
         d="m 808.719,359.615 c 28.539,33.83 57.077,67.658 85.615,101.487 -1.345,0.783 -2.69,1.566 -4.036,2.349 -11.21,-34.543 -22.421,-69.084 -33.631,-103.627 -0.964,-2.97 3.7,-4.232 4.657,-1.283 11.211,34.542 22.421,69.084 33.631,103.626 0.726,2.233 -2.467,4.21 -4.035,2.349 -28.539,-33.828 -57.078,-67.657 -85.616,-101.485 -1.995,-2.364 1.404,-5.799 3.415,-3.416 v 0" />
      <path
         id="path297"
         style="fill:#ffd54f;fill-opacity:1;fill-rule:nonzero;stroke:none;stroke-width:0.1"
         d="m 736.663,508.521 c 46.687,-11.265 94.541,-15.063 142.309,-18.619 2.375,-0.176 3.333,3.446 1.219,4.5 -49.82,24.847 -101.006,46.757 -153.371,65.657 -2.937,1.06 -4.191,-3.608 -1.284,-4.657 51.975,-18.759 102.769,-40.509 152.218,-65.17 0.406,1.5 0.812,3 1.218,4.5 -47.341,3.524 -94.755,7.282 -141.025,18.447 -3.027,0.73 -4.311,-3.927 -1.284,-4.658 v 0" />
      <path
         id="path299"
         style="fill:#ffd54f;fill-opacity:1;fill-rule:nonzero;stroke:none;stroke-width:0.1"
         d="m 754.437,596.453 c 47.998,-26.344 95.483,-56.869 126,-103.55 1.696,-2.594 5.88,-0.177 4.17,2.439 -30.985,47.396 -78.977,78.521 -127.733,105.281 -2.731,1.5 -5.168,-2.672 -2.437,-4.17 v 0" />
      <path
         id="path301"
         style="fill:#ffd54f;fill-opacity:1;fill-rule:nonzero;stroke:none;stroke-width:0.1"
         d="m 876.851,611.527 c 5.366,-33.657 19.307,-64.644 33.467,-95.364 1.078,-2.337 4.389,-0.979 4.501,1.219 2.568,50.325 5.738,100.615 9.509,150.864 0.234,3.109 -4.598,3.086 -4.83,0 -3.77,-50.249 -6.941,-100.539 -9.509,-150.864 1.5,0.406 3,0.813 4.5,1.219 -13.997,30.365 -27.678,60.954 -32.981,94.209 -0.489,3.069 -5.143,1.762 -4.657,-1.283 v 0" />
      <path
         id="path303"
         style="fill:#ffd54f;fill-opacity:1;fill-rule:nonzero;stroke:none;stroke-width:0.1"
         d="m 963.722,610.414 c -9.749,-30.955 -23.793,-60.031 -41.922,-86.94 1.5,-0.406 3,-0.813 4.5,-1.219 1.413,27.708 4.376,55.24 8.928,82.61 0.506,3.045 -4.148,4.351 -4.658,1.283 -4.621,-27.789 -7.666,-55.755 -9.1,-83.893 -0.13,-2.556 3.244,-3.083 4.5,-1.219 18.358,27.248 32.541,56.761 42.409,88.094 0.938,2.979 -3.725,4.243 -4.657,1.284 v 0" />
      <path
         id="path305"
         style="fill:#ffd54f;fill-opacity:1;fill-rule:nonzero;stroke:none;stroke-width:0.1"
         d="m 1057.26,551.213 c -35.48,-14.005 -71.174,-28.591 -99.892,-54.416 -1.862,-1.674 0.103,-4.609 2.35,-4.036 46.892,11.942 93.962,23.71 142.382,27.142 3.09,0.219 3.11,5.05 0,4.831 -48.85,-3.464 -96.36,-15.266 -143.666,-27.316 0.783,-1.346 1.566,-2.691 2.349,-4.036 28.081,25.253 63.077,39.482 97.757,53.174 2.87,1.13 1.62,5.801 -1.28,4.657 v 0" />
      <path
         id="path307"
         style="fill:#ffd54f;fill-opacity:1;fill-rule:nonzero;stroke:none;stroke-width:0.1"
         d="m 1121.9,499.959 c -53.01,-9.91 -106.42,-17.488 -160.341,-19.842 -2.666,-0.116 -3.36,-4.046 -0.642,-4.743 51.503,-13.217 104.773,-16.412 157.483,-9.35 -0.41,1.5 -0.81,3 -1.22,4.5 -0.83,-0.566 -1.66,-1.133 -2.49,-1.7 -2.56,-1.744 -0.14,-5.931 2.44,-4.17 0.83,0.567 1.66,1.133 2.49,1.701 1.75,1.197 1.38,4.848 -1.22,4.5 -52.3,-7.008 -105.08,-3.941 -156.199,9.176 -0.214,-1.582 -0.428,-3.162 -0.642,-4.744 54.351,2.373 108.201,10.026 161.631,20.015 3.05,0.572 1.76,5.226 -1.29,4.657 v 0" />
      <path
         id="path309"
         style="fill:#ffd54f;fill-opacity:1;fill-rule:nonzero;stroke:none;stroke-width:0.1"
         d="m 930.537,318.032 c -1.979,20.46 -3.348,40.952 -4.107,61.493 -0.803,21.714 -2.951,45.225 4.687,65.959 -1.552,0 -3.104,0 -4.657,0 7.699,-28.234 15.397,-56.468 23.096,-84.701 0.827,-3.03 5.266,-1.741 4.658,1.284 -0.537,2.671 -0.859,2.875 -3.05,4.443 -2.54,1.815 -4.948,-2.377 -2.438,-4.171 0.277,-0.519 0.553,-1.037 0.83,-1.556 1.553,0.429 3.105,0.857 4.658,1.284 -7.699,28.234 -15.398,56.467 -23.097,84.701 -0.667,2.447 -3.865,2.149 -4.657,0 -6.886,-18.69 -5.581,-38.854 -5.125,-58.441 0.546,-23.477 2.111,-46.924 4.372,-70.295 0.297,-3.071 5.13,-3.1 4.83,0 v 0" />
      <path
         id="path311"
         style="fill:#ffd54f;fill-opacity:1;fill-rule:nonzero;stroke:none;stroke-width:0.1"
         d="m 991.228,343.529 c -15.855,36.24 -31.672,72.495 -47.453,108.768 -1.264,-0.977 -2.528,-1.951 -3.793,-2.927 20.564,-18.89 40.584,-38.337 60.058,-58.343 2.18,-2.235 5.59,1.183 3.42,3.414 -19.478,20.007 -39.499,39.455 -60.062,58.344 -2.133,1.959 -4.857,-0.481 -3.793,-2.926 15.781,-36.272 31.598,-72.528 47.452,-108.768 1.246,-2.847 5.406,-0.386 4.171,2.438 v 0" />
      <path
         id="path313"
         style="fill:#594842;fill-opacity:1;fill-rule:nonzero;stroke:none;stroke-width:0.1"
         d="m 930.408,528.004 c -1.692,-0.444 -3.299,-1.213 -5.026,-1.489 -1.632,-0.262 -3.3,-0.074 -4.939,0.14 -4.041,0.53 -8.058,1.22 -12.075,1.909 -2.009,0.345 -4.017,0.69 -6.026,1.036 -2.809,0.482 -5.67,0.966 -8.495,0.589 -6.413,-0.855 -11.814,-6.638 -12.23,-13.095 -12.137,0.661 -22.797,-12.713 -19.445,-24.398 -8.132,-7.633 -7.522,-22.534 1.205,-29.478 1.023,-0.814 2.192,-1.609 2.602,-2.851 0.478,-1.448 -0.236,-2.982 -0.733,-4.425 -2.231,-6.483 0.326,-14.301 5.958,-18.211 5.632,-3.91 13.851,-3.574 19.145,0.783 -2.457,-11.469 8.145,-23.366 19.874,-23.473 11.729,-0.107 22.161,10.229 23.533,21.878 4.246,-5.119 12.183,-6.731 18.089,-3.673 5.906,3.059 9.171,10.471 7.44,16.893 9.032,0.103 18.222,6.121 20.184,14.939 1.961,8.817 -5.393,19.011 -14.405,18.391 6.773,4.864 8.572,15.404 3.797,22.24 -4.775,6.836 -15.29,8.773 -22.189,4.09 1.811,4.681 0.782,10.336 -2.561,14.079 -3.344,3.742 -8.849,5.399 -13.703,4.126" />
      <path
         id="path315"
         style="fill:#f28322;fill-opacity:1;fill-rule:nonzero;stroke:none;stroke-width:0.1"
         d="m 940.156,494.735 c 1.266,1.967 -0.572,4.395 -2.162,6.11 -3.226,3.477 -5.947,7.454 -9.594,10.489 -3.646,3.034 -8.604,5.056 -13.147,3.689 -2.721,-1.535 -4.753,-4.246 -5.464,-7.289 -2.946,4.328 -9.123,6.1 -13.916,3.992 -4.792,-2.108 -7.66,-7.859 -6.462,-12.956 -6.054,-1.27 -9.756,-7.282 -12.407,-12.871 -1.245,-2.626 -2.438,-5.352 -2.652,-8.251 -0.636,-8.589 9.482,-15.98 17.471,-12.76 -2.209,-7.593 -0.221,-16.432 5.526,-21.861 5.748,-5.431 15.16,-6.812 21.907,-2.689 6.746,4.124 9.747,13.692 6.012,20.661 3.246,-4.013 9.783,-5.122 13.826,-1.912 4.042,3.21 4.127,10.428 -0.161,13.302 5.583,0.131 10.637,5.032 10.942,10.607 0.306,5.576 -4.184,10.998 -9.719,11.739" />
    </g>
  </g>
</svg>
