<?xml version="1.0" encoding="UTF-8" standalone="no"?>
<svg
   xmlns:dc="http://purl.org/dc/elements/1.1/"
   xmlns:cc="http://creativecommons.org/ns#"
   xmlns:rdf="http://www.w3.org/1999/02/22-rdf-syntax-ns#"
   xmlns:svg="http://www.w3.org/2000/svg"
   xmlns="http://www.w3.org/2000/svg"
   id="svg10615"
   version="1.1"
   viewBox="0 0 504.06311 315.61841">
  <defs
     id="defs10609" />
  <metadata
     id="metadata10612">
    <rdf:RDF>
      <cc:Work
         rdf:about="">
        <dc:format>image/svg+xml</dc:format>
        <dc:type
           rdf:resource="http://purl.org/dc/dcmitype/StillImage" />
        <dc:title></dc:title>
      </cc:Work>
    </rdf:RDF>
  </metadata>
  <g
     transform="translate(252.03156,58.112757)"
     id="layer1">
    <g
       id="g10510"
       transform="matrix(0.35277777,0,0,-0.35277777,-975.09495,1223.5076)">
      <g
         transform="scale(0.181753)"
         id="g1981">
        <path
           id="path1983"
           style="fill:#8bc34a;fill-opacity:1;fill-rule:nonzero;stroke:none"
           d="m 13755.7,16080.6 c -50,8.1 -94.7,34.9 -138,61.1 -49.7,30.1 -99.3,60.1 -149,90.2 58.7,39.8 129.2,59.6 199.9,65.5 28.2,2.4 57,2.6 84.6,-3.7 31.9,-7.4 61.2,-23.2 89.4,-39.9 66.8,-39.7 129.9,-85.5 188.3,-136.8 -93,-1.1 -183.4,-51.4 -275.2,-36.4" />
      </g>
      <g
         transform="scale(0.178739)"
         id="g1985">
        <path
           id="path1987"
           style="fill:#558b2f;fill-opacity:1;fill-rule:nonzero;stroke:none"
           d="m 14292.3,16284.7 c -5.3,7.4 -12.1,15.2 -21.2,15.3 -6.3,0 -11.9,-3.9 -16.9,-7.8 -40,-31.9 -67.9,-78.7 -76.9,-129.1 -27.4,-154 115.8,-299.3 91.7,-453.9 59.9,67.9 122.7,142.8 128.9,233.1 1.9,27.6 -1.7,55.4 -6.4,82.7 -15.7,92.2 -44.4,184 -99.2,259.7" />
      </g>
      <g
         transform="scale(0.179338)"
         id="g1989">
        <path
           id="path1991"
           style="fill:#8bc34a;fill-opacity:1;fill-rule:nonzero;stroke:none"
           d="m 13642.9,16251.5 c -39.1,-15.7 -75,-38.7 -113.9,-54.8 -39,-16.1 -83.3,-25.2 -123.2,-11.7 36.6,-12.5 73.1,-25.1 109.7,-37.7 82.4,-28.3 166.3,-56.9 253.4,-59.6 87.1,-2.8 179.4,24.3 235.7,90.8 -92.6,91.6 -240.9,121.5 -361.7,73" />
      </g>
      <g
         transform="scale(0.176566)"
         id="g1993">
        <path
           id="path1995"
           style="fill:#558b2f;fill-opacity:1;fill-rule:nonzero;stroke:none"
           d="m 14134.5,15664.2 c 53.8,82.2 108.9,167.7 124,264.8 17.6,112.6 -21,226.2 -67.4,330.4 -8.3,18.6 -23.8,40.6 -43.4,34.9 -5.2,-1.5 -9.6,-4.9 -13.9,-8.3 -68.5,-54.9 -127.6,-134.2 -122.6,-221.9 4.1,-71.9 49.7,-133.6 86.5,-195.5 36.7,-62 66.3,-138.7 36.8,-204.4" />
      </g>
      <g
         transform="scale(0.176005)"
         id="g1997">
        <path
           id="path1999"
           style="fill:#8bc34a;fill-opacity:1;fill-rule:nonzero;stroke:none"
           d="m 13497.9,16163.3 c 126.9,8.7 229.8,114.7 356,129.8 57,6.9 116.2,-6 165.2,-36 -47.7,-10.5 -77.7,-55.9 -115.3,-87 -84,-69.5 -208.7,-65.5 -310.8,-27.5 -30.8,11.5 -62.7,26 -95.1,20.7" />
      </g>
      <g
         transform="scale(0.173745)"
         id="g2001">
        <path
           id="path2003"
           style="fill:#8bc34a;fill-opacity:1;fill-rule:nonzero;stroke:none"
           d="m 13952.8,15835.6 c 24.1,15.1 47.5,31.6 68.6,50.8 111.6,101.1 145.4,278.5 78.9,413.6 -59.6,-31.1 -122.4,-65.3 -154.7,-124.2 -26.7,-48.7 -28.1,-106.5 -34.4,-161.7 -10.7,-94.5 -41.2,-193.1 -114.5,-253.8 54.6,19.2 107,44.5 156.1,75.3" />
      </g>
      <g
         transform="scale(0.208086)"
         id="g2005">
        <path
           id="path2007"
           style="fill:#8bc34a;fill-opacity:1;fill-rule:nonzero;stroke:none"
           d="m 13319.4,14916.8 c -279.5,248.1 -491.5,563.8 -621,910.9 46.9,112.7 115.3,212.3 204.6,295.9 13.7,12.8 -4.7,35.4 -18.5,22.5 -85.3,-79.8 -151.8,-174.2 -200.1,-279.8 -49.6,140.5 -85.5,285.9 -107.2,433.7 -3.3,-0.8 -6.4,-2.3 -10,-2.5 -1.4,0 -2.8,-0.1 -4.2,-0.1 -4.9,-0.2 -9.7,0 -14.4,0.4 22.4,-153.5 59.9,-304.2 111.9,-449.7 -107,41.5 -214.4,81.9 -322.4,120.9 -17.7,6.3 -28.2,-20.9 -10.5,-27.2 113.9,-41.1 227.3,-83.6 340.2,-127.5 1.8,-0.8 3.2,0.2 4.9,0.1 131.5,-350.7 346.2,-669.6 629.6,-921.3 14.1,-12.4 31,11.3 17.1,23.7" />
      </g>
      <g
         transform="scale(0.212422)"
         id="g2009">
        <path
           id="path2011"
           style="fill:#8bc34a;fill-opacity:1;fill-rule:nonzero;stroke:none"
           d="m 12611.1,16157.6 c 13.7,-25.6 49,-32.2 76.6,-23.4 27.5,8.9 49.6,29.2 72.2,47.3 52.4,41.8 112.1,74.3 175.7,95.5 2.5,-12.8 5,-25.6 7.6,-38.4 166.2,49.1 343.2,61.4 514.6,35.7 -0.7,-124.4 -83.1,-231.4 -161.6,-327.9 26.8,22 69.3,-12.9 66.4,-47.4 -2.8,-34.6 -31.9,-60.5 -60,-80.7 -88.2,-63.6 -188.9,-109.6 -294.6,-134.7 2.8,-29.9 41,-55.8 26.9,-82.4 -7.1,-13.4 -24.3,-17.3 -39.4,-19.1 -134.6,-16.2 -269.4,21.1 -399.5,59.4 -20.8,6.1 -42.3,12.6 -58.7,26.8 -16.2,14.1 -25.7,34.4 -33.1,54.7 -54.2,148.6 -10.1,328.1 106.9,434.6" />
      </g>
      <g
         transform="scale(0.222877)"
         id="g2013">
        <path
           id="path2015"
           style="fill:#8bc34a;fill-opacity:1;fill-rule:nonzero;stroke:none"
           d="m 11559.5,16300.2 c 80.9,-90.9 145,-196.8 188,-310.7 3.1,-8.4 6.4,-17.1 13.1,-23 10,-8.7 24.5,-8.7 37.3,-11.9 34.4,-8.7 57.1,-41.5 71,-74.1 42.9,-100.7 31.2,-215.2 18.8,-323.9 21.3,14 52,1.4 65.3,-20.2 13.4,-21.7 13.6,-48.8 11.1,-74.1 -9.8,-100.8 -55.9,-197.6 -127.9,-268.7 -18.2,-17.9 -38.1,-34.3 -60.7,-46.1 -73.7,-38.3 -163.5,-21.8 -242.3,4.4 -38.8,13 -77.3,28.2 -110.8,51.7 -90.1,63.2 -131.5,177.6 -139.5,287.4 15.2,-11.8 39,2 44.4,20.5 5.4,18.4 -1.3,37.9 -7,56.2 -23.6,76.1 -32.3,156.9 -25.3,236.3 2.4,28.1 11.4,61.6 38.5,69.5 9,2.7 18.8,1.9 27.6,5.2 18.7,7.1 25.7,29.3 30.8,48.7 35.2,132.2 92,258.7 167.6,372.8" />
      </g>
      <g
         transform="scale(0.207627)"
         id="g2017">
        <path
           id="path2019"
           style="fill:#689f38;fill-opacity:1;fill-rule:nonzero;stroke:none"
           d="m 11664.7,15983.1 c -25.4,-31 -50.8,-62 -76.3,-93 117.9,-56.7 246.2,-91.6 376.6,-102.4 -24,-21.6 -18.3,-63.4 4.1,-86.7 22.3,-23.3 55.7,-32.1 87.6,-37 78.8,-12.1 161.8,-6 234.3,27.3 102.9,47.2 178.2,151.3 187.7,264.1 9.5,112.9 -48.7,229.5 -146.1,287.1 -6.6,3.9 -14.1,7.7 -21.5,6 -16,-3.5 -18.4,-27 -32.7,-34.7 -8.3,-4.4 -18.5,-2.5 -27.6,-0.4 -127.4,28.9 -254.8,57.7 -382.2,86.6 -4.1,-21.1 4.9,-44.2 22.2,-56.9 -77.8,-34.2 -166.6,-1.6 -249.1,18.9 -82.5,20.5 -187.3,19.9 -232.1,-52.3 37.1,-24.9 62.7,-63.1 91.8,-97.1 45.5,-53.1 101.2,-97.3 163.3,-129.5" />
      </g>
      <g
         transform="scale(0.20037)"
         id="g2021">
        <path
           id="path2023"
           style="fill:#8bc34a;fill-opacity:1;fill-rule:nonzero;stroke:none"
           d="m 14675.8,14842.2 c 381.3,-72 775.4,-45.6 1142.8,68.5 62.8,110.2 101.2,229.6 113.2,356.1 1.8,19.3 32.1,18.6 30.2,-0.9 -11.4,-120.8 -46.7,-235.4 -102.8,-342.2 147,48.5 289.2,111.4 424.4,187.5 1.5,-3.3 2.2,-6.8 4.4,-9.8 0.8,-1.2 1.7,-2.4 2.5,-3.6 3,-4.1 6.2,-7.9 9.5,-11.6 -140.3,-79.1 -288,-144 -440.5,-193.7 102,-61.6 203.5,-124.1 304.1,-188.1 16.5,-10.5 0.8,-36.4 -15.7,-25.9 -106.1,67.5 -213.1,133.6 -320.8,198.5 -1.8,1.1 -1.9,2.8 -3,4.1 -371.7,-114.8 -770.1,-141 -1156.9,-68 -19.2,3.6 -10.4,32.6 8.6,29.1" />
      </g>
      <g
         transform="scale(0.199929)"
         id="g2025">
        <path
           id="path2027"
           style="fill:#8bc34a;fill-opacity:1;fill-rule:nonzero;stroke:none"
           d="m 16290.6,15512.5 c -30.3,-5.1 -58.9,20.2 -69.3,49.2 -10.5,28.9 -7.8,60.7 -7.3,91.4 1.2,71.2 -10.4,142.6 -33.9,209.8 -12.4,-6.2 -24.8,-12.4 -37.2,-18.6 -66.7,171.6 -171.4,328.3 -304.5,455.7 -104.1,-81.4 -140.4,-220.3 -170.5,-348.9 1,36.8 -56,49.8 -83.1,25 -27.1,-24.9 -30,-66.2 -28.8,-102.9 3.9,-115.4 30.7,-230 78.3,-335.2 -27,-17.1 -73.6,-1.8 -86.7,-30.9 -6.7,-14.7 1.2,-31.7 9.5,-45.6 73.9,-123.6 192.8,-212.6 309.6,-297.2 18.6,-13.5 38.1,-27.3 60.7,-31.8 22.4,-4.5 45.6,0.7 67.5,7.7 160.1,51 282.3,204.7 295.7,372.3" />
      </g>
      <g
         transform="scale(0.213403)"
         id="g2029">
        <path
           id="path2031"
           style="fill:#8bc34a;fill-opacity:1;fill-rule:nonzero;stroke:none"
           d="m 16300,14728.3 c -126.8,8.7 -255.3,-6 -376.9,-43.2 -8.9,-2.7 -18.2,-5.6 -27.3,-3.8 -13.5,2.7 -22.8,14.6 -33.7,23.2 -29.1,22.8 -70.7,20.7 -106.6,11.3 -110.6,-28.9 -197.7,-111.7 -279.5,-191.4 -2.1,26.5 -32.1,43.8 -58.5,41 -26.4,-2.8 -49,-20 -68.3,-38.2 -77,-72.4 -127.5,-172.4 -140.2,-277.3 -3.2,-26.5 -4.1,-53.4 0.6,-79.6 15.5,-85.3 86.5,-149 158.5,-197.3 35.4,-23.8 72.7,-45.9 113.5,-58.6 109.8,-34.1 230.7,4.8 326.5,68.4 -19.4,5 -23.2,33.5 -11.4,49.7 11.8,16.2 32.1,23.2 50.9,30.2 78,29.1 150.2,73.5 211.4,130 21.7,20 43.6,48.8 32.9,76.3 -3.6,9.1 -10.5,16.7 -13.4,26.1 -6,20 7.8,40 20.5,56.6 86.8,113.5 155,241.3 201,376.6" />
      </g>
      <g
         transform="scale(0.208589)"
         id="g2033">
        <path
           id="path2035"
           style="fill:#689f38;fill-opacity:1;fill-rule:nonzero;stroke:none"
           d="m 15936.7,13560.4 c -9,-38.9 -17.9,-77.8 -26.9,-116.7 -116.4,58.3 -221.9,138.1 -309.8,234.2 -2.5,-32.1 -38.8,-53 -70.8,-49.6 -32,3.4 -59.2,24.3 -82.5,46.5 -57.5,54.7 -103.3,123.7 -121.2,201.1 -25.5,109.8 10.7,232.5 93.7,308.6 83.1,76.2 210.3,101.4 315.1,59.8 7,-2.8 14.5,-6.4 17.8,-13.3 6.9,-14.7 -10.1,-30.9 -7.4,-46.9 1.5,-9.2 9.2,-16 16.4,-22 100.4,-82.7 200.7,-165.5 301,-248.2 -14.2,-16.1 -37.8,-23 -58.4,-17.1 20.4,-82.2 100.2,-132.2 166.6,-184.7 66.4,-52.4 129.7,-135.3 100.1,-214.6 -42.2,14.1 -87.9,11 -132.3,13.2 -69.5,3.4 -138.3,20.4 -201.4,49.7" />
      </g>
      <g
         transform="scale(0.208394)"
         id="g2037">
        <path
           id="path2039"
           style="fill:#283593;fill-opacity:1;fill-rule:nonzero;stroke:none"
           d="m 14081.1,15877.8 c -8.9,72.5 85.6,257.1 194.8,323.1 103.4,62.5 263.7,99.1 384.1,88.3 20.5,-1.9 41.9,-4 59.4,-14.9 25.5,-15.9 37.2,-46.5 46.3,-75.1 38.5,-121.1 31,-296.3 -4.5,-418.3 -35.5,-122 -197.5,-307.6 -324.5,-309.3 -10.4,-0.1 -18.7,-4.7 -27.9,-9.5 165.6,-0.5 329.7,-72.4 442.3,-193.8 112.6,-121.4 172,-290.5 160.1,-455.6 -1.7,-22.8 -5.9,-47.9 -23.7,-62.2 -15.6,-12.5 -37.1,-13.2 -57.1,-13.2 -141.5,0.2 -285.6,10.6 -417.8,61 -132.3,50.5 -230.6,124 -306.3,276.9 -40.2,81.2 -33.5,84.2 -42.7,110.1 5,-117.8 -76.5,-275.6 -137.8,-376.4 -18.9,-31 -38.9,-63.3 -69.9,-82.2 -25.6,-15.8 -56.2,-20.8 -86,-25.4 -112.1,-17.7 -224.3,-35.4 -336.4,-53.1 -8,-1.3 -16.7,-2.4 -23.7,1.7 -6.7,3.9 -10,11.7 -12.8,19 -41.5,108.3 -66,223.1 -72.3,338.9 -4.7,86.2 2.3,178.2 52.6,248.4 22.3,31.2 51.9,56.3 82.6,79.3 55.9,41.8 217.9,106.6 228,113.2 -56.8,15.3 -113.6,30.7 -170.4,46.1 -41.9,11.3 -84.5,22.9 -121.3,45.8 -42.4,26.4 -74.5,65.9 -105.8,104.7 -123.2,152.8 -160.4,251 -170,447 -0.6,13.1 -0.4,27.1 7,37.9 6.1,8.8 16,14 25.7,18.6 164.7,77 247.9,82.4 412.1,30.2 173.3,-55.1 258.6,-121.5 372.6,-263.1 4.9,-6 60,-113.2 55.1,-119.2 -4.9,-6.1 -19.5,81.4 -11.8,81.1" />
      </g>
      <g
         transform="scale(0.208088)"
         id="g2041">
        <path
           id="path2043"
           style="fill:#5c6bc0;fill-opacity:1;fill-rule:nonzero;stroke:none"
           d="m 14994.5,14844.2 c -38.5,220.7 -86.1,373.7 -286.1,497.2 -76.8,47.5 -168.1,80.8 -256.2,98.3 -31.6,6.2 -81.9,18.5 -132.6,25.5 107.7,47.7 226.1,148.1 267.6,197.9 146.4,175.6 185.3,387.8 163.6,610.9 -2.2,22.4 -25.2,26 -40.2,16.4 -3.6,1.2 -7.6,1.6 -12.1,1 -297.9,-42.7 -472.1,-349 -535.8,-626.6 -55.6,129.5 -170.2,248 -268.9,324.4 -171.9,133.1 -361.6,190.4 -575.6,151.1 -13.8,-2.5 -20.2,-12.7 -21,-23.5 -4.9,-5.2 -7.5,-12.4 -5.1,-21.8 46.5,-179.1 130.4,-338.2 280.8,-450.2 97.5,-72.6 230.8,-129.8 363.9,-157.1 -118.9,-35.2 -235.4,-87.5 -307.4,-171.3 -137,-159.5 -138.8,-357.4 -95.6,-553 -0.5,-3.1 -1.4,-6.1 -1.8,-9.2 -1.8,-13.8 5.9,-22.5 16,-26 5.6,-12 18.4,-20.9 34.2,-14.6 186.4,74.8 345.6,92.3 456.1,276.9 65.1,108.8 109.8,237.4 126.3,366.4 25.1,-138.9 80.2,-266 183.4,-372.9 169,-175 403.9,-129.7 618.3,-185.4 29.1,-7.6 46.8,30.2 28.2,45.6 z m -589.2,550.4 c 95.6,-14.2 187.7,-51.7 272.3,-97.1 130.1,-69.8 189.9,-171.6 225.8,-291.6 -131.9,198.7 -381.7,329.6 -607.1,405.6 41.9,-4.6 85.4,-13.4 109,-16.9 z m 486.9,-476.8 c -108.6,70.9 -228.5,123 -337.2,194.7 -104.7,69 -196.8,154.8 -279.1,249.1 237.2,-79.7 504.3,-221.4 616.3,-443.8 z m -268.4,1297.8 c -167.8,-209.5 -282,-453.7 -428.5,-678 -0.3,5 -0.8,10.1 -1.4,15.2 1.4,2.6 3.1,4.8 3.6,8.2 34.6,248.9 172.2,563.7 426.3,654.6 z m -798.5,-244 c 121,-76.9 280.5,-240.5 311.6,-399.4 -196.8,240.3 -449.8,418.2 -742.7,522.1 159.6,13.7 289.3,-32.6 431.1,-122.7 z m 248.3,-406.9 c -112.8,54 -230.8,96.2 -342,154.1 -137,71.3 -246.6,184.5 -327.2,314.7 261.6,-98.2 487.9,-256.7 669.2,-468.8 z m -430.2,98.8 c -111.8,61.4 -188,163 -239.9,276.5 53.2,-71.7 115.4,-136 187.4,-193.6 128.9,-103 289,-151 437.9,-218.8 -134.8,15.8 -272.3,73.8 -385.4,135.9 z m -75.8,-778.9 c -17.8,156.3 6.3,310.5 134,425.6 86.7,78 219.4,121.5 343.4,149.8 -112.8,-72 -208.7,-163.7 -293.8,-271.2 -67.7,-85.5 -140.2,-193.3 -183.6,-304.2 z m 39.9,-48 c 39,116.5 118.2,226.8 187.6,321.4 76.1,103.5 171.7,188.7 279.5,256 -61,-121 -126,-238.2 -210.4,-345.6 -72.6,-92.2 -177.5,-149.3 -256.7,-231.8 z m 366.4,150.6 c -76.6,-128 -210.4,-157.3 -339.8,-198.8 87.7,104.7 218.3,178.4 304.4,287.8 68.8,87.5 122,187.2 171.7,287.5 -17.8,-132.8 -69.2,-264.4 -136.3,-376.5 z m 346.1,611.2 c -11.6,-10.2 -23.2,-20.4 -34.8,-30.6 -4,-3.3 -8.4,-6 -12.6,-9.1 123.1,197.2 226.7,406.4 367.3,591.5 -38.6,-99.3 -85.7,-194.6 -136.3,-289.6 -29.6,-55.8 -62.4,-109.2 -97.9,-161.4 -25.4,-36.2 -54,-69.8 -85.7,-100.8 z m 382.3,558.7 c -0.3,-135.6 -28.7,-264.3 -100.3,-386.3 -50.3,-85.8 -130.5,-145.3 -213.5,-196.3 -11.5,-7 -28.3,-17.8 -47.4,-29.2 23.3,21 41.7,40.1 50.3,50.2 133.8,157.7 240.7,361.6 310.9,561.6 z m -187.2,-1224.8 c -170,67.7 -258.5,238.9 -294.3,412.3 79.1,-91.9 166,-174.1 263.8,-248.1 119,-90 258.3,-145.1 382.1,-226.4 -118.6,15.2 -238.8,17.3 -351.6,62.2" />
      </g>
      <g
         transform="scale(0.199456)"
         id="g2045">
        <path
           id="path2047"
           style="fill:#ffff66;fill-opacity:1;fill-rule:nonzero;stroke:none"
           d="m 14801.7,16079.4 c 14.9,9.3 27,22.4 36.7,37 19.5,29.3 29.4,68.4 13.7,99.9 -8.2,16.5 -22.4,29.1 -36.5,40.8 -21.7,18 -45.7,35.6 -73.7,38.4 -44.8,4.5 -86.1,-32.6 -99.1,-75.7 -13.3,-43.8 -1.6,-95.2 32,-126.3 33.5,-31.1 88.1,-38.4 126.9,-14.1" />
      </g>
      <g
         transform="scale(0.196814)"
         id="g2049">
        <path
           id="path2051"
           style="fill:#4854a5;fill-opacity:1;fill-rule:nonzero;stroke:none"
           d="m 15067.2,15372.6 c -58.7,23.1 -159.9,170.9 -164.9,281.1 -4.8,104.3 33.5,241.1 91.4,328 9.9,14.8 20.3,30.1 35.8,38.9 22.6,12.9 50.6,9.1 76.1,4.2 107.8,-20.6 237.8,-98.7 315.7,-175.9 78,-77.3 152.1,-276.9 101,-374 -4.2,-7.9 -4.2,-16.1 -4.3,-25 68.7,125.4 191,220.4 329.6,255.8 138.6,35.4 291.5,10.8 411.9,-66.4 16.6,-10.7 34,-24.2 37.5,-43.7 3,-16.9 -5.4,-33.6 -13.6,-48.7 -58.5,-107.4 -125.8,-212.5 -218.7,-292.1 -92.8,-79.6 -189.2,-123.9 -336.5,-118.3 -78.3,3 -77.8,9.3 -101.2,13 91.5,-44.8 177.7,-171.8 228.9,-259.8 15.8,-27.2 32,-55.7 33.6,-87 1.4,-26 -7.4,-51.3 -16.1,-75.8 -32.9,-92.5 -65.7,-184.9 -98.5,-277.4 -2.4,-6.5 -5.1,-13.6 -11.1,-17.2 -5.7,-3.5 -13,-2.8 -19.7,-1.9 -99.3,13.2 -196.6,41.9 -287.1,84.9 -67.4,32 -134.4,75.3 -166.9,142.4 -14.5,29.8 -21.3,62.7 -26.1,95.4 -8.7,59.8 8.9,209.5 8.1,219.8 -35.1,-36.8 -70.2,-73.6 -105.3,-110.4 -25.9,-27.1 -52.3,-54.6 -84.9,-73.1 -37.4,-21.3 -80.7,-29.4 -123.1,-37.2 -166.8,-30.5 -256.7,-18.2 -409.4,55.4 -10.2,4.9 -20.8,10.8 -26,20.9 -4.1,8.2 -4,17.9 -3.4,27.1 9.4,156.8 39.7,222.3 147,325.4 113.3,108.8 198.9,146.2 353.4,174.4 6.6,1.2 110.7,-1.2 113.3,-7.4 2.5,-6.2 -69.9,18.8 -66.5,24.6" />
      </g>
      <g
         transform="scale(0.196534)"
         id="g2053">
        <path
           id="path2055"
           style="fill:#6f85bb;fill-opacity:1;fill-rule:nonzero;stroke:none"
           d="m 16259.3,15636.1 c -183.4,61.9 -319.3,88.8 -495.5,-12.1 -67.7,-38.7 -130.7,-94.3 -180.3,-154 -17.8,-21.4 -47.8,-54.5 -74.1,-90 8.3,101.4 -19.2,232.6 -39.8,284.7 -72.9,183.5 -218,300.6 -396.3,376.1 -18,7.6 -30.1,-8.4 -29.1,-23.7 -2.3,-2.3 -4.3,-5.1 -5.7,-8.8 -90.4,-243.8 70.2,-502.3 254.7,-665.2 -121.2,11.2 -258.5,-26.9 -357.2,-70.3 -171.9,-75.6 -293.7,-196 -352.1,-374.7 -3.8,-11.5 1.3,-20.5 9.2,-25.6 1.9,-5.9 6.3,-10.8 14.4,-12.9 155.2,-38.6 310.6,-40.5 457.6,27.5 95.4,44.1 193.8,121.7 269.4,211.5 -22.3,-104.8 -30.7,-214.9 3.2,-304 64.6,-169.8 214.1,-252.8 380.4,-300.7 2.2,-1.6 4.1,-3.6 6.2,-5.2 9.8,-7.1 19.6,-4.8 26.4,1.4 11.4,-0.6 23.5,5.4 25.2,20 20.1,172.3 72.5,300.4 -22.1,460.5 -55.7,94.2 -134.9,181.2 -226.1,246.9 115.9,-38.2 235.1,-48.7 358.8,-14.5 202.5,56.1 265,253.1 395.8,392.9 17.7,19 -3.7,48 -23,40.2 z m -660.9,-220.3 c 50.2,66.8 116.7,121.2 186,166.7 106.7,70 208.6,73.4 314.5,51.2 -205.2,-18.3 -407.6,-153.8 -558.3,-293.6 20.8,29.9 45.4,59.2 57.8,75.7 z m 562.8,173 c -98.6,-53.2 -187.6,-122.7 -286.8,-175.7 -95.7,-51 -198.8,-85.5 -304.3,-109.1 158.3,147.2 376.1,291.5 591.1,284.8 z m -1096,331.6 c 89.9,-213.8 228.2,-401.3 338.1,-605 -4,1.8 -8.1,3.6 -12.2,5.2 -1.4,2.1 -2.3,4.4 -4.7,6.1 -174.7,129 -356.9,363.3 -321.2,593.7 z m -144.1,-706.9 c 108.3,60.2 298.3,113.7 431.8,71.8 -263.6,-50.2 -503,-168.9 -702.8,-348.4 55.5,126.8 144.2,206.1 271,276.6 z m 411.3,20.7 c -87.5,-63.4 -168.1,-135.6 -258,-196.1 -110.6,-74.6 -241.8,-111.1 -373.9,-118.5 182.5,158 396.1,264.5 631.9,314.6 z m -252.4,-285.9 c -92.7,-59.5 -201.3,-75.5 -308.9,-68 76.5,10.8 150.9,31.5 224.3,62.4 131.4,55.3 233.9,157.1 346.7,242.1 -67.5,-95.8 -168.3,-176.2 -262.1,-236.5 z m 560.1,-378.7 c -126,50.9 -233.2,132.8 -267.8,277.2 -23.6,98 -1.8,216.7 27.8,322.5 8.2,-115.3 38.2,-226 84.8,-334.9 36.9,-86.6 88.9,-186.2 155.2,-264.8 z m 52.8,10.4 c -72.3,77.7 -123.4,183.3 -166.5,275 -47.2,100.5 -72.5,208.2 -79.1,317.8 66.7,-96.2 128.9,-193.9 175.5,-302.3 40.1,-93.1 40.2,-196.3 70.1,-290.5 z m 36.9,340.3 c 65.5,-110.9 32.6,-224.6 10.7,-340 -43.3,109.8 -45.4,239.3 -92.9,349.9 -38,88.2 -91.8,169.8 -147.5,248.9 93.5,-68.3 172.2,-161.6 229.7,-258.8 z m -321.3,514.9 c 3,-13.1 5.9,-26.1 8.9,-39.1 0.8,-4.4 1.1,-8.8 1.7,-13.3 -98.9,174.8 -215,339.7 -297.5,522.8 59.4,-70.3 112.3,-145.3 163.6,-222.9 30.1,-45.5 57.1,-92.4 82.1,-140.9 17,-34.3 30.7,-69.8 41.2,-106.6 z m -266.4,520.6 c 102.8,-56.1 188.8,-130.8 251.9,-235.4 44.3,-73.6 56.4,-159.1 60.9,-243.1 0.6,-11.6 1.9,-28.9 2.6,-48 -6.3,26.3 -13.2,48.2 -17.4,58.9 -64.5,166.6 -175.2,331.8 -298,467.6 z m 852.5,-647.3 c -121.5,-101.1 -287.9,-97.7 -434.4,-53.4 102.5,22.2 200.7,54.3 297.2,98 117.4,53.2 216.7,136.3 329.5,196.7 -60.4,-83.8 -111.6,-174.2 -192.3,-241.3" />
      </g>
      <g
         transform="scale(0.186858)"
         id="g2057">
        <path
           id="path2059"
           style="fill:#ffff66;fill-opacity:1;fill-rule:nonzero;stroke:none"
           d="m 16297.5,16048.2 c -0.9,15.2 -5.9,29.9 -13,43.4 -14.3,27.2 -40.1,50.9 -70.8,52 -16,0.6 -31.6,-5 -46.4,-10.9 -22.8,-9.1 -46.2,-20.2 -60,-40.4 -22.1,-32.5 -10.9,-79.5 16.7,-107.4 28,-28.4 72.2,-40.8 110,-28 37.7,12.7 66,51.5 63.5,91.3" />
      </g>
      <g
         transform="scale(0.20386)"
         id="g2061">
        <path
           id="path2063"
           style="fill:#669933;fill-opacity:1;fill-rule:nonzero;stroke:none"
           d="m 11615.1,16284.6 c -35.4,15.4 -61.7,-38.4 -26.3,-53.8 140.1,-60.9 264,-147.4 367,-253.3 -61.5,-34.1 -124.8,-52.7 -196,-57.8 -78,-5.7 -149.1,26 -224.5,38 -38.1,6.1 -49.6,-52.7 -11.5,-58.7 82,-13.1 156.3,-39.5 240.5,-39.1 82.8,0.5 162.7,31 233.2,72.3 118.8,-136.1 205,-299.9 248.6,-481.2 -148.9,30.2 -300.2,50.9 -454,59.6 -109.3,6.1 -217,2.2 -323.2,-9.2 -3.4,0.2 -6.5,-0.2 -9.5,-1.1 -206,-22.9 -406.3,-75.7 -602.1,-145 -0.1,0.1 -0.1,0.2 -0.3,0.3 -114.6,88.2 -249.9,130.4 -394.3,122.4 -38.6,-2.1 -34,-61.8 4.5,-59.7 116.7,6.5 226.7,-23.8 322.4,-88.2 -160.3,-60.2 -317.7,-130.3 -472.3,-204.7 -34.4,-16.6 -14.6,-73.2 20.2,-56.4 354.8,170.7 716.4,317.9 1102.5,366.8 -5.6,-93.7 -12.6,-177.1 -59.4,-264.6 -11,-20.5 -22.9,-40.4 -35.3,-60 -1.3,0.6 -2.2,1.5 -3.6,2 -108.1,33.2 -211.9,-5.9 -310.6,-50.3 -34.9,-15.8 -15,-72.3 20.3,-56.4 82.9,37.4 167.5,71.9 257.9,52.6 -51.7,-68.4 -115,-126.5 -195.3,-163 -34.9,-15.9 -15,-72.4 20.2,-56.4 103.2,47 183.5,120.8 245.7,215.7 32.3,49.4 62.3,100 85.9,154 100.5,-75.5 86.2,-277.6 46.9,-379.8 -13.7,-35.9 40,-62.3 53.9,-26.3 53.2,138.8 62.9,375.4 -80.6,464 13.7,55.4 12.7,118.3 14.6,175.1 78.1,7.8 157.2,11.8 237.6,10.6 339.8,-4.9 676.9,-80.2 993.2,-205.4 -49.3,-97.7 -112.4,-184.7 -186.2,-260.5 -2,1.4 -3.5,3 -6.1,4.1 -145.3,59.7 -295.2,71.3 -448.2,35.9 -37.5,-8.7 -17,-65 20.3,-56.4 131.4,30.4 263,20.1 388.1,-28.4 -99.8,-90.4 -217.2,-161.4 -349,-208.6 -36.3,-12.9 -16.2,-69.4 20.3,-56.3 271.8,97.2 488.6,290.7 617,548.3 115.1,-48.1 227.2,-102.7 335.4,-163.3 33.7,-19 59.7,35 26.2,53.8 -265.3,148.9 -546.8,256.3 -839.3,322.1 -29.9,134.4 -81.5,260.2 -151.1,373.9 1.4,2 2.9,3.6 3.9,6.3 48.9,131.8 57.3,265.3 25.9,402.3 -8.6,37.5 -64.9,17 -56.4,-20.2 25.1,-109.4 19,-219.6 -14.5,-325.7 -124.5,177.3 -296,319.9 -502.6,409.7" />
      </g>
      <g
         transform="scale(0.185288)"
         id="g2065">
        <path
           id="path2067"
           style="fill:#ff9999;fill-opacity:1;fill-rule:nonzero;stroke:none"
           d="m 13176.1,16253.5 c -64.3,-42.6 -91.8,-136.4 -31.4,-196.1 0.5,-0.5 1,-0.7 1.5,-1.2 35.5,-50.7 105.4,-83.1 164.3,-60.5 77,29.5 109.6,125.1 71.2,197.9 -37.4,70.7 -135.4,106.4 -205.6,59.9" />
      </g>
      <g
         transform="scale(0.189411)"
         id="g2069">
        <path
           id="path2071"
           style="fill:#ff9999;fill-opacity:1;fill-rule:nonzero;stroke:none"
           d="m 12787.5,16137.8 c -0.7,-28.7 9.5,-58.4 27.6,-80.6 -1.4,-9.2 1.1,-19 10.5,-26.9 47.4,-39.6 110.5,-40.8 163,-10.7 54.4,31.3 65.8,103.1 45.7,157.7 -45.2,122.7 -243.6,91.6 -246.8,-39.5 z m 75.1,-38.9 c 13.7,-8.2 31,-9.5 50.9,3.8 25.3,16.8 12.4,49.4 -9.8,56.9 3.5,3.5 7.6,5.7 12.9,5.7 12,-0.9 21.8,-13.3 24,-24.2 7.1,-34.4 -36.4,-64.9 -66.5,-51.4 -4.6,2 -8.4,5.2 -11.5,9.2" />
      </g>
      <g
         transform="scale(0.205732)"
         id="g2073">
        <path
           id="path2075"
           style="fill:#ff9999;fill-opacity:1;fill-rule:nonzero;stroke:none"
           d="m 11894.9,16189.6 c 2.2,-30.2 16.8,-59.7 39.5,-79.1 30,-43.5 83.9,-59.4 133.5,-41.4 47.7,17.3 92.6,87.7 71.6,138.6 -21.9,53.3 -84.7,86.6 -140.2,89.5 -53.8,2.8 -108.4,-54.4 -104.4,-107.6 z m 94.8,-42.4 c 19.4,2 37.6,24.2 24.1,46.3 -11.3,18.5 12.7,37.7 28.9,26.6 24.8,-17 -12,-57.5 -24.5,-66.2 -10.1,-7 -19.8,-8.4 -28.5,-6.7" />
      </g>
      <g
         transform="scale(0.200969)"
         id="g2077">
        <path
           id="path2079"
           style="fill:#ff9999;fill-opacity:1;fill-rule:nonzero;stroke:none"
           d="m 11467.8,16204.3 c -16.4,-59.8 4.9,-118.1 67.3,-133.9 16.6,-4.2 32.9,-3 48,1.6 63,1.4 121.9,52.4 110.8,130.3 -7.6,52.8 -50.9,92 -103.9,94.7 -60.8,3 -106.5,-35.7 -122.2,-92.7 z m 114.2,-38.3 c 0.5,1.2 0.9,2.4 1.4,3.6 4.7,12.6 1,23.9 -6.1,31.9 3,0.6 6.2,-0.8 10,-5.9 7.5,-8.4 9.4,-20.5 8.3,-31.3 -1.6,-16.7 -12.8,-27.1 -26.7,-31.7 -11.4,2.5 -22.2,7.8 -29.7,16.7 -4.4,5.2 -9.7,7.8 -15.1,9.4 -0.1,1 -0.2,2 -0.2,3.1 7.5,-7.8 18.1,-13.1 33.1,-12.8 9.8,0.2 21.6,7.6 25,17" />
      </g>
      <g
         transform="scale(0.20579)"
         id="g2081">
        <path
           id="path2083"
           style="fill:#ff9999;fill-opacity:1;fill-rule:nonzero;stroke:none"
           d="m 11279.4,16213.7 c -26,-39.5 -18,-84.7 7.5,-116.9 25.6,-63.3 97,-82.4 159.6,-48.1 72.5,39.6 68.7,143.2 16,195 -57.1,56.3 -143.5,30.2 -183.1,-30" />
      </g>
      <g
         transform="scale(0.18562)"
         id="g2085">
        <path
           id="path2087"
           style="fill:#ff9999;fill-opacity:1;fill-rule:nonzero;stroke:none"
           d="m 12488.2,16166.5 c -21.3,-80.9 24.8,-140.4 99.5,-153.7 71.7,-48.9 137.4,25.4 164.1,89.8 33.1,80 -9.8,157.5 -91.3,178.3 -74.4,19.1 -154,-44.8 -172.3,-114.4 z m 79.5,-77.6 c 4.1,-2.2 7.4,-4.8 12.3,-6.3 63.4,-20.3 104.4,51.6 69.2,94.2 14.2,-7.2 23,-22.7 24.9,-40.5 5.6,-54.7 -69.2,-75.3 -106.4,-47.4" />
      </g>
      <g
         transform="scale(0.189618)"
         id="g2089">
        <path
           id="path2091"
           style="fill:#ff9999;fill-opacity:1;fill-rule:nonzero;stroke:none"
           d="m 11753.2,16192.2 c -11.2,-32.1 -11.3,-68.8 11.8,-95.5 8.6,-10 21,-16.3 34.2,-21 33.8,-17.5 78.3,-13.3 115,6.9 71.8,39.5 56.5,132.7 -4.9,174.2 -63.7,43.2 -133.5,0.1 -156.1,-64.6" />
      </g>
      <g
         transform="scale(0.187041)"
         id="g2093">
        <path
           id="path2095"
           style="fill:#ff9999;fill-opacity:1;fill-rule:nonzero;stroke:none"
           d="m 11920.2,16273 c -47.2,-23.6 -66,-61.9 -68.8,-104.5 -2.6,-4.9 -4.1,-10.7 -3.5,-17.6 1,-11.6 3.4,-22.8 6.8,-33.5 2.9,-15.6 6.9,-31.3 12.3,-46.6 5.4,-15.4 18.1,-21.3 30.7,-20.6 33.3,-31.3 79.5,-47.9 128.5,-37.9 88,18.2 136.2,109.7 113.6,193.1 -10.9,40.1 -37.8,62.8 -69.6,72.4 -46,22.2 -102.7,18.9 -150,-4.8" />
      </g>
      <g
         transform="scale(0.194974)"
         id="g2097">
        <path
           id="path2099"
           style="fill:#ff9999;fill-opacity:1;fill-rule:nonzero;stroke:none"
           d="m 10674.6,16203.9 c -9.4,-17.7 -12.1,-34.4 -11.9,-50.5 -5.5,-7.2 -8.5,-16.5 -5.7,-27.4 25,-98.4 124.8,-147.8 219,-113.3 41.9,15.3 68,53.3 81.4,93.6 15.6,47.3 -17.3,93 -48.2,124.5 -68.1,69.2 -188.3,60.5 -234.6,-26.9" />
      </g>
      <g
         transform="scale(0.190236)"
         id="g2101">
        <path
           id="path2103"
           style="fill:#ff9999;fill-opacity:1;fill-rule:nonzero;stroke:none"
           d="m 10851.8,16242.2 c -24.6,-13.1 -45.6,-32.5 -59.8,-59.4 -9.8,-18.7 -13.4,-42.9 -10.5,-65.9 -6.8,-7.3 -9.9,-17.8 -4.9,-30.3 38.9,-97.6 162.9,-139.7 244.8,-65.1 79.9,72.6 57.6,185.1 -27.9,241.2 -56.9,37.3 -108,19.3 -141.7,-20.5" />
      </g>
      <g
         transform="scale(0.203056)"
         id="g2105">
        <path
           id="path2107"
           style="fill:#7986cb;fill-opacity:1;fill-rule:nonzero;stroke:none"
           d="m 13161.3,15515.4 c -44.5,84.1 -15.6,352.6 86.7,483.7 96.8,124.2 274.7,243.4 426.2,286.3 25.9,7.3 52.9,14.6 79.3,9.5 38.5,-7.4 66.9,-39.2 91.3,-69.8 103.3,-129.4 175.6,-346.2 189.2,-511.1 13.6,-165 -97.2,-466.4 -251,-527.5 -12.5,-5 -20.5,-14.3 -29.4,-24.5 201.7,76.5 434.9,65.3 628.4,-30 193.6,-95.3 344.5,-273.4 406.9,-479.9 8.6,-28.6 15.2,-61.1 0.1,-86.8 -13.1,-22.4 -39,-33.3 -63.3,-42.5 -172.4,-65.6 -352.4,-120.1 -536.9,-120.3 -184.4,-0.1 -338.3,43.5 -501.6,194.4 -86.7,80.2 -80,86.9 -103.1,114.1 60.9,-141.1 35.1,-371 7.4,-522.2 -8.5,-46.5 -17.8,-95.1 -46.7,-132.6 -23.9,-31.1 -58.8,-51.4 -92.8,-70.9 -128.3,-73.8 -256.6,-147.5 -384.8,-221.2 -9.1,-5.3 -19.2,-10.7 -29.6,-9 -10,1.7 -17.6,9.6 -24.4,17.2 -100.9,112.5 -184.2,240.8 -245.8,378.8 -45.8,102.7 -80.1,218 -51.6,326.8 12.6,48.3 37,92.6 63.7,134.8 48.5,77 215.5,231.3 224.7,243.9 -76.3,-7.7 -152.6,-15.5 -228.9,-23.2 -56.2,-5.7 -113.4,-11.4 -168.9,-0.6 -63.8,12.3 -121.3,45.5 -177.4,78.1 -221,128.6 -312.1,230.8 -414.9,464.9 -6.9,15.6 -13.2,32.8 -9.2,49.4 3.3,13.5 12.9,24.4 22.6,34.4 164.6,170.4 263.4,215.8 487.5,228.7 236.5,13.6 371.2,-27.5 575.9,-146.7 8.7,-5.1 125.6,-109.9 122.5,-119.5 -3.1,-9.6 -61.6,90 -52.1,93.3" />
      </g>
      <g
         transform="scale(0.20301)"
         id="g2109">
        <path
           id="path2111"
           style="fill:#c5cae9;fill-opacity:1;fill-rule:nonzero;stroke:none"
           d="m 14740.7,14649.2 c -149.4,250.4 -278.4,414.2 -578.9,471.4 -115.4,21.9 -241.9,20 -357.2,0.3 -41.2,-7.1 -108,-15.5 -172.9,-30.6 108.7,108.1 205.9,285.1 233.2,364.9 96.4,281.4 44.9,557.5 -85.2,818.5 -13.1,26.3 -42.7,19.9 -56.4,1.3 -4.9,-0.3 -10,-1.6 -15.2,-4.5 -342.3,-190.3 -411.6,-643.6 -360,-1010.6 -127.7,131.5 -322.1,222.3 -477.6,269.3 -270.7,81.8 -528,63.3 -769.8,-83.9 -15.6,-9.5 -18.6,-24.9 -14.6,-38.4 -3.5,-8.5 -3.4,-18.5 4,-28.8 139.7,-196.1 315.7,-350.5 550.5,-416.7 152.3,-42.9 340.9,-50.5 515.4,-21.8 -128.2,-98 -245.5,-215.8 -294,-351 -92.4,-257.6 -2.6,-499 140.9,-716.6 0.8,-3.9 1.1,-8.1 2,-12 4.2,-17.7 17.7,-24.7 31.6,-24.3 12.4,-11.9 32,-16.8 48.3,-1.8 191.8,177.6 377.2,272.8 425.6,548.7 28.6,162.4 23.2,339.5 -16.8,504 95.1,-157.2 221.2,-286 396.3,-368 286.7,-134.1 551.2,30.2 837.7,62.1 38.8,4.3 42.8,58.5 13.1,68.5 z m -972.1,395.1 c 122.9,27.1 252.2,24.4 376.1,8.5 190.6,-24.3 310.6,-120.3 410.1,-249.3 -252.8,180.1 -617.1,223.1 -926.5,210.7 53.1,13.9 110,23.4 140.3,30.1 z m 813.5,-353.2 c -165,35.7 -334.9,43.3 -500.3,79.9 -159.4,35.2 -311.2,96.7 -455,173.1 325.3,13.4 715.8,-34.7 955.3,-253 z m -929.5,1452.7 c -106.6,-332.7 -131.9,-682.7 -205.6,-1023.3 -2.8,6 -5.7,11.9 -8.8,17.8 0.5,3.8 1.6,7.3 0.6,11.6 -73.7,318.7 -52.8,765.3 213.8,993.9 z m -857.2,-667.9 c 182.9,-37.2 452.8,-161.9 564.5,-340.6 -350.9,200.6 -741.1,299.3 -1145.4,289.4 187.6,90.9 366.7,94.8 580.9,51.2 z m 491,-379.1 c -162.2,13.2 -325.2,9.6 -487.3,28.3 -199.6,23 -385.5,109.6 -543.9,230.5 363.6,2.2 712.3,-85.2 1031.2,-258.8 z m -568.8,-79.9 c -164.4,22.6 -304.3,110.7 -420.1,224.6 98,-62.5 203.5,-111.7 317.8,-148.2 204.5,-65.3 421.5,-49.2 633.9,-62.4 -171.2,-43.5 -365.2,-36.9 -531.6,-14 z m 270,-981.9 c -94.2,181.7 -136.7,380.3 -35,579.5 69.1,135.2 210.2,249.7 347.7,341.8 -103.6,-139.9 -177.5,-296 -231,-466.2 -42.5,-135.4 -80.5,-300.2 -81.7,-455.1 z m 70.8,-39.7 c -6.7,159.6 38.2,330.5 78.7,477.7 44.3,161.2 120.9,309.2 220.6,441.1 -17.9,-175.4 -42.4,-348.1 -95.1,-517.8 -45.3,-145.8 -146.3,-264 -204.2,-401 z m 375.3,353.3 c -33.5,-191.2 -182.6,-289.1 -320.6,-399.6 58,168 182.4,318.3 236.2,491.3 43,138.3 61.3,284.3 75.1,429.3 40.1,-169.7 38.8,-353.6 9.3,-521 z m 136.6,903.8 c -9.4,-17.8 -18.7,-35.6 -28.1,-53.4 -3.4,-5.9 -7.5,-11.2 -11.1,-16.9 58,296.9 86.6,599.3 171.5,889.6 -0.8,-138.7 -13.8,-276.3 -31,-415.3 -10.2,-81.6 -25.2,-161.7 -44.1,-241.7 -14.1,-55.8 -33.2,-109.9 -57.2,-162.3 z m 204.9,856.7 c 62.7,-164.9 88,-334.6 57.7,-516.1 -21.3,-127.7 -91.1,-237.4 -168.3,-337.8 -10.6,-13.9 -26.1,-34.9 -44,-57.6 18.5,36.3 32,68.2 37.8,84.4 89.3,253.9 124.4,551.4 116.8,827.1 z m 341.8,-1575.6 c -238.1,3.2 -425.2,170.1 -549.4,364.2 138.9,-74.9 282.8,-134.4 436.1,-178.9 186.4,-54 381.3,-56.2 569.6,-97.5 -151.2,-36.7 -298.3,-90 -456.3,-87.8" />
      </g>
      <g
         transform="scale(0.189298)"
         id="g2113">
        <path
           id="path2115"
           style="fill:#ffff66;fill-opacity:1;fill-rule:nonzero;stroke:none"
           d="m 14473.5,16048.8 c 14.1,18.7 23,40.9 28.1,63.7 10.5,46 4.1,99.5 -30.6,131.4 -18.1,16.6 -41.8,25.7 -65.1,33.6 -35.6,12 -74.1,22.5 -110.4,12.7 -58.2,-15.8 -92,-81.9 -87.7,-142 4.4,-61.1 43.6,-119.6 100.4,-142.5 56.8,-22.8 128.5,-5.8 165.3,43.1" />
      </g>
      <g
         transform="scale(0.203758)"
         id="g2117">
        <path
           id="path2119"
           style="fill:#8bc34a;fill-opacity:1;fill-rule:nonzero;stroke:none"
           d="m 15209.6,16012 c 10.2,44.1 3.1,90 -3.9,134.6 -8.1,51.1 -16.2,102.3 -24.3,153.4 -52.6,-35 -92.8,-86.6 -121.5,-142.9 -11.5,-22.6 -21.3,-46.2 -25.4,-71.2 -4.7,-28.8 -1.5,-58.3 2.8,-87.2 10.2,-68.6 26.8,-136.2 49.4,-201.7 32.3,76.5 104.3,134.1 122.9,215" />
      </g>
      <g
         transform="scale(0.197568)"
         id="g2121">
        <path
           id="path2123"
           style="fill:#558b2f;fill-opacity:1;fill-rule:nonzero;stroke:none"
           d="m 15638.1,16235.6 c -4.3,6.9 -8.6,15.3 -5.5,22.9 2.1,5.3 7.3,8.7 12.3,11.5 40.4,22.6 89.1,30 134.4,20.3 138.3,-29.7 211.1,-199.4 348.8,-232.1 -77.3,-26.8 -161.6,-53.9 -239.3,-28.2 -23.8,7.8 -45.8,20.4 -67.1,33.6 -71.8,44.8 -138.9,100.1 -183.6,172" />
      </g>
      <g
         transform="scale(0.205142)"
         id="g2125">
        <path
           id="path2127"
           style="fill:#8bc34a;fill-opacity:1;fill-rule:nonzero;stroke:none"
           d="m 15242.4,16130 c 25.6,26.5 56,48 82,74.2 25.9,26.2 47.9,59 50.1,95.8 -1.9,-33.7 -3.8,-67.5 -5.7,-101.2 -4.3,-76.1 -8.9,-153.5 -35.4,-224.8 -26.6,-71.4 -79,-137.2 -151.5,-160.8 -43.5,105.2 -18.7,235.1 60.5,316.8" />
      </g>
      <g
         transform="scale(0.200055)"
         id="g2129">
        <path
           id="path2131"
           style="fill:#558b2f;fill-opacity:1;fill-rule:nonzero;stroke:none"
           d="m 16225.8,16032.5 c -85.1,-16.5 -173.4,-33 -257.8,-13 -97.9,23.2 -177.8,92.7 -247.4,165.3 -12.5,13 -25.2,33.1 -14.1,47.1 3,3.8 7.3,6.3 11.4,8.6 67.8,37.7 152.3,59.5 222.3,26.1 57.4,-27.3 92.5,-85.1 130.9,-135.8 38.4,-50.7 91.2,-100.4 154.7,-98.3" />
      </g>
      <g
         transform="scale(0.20542)"
         id="g2133">
        <path
           id="path2135"
           style="fill:#8bc34a;fill-opacity:1;fill-rule:nonzero;stroke:none"
           d="m 15666.5,16300 c -48,-97.8 -165.4,-145.1 -218.3,-240.4 -23.9,-43 -32.8,-94.1 -24.9,-142.6 23.7,34.4 69.5,43.5 106.4,63.2 82.3,44.1 119.5,144.3 122.4,237.7 0.9,28.1 -0.3,58.1 14.4,82.1" />
      </g>
      <g
         transform="scale(0.202992)"
         id="g2137">
        <path
           id="path2139"
           style="fill:#8bc34a;fill-opacity:1;fill-rule:nonzero;stroke:none"
           d="m 16189.8,16099.6 c -19.8,-14.2 -40.4,-27.4 -62.4,-38 -116.3,-55.6 -267.7,-25.1 -353.3,71.4 43.9,37.1 91.4,75.8 148.5,82.3 47.1,5.4 93.5,-12.1 139.2,-25 78.4,-22.1 166.3,-29.8 238.2,8.6 -32.9,-37 -69.9,-70.4 -110.2,-99.3" />
      </g>
    </g>
  </g>
</svg>
