<?xml version="1.0" encoding="utf-8"?>
<!-- Generator: Adobe Illustrator 22.1.0, SVG Export Plug-In . SVG Version: 6.00 Build 0)  -->
<svg version="1.1" id="Layer_1" xmlns="http://www.w3.org/2000/svg" xmlns:xlink="http://www.w3.org/1999/xlink" x="0px" y="0px"
	 viewBox="0 0 219.82 197.664" style="enable-background:new 0 0 219.82 197.664;" xml:space="preserve">
<style type="text/css">
	.st0{fill-rule:evenodd;clip-rule:evenodd;fill:#111111;}
	.st1{fill-rule:evenodd;clip-rule:evenodd;fill:#FFFFFF;}
	.st2{fill:#111111;}
	.st3{fill:#AFD720;}
</style>
<g>
	<g>
		<path class="st0" d="M189.582,29.852c2.323-1.023,8.944-3.078,12.564-2.275c3.779,0.839,8.73,5.7,9.832,7.435
			c0.783,1.233-1.822,3.395-3.221,2.973c-1.945-0.586-5.333-5.725-8.451-6.494c-2.451-0.605-6.252,1.058-8.656,1.674l-0.621,0.859
			l2.158,0.563l-0.536,0.337c1.803-0.417,5.694-0.786,8.063,0.27c3.194,1.424,9.471,6.481,10.648,8.394
			c0.826,1.343-2.132,3.686-3.589,3.083c-2.062-0.852-6.099-6.738-8.782-8.198c-1.393-0.758-3.578-0.529-5.251-0.43l-1.236,0.47
			l1.303,0.798l-1.201,0.685l1.873,1.071l-1.952,0.382c2.535,0.237,7.005,1.259,9.215,2.987c2.594,2.029,5.02,7.333,5.228,9.131
			c0.165,1.427-2.825,2.51-3.981,1.656c-1.384-1.022-2.076-6.035-4.322-7.789c-1.486-1.16-4.481-1.541-6.689-1.957l-0.924,0.038
			l1.32,1.426l-1.46-0.143c1.231,1.253,2.632,3.016,3.261,4.606c0.966,2.441,1.385,7.157,0.884,8.594
			c-0.426,1.224-3.181,1.108-3.887,0.029c-0.706-1.08,0.306-4.436-0.352-6.506c-0.426-1.343-1.652-3.1-2.63-4.591l-0.234-0.055
			l0.308,1.428l-1.667-0.513l0.113,1.444l-1.613-0.647l0.375,1.58l-2.007-0.906l-0.232,1.201l-1.513-0.659l-0.04,1.541l-1.807-1.134
			l-0.112,1.033l-1.814-0.765l-0.452,1.448l-1.538-1.322l-0.523,0.913l-1.519-0.93l-0.849,1.302l-1.217-1.461l-0.905,0.743
			l-1.174-1.044l-1.216,1.109l-0.851-1.548l-1.251,0.53l-0.791-1.104l-1.533,0.877l-0.46-1.579l-1.546,0.279l-0.386-1.106
			l-1.8,0.614l-0.046-1.554l-1.781,0.002l0.03-1.052l-2.002,0.328l0.368-1.472l-1.947-0.292l0.443-0.94l-2.134,0.026l0.769-1.336
			l-2.037-0.592l0.831-0.779l-2.185-0.273l1.142-1.153l-1.713-0.288l0.848-1.174l-2.158-0.563l1.475-0.926l-0.156-0.063
			c-1.614,0.764-3.582,1.627-4.648,2.553c-1.64,1.424-2.524,4.816-3.69,5.37c-1.165,0.553-3.577-0.783-3.303-2.05
			c0.322-1.487,3.137-5.294,5.233-6.875c1.373-1.035,3.505-1.813,5.214-2.24l-0.945-0.516l1.401-0.662l-1.198-0.685
			c-2.025-0.786-4.508-1.826-6.238-1.626c-2.83,0.327-6.034,4.245-7.748,4.397c-1.431,0.126-3.419-2.356-2.534-3.488
			c1.114-1.426,5.948-4.69,9.219-5.07c2.758-0.319,7.043,1.103,9.349,2.216l-0.987-1.193l1.689-0.07l-1.32-1.426l2.179,0.214
			l-0.396-0.788c-1.423-0.954-3.337-2.524-5.058-2.609c-3.051-0.152-9.564,2.769-11.768,2.422c-1.558-0.245-2.861-3.786-1.456-4.502
			c2.001-1.02,9.993-2.065,13.461-1.617c2.782,0.36,6.214,3.07,7.309,4.265l-0.161-0.747l1.667,0.513l-0.581-1.576l0.09,0.034
			c-1.678-1.852-3.85-4.743-6.046-5.437c-3.062-0.968-8.631,1.653-10.597,1.14c-1.414-0.368-2.511-3.572-1.2-4.216
			c1.845-0.907,8.603-2.476,12.266-1.223c3.53,1.208,8.147,6.47,9.566,8.527l1.379,0.738l0.508-1.41l1.339,1.002l0.435-1.162
			l1.491,0.895l0.453-1.448l1.538,1.323l0.748-0.844l1.293,0.86l0.849-1.302l1.217,1.461l0.905-0.743l1.175,1.044l1.211-1.11
			l0.855,1.549l1.251-0.529l0.791,1.103l1.534-0.878l0.459,1.581l1.546-0.28l0.386,1.106l1.8-0.613l0.046,1.554l1.782-0.003
			l-0.031,1.052l2.002-0.327l-0.368,1.472l1.947,0.291l-0.442,0.94l2.133-0.026l-0.769,1.336l1.701-0.008L189.582,29.852
			L189.582,29.852z"/>
		<path class="st1" d="M176.91,33.942c-1.846-0.009-3.407,2.504-3.443,5.593c-0.06,3.102,1.409,5.637,3.258,5.648
			c1.864,0.014,3.398-2.484,3.46-5.585C180.228,36.488,178.777,33.958,176.91,33.942L176.91,33.942z M176.872,37.265
			c-0.935-0.008-1.698,1.009-1.709,2.299c-0.023,1.267,0.704,2.301,1.62,2.304c0.915,0.002,1.677-1.015,1.701-2.282
			C178.513,38.299,177.786,37.267,176.872,37.265L176.872,37.265z M167.105,31.186c1.58,0.954,1.599,3.911,0.042,6.572
			c-1.583,2.674-4.139,4.078-5.741,3.119c-1.581-0.954-1.609-3.891-0.026-6.565C162.943,31.63,165.521,30.231,167.105,31.186
			L167.105,31.186z M165.424,34.047c0.781,0.475,0.905,1.741,0.26,2.852c-0.64,1.094-1.799,1.598-2.601,1.118
			c-0.782-0.475-0.903-1.74-0.263-2.834C163.484,34.074,164.643,33.573,165.424,34.047L165.424,34.047z"/>
	</g>
	<g>
		<path class="st2" d="M84.471,60.038c1.493,1.343,3.134,2.089,5,2.238c1.716,0.15,5.521-0.149,7.834-2.089
			c1.642-1.418,2.388-4.626,2.463-6.417c0-3.507-0.97-6.044-3.134-9.178c-1.716-2.686-3.731-5.372-6.268-8.506
			c-2.537-3.059-3.805-6.417-3.955-10.222c-0.074-1.716,0.075-3.582,0.523-5.447c0.298-1.194,0.597-2.164,0.97-3.06
			c0.895-1.79,2.462-2.014,3.73-2.014c1.567,0,3.209,0.597,3.806,2.014c0.671,1.717,0.597,3.134,0.522,5.821
			c0,0.82-0.074,2.536-0.149,3.357c-0.075,2.537-0.448,4.253-0.672,6.79c-0.149,1.493,0.15,1.94,0.597,2.239
			c0.448,0.298,1.418,0.597,2.164,0.522c1.119-0.074,1.418-0.746,1.567-1.492c0.821-2.836,1.045-5.149,1.194-8.432h0.075
			c0.223-2.835,0.149-5.969-0.299-9.327c-0.298-2.761-1.268-4.477-3.134-5.596c-1.194-0.672-2.164-1.045-3.88-1.119
			c-1.716-0.15-3.432,0.074-4.477,0.522c-1.268,0.448-2.089,0.895-3.059,1.865c-1.492,1.642-2.537,3.582-3.283,6.343
			c-1.119,4.029-1.194,7.685-0.149,11.341c0.97,3.209,2.014,5.746,3.432,8.059c1.194,1.865,2.537,3.582,3.88,5.223l0.522,0.672
			c1.343,1.641,2.612,3.283,3.731,5.148c1.492,2.463,1.418,5.447-0.671,7.462c-0.821,0.821-2.164,1.119-3.88,0.895
			c-1.194-0.224-2.239-1.343-2.388-2.387c-0.299-2.015-0.075-3.881,0-5.298c0-0.075,0.074-1.045-0.672-1.493
			c-0.671-0.373-1.94-0.373-2.164-0.373c-1.193,0.15-1.492,0.821-1.641,1.791c-0.373,1.866-0.522,3.955-0.075,6.417
			C82.68,57.128,83.352,58.919,84.471,60.038L84.471,60.038z M50.148,34.743c0-0.672,0-1.418-0.075-2.089
			c-0.074-2.164-0.298-4.328-0.448-6.343c-0.149-1.343-0.223-2.238-0.373-3.656c-0.149-1.343-1.268-1.418-2.163-1.567
			c-0.672-0.074-2.388,0-2.388,0c-1.045-0.074-1.493-0.074-2.91,0c-0.97,0.075-1.567,0.373-1.642,1.269
			c-0.074,0.597-0.149,1.492-0.074,2.462c0.074,0.597,0.746,1.045,1.716,0.895c0.447-0.074,1.044,0,1.716,0.075
			c1.268,0.075,1.194,1.492,1.343,2.612c0.224,2.238,0.448,3.805,0.448,5.969c0,2.089,0.074,4.701,0,7.089
			c-0.075,1.119,0,9.028-1.194,11.64c-0.373,0.97-0.821,2.238-1.642,2.686c-0.671,0.373-1.417,0.448-2.164,0.224
			c-1.79-0.672-2.163-3.358-2.387-4.403c-0.373-1.492-0.299-2.686-0.373-3.954c0,0-0.075-2.91,0-5.895c0-0.448,0-2.612,0-3.059
			c0-1.045,0.298-2.164-0.821-2.164c-0.448,0-1.418,0.224-1.716,0.224c-2.463,0.224-2.388,2.537-2.388,2.537l-0.075,1.567
			c-0.074,4.029-0.149,8.207,0.597,12.311c0.299,1.642,0.746,2.985,1.269,4.104c0.895,1.94,2.387,3.358,4.477,4.179
			c2.238,0.97,4.253,0.746,6.491-0.746c2.09-1.344,3.209-3.955,3.806-6.417c0.522-1.791,0.895-4.328,1.044-6.194
			C50.595,43.175,50.222,36.608,50.148,34.743L50.148,34.743z M77.383,14c-0.075-1.343,0-4.328-0.075-7.313
			c0-1.044-0.075-2.164-0.075-3.134c0-1.865,0-3.059-0.82-3.283c-1.12-0.447-2.239-0.298-3.283,0.15
			c-0.97,0.373-0.747,2.163-0.672,3.133c0,1.493,0,2.164,0.149,3.88c0.15,2.314,0.15,4.851,0.075,7.164c0,2.387,0,7.76-0.075,12.386
			c0,0.522,0,7.462-0.074,9.849c0,1.791-0.075,3.656,0,5.522c0,3.134-0.224,6.193-0.821,9.252c-0.448,2.164-1.343,3.731-2.761,4.776
			c-0.97,0.821-2.686,0.895-3.805,0.298c-1.12-0.671-2.463-2.238-2.985-4.104c-0.895-3.134-1.418-6.193-1.567-10.073
			c-0.149-2.761-0.224-5.298-0.224-7.685c-0.149-2.537-0.149-3.507-0.074-6.567c0-5.596,0.074-13.431,0.074-13.431
			C60.296,14,60.221,14,60.296,13.254c0.074-1.194,0.373-2.537-0.896-2.612c-0.746-0.075-2.238-0.298-2.91,0
			c-0.895,0.373-1.119,0.746-1.119,2.015L55.446,14c0,2.238-0.075,3.656-0.15,5.894c-0.074,2.985,0,4.403,0,6.567
			c0,2.686-0.149,4.104-0.149,7.387c0,3.73,0.149,7.685,0.149,7.685c0.299,4.104,0.672,9.103,1.716,12.088
			c0.821,2.313,1.493,3.88,3.433,5.969c3.059,3.283,8.655,2.537,11.118,1.567c1.79-0.746,3.208-2.238,4.104-4.328
			c1.044-2.387,1.417-4.999,1.566-7.983c0.224-2.836,0.15-19.401,0-26.116C77.233,21.685,77.383,15.044,77.383,14L77.383,14z
			 M107.579,33.764c0.013-0.42,0.023-0.84,0.023-1.259c0-1.12,0-2.239,0-3.358c-0.074-1.343-0.074-2.686-0.074-3.955
			c0.074-0.373,0-0.671-0.224-0.895c-0.149-0.224-0.448-0.299-0.821-0.299c-0.522-0.074-1.045-0.074-1.641-0.224
			c-0.747-0.074-0.821-0.149-0.821-1.193c0-0.97,0-1.642,0.149-2.463c0.149-0.895,0.298-1.044,1.418-1.119l0.149,0.075
			c1.791,0,1.94,0,2.015-1.418c0.074-0.224,0.074-0.522,0.074-0.895c0.149-0.896,0.075-1.717,0.075-2.537
			c0-0.747,0-1.493,0.074-2.463c0-0.074,0-0.149,0-0.224c0-0.447,0-1.119,1.194-1.119h0.896c0.373,0,0.821,0,1.492-0.074
			c0.522,0,0.821,0.074,0.97,0.223c0.224,0.224,0.298,0.597,0.298,1.194v0.672c0.075,0.97,0.075,1.94,0,2.91
			c-0.074,0.448-0.074,0.895-0.074,1.418c0,0.522-0.075,1.119-0.075,1.641c-0.074,0.672,0.149,1.045,0.821,1.119
			c1.418,0.299,2.537,0.448,3.656,0.448h0.075c0.523,0,1.119,0,1.641,0.149c1.567,0.149,1.567,0.821,1.567,1.94
			c0,0.597,0,1.194-0.074,2.015c0,0.298-0.15,0.597-0.299,0.746c-0.298,0.224-0.895,0.373-1.716,0.224
			c-1.418-0.075-2.238-0.149-3.208-0.299c-0.299,0-0.672-0.074-1.045-0.074l-0.149-0.075c-1.269-0.074-1.343-0.074-1.493,1.269
			c-0.149,1.417-0.149,2.761-0.149,4.327c0,0.597,0,1.344,0,2.09c0,1.194,0.075,2.238,0.075,3.208
			c0.074,0.896,0.074,1.716,0.074,2.686s0,1.866,0,2.761c0,2.015,0,3.955,0.15,6.119c0.074,0.97,0.149,1.865,0.223,2.835
			l0.075,0.746c0,0.448,0.299,2.239,0.522,2.761c0.373,0.896,1.045,2.089,2.313,2.164c1.194,0,2.164-0.672,2.911-2.089
			c0.373-0.672,0.596-1.94,0.746-2.836l0.074-0.373c0.299-1.492,0.448-3.208,0.523-4.924c0-0.597,0-1.12,0-1.567
			c0-1.045,0-1.791-0.075-3.284c-0.075-0.895-0.149-1.492-0.149-1.94c-0.075-0.373-0.149-0.671-0.149-1.044
			c0-0.97,0.223-1.194,1.119-1.343c0.746-0.075,1.492-0.075,2.313,0.149c0.895,0.298,1.045,0.448,1.343,1.343
			c0.373,1.269,0.522,3.731,0.448,4.999v1.045c-0.075,2.761-0.15,4.85-0.597,7.611c-0.448,2.611-0.896,4.775-2.463,6.939
			c-1.79,2.761-4.253,4.029-6.864,3.582c-2.239-0.373-4.03-1.567-5.298-3.507c-1.492-2.313-1.716-4.029-2.015-7.536v-0.15
			c-0.373-4.999-0.224-9.924-0.074-14.774c0-0.419,0.01-0.839,0.023-1.259L107.579,33.764L107.579,33.764z M45.148,18.029
			c3.731,0,3.731-2.835,3.731-3.134c0.075-1.045,0-2.761-1.641-3.955c-0.821-0.671-2.836-0.447-3.656-0.074
			c-1.791,0.671-2.537,2.089-2.09,3.954C41.791,16.313,42.91,18.029,45.148,18.029L45.148,18.029z"/>
		<path class="st2" d="M62.522,143.11c0.523,0,1.12,0,1.642,0.15c1.567,0.149,1.567,0.82,1.567,1.94c0,0.596,0,1.193-0.075,2.014
			c0,0.299-0.149,0.597-0.298,0.746c-0.299,0.224-0.896,0.373-1.717,0.224c-1.417-0.074-2.238-0.149-3.208-0.298
			c-0.298,0-0.672-0.075-1.045-0.075l-0.149-0.075c-1.268-0.074-1.343-0.074-1.492,1.269c-0.149,1.418-0.149,2.761-0.149,4.328
			c0,0.597,0,1.343,0,2.089c0,1.194,0.074,2.238,0.074,3.208c0.075,0.896,0.075,1.717,0.075,2.687s0,1.865,0,2.76
			c0,2.015,0,3.955,0.149,6.119c0.075,0.97,0.149,1.865,0.224,2.835l0.074,0.747c0,0.447,0.299,2.238,0.523,2.76
			c0.373,0.896,1.044,2.09,2.313,2.164c1.194,0,2.164-0.671,2.91-2.089c0.373-0.672,0.597-1.94,0.746-2.835l0.075-0.373
			c0.298-1.493,0.447-3.209,0.522-4.925c0-0.597,0-1.119,0-1.567c0-1.045,0-1.791-0.075-3.283c-0.074-0.896-0.149-1.493-0.149-1.94
			c-0.074-0.373-0.149-0.672-0.149-1.045c0-0.97,0.224-1.194,1.119-1.343c0.746-0.075,1.493-0.075,2.313,0.149
			c0.896,0.299,1.045,0.448,1.343,1.343c0.373,1.269,0.523,3.731,0.448,5v1.044c-0.075,2.761-0.149,4.85-0.597,7.611
			c-0.448,2.612-0.895,4.776-2.462,6.939c-1.791,2.761-4.253,4.03-6.865,3.582c-2.238-0.373-4.029-1.567-5.298-3.507
			c-1.492-2.313-1.716-4.029-2.014-7.536v-0.149c-0.373-5-0.224-9.924-0.075-14.774c0-1.12,0.075-2.239,0.075-3.358
			c0-1.119,0-2.239,0-3.358c-0.075-1.343-0.075-2.686-0.075-3.955c0.075-0.373,0-0.671-0.224-0.895
			c-0.149-0.224-0.447-0.298-0.821-0.298c-0.522-0.075-1.044-0.075-1.641-0.224c-0.746-0.075-0.821-0.15-0.821-1.194
			c0-0.97,0-1.642,0.149-2.462c0.15-0.896,0.299-1.045,1.418-1.12l0.149,0.075c1.791,0,1.94,0,2.015-1.418
			c0.075-0.224,0.075-0.522,0.075-0.895c0.149-0.896,0.074-1.716,0.074-2.537c0-0.746,0-1.492,0.075-2.463c0-0.074,0-0.149,0-0.223
			c0-0.448,0-1.12,1.194-1.12h0.895c0.373,0,0.821,0,1.492-0.074c0.523,0,0.821,0.074,0.97,0.224
			c0.224,0.223,0.299,0.597,0.299,1.193v0.672c0.074,0.97,0.074,1.94,0,2.91c-0.075,0.448-0.075,0.895-0.075,1.418
			c0,0.196-0.01,0.402-0.023,0.611l-0.028,0.419c-0.013,0.209-0.023,0.415-0.023,0.611c-0.075,0.672,0.149,1.045,0.82,1.12
			c1.418,0.298,2.537,0.447,3.657,0.447H62.522L62.522,143.11z M35.213,179.747c1.567-0.075,1.79-0.373,1.94-3.582v-8.207
			c0-1.418,0.149-12.238,0.074-13.73c0-0.373-0.074-0.746-0.074-1.119c-0.075-0.97,0.149-3.209-0.896-3.283
			c-0.597,0-2.611,0.149-2.835,0.149c-0.522-0.075-0.821-0.149-0.746-2.91c0.074-0.97,0.447-1.492,1.492-1.418
			c0.895,0,1.716,0.075,2.537,0.149c1.492,0.15,2.537,0.224,3.656,0.224c0.299,0,1.343,0.075,1.418,1.269
			c0,0,0.075,1.343,0.075,1.716c-0.075,1.268,0,1.492,0,2.686c0.074,1.567,0.149,3.283,0.074,4.925
			c-0.149,2.984-0.149,5.969-0.074,8.879c0,1.194,0,2.388,0,3.507c0,2.313,0,5.074,0.074,7.686c0,2.611-0.074,3.059,1.716,2.984
			c0.299,0,1.418-0.074,1.866-0.074c1.044,0.149,1.194,0.597,1.343,1.492c0.074,0.522,0.074,2.238-0.149,2.985
			c-0.075,0.447-0.15,0.671-0.747,0.746c-1.193,0.149-3.059,0.074-4.253,0.149c-0.746,0.075-3.059-0.149-3.581-0.149
			c-0.97,0-4.403,0.224-4.701,0.149c-0.522,0-0.97-0.224-0.896-0.97c0-0.597,0-0.597,0-1.119c0-1.418-0.074-0.672,0-2.089
			c0-0.374,0.224-0.896,0.971-1.045H35.213L35.213,179.747z M36.929,141.991c1.791,0.597,3.059,0.448,4.029-0.448
			c0.97-0.895,1.492-2.089,1.492-3.432c0-0.672-0.074-1.268-0.298-1.94c-0.448-1.269-1.343-2.089-2.537-2.388
			c-0.298-0.074-0.597-0.074-0.895-0.074c-0.97,0-1.94,0.298-2.612,0.97c-1.194,1.119-1.716,2.611-1.492,4.178
			C34.84,140.499,35.66,141.543,36.929,141.991L36.929,141.991z"/>
		<path class="st0" d="M98.786,169.077c0.821,0,1.417,0.522,1.716,1.417c0.298,0.821,0.671,1.717,1.119,2.612
			c1.194,2.686,2.313,5.447,3.358,8.133c0,0,1.119,2.686,2.388,4.776c1.193,2.014,2.238,3.805,3.73,5.596
			c1.567,2.015,3.806,3.805,5.746,4.701c2.537,1.044,5.223,1.417,7.611,1.343c0.821-0.075,1.94-0.224,2.164-1.045
			c0.149-0.746,0.149-2.014-0.224-2.91c-0.373-0.97-1.045-1.044-2.015-1.044c-3.581,0.074-5.82-0.896-8.133-3.209
			c-1.94-2.015-3.358-4.328-4.626-6.566c-0.672-1.269-2.612-5.596-3.507-7.387c-0.746-1.567-1.493-3.209-2.089-4.85l-0.224-0.672
			c-0.299-0.671-0.523-1.418-0.15-2.089c0.374-0.672,4.03-1.866,6.343-3.358c2.164-1.418,4.253-3.432,5.521-4.775
			c0.299-0.373,1.791-2.164,2.09-2.91c1.119-2.239,1.716-4.701,1.641-7.537c0-3.507-1.194-6.64-3.656-9.252
			c-2.835-3.134-5.82-4.925-10.222-5.671c-1.567-0.298-2.985-0.671-8.059-0.597c-1.791,0-2.835,0-4.701,0.075
			c-2.984,0-4.402,0.149-5.223,0.373c-0.821,0.298-1.343,0.895-1.418,1.716c0,0.522-0.074,3.656-0.149,4.104
			c-0.149,3.656-0.074,8.581-0.074,9.103c-0.15,2.089-0.299,7.238-0.299,9.402c0,2.089,0.075,5.895,0.149,7.163
			c0,1.119-0.149,6.939-0.074,8.656c0.149,2.387,0.074,3.805,0.224,6.79L87.817,184c0.075,1.194,0.672,1.194,1.418,1.268
			c1.045,0.075,3.208,0.075,3.283-1.343c0,0,0-1.641,0-1.94c0,0-0.075-1.865,0-4.85c0.149-2.537,0-4.253,0.298-5.969
			c0.224-1.418,1.344-1.268,2.09-1.343C96.249,169.599,98.562,169.077,98.786,169.077L98.786,169.077z M127.811,136.246
			c-0.97,1.268-1.641,2.835-2.089,4.85c-0.671,3.357-0.97,7.014-0.821,11.341c0.15,4.403,0.299,9.402,0.821,14.327
			c0,0.522,0.075,1.119,0.149,1.641c0.299,3.507,0.672,7.163,1.717,10.67c0.373,1.045,0.82,2.313,1.716,3.433
			c2.388,2.91,5.447,3.805,9.028,2.611c1.866-0.597,3.284-2.313,4.03-3.656c1.343-2.238,1.567-4.328,1.716-7.909
			c0.074-1.567,0.149-4.552,0.074-6.044c-0.149-1.418-0.223-2.239-0.223-3.656c0-0.672-0.224-2.836-0.224-2.836
			c-0.075-1.044-0.299-1.641-1.343-1.791c-0.523,0-1.045-0.074-1.791,0c-1.269,0-1.418,0.672-1.418,1.866v6.641
			c0.075,1.268,0.075,2.537,0,3.805c-0.149,1.716,0.075,5.447-0.97,7.312c-0.373,0.672-1.268,1.269-1.865,1.418
			c-0.672,0.149-1.567,0.373-2.313-0.074c-2.015-1.194-2.537-5.373-2.836-6.94c-0.522-2.91-0.821-5.969-0.97-8.506
			c0-1.194-0.224-7.163-0.224-8.73c0.075-1.716,0.075-3.731,0.075-3.731c0.149-1.268,0.895-1.268,2.089-1.418
			c0.224,0,3.283-0.074,3.731-0.074c2.313,0,3.134-0.299,5.969-0.373c1.045-0.075,1.418-0.448,1.567-1.418
			c0.075-0.373,0.075-0.746,0.15-1.194c0-0.224,0-0.373,0-0.597c0.298-3.88-0.448-7.238-2.164-10.073
			c-1.717-2.686-3.88-4.029-6.716-4.029c-0.821,0-1.716,0.149-2.761,0.373C130.348,133.783,128.931,134.753,127.811,136.246
			L127.811,136.246z M160.304,133.734c0.517,0.006,1.048,0.054,1.607,0.124c1.418,0.149,2.761,0.671,3.806,1.641
			c2.089,1.94,3.208,4.477,3.656,6.567c0.373,1.865,0.522,3.73,0.597,5.969c0.074,1.045,0,2.985,0,4.029
			c0,1.94-0.224,6.641-0.224,7.536c0,0.747,0,1.493-0.075,2.239c-0.149,2.089-0.298,4.178-0.373,6.193
			c-0.018,0.355-0.037,0.714-0.056,1.075l-0.112,2.178c-0.018,0.361-0.037,0.72-0.056,1.075c-0.149,2.388-0.224,4.775-0.224,6.79
			c0,0.672,0.075,1.268,0.448,1.642c0.373,0.298,0.896,0.373,1.716,0.298c0.075,0,0.224,0,0.299-0.075h0.149
			c0.821-0.074,1.269,0,1.492,0.224c0.15,0.149,0.224,0.597,0.224,1.493c0,0.373,0,0.82,0,1.193c0,0,0,1.12-1.567,1.12
			c0,0-1.94,0.074-2.984,0.149c-2.612,0-5.298,0-7.611-0.299l-0.672-0.074c-0.895-0.149-1.119-0.523-1.119-1.343
			c0-0.746,0.075-0.97,0.224-1.791c0.074-0.448,0.373-0.672,0.97-0.821c0.522-0.149,1.044-0.149,1.641-0.149h0.448l0.299,0.075
			c1.044,0,1.268-0.672,1.268-1.045c0.149-1.119,0.224-2.164,0.298-3.283c0.075-0.448-0.074-0.597-0.223-0.746
			c-0.15-0.075-0.373-0.224-0.821-0.075c-1.866,0.672-3.731,0.895-5.373,0.97c-1.641,0.149-3.432,0.149-5.297-0.597
			c-3.955-1.641-5.298-4.552-5.373-7.611c-0.074-2.537,0.523-4.551,1.94-6.491c2.239-2.985,5.074-4.104,8.954-3.433
			c2.239,0.299,4.03,1.045,5.447,2.239c1.194,0.97,1.269-0.224,1.269-0.224c0.149-0.597,0.298-2.239,0.298-2.761
			c0-0.373,0.224-7.088,0.149-10.745c-0.074-2.164-0.298-3.73-0.97-5.82c-0.373-1.044-2.238-2.686-4.029-2.462
			c-1.343,0.149-2.388,0.522-3.134,1.716c-0.82,1.343-1.044,2.91-1.194,4.776c0,0.298-0.074,0.596-0.074,0.82
			c-0.075,1.045-0.149,2.388-0.149,3.358c0,1.642,0.074,2.612,0.223,3.059c0.075,0.523,0.374,1.045-0.298,1.418
			c-0.597,0.373-2.313,0.97-3.209,0.522c-0.895-0.447-0.97-0.895-1.119-2.835c0-0.448,0-1.119,0-1.94
			c0-1.418,0.075-2.836,0.149-3.731c0.075-0.448,0.075-1.119,0.224-1.791c0.075-0.671,0.299-2.91,0.896-4.626
			c0.746-2.089,1.94-3.805,4.253-4.925c1.153-0.601,2.205-0.799,3.314-0.795H160.304L160.304,133.734z M180.267,133.783
			c1.194,0,1.716,0.374,1.567,1.94c-0.597,5.074-0.224,10.148-0.224,15.297c-0.075,6.342,0.149,12.61-0.075,18.952
			c-0.074,2.686-0.224,5.373-0.224,8.059c-0.074,1.343-0.223,2.387,1.418,2.462c2.462,0.075,3.656-0.149,5.746-0.224
			c1.268-0.149,1.716,0.224,1.79,1.119c0.075,0.97,0,1.045-0.074,2.015c-0.15,1.567-0.224,1.716-1.642,1.716
			c-1.94,0-5.447-0.149-6.566-0.224h-4.477c-0.746-0.149-0.97-0.373-1.045-1.119c0-0.448-0.074-1.641-0.074-2.089
			c0-4.552-0.075-7.76-0.075-12.312c0.075-3.208,0.075-6.417,0.075-9.625c0.074-4.03,0.224-8.133,0.074-12.163
			c-0.074-3.805,0.075-6.268,0-10.073c0-0.075,0-1.418,0-1.567c0-1.865,0.075-2.313,2.09-2.164H180.267L180.267,133.783z
			 M156.857,162.256c-2.044,0.018-3.864,0.998-4.721,2.941c0,0-0.597,1.417-0.597,2.537c0.075,1.94,0.597,2.76,1.791,3.73
			c0.373,0.299,1.716,1.045,4.179,1.045c2.089-0.075,3.88-0.522,5.521-1.418c0.299-0.149,1.12-0.522,1.343-1.193
			c0.033-0.098,0.066-0.311,0.098-0.537l0.028-0.195c0.033-0.227,0.066-0.439,0.098-0.537c0.15-1.418,0.299-2.164-0.895-3.432
			c-1.418-1.567-3.134-2.239-4.925-2.686c-0.625-0.17-1.251-0.254-1.857-0.255H156.857L156.857,162.256z M94.01,164.824
			c-1.044,0-1.492-0.523-1.492-1.567l-0.075-3.88c0-0.747-0.074-1.493-0.074-2.239c-0.075-2.313-0.149-4.775-0.075-7.163
			c0-2.164,0.075-4.402,0.149-6.492c0.075-0.746,0.224-2.835,0.373-3.357c0.299-1.12,0.821-1.567,1.791-1.717
			c3.955-0.596,8.432-0.82,12.61,0.299c2.836,0.746,4.701,2.238,6.417,4.253c1.343,1.418,1.94,2.761,2.463,4.85
			c0.597,2.462-0.075,5.298-1.642,7.686c-2.462,3.805-6.118,6.267-11.64,7.984c-2.015,0.596-3.955,1.044-5.745,1.343
			c-0.448,0.074-0.821,0.149-1.269,0.149c-0.448,0-0.895-0.075-1.268-0.075L94.01,164.824L94.01,164.824z M132.214,146.692
			c1.045,0,2.089-0.075,3.134-0.149c0.326,0,0.667-0.015,1.009-0.031l0.294-0.014c0.343-0.016,0.683-0.03,1.01-0.03
			c0.895-0.075,1.194-0.597,1.343-1.418c0.448-1.865-0.075-3.507-0.746-4.924c-0.667-1.407-1.7-2.153-3.392-2.31l-0.041-0.003
			c-0.82,0-1.716,0.373-2.611,1.193c-1.866,1.717-2.239,4.03-2.313,6.044c0,0.523,0.074,0.896,0.298,1.194
			c0.299,0.299,0.672,0.448,1.269,0.448H132.214L132.214,146.692z"/>
	</g>
	<path class="st3" d="M63.424,83.657c0,0.548-0.187,1.169-0.56,1.866c-0.373,0.696-0.796,1.38-1.268,2.052
		c-0.473,0.671-0.908,1.281-1.306,1.828c-0.398,0.547-0.622,0.92-0.672,1.119c-0.099,0.1-0.136,0.361-0.112,0.784
		c0.025,0.422,0,0.858-0.074,1.305c-0.075,0.448-0.261,0.858-0.56,1.231c-0.298,0.374-0.796,0.56-1.492,0.56
		c-0.299,0-0.572,0.212-0.821,0.634c-0.249,0.423-0.522,0.896-0.821,1.418c-0.298,0.522-0.659,1.02-1.082,1.492
		c-0.422,0.473-0.932,0.784-1.529,0.933c0.398,0.547,0.92,2.288,1.567,5.223c0.049,0.299,0.236,0.709,0.559,1.231
		c0.324,0.523,0.659,1.12,1.008,1.791c0.348,0.672,0.659,1.393,0.932,2.164c0.274,0.771,0.411,1.53,0.411,2.276
		c0,0.199-0.013,0.485-0.038,0.858c-0.024,0.373-0.062,0.746-0.111,1.119c-0.05,0.373-0.088,0.734-0.112,1.082
		c-0.025,0.348-0.038,0.597-0.038,0.746c0,0.15,0.075,0.436,0.224,0.858c0.149,0.423,0.299,0.883,0.448,1.381
		c0.149,0.497,0.298,0.995,0.448,1.492c0.149,0.498,0.223,0.895,0.223,1.194c0,0.398-0.062,0.933-0.186,1.604
		c-0.124,0.672-0.274,1.393-0.448,2.164c-0.174,0.771-0.323,1.542-0.448,2.313c-0.124,0.771-0.186,1.43-0.186,1.978v0.522
		c-0.398-0.547-0.709-1.331-0.933-2.351c-0.224-1.019-0.423-2.052-0.597-3.096c-0.174-1.045-0.335-2.027-0.485-2.948
		c-0.149-0.92-0.323-1.529-0.522-1.828c-0.1-0.149-0.361-0.373-0.783-0.671c-0.423-0.299-0.883-0.647-1.381-1.045
		c-0.497-0.398-0.933-0.821-1.306-1.268c-0.373-0.448-0.559-0.896-0.559-1.343c0-0.249,0.025-0.572,0.074-0.97
		c0.05-0.398,0.075-0.722,0.075-0.97c0-1.294-0.696-2.388-2.089-3.283c-0.746-0.448-1.281-0.908-1.605-1.381
		c-0.323-0.472-0.584-1.02-0.783-1.641c-0.199-0.622-0.386-1.331-0.56-2.127c-0.174-0.796-0.485-1.741-0.932-2.835l-0.97,0.149
		c-0.1,2.089-0.15,3.693-0.15,4.813c0,1.119-0.024,2.076-0.074,2.872c-0.05,0.796-0.149,1.542-0.299,2.239
		c-0.149,0.696-0.398,1.641-0.746,2.835c-0.497,1.741-0.821,3.234-0.97,4.477c-0.149,1.244-0.261,2.375-0.336,3.395
		c-0.074,1.02-0.186,2.015-0.335,2.985c-0.15,0.97-0.498,2.052-1.045,3.246c-0.05-0.448-0.211-1.144-0.485-2.09
		c-0.274-0.945-0.56-1.94-0.858-2.984c-0.299-1.045-0.572-2.065-0.821-3.06c-0.249-0.994-0.373-1.79-0.373-2.387
		c0-0.1,0-0.224,0-0.373c0-0.15,0.025-0.349,0.075-0.597v-0.821c0-0.448-0.1-1.082-0.299-1.903
		c-0.199-0.821-0.435-1.691-0.709-2.611c-0.273-0.921-0.51-1.804-0.709-2.649c-0.199-0.846-0.298-1.493-0.298-1.94
		c0-0.249,0.025-0.647,0.075-1.194c0.049-0.547,0.124-1.244,0.223-2.089c-0.547-0.05-1.019-0.274-1.417-0.672
		c-0.398-0.398-0.746-0.895-1.045-1.492c-0.298-0.597-0.522-1.244-0.671-1.94c-0.15-0.697-0.224-1.393-0.224-2.089
		c0-0.15,0.136-0.287,0.41-0.411c0.274-0.124,0.572-0.236,0.895-0.336c0.324-0.099,0.635-0.174,0.933-0.223
		c0.299-0.05,0.473-0.075,0.523-0.075c-0.747-2.686-1.12-4.651-1.12-5.895c0-0.597,0.1-1.418,0.299-2.462
		c0.199-1.045,0.41-2.077,0.634-3.097c0.224-1.019,0.435-1.952,0.634-2.798c0.199-0.845,0.299-1.393,0.299-1.641
		c-0.846-0.15-1.518-0.771-2.015-1.866c-0.099-0.149-0.249-0.622-0.448-1.417c-0.199-0.796-0.41-1.667-0.634-2.612
		c-0.224-0.945-0.423-1.828-0.597-2.649c-0.174-0.821-0.261-1.355-0.261-1.604c0.05,0.05,0.162-0.062,0.336-0.336
		c0.174-0.274,0.41-0.572,0.709-0.895c0.298-0.324,0.634-0.622,1.007-0.896c0.373-0.273,0.759-0.41,1.157-0.41
		c0.298,0,0.783,0.099,1.455,0.298c0.671,0.199,1.206,0.299,1.604,0.299c0.447,0,0.908-0.224,1.38-0.672
		c0.473-0.447,0.833-0.671,1.082-0.671c0.299,0,0.746,0.074,1.343,0.224c0.597,0.149,1.219,0.323,1.866,0.522
		c0.646,0.199,1.281,0.373,1.902,0.522c0.622,0.149,1.107,0.224,1.455,0.224c0.249,0,0.523-0.087,0.821-0.261
		c0.299-0.174,0.597-0.373,0.896-0.597c0.298-0.224,0.584-0.423,0.858-0.597c0.273-0.174,0.534-0.261,0.783-0.261
		c0.348,0,0.784,0.149,1.306,0.448c0.522,0.298,1.044,0.634,1.567,1.007c0.522,0.373,1.032,0.709,1.529,1.007
		c0.498,0.299,0.946,0.448,1.344,0.448c0.248,0,0.596-0.037,1.044-0.112c0.448-0.075,0.771-0.112,0.97-0.112
		c0.746,0,1.281,0.199,1.604,0.597c0.324,0.398,0.548,0.846,0.672,1.343c0.124,0.497,0.187,0.97,0.187,1.418
		c0,0.447,0.049,0.721,0.149,0.821C62.653,77.539,63.424,80.921,63.424,83.657L63.424,83.657z M97.617,103.749
		c0.043-0.473,0.087-0.928,0.13-1.363c0.05-0.497,0.075-0.895,0.075-1.194c0-0.497-0.1-1.256-0.299-2.276
		c-0.198-1.019-0.41-2.076-0.634-3.171c-0.224-1.094-0.435-2.139-0.634-3.134c-0.199-0.995-0.298-1.766-0.298-2.313
		c0-0.597,0.099-1.455,0.298-2.574c0.199-1.119,0.423-2.288,0.672-3.507c0.248-1.219,0.472-2.388,0.671-3.507
		c0.199-1.119,0.299-1.977,0.299-2.574c0-0.348-0.038-0.896-0.112-1.642c-0.075-0.746-0.15-1.529-0.224-2.35
		c-0.075-0.821-0.149-1.592-0.224-2.313c-0.075-0.722-0.112-1.232-0.112-1.53v-0.672c0.05-0.348,0.348-0.659,0.895-0.932
		c0.548-0.274,1.045-0.411,1.493-0.411c0.149,0,0.36,0.075,0.634,0.224c0.274,0.149,0.572,0.324,0.895,0.523
		c0.324,0.199,0.635,0.373,0.933,0.522c0.299,0.149,0.547,0.224,0.746,0.224c0.547,0,1.119-0.249,1.716-0.746
		c0.597-0.498,1.145-0.747,1.642-0.747c1.492,0,2.462,0.15,2.91,0.448c0.597,0,1.555-0.025,2.873-0.075
		c1.318-0.049,2.698-0.087,4.141-0.111c1.443-0.025,2.81-0.063,4.104-0.112c1.293-0.05,2.263-0.075,2.91-0.075
		c1.045,0,1.691,0.783,1.94,2.35c0.249,1.567,0.373,3.619,0.373,6.156c0,3.582-0.473,5.373-1.418,5.373
		c-0.348,0-0.671-0.162-0.97-0.485c-0.298-0.324-0.584-0.672-0.858-1.045c-0.273-0.373-0.547-0.721-0.821-1.045
		c-0.273-0.323-0.559-0.485-0.858-0.485c-0.348,0-0.82,0.15-1.417,0.448c-0.597,0.299-1.045,0.448-1.343,0.448
		c-0.548,0-1.058-0.149-1.53-0.448c-0.473-0.298-0.883-0.448-1.231-0.448c-0.398,0-0.834,0.199-1.306,0.597
		c-0.473,0.398-0.784,0.597-0.933,0.597c-0.497,0-1.206-0.087-2.126-0.261c-0.921-0.174-1.555-0.261-1.903-0.261
		c-0.696,0-1.045,0.821-1.045,2.462v6.044c0,0.299-0.049,0.659-0.149,1.082c-0.099,0.423-0.224,0.871-0.373,1.343
		c-0.149,0.473-0.274,0.933-0.373,1.381c-0.1,0.447-0.149,0.82-0.149,1.119c0,1.641,2.363,2.462,7.088,2.462
		c0.846,0,1.667-0.062,2.463-0.186c0.795-0.125,1.504-0.262,2.126-0.411c0.622-0.149,1.119-0.273,1.492-0.373
		c0.374-0.099,0.56-0.149,0.56-0.149c0.498,0,0.746,1.318,0.746,3.955c0,2.935-0.796,4.402-2.387,4.402
		c-0.299,0-0.585-0.087-0.859-0.261c-0.273-0.174-0.547-0.373-0.82-0.597c-0.274-0.224-0.548-0.423-0.821-0.597
		c-0.274-0.174-0.56-0.261-0.858-0.261c-0.299,0-0.535,0.112-0.709,0.336c-0.163,0.209-0.316,0.43-0.457,0.662l-0.056,0.093
		c-0.142,0.232-0.294,0.452-0.457,0.662c-0.174,0.224-0.41,0.336-0.709,0.336c-0.348,0-0.796-0.149-1.343-0.448
		c-0.547-0.298-1.107-0.609-1.679-0.932c-0.572-0.324-1.132-0.635-1.679-0.933c-0.547-0.299-0.97-0.448-1.268-0.448
		c-1.144,0-1.716,1.294-1.716,3.88c0,0.498,0.024,1.256,0.074,2.276c0.05,1.02,0.075,1.778,0.075,2.276
		c0,0.497-0.1,1.243-0.299,2.238c-0.199,0.995-0.435,2.015-0.709,3.06c-0.273,1.044-0.509,2.027-0.708,2.947
		c-0.199,0.92-0.299,1.53-0.299,1.828c0,1.045,1.318,1.567,3.955,1.567c2.636,0,5.036-0.211,7.2-0.634
		c2.164-0.423,4.34-0.634,6.529-0.634c1.642,0,2.463,0.273,2.463,0.82c0,1.94-0.125,3.433-0.374,4.477
		c-0.248,1.045-0.845,1.567-1.79,1.567c-0.398,0-0.746-0.099-1.045-0.298c-0.298-0.199-0.584-0.411-0.858-0.634
		c-0.274-0.224-0.535-0.436-0.783-0.635c-0.249-0.199-0.523-0.298-0.821-0.298c-0.498,0-1.032,0.211-1.605,0.634
		c-0.572,0.423-1.156,0.895-1.753,1.418c-0.597,0.522-1.169,0.995-1.716,1.418c-0.547,0.422-1.045,0.634-1.492,0.634
		c-0.249,0-0.51-0.149-0.784-0.448c-0.274-0.298-0.584-0.622-0.933-0.97c-0.348-0.348-0.709-0.672-1.082-0.97
		c-0.373-0.298-0.758-0.448-1.156-0.448c-3.731,0-5.994,0.821-6.79,2.463c0-0.249-0.062-0.771-0.187-1.567
		c-0.124-0.796-0.273-1.679-0.447-2.649c-0.175-0.97-0.324-1.953-0.448-2.948c-0.125-0.994-0.187-1.79-0.187-2.387v-1.418
		c0.05-0.298,0.075-0.56,0.075-0.783c0-0.224,0-0.411,0-0.56c0-0.448-0.1-1.082-0.299-1.903c-0.199-0.821-0.435-1.691-0.708-2.611
		c-0.274-0.921-0.51-1.804-0.709-2.649c-0.199-0.846-0.299-1.493-0.299-1.94c0-0.299,0.025-0.697,0.075-1.194
		c0.043-0.435,0.087-0.89,0.13-1.363L97.617,103.749L97.617,103.749z M76.029,68.287c1.453,0.004,2.4,0.153,2.84,0.447
		c0.597,0,1.555-0.025,2.873-0.075c1.318-0.049,2.699-0.087,4.141-0.111c1.443-0.025,2.811-0.063,4.104-0.112
		c1.294-0.05,2.264-0.075,2.91-0.075c1.045,0,1.692,0.783,1.94,2.35c0.249,1.567,0.373,3.619,0.373,6.156
		c0,3.582-0.472,5.373-1.417,5.373c-0.349,0-0.672-0.162-0.97-0.485c-0.299-0.324-0.585-0.672-0.858-1.045
		c-0.274-0.373-0.548-0.721-0.821-1.045c-0.274-0.323-0.56-0.485-0.858-0.485c-0.348,0-0.821,0.15-1.418,0.448
		c-0.597,0.299-1.045,0.448-1.343,0.448c-0.547,0-1.057-0.149-1.53-0.448c-0.472-0.298-0.883-0.448-1.231-0.448
		c-0.398,0-0.833,0.199-1.306,0.597c-0.472,0.398-0.783,0.597-0.932,0.597c-0.498,0-1.207-0.087-2.127-0.261
		c-0.92-0.174-1.554-0.261-1.903-0.261c-0.696,0-1.044,0.821-1.044,2.462v6.044c0,0.299-0.05,0.659-0.15,1.082
		c-0.099,0.423-0.223,0.871-0.373,1.343c-0.149,0.473-0.273,0.933-0.373,1.381c-0.099,0.447-0.149,0.82-0.149,1.119
		c0,1.641,2.363,2.462,7.089,2.462c0.845,0,1.666-0.062,2.462-0.186c0.796-0.125,1.505-0.262,2.127-0.411
		c0.621-0.149,1.119-0.273,1.492-0.373c0.373-0.099,0.559-0.149,0.559-0.149c0.498,0,0.747,1.318,0.747,3.955
		c0,2.935-0.796,4.402-2.388,4.402c-0.299,0-0.585-0.087-0.858-0.261c-0.274-0.174-0.547-0.373-0.821-0.597
		c-0.274-0.224-0.547-0.423-0.821-0.597c-0.273-0.174-0.559-0.261-0.858-0.261c-0.298,0-0.535,0.112-0.709,0.336
		c-0.163,0.209-0.315,0.43-0.457,0.662l-0.056,0.093c-0.141,0.232-0.293,0.452-0.457,0.662c-0.174,0.224-0.41,0.336-0.709,0.336
		c-0.348,0-0.795-0.149-1.343-0.448c-0.547-0.298-1.106-0.609-1.678-0.932c-0.573-0.324-1.132-0.635-1.679-0.933
		c-0.548-0.299-0.97-0.448-1.269-0.448c-1.144,0-1.716,1.294-1.716,3.88c0,0.498,0.025,1.256,0.075,2.276
		c0.049,1.02,0.074,1.778,0.074,2.276c0,0.497-0.099,1.243-0.298,2.238c-0.199,0.995-0.436,2.015-0.709,3.06
		c-0.274,1.044-0.51,2.027-0.709,2.947c-0.199,0.92-0.298,1.53-0.298,1.828c0,1.045,1.318,1.567,3.954,1.567
		c2.637,0,5.037-0.211,7.201-0.634c2.164-0.423,4.34-0.634,6.529-0.634c1.641,0,2.462,0.273,2.462,0.82
		c0,1.94-0.124,3.433-0.373,4.477c-0.249,1.045-0.846,1.567-1.791,1.567c-0.398,0-0.746-0.099-1.045-0.298
		c-0.298-0.199-0.584-0.411-0.858-0.634c-0.273-0.224-0.534-0.436-0.783-0.635c-0.249-0.199-0.522-0.298-0.821-0.298
		c-0.497,0-1.032,0.211-1.604,0.634c-0.572,0.423-1.157,0.895-1.754,1.418c-0.597,0.522-1.169,0.995-1.716,1.418
		c-0.547,0.422-1.044,0.634-1.492,0.634c-0.249,0-0.51-0.149-0.784-0.448c-0.273-0.298-0.584-0.622-0.932-0.97
		c-0.348-0.348-0.709-0.672-1.082-0.97s-0.759-0.448-1.157-0.448c-3.731,0-5.994,0.821-6.79,2.463c0-0.249-0.062-0.771-0.186-1.567
		c-0.125-0.796-0.274-1.679-0.448-2.649c-0.174-0.97-0.323-1.953-0.448-2.948c-0.124-0.994-0.186-1.79-0.186-2.387v-1.418
		c0.049-0.298,0.074-0.56,0.074-0.783c0-0.224,0-0.411,0-0.56c0-0.448-0.099-1.082-0.298-1.903
		c-0.199-0.821-0.435-1.691-0.709-2.611c-0.274-0.921-0.51-1.804-0.709-2.649c-0.199-0.846-0.298-1.493-0.298-1.94
		c0-0.299,0.025-0.697,0.074-1.194c0.05-0.498,0.1-1.02,0.15-1.567c0.049-0.547,0.099-1.07,0.149-1.567
		c0.049-0.497,0.074-0.895,0.074-1.194c0-0.497-0.099-1.256-0.298-2.276c-0.199-1.019-0.41-2.076-0.634-3.171
		c-0.224-1.094-0.436-2.139-0.635-3.134c-0.199-0.995-0.298-1.766-0.298-2.313c0-0.597,0.099-1.455,0.298-2.574
		c0.199-1.119,0.423-2.288,0.672-3.507c0.249-1.219,0.473-2.388,0.672-3.507c0.198-1.119,0.298-1.977,0.298-2.574
		c0-0.348-0.037-0.896-0.112-1.642c-0.075-0.746-0.149-1.529-0.224-2.35c-0.074-0.821-0.149-1.592-0.224-2.313
		c-0.074-0.722-0.112-1.232-0.112-1.53v-0.672c0.05-0.348,0.349-0.659,0.896-0.932c0.547-0.274,1.044-0.411,1.492-0.411
		c0.149,0,0.361,0.075,0.634,0.224c0.274,0.149,0.572,0.324,0.896,0.523c0.323,0.199,0.634,0.373,0.932,0.522
		c0.299,0.149,0.548,0.224,0.747,0.224c0.547,0,1.119-0.249,1.716-0.746c0.597-0.498,1.144-0.747,1.641-0.747L76.029,68.287
		L76.029,68.287z M195.178,86.889c-0.131-0.531-0.262-1.049-0.392-1.553c-0.174-0.671-0.261-1.181-0.261-1.529
		c0-0.434,0.151-1.066,0.455-1.897l0.06-0.162c0.303-0.83,0.455-1.462,0.455-1.896c0-0.299-0.1-0.547-0.299-0.746
		c-1.393-2.736-2.089-5.447-2.089-8.133c0-2.189,0.746-3.284,2.238-3.284l0.033,0.001c0.342,0.007,0.754,0.118,1.236,0.335
		c0.497,0.224,1.007,0.46,1.53,0.709c0.522,0.249,1.019,0.485,1.492,0.709c0.472,0.224,0.833,0.336,1.082,0.336
		c0.398,0,0.957-0.125,1.679-0.373c0.721-0.249,1.281-0.373,1.679-0.373c1.691,0,2.537,0.795,2.537,2.387
		c0,0.348-0.038,0.784-0.112,1.306c-0.075,0.522-0.15,1.07-0.224,1.642c-0.075,0.572-0.149,1.119-0.224,1.641
		c-0.075,0.522-0.112,0.958-0.112,1.306v0.821c0.05,0.149,0.075,0.423,0.075,0.821c0,0.397-0.075,0.957-0.224,1.678
		c-0.15,0.722-0.224,1.281-0.224,1.679c0,0.299,0.037,0.746,0.112,1.343c0.056,0.448,0.112,0.917,0.168,1.406l0.112,0.994
		c0.056,0.489,0.112,0.958,0.168,1.406c0.074,0.597,0.111,1.044,0.111,1.343c0,0.597-0.099,1.467-0.298,2.611
		c-0.199,1.145-0.41,2.338-0.634,3.582c-0.224,1.244-0.423,2.437-0.597,3.582c-0.174,1.144-0.261,2.014-0.261,2.611
		c0,0.299,0.025,0.672,0.074,1.119c0.05,0.448,0.087,0.908,0.112,1.381c0.025,0.472,0.062,0.92,0.112,1.343
		c0.05,0.423,0.075,0.759,0.075,1.007c0,0.547-0.1,1.331-0.299,2.351c-0.199,1.019-0.435,2.101-0.709,3.245
		c-0.273,1.145-0.509,2.239-0.708,3.284c-0.199,1.044-0.299,1.815-0.299,2.313c0,0.497,0.025,0.796,0.075,0.895v0.97
		c0,0.547-0.112,1.219-0.336,2.015s-0.485,1.629-0.784,2.499c-0.298,0.871-0.584,1.717-0.858,2.537
		c-0.273,0.821-0.435,1.48-0.485,1.978c-0.796-1.493-1.218-2.736-1.268-3.731l-0.746-7.611c-0.299-0.149-0.659-0.398-1.082-0.746
		s-0.846-0.784-1.269-1.306s-0.82-1.132-1.194-1.828c-0.373-0.696-0.634-1.492-0.783-2.388c-0.149-0.945-0.323-1.704-0.522-2.276
		c-0.199-0.572-0.448-1.119-0.747-1.641c-0.298-0.522-0.659-1.095-1.081-1.716c-0.423-0.622-0.908-1.43-1.455-2.425l-0.448-3.06
		c-0.149-1.094-0.498-1.977-1.045-2.648c-0.547-0.672-1.044-1.331-1.492-1.978c-0.796-1.094-1.269-1.641-1.418-1.641
		c-0.298,0-0.448,1.094-0.448,3.283c-0.149,2.636-0.236,4.788-0.261,6.454c-0.025,1.666-0.062,3.109-0.112,4.328
		c-0.049,1.219-0.149,2.338-0.298,3.358c-0.149,1.019-0.398,2.176-0.746,3.469c-0.498,1.741-0.809,3.234-0.933,4.477
		c-0.124,1.244-0.224,2.388-0.298,3.433c-0.075,1.044-0.199,2.051-0.373,3.021c-0.175,0.97-0.56,2.028-1.157,3.172
		c-0.05-0.448-0.211-1.132-0.485-2.052c-0.274-0.921-0.56-1.915-0.858-2.985c-0.299-1.069-0.56-2.102-0.784-3.097
		c-0.223-0.994-0.335-1.79-0.335-2.387c0-0.1,0-0.224,0-0.373c0-0.15,0.025-0.349,0.074-0.597v-0.821
		c0-0.448-0.099-1.082-0.298-1.903c-0.199-0.821-0.435-1.691-0.709-2.611c-0.274-0.921-0.51-1.804-0.709-2.649
		c-0.199-0.846-0.298-1.493-0.298-1.94c0-0.299,0.024-0.697,0.074-1.194c0.05-0.498,0.1-1.02,0.149-1.567
		c0.05-0.547,0.1-1.07,0.15-1.567c0.049-0.497,0.074-0.895,0.074-1.194c0-0.497-0.099-1.256-0.298-2.276
		c-0.199-1.019-0.411-2.076-0.634-3.171c-0.224-1.094-0.436-2.139-0.635-3.134c-0.199-0.995-0.298-1.766-0.298-2.313
		c0-0.497,0.099-1.268,0.298-2.313c0.199-1.045,0.411-2.139,0.635-3.283c0.223-1.144,0.435-2.226,0.634-3.246
		s0.298-1.803,0.298-2.35c0-0.498-0.112-1.182-0.335-2.052c-0.224-0.871-0.461-1.766-0.709-2.686
		c-0.249-0.921-0.485-1.791-0.709-2.612c-0.224-0.821-0.336-1.43-0.336-1.828c0-1.045,0.522-1.567,1.567-1.567
		c0.298,0,0.672,0.062,1.119,0.187c0.448,0.124,0.896,0.273,1.343,0.447c0.448,0.174,0.871,0.324,1.269,0.448
		c0.398,0.124,0.671,0.186,0.821,0.186l2.238,0.15c1.045,0.099,1.567,0.373,1.567,0.82c1.99,0.199,2.985,2.115,2.985,5.746
		c0,1.343,0.037,2.35,0.112,3.022c0.074,0.671,0.199,1.231,0.373,1.679c0.174,0.447,0.398,0.895,0.671,1.343
		c0.274,0.448,0.585,1.119,0.933,2.015c0,0.149,0.012,0.472,0.037,0.97c0.025,0.497,0.075,1.057,0.149,1.678
		c0.075,0.622,0.199,1.244,0.374,1.866c0.174,0.622,0.385,1.131,0.634,1.529c0.199,0.299,0.373,0.734,0.522,1.306
		c0.149,0.572,0.348,1.306,0.597,2.201c0.249,0.896,0.572,1.965,0.97,3.209c0.398,1.244,0.945,2.686,1.642,4.328
		c0.199,0.049,0.373,0.099,0.522,0.149c0.149,0.05,0.298,0.211,0.448,0.485c0.149,0.273,0.298,0.671,0.447,1.194
		c0.15,0.522,0.324,1.306,0.523,2.35c0.149-0.796,0.223-1.741,0.223-2.835c0-0.547-0.062-1.368-0.186-2.463
		c-0.124-1.094-0.261-2.238-0.41-3.432c-0.15-1.194-0.286-2.35-0.411-3.47c-0.124-1.119-0.186-1.952-0.186-2.499
		c0-0.299-0.087-0.784-0.262-1.455c-0.13-0.504-0.261-1.022-0.391-1.553L195.178,86.889L195.178,86.889z M158.69,83.716
		c0.127-1.074,0.246-2.101,0.355-3.081c0.124-1.119,0.186-1.952,0.186-2.499c0-0.348-0.037-0.896-0.112-1.642
		c-0.074-0.746-0.149-1.529-0.224-2.35c-0.074-0.821-0.149-1.592-0.223-2.313c-0.075-0.722-0.112-1.232-0.112-1.53
		c0-0.696,0.174-1.206,0.522-1.53c0.348-0.323,0.945-0.485,1.791-0.485c0.149,0,0.373,0.075,0.671,0.224
		c0.299,0.149,0.622,0.324,0.97,0.523c0.348,0.199,0.672,0.373,0.97,0.522c0.299,0.149,0.523,0.224,0.672,0.224
		c0.597,0,1.181-0.249,1.753-0.746c0.572-0.498,1.132-0.747,1.679-0.747c2.239,0,3.358,0.548,3.358,1.642l-0.448,3.134
		c-0.099,0.746-0.149,1.492-0.149,2.238s-0.025,1.518-0.075,2.313c-0.796,1.393-1.193,2.96-1.193,4.701
		c0,0.299,0.037,0.709,0.111,1.231c0.075,0.523,0.162,1.082,0.262,1.679c0.099,0.597,0.186,1.182,0.261,1.754
		c0.074,0.572,0.112,1.032,0.112,1.38c0,0.448-0.087,0.995-0.261,1.642c-0.175,0.646-0.386,1.417-0.635,2.313
		c-0.447,1.592-0.733,3.358-0.858,5.298c-0.124,1.94-0.224,3.905-0.298,5.894c-0.075,1.99-0.174,3.905-0.299,5.746
		c-0.124,1.84-0.41,3.432-0.858,4.775c-0.497,1.741-0.821,3.234-0.97,4.477c-0.149,1.244-0.261,2.375-0.336,3.395
		c-0.074,1.02-0.186,2.015-0.335,2.985c-0.15,0.97-0.498,2.052-1.045,3.246c-0.05-0.448-0.211-1.144-0.485-2.09
		c-0.274-0.945-0.56-1.94-0.858-2.984c-0.299-1.045-0.572-2.065-0.821-3.06c-0.249-0.994-0.373-1.79-0.373-2.387
		c0-0.1,0-0.224,0-0.373c0-0.15,0.025-0.349,0.075-0.597v-0.821c0-0.448-0.1-1.082-0.299-1.903
		c-0.199-0.821-0.435-1.691-0.709-2.611c-0.273-0.921-0.51-1.804-0.709-2.649c-0.198-0.846-0.298-1.493-0.298-1.94
		c0-0.299,0.025-0.697,0.075-1.194c0.043-0.435,0.087-0.89,0.13-1.363l0.038-0.408c0.043-0.473,0.087-0.928,0.13-1.363
		c0.05-0.497,0.075-0.895,0.075-1.194c0-0.497-0.1-1.256-0.299-2.276c-0.199-1.019-0.41-2.076-0.634-3.171
		c-0.224-1.094-0.435-2.139-0.634-3.134c-0.199-0.995-0.299-1.766-0.299-2.313c0-0.597,0.062-1.455,0.187-2.574
		c0.109-0.979,0.227-2.006,0.355-3.081L158.69,83.716L158.69,83.716z M144.324,66.645c0.346,0.005,0.776,0.154,1.29,0.448
		c0.522,0.298,1.044,0.634,1.567,1.007c0.522,0.373,1.032,0.709,1.529,1.007c0.498,0.299,0.945,0.448,1.343,0.448
		c0.249,0,0.597-0.037,1.045-0.112c0.448-0.075,0.771-0.112,0.97-0.112c0.647,0,1.144,0.199,1.492,0.597
		c0.349,0.398,0.597,0.858,0.746,1.38c0.15,0.523,0.237,1.008,0.262,1.455c0.025,0.448,0.037,0.697,0.037,0.747
		c1.592,4.377,2.388,7.76,2.388,10.147c0,0.597-0.199,1.269-0.597,2.015c-0.398,0.746-0.846,1.48-1.343,2.201
		c-0.498,0.721-0.945,1.343-1.343,1.866c-0.398,0.522-0.597,0.858-0.597,1.007v0.597c0,0.597-0.05,1.256-0.15,1.977
		c-0.099,0.721-0.422,1.082-0.97,1.082c-0.199,0-0.534-0.075-1.007-0.224c-0.473-0.149-0.833-0.224-1.082-0.224
		c-0.348,0-0.572,0.237-0.671,0.709c-0.1,0.473-0.199,0.995-0.299,1.567c-0.099,0.572-0.286,1.095-0.56,1.567
		c-0.273,0.473-0.758,0.709-1.455,0.709c-0.348,0-0.82-0.062-1.417-0.187c-0.597-0.124-1.045-0.186-1.343-0.186
		c-0.299,0-0.697,0.149-1.194,0.448c-0.498,0.298-1.032,0.634-1.604,1.007c-0.572,0.373-1.169,0.734-1.791,1.082
		c-0.622,0.348-1.256,0.547-1.903,0.597c-0.099,2.039-0.162,3.631-0.186,4.775c-0.025,1.144-0.063,2.114-0.112,2.91
		c-0.05,0.796-0.137,1.542-0.262,2.239c-0.124,0.696-0.36,1.641-0.708,2.835c-0.498,1.741-0.809,3.234-0.933,4.477
		c-0.124,1.244-0.236,2.388-0.336,3.433c-0.099,1.044-0.236,2.051-0.41,3.021c-0.174,0.97-0.535,2.028-1.082,3.172
		c-0.05-0.448-0.212-1.144-0.485-2.09c-0.274-0.945-0.56-1.94-0.858-2.984c-0.299-1.045-0.572-2.065-0.821-3.06
		c-0.249-0.994-0.373-1.79-0.373-2.387c0-0.1,0-0.224,0-0.373c0-0.15,0.025-0.349,0.074-0.597v-0.821
		c0-0.448-0.099-1.082-0.298-1.903c-0.199-0.821-0.435-1.691-0.709-2.611c-0.273-0.921-0.51-1.804-0.709-2.649
		c-0.199-0.846-0.298-1.493-0.298-1.94c0-0.249,0.025-0.647,0.074-1.194c0.05-0.547,0.125-1.244,0.224-2.089
		c-0.398-0.1-0.796-0.15-1.194-0.15h-0.746l-1.492-4.477c0.547-0.945,1.467-1.815,2.761-2.611c-0.348-1.443-0.61-2.649-0.784-3.619
		c-0.174-0.97-0.261-1.729-0.261-2.276c0-0.597,0.087-1.405,0.261-2.425s0.373-2.052,0.597-3.096
		c0.224-1.045,0.435-1.99,0.634-2.836c0.199-0.845,0.299-1.393,0.299-1.641c-0.498-0.15-0.97-0.56-1.418-1.232
		c-0.448-0.671-0.833-1.479-1.156-2.425c-0.324-0.945-0.597-1.989-0.821-3.133c-0.224-1.145-0.386-2.264-0.485-3.358
		c0.05,0.05,0.162-0.062,0.336-0.336c0.174-0.274,0.41-0.572,0.708-0.895c0.299-0.324,0.635-0.622,1.008-0.896
		c0.373-0.273,0.758-0.41,1.156-0.41c0.349,0,0.858,0.099,1.53,0.298c0.672,0.199,1.181,0.299,1.53,0.299
		c0.447,0,0.907-0.224,1.38-0.672c0.473-0.447,0.833-0.671,1.082-0.671c0.348,0,0.821,0.074,1.418,0.224
		c0.559,0.139,1.141,0.301,1.744,0.485l0.242,0.074c0.603,0.183,1.185,0.345,1.744,0.485c0.597,0.149,1.07,0.224,1.418,0.224
		c0.199,0,0.448-0.087,0.746-0.261c0.299-0.174,0.597-0.373,0.896-0.597c0.298-0.224,0.597-0.423,0.895-0.597
		c0.299-0.174,0.572-0.261,0.821-0.261H144.324L144.324,66.645z M18.579,127.756h-0.82c-0.1-0.05-0.398-0.075-0.896-0.075
		c-2.039,0-3.755-0.199-5.148-0.597c-1.393-0.398-2.537-1.02-3.433-1.865c-0.895-0.846-1.604-1.928-2.126-3.246
		c-0.522-1.318-0.933-2.923-1.231-4.813c-0.1-0.497-0.324-0.908-0.672-1.231s-0.721-0.697-1.119-1.119
		c-0.398-0.423-0.759-0.995-1.082-1.717c-0.323-0.721-0.485-1.753-0.485-3.096c0-0.299,0.012-0.684,0.037-1.157
		c0.025-0.472,0.05-0.957,0.075-1.455c0.025-0.497,0.05-0.97,0.074-1.417c0.025-0.448,0.038-0.821,0.038-1.12
		c0-1.144-0.125-2.163-0.373-3.059c-0.1-0.298-0.361-0.808-0.784-1.53C0.211,99.538,0,98.854,0,98.208
		c0-0.349,0.062-0.871,0.187-1.567c0.124-0.697,0.261-1.443,0.41-2.239c0.149-0.796,0.286-1.542,0.41-2.238
		c0.125-0.697,0.187-1.219,0.187-1.567c0-0.349-0.062-0.771-0.187-1.269c-0.124-0.497-0.261-1.007-0.41-1.529
		c-0.149-0.523-0.286-1.033-0.41-1.53C0.062,85.771,0,85.324,0,84.926c0-0.547,0.211-1.206,0.634-1.978
		c0.423-0.771,0.896-1.529,1.418-2.275c0.522-0.746,1.007-1.43,1.455-2.052c0.448-0.622,0.672-1.057,0.672-1.306
		c0-0.298-0.1-0.709-0.299-1.231c-0.199-0.523-0.298-0.933-0.298-1.231c0-0.747,0.385-1.443,1.156-2.09
		c0.771-0.646,1.654-1.305,2.649-1.977c0.995-0.672,1.952-1.38,2.873-2.127c0.92-0.746,1.505-1.566,1.753-2.462
		c0.647-0.149,1.219-0.224,1.716-0.224c0.349,0,0.846,0.087,1.493,0.261c0.646,0.175,1.33,0.361,2.052,0.56
		c0.721,0.199,1.417,0.386,2.089,0.56c0.671,0.174,1.181,0.261,1.53,0.261c0.298,0,0.671-0.05,1.119-0.149
		c0.448-0.1,0.92-0.212,1.418-0.336c0.497-0.125,0.97-0.236,1.417-0.336c0.448-0.099,0.821-0.149,1.119-0.149
		c0.548,0,1.095,0.074,1.642,0.224c0.348-0.199,0.672-0.299,0.97-0.299c0.895,0,1.343,0.896,1.343,2.686
		c0,1.493-0.162,2.537-0.485,3.134s-0.671,0.995-1.045,1.194c-0.373,0.199-0.708,0.348-1.007,0.448
		c-0.298,0.099-0.448,0.423-0.448,0.97c0,0.348,0.125,0.846,0.374,1.492c0.248,0.647,0.373,1.144,0.373,1.493
		c0,0.298-0.125,0.609-0.373,0.932c-0.249,0.324-0.51,0.634-0.784,0.933c-0.274,0.298-0.535,0.597-0.783,0.895
		c-0.249,0.299-0.373,0.572-0.373,0.821c0,0.149,0.024,0.435,0.074,0.858c0.05,0.423,0.075,0.734,0.075,0.933
		c0,0.796-0.274,1.194-0.821,1.194c-0.647,0-1.517-0.398-2.612-1.194c-0.099-0.05-0.248-0.249-0.447-0.597
		c-0.199-0.348-0.423-0.709-0.672-1.082c-0.249-0.373-0.522-0.709-0.821-1.007c-0.298-0.299-0.597-0.448-0.895-0.448
		c-0.298,0-0.547,0.149-0.746,0.448c-0.199,0.298-0.398,0.609-0.597,0.932c-0.199,0.324-0.423,0.635-0.672,0.933
		c-0.248,0.299-0.547,0.448-0.895,0.448c-0.298,0-0.659-0.125-1.082-0.373c-0.423-0.249-0.734-0.373-0.933-0.373
		c-0.796,0-1.194,0.696-1.194,2.089c0,0.298,0.025,0.696,0.075,1.194c0.05,0.497,0.1,1.007,0.149,1.529
		c0.05,0.523,0.1,1.033,0.15,1.53c0.049,0.497,0.074,0.895,0.074,1.194c0,0.597-0.074,1.007-0.224,1.231
		c-0.149,0.224-0.372,0.336-0.671,0.336h-0.299c-0.696,0-1.044,0.473-1.044,1.418c0,0.298,0.062,0.758,0.186,1.38
		c0.109,0.544,0.227,1.107,0.355,1.689l0.111,0.502c0.128,0.582,0.246,1.145,0.355,1.689c0.124,0.622,0.187,1.057,0.187,1.306
		c0,0.447-0.075,0.771-0.224,0.97c-0.249,0.249-0.436,0.584-0.56,1.007s-0.236,0.858-0.336,1.306
		c-0.099,0.448-0.199,0.87-0.298,1.268c-0.1,0.398-0.224,0.722-0.373,0.97c-0.249,0.398-0.373,0.722-0.373,0.97
		c0,0.498,0.273,1.169,0.82,2.015c0.349,0.597,0.597,1.094,0.747,1.492c0.149,0.398,0.236,0.796,0.261,1.194
		c0.025,0.398,0.037,0.858,0.037,1.381c0,0.522,0.025,1.181,0.075,1.977c0,0.348,0.174,0.895,0.522,1.642
		c0.348,0.746,0.759,1.492,1.231,2.238c0.473,0.746,0.983,1.405,1.53,1.977c0.547,0.572,1.02,0.858,1.418,0.858
		c0.845,0,1.666-0.261,2.462-0.783c0.796-0.522,1.505-1.194,2.126-2.015c0.622-0.82,1.12-1.753,1.493-2.798
		c0.373-1.044,0.559-2.089,0.559-3.134c0-1.044-0.273-2.064-0.82-3.059c3.183,0.796,4.775,3.233,4.775,7.312
		c0,0.299-0.112,0.66-0.336,1.082c-0.224,0.423-0.46,0.846-0.709,1.269c-0.248,0.423-0.497,0.808-0.746,1.156
		c-0.248,0.349-0.398,0.622-0.447,0.821l-1.344,5.522C23.33,127.159,21.515,127.755,18.579,127.756L18.579,127.756z M145.478,78.434
		c-0.479,0.006-1.129,0.169-1.947,0.49l-0.162,0.065c-0.832,0.326-1.489,0.49-1.971,0.49c-0.348,0-0.547-0.025-0.597-0.075
		c-0.846,0.995-1.269,1.965-1.269,2.91v6.044c0,0.746-0.397,2.463-1.193,5.149c0.646,0.149,1.218,0.224,1.716,0.224
		c0.447,0,0.957-0.1,1.529-0.299s1.132-0.423,1.679-0.671c0.547-0.249,1.045-0.485,1.493-0.709c0.447-0.224,0.771-0.361,0.97-0.411
		c0.049-0.398,0.186-0.92,0.41-1.567c0.224-0.646,0.473-1.293,0.746-1.94c0.274-0.646,0.51-1.243,0.709-1.79
		c0.199-0.548,0.298-0.896,0.298-1.045c0-0.348-0.049-0.846-0.149-1.492c-0.099-0.647-0.149-1.145-0.149-1.493
		c0-0.696,0.1-1.218,0.298-1.567c-0.646-1.542-1.442-2.313-2.387-2.313H145.478L145.478,78.434z M54.022,84.478
		c0-0.348-0.074-0.858-0.224-1.53c-0.149-0.671-0.224-1.156-0.224-1.455v-0.522c0.05-0.05,0.075-0.224,0.075-0.522
		c0-0.547-0.273-1.02-0.821-1.418c-0.547-0.398-1.119-0.597-1.716-0.597c-0.398,0-0.933,0.174-1.604,0.523
		c-0.672,0.348-1.231,0.522-1.679,0.522c-1.244,0-1.865,0.945-1.865,2.835v6.044c0,0.746-0.398,2.463-1.194,5.149h0.373
		c1.791,0,3.271-0.46,4.44-1.381c1.169-0.92,2.076-1.94,2.723-3.059c0.647-1.119,1.094-2.151,1.343-3.097
		C53.898,85.025,54.022,84.528,54.022,84.478L54.022,84.478z M219.82,70.525c-0.05,0.149-0.125,0.423-0.224,0.821
		c-0.1,0.398-0.299,0.87-0.597,1.417c-0.448,0.846-0.771,1.605-0.97,2.276c-0.199,0.672-0.336,1.306-0.411,1.903
		c-0.074,0.597-0.112,1.181-0.112,1.753c0,0.572-0.024,1.182-0.074,1.828c-0.199,1.493-0.398,2.5-0.597,3.022
		c-0.199,0.523-0.423,0.883-0.672,1.082c-0.248,0.199-0.509,0.398-0.783,0.597c-0.274,0.199-0.585,0.722-0.933,1.567l-1.194,2.836
		c-0.248-0.398-0.422-0.908-0.522-1.53c-0.099-0.622-0.199-1.38-0.298-2.276c-0.1-1.144-0.286-2.002-0.56-2.574
		c-0.274-0.572-0.535-1.02-0.784-1.343c-0.248-0.323-0.472-0.634-0.671-0.933c-0.199-0.298-0.299-0.746-0.299-1.343
		c0-0.199,0.013-0.485,0.038-0.858c0.025-0.373,0.062-0.746,0.112-1.119c0.049-0.373,0.087-0.734,0.112-1.082
		c0.025-0.348,0.037-0.597,0.037-0.746c0,0-0.149-0.187-0.448-0.56c-0.298-0.373-0.634-0.821-1.007-1.343s-0.709-1.045-1.007-1.567
		c-0.299-0.522-0.448-0.982-0.448-1.38c0-0.249,0.124-0.374,0.373-0.374c0.099,0,0.224-0.099,0.373-0.298
		c0.149-0.199,0.336-0.41,0.56-0.634c0.224-0.224,0.497-0.435,0.82-0.634c0.324-0.199,0.709-0.299,1.157-0.299h2.089
		c0.398,0,0.734-0.012,1.008-0.037c0.273-0.025,0.534-0.038,0.783-0.038c0.547,0,1.119,0.025,1.716,0.075
		c0.597,0.05,1.157,0.137,1.679,0.261c0.522,0.125,0.945,0.311,1.269,0.56C219.658,69.804,219.82,70.127,219.82,70.525
		L219.82,70.525z"/>
</g>
</svg>
